<?xml version="1.0" encoding="UTF-8"?>
<!DOCTYPE svg PUBLIC "-//W3C//DTD SVG 1.1//EN" "http://www.w3.org/Graphics/SVG/1.1/DTD/svg11.dtd">
<svg xmlns="http://www.w3.org/2000/svg" version="1.1" width="204px" height="192px" style="shape-rendering:geometricPrecision; text-rendering:geometricPrecision; image-rendering:optimizeQuality; fill-rule:evenodd; clip-rule:evenodd" xmlns:xlink="http://www.w3.org/1999/xlink">
<g><path style="opacity:0.667" fill="#959595" d="M 97.5,7.5 C 90.4648,7.32572 83.4648,7.65905 76.5,8.5C 80.2032,6.94498 84.2032,6.27831 88.5,6.5C 91.6862,6.50199 94.6862,6.83533 97.5,7.5 Z"/></g>
<g><path style="opacity:1" fill="#040404" d="M 97.5,7.5 C 100.785,7.92809 103.785,8.92809 106.5,10.5C 106.973,11.9063 107.973,12.573 109.5,12.5C 110.262,14.2624 111.596,15.2624 113.5,15.5C 115.167,16.5 116.5,17.8333 117.5,19.5C 118.786,22.117 120.453,24.4504 122.5,26.5C 122.66,28.153 123.326,29.4863 124.5,30.5C 125.404,31.209 125.737,32.209 125.5,33.5C 126.26,39.8039 126.593,46.1373 126.5,52.5C 126.279,55.0673 125.612,57.4006 124.5,59.5C 123.326,60.5137 122.66,61.847 122.5,63.5C 121.094,63.9731 120.427,64.9731 120.5,66.5C 119.094,66.9731 118.427,67.9731 118.5,69.5C 115.71,73.6283 112.043,76.6283 107.5,78.5C 104.911,78.461 102.911,79.461 101.5,81.5C 94.5226,82.4568 87.5226,82.6234 80.5,82C 77.6473,80.5699 74.6473,79.7366 71.5,79.5C 71.0269,78.0937 70.0269,77.427 68.5,77.5C 66.9731,77.573 65.9731,76.9063 65.5,75.5C 63.5,72.8333 61.1667,70.5 58.5,68.5C 56.6736,66.8525 55.3403,64.8525 54.5,62.5C 52.5418,56.6646 51.2085,50.6646 50.5,44.5C 51.388,37.9473 53.0547,31.614 55.5,25.5C 56.9063,25.0269 57.573,24.0269 57.5,22.5C 61.5259,18.8051 65.5259,15.1384 69.5,11.5C 71.5093,9.93482 73.8427,8.93482 76.5,8.5C 83.4648,7.65905 90.4648,7.32572 97.5,7.5 Z"/></g>
<g><path style="opacity:0.106" fill="#d8d8d8" d="M 106.5,10.5 C 108.027,10.427 109.027,11.0937 109.5,12.5C 107.973,12.573 106.973,11.9063 106.5,10.5 Z"/></g>
<g><path style="opacity:0.125" fill="#c1c1c1" d="M 109.5,12.5 C 111.404,12.7376 112.738,13.7376 113.5,15.5C 111.596,15.2624 110.262,14.2624 109.5,12.5 Z"/></g>
<g><path style="opacity:0.6" fill="#a2a2a2" d="M 69.5,11.5 C 65.5259,15.1384 61.5259,18.8051 57.5,22.5C 60.2227,17.4441 64.2227,13.7774 69.5,11.5 Z"/></g>
<g><path style="opacity:0.294" fill="#9e9e9e" d="M 117.5,19.5 C 120.323,20.9923 121.99,23.3257 122.5,26.5C 120.453,24.4504 118.786,22.117 117.5,19.5 Z"/></g>
<g><path style="opacity:0.341" fill="#aeaeae" d="M 57.5,22.5 C 57.573,24.0269 56.9063,25.0269 55.5,25.5C 55.427,23.9731 56.0937,22.9731 57.5,22.5 Z"/></g>
<g><path style="opacity:0.122" fill="#cdcdcd" d="M 122.5,26.5 C 124.104,27.287 124.771,28.6203 124.5,30.5C 123.326,29.4863 122.66,28.153 122.5,26.5 Z"/></g>
<g><path style="opacity:0.392" fill="#a9a9a9" d="M 125.5,33.5 C 126.984,37.0543 127.651,40.8877 127.5,45C 127.497,47.6903 127.164,50.1903 126.5,52.5C 126.593,46.1373 126.26,39.8039 125.5,33.5 Z"/></g>
<g><path style="opacity:0.173" fill="#b6b6b6" d="M 55.5,25.5 C 53.0547,31.614 51.388,37.9473 50.5,44.5C 51.2085,50.6646 52.5418,56.6646 54.5,62.5C 49.401,53.7889 48.2343,44.4556 51,34.5C 51.6633,30.9647 53.1633,27.9647 55.5,25.5 Z"/></g>
<g><path style="opacity:0.714" fill="#818181" d="M 174.5,56.5 C 165.474,53.8773 156.474,53.8773 147.5,56.5C 156.5,51.1667 165.5,51.1667 174.5,56.5 Z"/></g>
<g><path style="opacity:1" fill="#060606" d="M 174.5,56.5 C 175.492,56.3284 176.158,56.6618 176.5,57.5C 176.973,58.9063 177.973,59.573 179.5,59.5C 180.167,59.5 180.5,59.8333 180.5,60.5C 180.833,61.5 181.5,62.1667 182.5,62.5C 183.5,62.8333 184.167,63.5 184.5,64.5C 184.427,66.0269 185.094,67.0269 186.5,67.5C 186.427,69.0269 187.094,70.0269 188.5,70.5C 189.244,74.6445 189.91,78.8111 190.5,83C 189.941,89.1744 188.274,95.0077 185.5,100.5C 184.094,100.973 183.427,101.973 183.5,103.5C 183.5,104.167 183.167,104.5 182.5,104.5C 180.596,104.738 179.262,105.738 178.5,107.5C 176.973,107.427 175.973,108.094 175.5,109.5C 174.5,109.5 173.5,109.5 172.5,109.5C 172.263,110.791 172.596,111.791 173.5,112.5C 173.833,112.5 174.167,112.5 174.5,112.5C 175.167,113.5 175.833,114.5 176.5,115.5C 177.167,116.833 178.167,117.833 179.5,118.5C 180.6,119.605 181.267,120.938 181.5,122.5C 178.167,126.5 174.5,130.167 170.5,133.5C 169.475,133.897 169.308,134.563 170,135.5C 173.833,139.333 177.667,143.167 181.5,147C 179.536,148.451 178.203,150.284 177.5,152.5C 176.167,153.833 174.833,155.167 173.5,156.5C 170.5,157.5 168.5,159.5 167.5,162.5C 165.833,163.5 164.5,164.833 163.5,166.5C 162.504,166.414 161.671,166.748 161,167.5C 159.549,165.536 157.716,164.203 155.5,163.5C 155.167,162.833 154.833,162.167 154.5,161.5C 152.873,159.37 151.04,157.37 149,155.5C 148.667,140.167 148.333,124.833 148,109.5C 147.329,108.748 146.496,108.414 145.5,108.5C 145.027,107.094 144.027,106.427 142.5,106.5C 141.167,104.5 139.5,102.833 137.5,101.5C 135.674,99.8525 134.34,97.8525 133.5,95.5C 131.476,88.9036 131.142,82.237 132.5,75.5C 134.074,73.8984 134.741,71.8984 134.5,69.5C 134.328,68.5084 134.662,67.8417 135.5,67.5C 136.906,67.0269 137.573,66.0269 137.5,64.5C 139.5,63.1667 141.167,61.5 142.5,59.5C 144.027,59.573 145.027,58.9063 145.5,57.5C 145.842,56.6618 146.508,56.3284 147.5,56.5C 156.474,53.8773 165.474,53.8773 174.5,56.5 Z M 167.5,69.5 C 169.398,81.2825 165.065,84.6159 154.5,79.5C 153.735,76.9039 153.401,74.2372 153.5,71.5C 157.44,65.9685 162.106,65.3018 167.5,69.5 Z"/></g>
<g><path style="opacity:0.573" fill="#a4a4a4" d="M 145.5,57.5 C 145.027,58.9063 144.027,59.573 142.5,59.5C 142.973,58.0937 143.973,57.427 145.5,57.5 Z"/></g>
<g><path style="opacity:0.11" fill="#c6c6c6" d="M 176.5,57.5 C 178.027,57.427 179.027,58.0937 179.5,59.5C 177.973,59.573 176.973,58.9063 176.5,57.5 Z"/></g>
<g><path style="opacity:0.016" fill="#d2d2d2" d="M 180.5,60.5 C 181.833,60.5 182.5,61.1667 182.5,62.5C 181.5,62.1667 180.833,61.5 180.5,60.5 Z"/></g>
<g><path style="opacity:0.145" fill="#cacaca" d="M 124.5,59.5 C 124.771,61.3797 124.104,62.713 122.5,63.5C 122.66,61.847 123.326,60.5137 124.5,59.5 Z"/></g>
<g><path style="opacity:0.345" fill="#cbcbcb" d="M 142.5,59.5 C 141.167,61.5 139.5,63.1667 137.5,64.5C 138.167,61.8333 139.833,60.1667 142.5,59.5 Z"/></g>
<g><path style="opacity:0.286" fill="#a5a5a5" d="M 122.5,63.5 C 122.573,65.0269 121.906,66.0269 120.5,66.5C 120.427,64.9731 121.094,63.9731 122.5,63.5 Z"/></g>
<g><path style="opacity:0.412" fill="#a1a1a1" d="M 137.5,64.5 C 137.573,66.0269 136.906,67.0269 135.5,67.5C 135.427,65.9731 136.094,64.9731 137.5,64.5 Z"/></g>
<g><path style="opacity:0.502" fill="#999999" d="M 184.5,64.5 C 185.906,64.9731 186.573,65.9731 186.5,67.5C 185.094,67.0269 184.427,66.0269 184.5,64.5 Z"/></g>
<g><path style="opacity:0.075" fill="#b2b2b2" d="M 120.5,66.5 C 120.573,68.0269 119.906,69.0269 118.5,69.5C 118.427,67.9731 119.094,66.9731 120.5,66.5 Z"/></g>
<g><path style="opacity:0.047" fill="#a8a8a8" d="M 58.5,68.5 C 61.1667,70.5 63.5,72.8333 65.5,75.5C 62.1667,74.1667 59.8333,71.8333 58.5,68.5 Z"/></g>
<g><path style="opacity:0.255" fill="#bbbbbb" d="M 186.5,67.5 C 187.906,67.9731 188.573,68.9731 188.5,70.5C 187.094,70.0269 186.427,69.0269 186.5,67.5 Z"/></g>
<g><path style="opacity:0.104" fill="#c5c5c5" d="M 153.5,71.5 C 153.401,74.2372 153.735,76.9039 154.5,79.5C 152.974,78.5081 152.307,77.0081 152.5,75C 152.514,73.6153 152.848,72.4486 153.5,71.5 Z"/></g>
<g><path style="opacity:0.808" fill="#575757" d="M 134.5,69.5 C 134.741,71.8984 134.074,73.8984 132.5,75.5C 132.5,74.8333 132.5,74.1667 132.5,73.5C 132.66,71.847 133.326,70.5137 134.5,69.5 Z"/></g>
<g><path style="opacity:0.404" fill="#9a9a9a" d="M 68.5,77.5 C 70.0269,77.427 71.0269,78.0937 71.5,79.5C 69.9731,79.573 68.9731,78.9063 68.5,77.5 Z"/></g>
<g><path style="opacity:0.608" fill="#929292" d="M 107.5,78.5 C 105.97,80.3465 103.97,81.3465 101.5,81.5C 102.911,79.461 104.911,78.461 107.5,78.5 Z"/></g>
<g><path style="opacity:0.227" fill="#bbbbbb" d="M 188.5,70.5 C 191.36,76.7665 192.193,83.4332 191,90.5C 189.914,94.3464 188.081,97.6797 185.5,100.5C 188.274,95.0077 189.941,89.1744 190.5,83C 189.91,78.8111 189.244,74.6445 188.5,70.5 Z"/></g>
<g><path style="opacity:0.176" fill="#b6b6b6" d="M 71.5,79.5 C 74.6473,79.7366 77.6473,80.5699 80.5,82C 87.5226,82.6234 94.5226,82.4568 101.5,81.5C 94.1502,84.8111 86.4836,85.3111 78.5,83C 75.8261,82.3299 73.4927,81.1632 71.5,79.5 Z"/></g>
<g><path style="opacity:0.302" fill="#b8b8b8" d="M 132.5,73.5 C 132.5,74.1667 132.5,74.8333 132.5,75.5C 131.142,82.237 131.476,88.9036 133.5,95.5C 131.206,91.7575 130.206,87.5908 130.5,83C 130.328,79.5226 130.994,76.356 132.5,73.5 Z"/></g>
<g><path style="opacity:0.353" fill="#9c9c9c" d="M 167.5,69.5 C 168.117,69.6107 168.617,69.944 169,70.5C 171,80.1641 167.167,84.3308 157.5,83C 155.574,82.5776 154.574,81.4109 154.5,79.5C 165.065,84.6159 169.398,81.2825 167.5,69.5 Z"/></g>
<g><path style="opacity:1" fill="#040404" d="M 110.5,96.5 C 113.687,97.7308 117.02,98.8974 120.5,100C 121.949,101.102 123.282,102.269 124.5,103.5C 125.6,104.605 126.267,105.938 126.5,107.5C 127.08,109.749 128.413,111.415 130.5,112.5C 130.833,113.5 131.5,114.167 132.5,114.5C 132.973,115.906 133.973,116.573 135.5,116.5C 136.823,132.265 136.823,147.931 135.5,163.5C 98.8333,163.5 62.1667,163.5 25.5,163.5C 24.9304,151.337 25.9304,139.337 28.5,127.5C 28.3284,126.508 28.6618,125.842 29.5,125.5C 32.08,122.011 34.4133,118.344 36.5,114.5C 36.5,113.833 36.8333,113.5 37.5,113.5C 40.1667,111.5 42.5,109.167 44.5,106.5C 46.0269,106.573 47.0269,105.906 47.5,104.5C 47.9731,103.094 48.9731,102.427 50.5,102.5C 52.8185,102.008 54.8185,101.008 56.5,99.5C 60.0477,98.8699 63.3811,97.8699 66.5,96.5C 81.1667,95.1667 95.8333,95.1667 110.5,96.5 Z"/></g>
<g><path style="opacity:0.106" fill="#c3c3c3" d="M 110.5,96.5 C 114.319,96.605 117.986,97.4383 121.5,99C 123.376,99.9184 124.376,101.418 124.5,103.5C 123.282,102.269 121.949,101.102 120.5,100C 117.02,98.8974 113.687,97.7308 110.5,96.5 Z"/></g>
<g><path style="opacity:0.122" fill="#c4c4c4" d="M 66.5,96.5 C 63.3811,97.8699 60.0477,98.8699 56.5,99.5C 59.381,97.32 62.7144,96.32 66.5,96.5 Z"/></g>
<g><path style="opacity:0.231" fill="#bababa" d="M 56.5,99.5 C 54.8185,101.008 52.8185,102.008 50.5,102.5C 51.911,100.461 53.911,99.461 56.5,99.5 Z"/></g>
<g><path style="opacity:0.012" fill="#d6d6d6" d="M 185.5,100.5 C 185.573,102.027 184.906,103.027 183.5,103.5C 183.427,101.973 184.094,100.973 185.5,100.5 Z"/></g>
<g><path style="opacity:0.039" fill="#b4b4b4" d="M 137.5,101.5 C 139.5,102.833 141.167,104.5 142.5,106.5C 139.833,105.833 138.167,104.167 137.5,101.5 Z"/></g>
<g><path style="opacity:0.729" fill="#7f7f7f" d="M 47.5,104.5 C 47.0269,105.906 46.0269,106.573 44.5,106.5C 44.9731,105.094 45.9731,104.427 47.5,104.5 Z"/></g>
<g><path style="opacity:0.051" fill="#d4d4d4" d="M 182.5,104.5 C 181.738,106.262 180.404,107.262 178.5,107.5C 179.262,105.738 180.596,104.738 182.5,104.5 Z"/></g>
<g><path style="opacity:0.569" fill="#7c7c7c" d="M 142.5,106.5 C 144.027,106.427 145.027,107.094 145.5,108.5C 143.973,108.573 142.973,107.906 142.5,106.5 Z"/></g>
<g><path style="opacity:0.051" fill="#c4c4c4" d="M 178.5,107.5 C 178.027,108.906 177.027,109.573 175.5,109.5C 175.973,108.094 176.973,107.427 178.5,107.5 Z"/></g>
<g><path style="opacity:0.537" fill="#9e9e9e" d="M 44.5,106.5 C 42.5,109.167 40.1667,111.5 37.5,113.5C 38.8333,110.167 41.1667,107.833 44.5,106.5 Z"/></g>
<g><path style="opacity:0.502" fill="#9e9e9e" d="M 126.5,107.5 C 128.587,108.585 129.92,110.251 130.5,112.5C 128.413,111.415 127.08,109.749 126.5,107.5 Z"/></g>
<g><path style="opacity:0.223" fill="#bebebe" d="M 145.5,108.5 C 146.496,108.414 147.329,108.748 148,109.5C 148.333,124.833 148.667,140.167 149,155.5C 151.04,157.37 152.873,159.37 154.5,161.5C 151.944,160.457 149.777,158.79 148,156.5C 147.667,141.167 147.333,125.833 147,110.5C 146.283,109.956 145.783,109.289 145.5,108.5 Z"/></g>
<g><path style="opacity:0.318" fill="#afafaf" d="M 175.5,109.5 C 174.449,110.222 173.782,111.222 173.5,112.5C 172.596,111.791 172.263,110.791 172.5,109.5C 173.5,109.5 174.5,109.5 175.5,109.5 Z"/></g>
<g><path style="opacity:0.008" fill="#fefffe" d="M 174.5,111.5 C 175.833,112.167 175.833,112.167 174.5,111.5 Z"/></g>
<g><path style="opacity:0.016" fill="#cfcfcf" d="M 130.5,112.5 C 131.833,112.5 132.5,113.167 132.5,114.5C 131.5,114.167 130.833,113.5 130.5,112.5 Z"/></g>
<g><path style="opacity:0.02" fill="#c7c7c7" d="M 132.5,114.5 C 134.027,114.427 135.027,115.094 135.5,116.5C 133.973,116.573 132.973,115.906 132.5,114.5 Z"/></g>
<g><path style="opacity:0.004" fill="#d0d0d0" d="M 176.5,115.5 C 178.5,115.5 179.5,116.5 179.5,118.5C 178.167,117.833 177.167,116.833 176.5,115.5 Z"/></g>
<g><path style="opacity:0.255" fill="#aeaeae" d="M 36.5,114.5 C 34.4133,118.344 32.08,122.011 29.5,125.5C 30.571,121.024 32.9043,117.357 36.5,114.5 Z"/></g>
<g><path style="opacity:0.012" fill="#d3d3d3" d="M 179.5,118.5 C 182.309,118.958 182.976,120.291 181.5,122.5C 181.267,120.938 180.6,119.605 179.5,118.5 Z"/></g>
<g><path style="opacity:0.651" fill="#a1a1a1" d="M 170.5,133.5 C 174.13,137.631 177.963,141.631 182,145.5C 182.032,148.668 180.532,151.001 177.5,152.5C 178.203,150.284 179.536,148.451 181.5,147C 177.667,143.167 173.833,139.333 170,135.5C 169.308,134.563 169.475,133.897 170.5,133.5 Z"/></g>
<g><path style="opacity:0.078" fill="#bebebe" d="M 173.5,156.5 C 171.833,158.833 169.833,160.833 167.5,162.5C 168.5,159.5 170.5,157.5 173.5,156.5 Z"/></g>
<g><path style="opacity:0.344" fill="#a0a0a0" d="M 28.5,127.5 C 25.9304,139.337 24.9304,151.337 25.5,163.5C 62.1667,163.5 98.8333,163.5 135.5,163.5C 98.6704,164.498 61.6704,164.832 24.5,164.5C 24.3336,155.494 24.5002,146.494 25,137.5C 25.7013,133.891 26.8679,130.558 28.5,127.5 Z"/></g>
<g><path style="opacity:0.529" fill="#b6b6b6" d="M 155.5,163.5 C 157.716,164.203 159.549,165.536 161,167.5C 161.671,166.748 162.504,166.414 163.5,166.5C 162.686,168.273 161.352,168.773 159.5,168C 157.959,166.629 156.625,165.129 155.5,163.5 Z"/></g>
</svg>
