<svg fill="none" height="654" viewBox="0 0 651 654" width="651" xmlns="http://www.w3.org/2000/svg" xmlns:xlink="http://www.w3.org/1999/xlink"><filter id="a" color-interpolation-filters="sRGB" filterUnits="userSpaceOnUse" height="653.176" width="650.92" x="-.000031" y=".000031"><feFlood flood-opacity="0" result="BackgroundImageFix"/><feColorMatrix in="SourceAlpha" result="hardAlpha" type="matrix" values="0 0 0 0 0 0 0 0 0 0 0 0 0 0 0 0 0 0 127 0"/><feOffset dy="10"/><feGaussianBlur stdDeviation="2"/><feComposite in2="hardAlpha" operator="out"/><feColorMatrix type="matrix" values="0 0 0 0 1 0 0 0 0 1 0 0 0 0 1 0 0 0 0.25 0"/><feBlend in2="BackgroundImageFix" mode="normal" result="effect1_dropShadow_1_136"/><feBlend in="SourceGraphic" in2="effect1_dropShadow_1_136" mode="normal" result="shape"/></filter><g filter="url(#a)"><g fill="#231916"><path d="m646.362 286.268c1.633 8.871-.219 16.938-6.921 23.64-5.679 5.703-12.771 8.604-20.302 10.505-5.508 1.389-11.162 2.218-17.499 3.412.634 2.949 1.414 5.508 1.755 8.14.707 5.289 1.609 10.626 1.682 15.939.073 6.044-3.51 9.871-9.042 12.015-5.63 2.218-11.406 2.316-17.353 1.999-15.159-.902-21.496-13.6-18.62-25.274 1.024-4.167 1.657-8.432 2.462-12.576-.707-.316-13.722-1.827-26.565-8.164-8.043-4.509-16.671-11.455-16.89-19.4-.317-10.187 2.486-18.791 8.14-27.394 4.679-7.604 14.038-17.669 22.422-23.738 14.721-10.626 30.83-13.819 48.134-7.945 6.605 2.242 12.966 5.508 19.035 8.993 15.549 8.969 26.321 21.788 29.611 39.872zm-10.211 6.897c3.436-7.799-.415-19.375-7.994-27.248-1.999 1.414-3.9 2.998-6.02 4.192-5.069 2.852-9.505 2.34-13.989-1.316-6.751-5.459-8.555-12.332-5.63-21.154-12.162-8.092-31.927-8.262-45.746 1.291-3.729 2.316-8.603 5.971-14.672 13.039 6.922 6.02 7.117 13.478 2.998 20.131-3.436 5.655-9.992 6.727-16.548 5.435-2.17 8.067 4.898 17.694 14.379 20.643 1.389-3.583 2.047-5.069 4.947-7.677 4.241-3.802 10.285-4.704 15.208-1.877 5.484 3.169 8.555 6.483 8.604 12.99 0 1 .121 1.731-.171 3.242 16.451 1.267 32.609-1.024 48.378-5.411-.999-5.459-1.073-9.578 2.315-13.307 3.607-3.997 9.895-3.217 13.941-2.973zm-1.56 4.509c-8.213-1.584-11.918 1.901-10.504 9.724 4.435-2.169 8.457-4.46 10.504-9.724zm-23.129-33.073c4.338 3.096 8.701 2.096 12.747-3.265-4.826-4.948-10.188-8.555-16.013-11.479-3.436 4.874-1.998 11.016 3.266 14.769zm-18.985 85.375c3.777-1.828 5.971-4.972 5.483-9.359-.609-5.289-1.438-10.577-2.218-16.134-2.315 0-3.387.365-5.678.365-.244 2.218-.585 6.191-.683 8.262 0 1.658-1.364 2.876-1.73.975-.414-2.12-1.145-8.311-1.145-9.188h-4.924c-.755 3.973-1.462 13.112-2.217 16.938-.39 1.999-1.609 1.609-1.658-.243 0-3.632-.024-12.795-.024-16.792h-6.556c-.829 5.751-1.877 11.503-2.437 17.328-.341 3.607 1.34 6.483 4.825 8.091 6.361 2.949 12.722 2.779 18.937-.219zm-25.469-35.486c1.024-6.507-2.656-11.966-8.652-13.209-4.801-.999-9.554 2.388-11.455 8.457 6.63 2.681 12.991 4.899 20.132 4.752zm-25.907-35.729c2.657-4.143 2.096-9.943-1.804-13.136-4.435 3.973-7.506 9.261-9.602 17.158 4.801.585 9.115-.463 11.406-4.022z"/><path d="m645.9 399.499c2.802 15.695-2.023 29.222-12.869 40.701-2.486 2.656-5.8 4.289-9.285 5.362-4.168 1.243-6.41 6.141-10.919 7.847-6.678 2.559-13.356 3.266-20.082.317-.512.317-1.024.488-1.316.829-7.604 8.871-17.134 10.528-27.882 7.555-10.479-2.9-19.473-8.14-26.321-16.768-.536-.658-1.072-1.316-1.633-1.925-.219-.244-.536-.414-1.194-.926-3.12 2.802-6.288 5.678-9.676 8.798 8.262 11.089 8.067 23.738 6.312 36.289-1.047 7.58 1.609 12.966 6.605 17.914 2.608 2.607 5.24 5.191 7.726 7.945 4.046 4.46 7.263 10.09 8.189 16.061 1.194 7.701 0 14.525-6.653 18.937.292 4.557 1.218 8.603.658 12.454-1.853 12.575-13.746 21.422-27.029 20.594-2.827-.195-5.654-.585-8.432-.902-.366.414-.707.634-.78.926-2.072 8.262-8.067 12.82-15.233 16.354-5.142 2.534-10.406 4.679-16.158 5.313-8.067.901-15.695-.293-22.495-5.021-2.876-1.974-5.752-3.948-8.384-5.752-3.558 4.923-6.824 9.798-10.431 14.428-11.82 15.111-38.191 21.935-56.664 8.019-.537-.39-1.146-.707-1.999-1.243-.926.975-1.901 1.828-2.656 2.851-11.016 14.501-26.127 21.325-43.845 22.495-7.994.536-16.11.025-24.153-.609-9.894-.804-18.23-5.654-25.614-11.942-4.168-3.558-7.702-7.897-11.869-12.259-11.796 7.969-24.762 11.918-39.019 5.947-13.575-5.679-22.91-15.501-27.809-30.294-6.482 5.239-12.673 10.236-20.886 10.967-7.921.707-15.427-.902-22.276-4.948-6.8-4.021-13.331-8.53-16.792-16.377-10.967 3.631-21.666 5.605-31.171-2.608-9.335-8.043-10.627-18.572-8.238-29.929-.853-.707-1.462-1.243-2.12-1.706-7.3607-5.435-9.5054-12.966-7.7019-21.447 1.6573-7.775 5.4589-14.428 13.1359-18.084 2.584-1.243 4.997-2.778 7.483-4.192 2.778-1.584 3.826-3.558 3.095-7.043-1.779-8.481-1.609-17.133.39-25.517 1.365-5.801 4.021-11.284 6.361-17.572-2.73-2.535-6.142-5.679-9.773-8.993-1.243 1.413-2.218 2.485-3.169 3.607-7.823 9.212-17.7666 14.696-29.5626 16.914-9.0906 1.706-16.987-.439-23.3237-7.41-.5605-.609-.8286-1.486-1.1698-2.144-7.3359 3.168-13.8919 2.876-20.3748.243-1.5354-.609-3.4364-1.096-4.4357-2.266-3.5826-4.168-8.5788-5.971-13.0876-8.652-2.6565-1.584-5.0449-3.948-6.9216-6.459-6.97027-9.261-10.72352-19.57-10.06549-31.463.65804-11.699 6.38539-17.475 18.18129-17.353h2.6565c.1706-.999.2681-1.828.4144-2.608 1.9985-10.139 10.163-16.475 20.4479-15.159 6.1173.78 12.2102 2.218 18.1325 3.948 5.508 1.633 10.9186 2.315 16.3291.414 12.2833-4.289 23.5426-1.462 34.2426 4.777 9.553 5.581 18.327 12.795 28.052 18.742.097-.78.024-3.266.073-4.314.316-16.109-.39-38.653 8.262-88.956 1.34-7.775 6.507-14.648 13.039-19.108.048-.024.073-.073.146-.097 2.071-1.39 2.242-1.804 2.242-1.804 1.365-70.995 51.595-137.115 122.736-154.005 15.379-3.68 31.074-4.679 47.013-3.631 33.073 2.193 62.514 13.575 88.226 34.169 29.928 24.006 49.06 54.958 56.664 92.637 1.779 8.847 2.169 18.011 2.925 27.028l.317 5.069c11.235 3.583 14.866 16.403 17.279 26.054 2.096 8.432 3.217 17.182 4.07 25.834 1.852 19.424 2.12 38.946 1.414 58.443 0 .488.097.975.219 1.999 1.292-.78 2.388-1.438 3.436-2.096 9.262-5.752 18.328-11.894 27.857-17.207 9.968-5.581 20.643-7.482 31.854-3.534 4.631 1.609 9.7 1.585 14.404.195 6.142-1.779 12.381-3.509 18.693-4.386 11.577-1.56 19.083 3.875 21.861 15.159.195.78.415 1.559.585 2.266 2.73.22 5.24.244 7.702.683 6.921 1.194 10.992 4.874 12.186 11.625zm-8.872 19.376c1.852-4.729 1.779-9.871.878-14.867-.488-2.632-1.365-5.24-4.095-6.556-4.484-2.218-10.577-.463-13.356 3.753-.975 1.487-1.364 2.876-.56 4.631 4.241 9.431 6.775 19.229 5.703 29.733.365.195.755.366 1.097.536 1.243-1.267 2.827-2.315 3.655-3.802 2.413-4.387 4.85-8.822 6.654-13.453zm-19.863 13.745c.122-1.17.195-2.34.146-3.509-.438-9.603-2.997-18.523-8.676-26.371-1.998-2.778-4.509-5.069-8.384-4.63-5.703.707-10.65 8.091-8.749 13.624 3.656 10.553 5.971 21.3 4.752 32.755 11.723 4.533 19.741-.195 20.936-11.869zm-4.557-37.362c1.974-1.803 3.777-3.071 3.655-5.971-.243-5.751-3.217-9.066-9.017-9.334-5.289-.244-10.334 1.097-15.208 2.998-7.945 3.119-15.988 3.558-24.177 1.145-9.992-2.973-19.327-1.194-27.954 4.265-13.478 8.555-26.882 17.182-40.14 26.029-5.606 3.729-11.382 7.653-14.867 13.624-.609 1.072-.951 2.34-2.218 3.948-1.511-6.751 2.73-14.306 7.214-18.742 2.047-1.998 4.289-3.802 6.166-5.946.999-1.146 2.047-2.828 2.047-4.29-.122-15.281.098-30.586-.828-45.843-.829-13.551-2.779-27.053-4.655-40.53-.707-5.118-2.364-10.115-3.924-15.038-.707-2.217-1.999-4.46-4.801-5.459-1.999 27.37-10.285 52.277-25.103 74.943-1.658 2.559-1.365 5.021-1.048 7.702.633 5.508 1.194 11.016 1.73 16.524 1.389 14.038 2.73 28.076 4.168 42.114.195 1.999.706 3.973 1.267 5.922 3.778 13.649 23.178 22.617 35.875 12.601 4.095-3.218 8.555-5.923 12.722-9.067 5.338-4.021 10.724-8.018 14.867-13.599-2.925-4.85-5.922-14.136-3.631-15.622 1.754-.853 2.973 2.096 4.24 3.338 1.073 1.048 1.804 2.413 2.754 3.583 4.875 5.971 9.481 12.186 14.696 17.84 5.752 6.191 13.21 9.822 21.374 11.723 14.672 3.388 21.496-6.41 21.106-16.451-.341-8.384-2.266-16.28-5.459-23.909-1.584-3.777-4.289-6.848-7.848-8.944-4.07-2.437-8.067-1.048-9.943 3.266-1.438 3.339-1.584 6.8-.975 10.382.975 5.752 1.365 10.846 8.116 19.376-2.511.438-4.387-1.121-6.191-2.754-2.193-1.926-3.753-4.387-5.508-8.092-3.046-6.434-4.825-13.234-2.656-20.496 2.876-9.652 12.356-13.551 21.154-8.506 1.974 1.145 3.754 2.608 5.825 4.07 2.559-5.24 5.484-9.627 11.577-11.235 6.288-1.658 10.943 1.413 15.646 4.435zm-75.845 143.062c10.285-.95 7.872-10.577 2.218-18.303-3.412-4.63-7.848-8.506-11.796-12.697-.536.487-.707.56-.78.706-.414.731-.804 1.487-1.194 2.218-7.385 13.307-16.719 24.786-30.416 32.122-3.534 1.901-7.092 3.778-10.724 5.459-1.681.805-3.875 1.316-4.947-.706-1.268-2.413 1.17-2.998 2.607-3.997 6.02-4.29 12.04-8.579 17.962-12.966 5.728-4.241 8.482-10.748 12.138-16.549 7.872-12.405 9.675-25.98 7.189-40.213-.78-4.411-2.388-8.725-6.385-11.796-.926.609-1.804 1.073-2.559 1.706-4.558 3.924-9.944 6.191-15.671 7.702-13.673 3.631-31.196-2.925-35.973-17.475-1.097-3.339-3.924-12.868-4.338-14.209-11.504-.706-22.154 1.536-32.293 5.752-10.845 4.485-21.52 9.432-31.975 14.769-10.334 5.24-19.985 11.821-30.416 16.793-32.805 15.671-66.803 27.978-102.459 35.558-9.091 1.925-18.059 3.729-27.418 2.949-1.487-.122-2.998-.341-4.509-.536-.804-.098-.975-1.195-.244-1.487 6.849-2.925 14.55-1.682 21.594-3.778 7.531-2.266 15.232-4.045 22.763-6.385 7.19-2.267 14.33-4.85 20.935-8.701-1.755-.243-3.436-.146-5.069 0-6.191.488-12.381 1.292-18.596 1.463-18.863.536-37.532-1.219-56.079-4.948-8.993-1.828-17.353-5.02-25.469-9.164-1.632-.706-2.315-2.096-1.925-2.924.536-1.121 2.096-.658 3.29.049.731.414 1.438.706 2.194 1.048 2.412 1.145 4.679 2.047 7.336 3.192 11.503 3.924 18.741 4.314 28.222 4.948 15.427.999 30.903.755 46.355.975 1.779 0 3.558-.317 5.362-.488 1.072-.073 1.097-.56.049-.926-7.336-2.778-14.892-5.118-21.984-8.457-7.043-3.315-13.599-7.604-20.374-11.479 9.919 2.705 19.351 6.385 28.953 9.529 9.822 3.217 19.912 5.24 30.294 5.533-4.874-2.243-9.895-4.07-14.745-6.24-14.818-6.531-28.271-15.378-41.675-24.42-7.482-5.069-15.501-9.383-23.495-13.648-4.777-2.559-10.675-3.51-15.281-3.047-1.413 8.092-2.461 13.551-5.142 20.18-1.268 3.12-4.948 7.165-7.58 9.359-12.088 10.041-28.515 9.188-41.602.097-1.487-1.023-2.925-2.096-4.509-3.217-.585.829-1.048 1.316-1.341 1.877-6.653 13.063-6.872 26.516-1.779 39.994 5.118 13.526 13.307 26.2 24.177 35.485 3.875 3.315 7.58 5.508 13.039 7.75-5.216.683-10.407-.073-15.647-2.778-15.427-8.043-26.589-20.131-33.097-36.314-4.386 2.267-8.457 4.192-12.356 6.459-6.361 3.704-7.092 14.598-1.414 19.253 2.072 1.706 3.315 1.341 4.558-1.316 1.998-4.192 2.413-8.554.634-14.038 1.754 1.048 2.949 2.608 3.68 3.656 1.535 2.559 1.998 3.534 2.291 6.239.682 6.605-1.268 12.917-5.07 18.084-6.068 8.237 3.12 23.445 12.869 23.08 4.582-.195 8.944-.853 13.136-2.584 1.097-.438 2.169-1.754 2.413-2.924 1.535-7.507 1.438-14.721-4.631-20.594-.585-.585-1.023-1.365-1.876-2.486 9.894 2.681 15.695 9.505 16.377 18.742.122 1.828.147 3.68.171 5.532.146 8.676 4.07 15.037 11.625 19.254 1.463.804 2.876 1.706 4.412 2.413 8.042 3.607 15.671 2.9 22.836-2.291 2.729-1.975 5.289-4.119 8.091-6.02 4.509-3.047 9.432-3.9 14.867-2.852 9.944 1.926 16.061 6.873 20.424 15.598.438.878 1.048 2.705 1.145 4.533-12.056-8.643-19.66-12.592-22.812-11.844 1.56 6.385 4.874 11.82 9.432 16.378 10.382 10.382 22.544 14.549 36.947 6.653 3.656-1.998 7.507-3.851 11.504-5.021 14.55-4.289 25.298.317 35.899 11.674-8.383-3.485-16.28-5.727-25.565-5.118 6.653 9.505 14.744 15.842 25.297 17.962 6.508 1.268 13.356.878 20.083 1.048 9.115.244 17.645-2.096 25.688-6.239 5.8-2.998 10.699-7.141 15.5-12.697-9.895-.975-18.352 1.413-26.809 4.289 3.046-2.9 6.069-5.581 9.505-7.628 2.827-1.706 5.971-3.022 9.139-3.9 7.604-2.169 14.989-.755 22.057 2.437 3.363 1.536 6.629 3.217 9.992 4.802 7.872 3.704 15.671 3.338 23.202-.78 2.779-1.511 5.557-3.266 7.872-5.387 5.63-5.118 9.92-11.186 11.821-19.448-9.92 1.17-16.013 7.945-23.617 13.404 1.536-6.19 5.167-10.163 8.628-14.184 6.483-7.482 17.353-9.651 26.078-4.972 3.217 1.706 6.166 4.07 9.066 6.312 3.802 2.998 9.261 6.41 14.55 7.434 3.046.755 7.19.438 10.967-.488 4.826-1.17 9.213-3.85 12.235-7.799 3.046-3.972 4.289-8.7 2.973-15.963-.585-3.12-.926-6.312-.877-9.481.122-6.239 2.632-11.186 8.676-14.013-2.267 4.849-3.436 9.188-2.583 12.551 1.73 6.702 4.728 10.845 11.235 12.478 3.51.878 7.263.926 10.894.805 1.657-.049 3.583-1.097 4.801-2.291 5.192-5.021 6.24-13.161 2.828-19.522-.561-1.048-1.195-2.047-1.828-3.022-4.168-6.459-4.022-10.456-1.585-17.158.878-2.096 3.144-3.778 3.851-4.387-1.535 8.92-.975 13.063 3.558 15.988zm-126.709-132.972c41.798-26.638 75.211-89.347 59.857-153.883-17.182-72.189-79.988-116.131-145.158-115.741-65.657.414-127.074 44.844-143.793 116.204-15.525 66.316 20.155 128.342 59.638 153.103-3.339-4.289-4.509-8.7-4.217-13.672 2.169 2.924 2.657 3.851 4.07 5.605 4.095 5.118 7.921 10.456 12.259 15.355 5.557 6.312 11.528 12.21 19.4 15.768 13.673 6.142 29.003 3.583 37.533-11.016.755-1.316 1.511-2.632 2.315-3.899.585-.878 1.316-1.706 2.437-3.169 1.414 4.606-.146 8.067-1.486 11.333-1.414 3.436-3.51 6.605-5.338 9.919 9.042 2.438 28.539 2.608 36.095-.365-4.412-5.923-8.043-12.137-6.922-19.985 1.292.95 2.047 2.169 2.876 3.315 2.364 3.241 4.509 6.702 7.19 9.675 5.8 6.41 13.599 7.945 21.617 7.092 8.945-.95 19.498-6.312 25.615-12.941 6.483-7.044 11.016-11.942 16.402-20.594 1.316-2.462.829-1.633 3.217-5.63.317 7.726-.365 9.602-3.631 13.477zm43.455 19.522c-.877-13.307-2.023-26.468-3.973-39.872-.926.585-1.243.707-1.462.926-.926.975-1.803 1.998-2.705 2.998-11.625 13.209-24.835 24.566-40.214 33.243-6.287 3.558-12.332 7.287-17.913 11.966-8.432 7.068-18.23 9.725-29.197 7.092-1.389-.341-2.949-.146-4.387-.024-8.506.731-17.011 2.096-25.542 2.145-8.846.073-17.742-1.048-26.589-1.706-3.973-.317-7.872-1.073-11.918 0-2.51.658-5.313.487-7.969.292-9.018-.731-15.94-5.727-22.496-11.406-1.511-1.316-3.046-2.705-4.801-3.582-19.18-9.676-35.558-22.837-49.645-38.946-.926-1.073-1.998-1.999-3.534-3.51-1.316 13.624-2.535 26.419-3.778 39.507 1.365.146 2.17.316 2.998.316 9.676.122 18.523 3.169 26.444 8.482 16.499 11.065 33.925 20.472 51.57 29.441 11.235 5.678 22.812 10.577 34.949 14.038 7.848 2.218 15.354 2.656 22.837-1.584 9.334-5.265 19.253-9.603 28.368-15.233 13.77-8.457 28.101-15.744 42.797-22.373 10.699-4.85 21.666-9.115 33.365-10.991 4.07-.634 8.262-.805 12.771-1.195zm-260.266-45.746c.415-3.729-.097-6.678-2.144-9.87-11.796-18.498-19.425-38.63-22.496-60.393-.584-4.119-1.072-8.263-1.657-12.844-3.826 2.437-5.362 5.849-6.117 9.383-1.365 6.385-2.267 12.868-3.339 19.302-4.241 25.469-5.459 51.083-4.85 76.844.049 2.559 0 3.12 0 3.12 2.315 1.925 7.141 7.092 9.212 9.31 4.412 4.679 7.02 10.626 5.46 17.718-.634-1.584-1.219-2.388-1.877-3.485-3.607-6.117-8.993-10.407-14.745-14.233-12.722-8.457-25.639-16.646-38.434-24.957-9.383-6.093-19.3512-7.945-30.2697-4.679-7.2871 2.169-14.5987 1.779-21.7639-.975-1.8767-.731-3.7777-1.536-5.7274-1.877-3.7776-.658-7.6284-1.389-11.4303-1.413-4.192 0-7.0922 2.632-8.1402 6.361-1.0967 3.899-.39 5.508 3.7289 8.627 12.3077-7.994 18.7418-6.409 27.1013 6.8 2.2179-1.487 4.3382-3.12 6.6292-4.411 6.0441-3.412 17.1576-1.828 19.7898 8.262.7555 2.876 1.1211 5.946 1.048 8.895-.195 9.115-1.2674 13.405-6.751 20.083-1.3648 1.633-6.8241 4.801-8.457 2.559 4.1676-3.802 5.2156-6.727 6.6048-9.749 2.8515-6.166 3.3633-11.576 1.0236-18.449-1.9254-5.581-6.8972-7.141-11.5035-3.364-2.2909 1.877-4.6306 4.168-5.8979 6.776-4.1676 8.554-6.5317 17.669-6.1661 27.247.2437 6.118 2.9977 11.065 8.7251 13.722 3.9238 1.828 8.2133 1.779 12.3565.731 8.2864-2.096 15.9147-5.728 21.7398-12.04 5.24-5.654 9.87-11.845 14.574-17.962 1.999-2.608 4.972-7.384 6.8-6.434 2.803 1.462-1.048 10.821-3.607 15.671.487.658.804 1.243 1.267 1.706 8.628 9.115 19.01 16.012 29.514 22.641 2.925 1.828 7.166 2.949 10.553 2.486 12.015-1.633 20.936-7.823 22.983-20.984.877-5.63 1.486-11.333 2.047-17.011 1.414-14.379 2.608-28.783 4.192-43.114zm-133.8737 33.097c1.6573-4.801-1.0723-10.699-5.8248-13.136-4.1676-2.121-7.9939-.878-11.2354 3.68-5.9223 8.359-8.6763 17.742-8.6032 27.881.0244 2.925.9749 5.922 1.9254 8.75 1.0967 3.241 3.6801 5.191 6.8972 6.092 3.9726 1.146 7.9208 1.292 12.0152-.877 0-3.314-.0731-6.337 0-9.334.2438-7.97 2.1691-15.574 4.8013-23.056zm-28.5393-6.044c.39-1.048.7556-2.315.5362-3.315-.8774-3.436-5.3861-6.312-9.4806-6.361-4.7525 0-7.1896 1.682-8.4326 6.313-.5849 2.096-.8774 4.289-.9261 6.458-.2925 9.213 3.9969 16.817 8.8957 24.152.7555 1.146 2.1447 1.877 3.9482 3.388-.0975-15.33.0975-16.305 5.4592-30.635z"/><path d="m606.027 284.562c.025 7.823-3.948 11.869-11.649 11.942-7.653.073-13.502-5.411-13.77-12.332-.244-6.044 5.824-11.796 13.038-11.967 6.971-.146 12.357 5.338 12.381 12.357zm-4.289 3.509c.975-3.192.707-6.288-1.755-8.847-2.413-2.461-5.63-3.168-8.701-1.925-4.313 1.706-6.97 5.362-6.312 8.603.707 3.51 5.338 6.654 9.603 6.556 3.704-.073 6.312-1.559 7.165-4.387z"/><path d="m572.76 249.954c5.021 3.071 7.458 10.455 5.532 16.012-1.803 5.167-7.701 8.603-13.794 8.019-5.971-.585-11.114-5.752-12.015-11.845-.537-3.851 1.364-7.897 4.387-10.846 2.949-2.022 4.313-3.217 8.31-3.338 3.412 0 5.435.804 7.556 1.974zm.365 14.233c1.268-3.119.537-8.14-1.925-9.773-1.34-.926-2.535-1.682-4.996-1.682-7.458.122-10.602 5.801-8.116 11.553 1.365 3.144 4.119 4.947 7.531 4.825 3.461-.146 6.142-1.535 7.506-4.899z"/><path d="m570.883 127.072c3.217 1.73 4.631 3.826 4.533 7.531-.195 7.531-.073 15.11-.073 22.665h-.024c0 7.556.024 15.111 0 22.666-.024 3.778-1.438 6.702-4.948 8.652-1.901 1.048-3.777 2.096-5.678 3.168 5.776 11.894 10.675 24.275 14.598 36.85-3.558.122-7.092.561-10.577 1.316h-.024c-3.705-11.893-7.702-22.056-13.063-33.121-8.262 4.631-16.5 9.262-24.738 13.941-2.315 1.316-4.265 1.511-6.58.195-13.136-7.433-26.297-14.818-39.482-22.227-1.024-.585-2.218-1.097-2.876-1.974-.926-1.243-2.047-2.779-2.072-4.241-.292-13.088-.341-26.175-.487-39.238-.146-11.211.073-12.138 9.602-17.865 3.12-1.877 6.288-3.729 9.432-5.532-15.183-13.99-31.976-26.0293-50.011-35.9486-.365.2681-.78.5362-1.194.7799-13.209 7.3116-26.37 14.6718-39.482 22.1537-2.315 1.316-4.29 1.438-6.58.146-12.991-7.3354-26.029-14.6226-39.044-21.9341-1.17-.658-2.486-1.2673-3.29-2.2666-.975-1.1942-1.999-2.7783-2.023-4.2406-.195-8.0427-.268-16.1098-.341-24.1281-10.066-1.1942-20.326-1.8522-30.514-1.8522-10.723 0-21.544.7068-32.122 2.0472v21.3496c0 3.997-1.657 6.9216-5.337 8.9445-13.088 7.1896-26.078 14.5012-39.043 21.8853-2.291 1.317-4.266 1.585-6.581.293-13.136-7.4334-26.297-14.8181-39.482-22.2271-.244-.1462-.488-.3168-.756-.463-17.693 9.7974-34.169 21.6661-49.109 35.4121 4.387 2.413 8.75 4.826 13.137 7.19 3.387 1.828 4.923 4.07 4.825 7.92-.195 7.556-.073 15.111-.073 22.666h-.024c0 7.385.073 14.769-.025 22.154-.048 3.729-1.437 6.8-4.898 8.725-13.332 7.434-26.663 14.867-39.921 22.422-2.389 1.365-4.338 1.146-6.581-.097-7.993-4.485-15.963-8.945-23.9569-13.429-5.2156 10.821-9.1638 20.862-12.7952 32.536h-.0244c-3.4851-.755-7.019-1.194-10.5529-1.316 3.8507-12.381 8.6763-24.591 14.3306-36.314-1.438-.804-2.8759-1.608-4.3138-2.413-1.6086-.901-3.339-1.754-4.6063-3.022-1.0724-1.072-2.1935-2.729-2.2178-4.119-.195-14.939-.1219-29.904-.3169-44.819-.0487-4.728 1.7548-7.945 5.8493-10.285 13.1119-7.482 26.1513-15.086 39.1893-22.666 2.072-1.194 3.827-1.438 6.069-.17 5.776 3.265 11.552 6.507 17.353 9.724 16.377-15.4761 34.656-28.7587 54.324-39.5797 0-11.0161-.073-22.0077-.365-32.9994-.366-13.9406-.147-14.8667 11.625-21.7883 11.138-6.556 22.471-12.74642 33.682-19.156181 2.096-1.194215 3.826-1.316074 6.068-.048744 13.283 7.506495 26.614 14.939825 40.043 22.202625 3.217 1.7304 4.679 3.802 4.606 7.4821-.146 4.5088-.122 9.042-.097 13.5264 10.601-1.2674 21.374-1.9498 32.122-1.9498 10.163 0 20.35.6093 30.391 1.7548 0-1.3892 0-2.7784-.048-4.1676-.147-11.674.024-12.6002 10.089-18.62 11.675-6.9703 23.617-13.47755 35.388-20.252897 2.145-1.242958 3.875-1.169843 6.044.048744 13.307 7.506493 26.614 14.964253 40.043 22.227053 3.242 1.7547 4.558 3.8994 4.485 7.5552-.195 7.5309-.074 15.1105-.074 22.6657h-.024c0 6.9216.024 13.8432 0 20.7647 20.204 10.9429 38.922 24.4936 55.665 40.3113 5.63-3.193 11.284-6.361 16.89-9.603 2.12-1.218 3.875-1.243 6.068 0 13.283 7.507 26.614 14.964 40.043 22.227zm-2.632 53.91v-47.379c-.804-.585-1.316-.999-1.901-1.34-11.796-6.751-23.64-13.429-35.388-20.253-2.388-1.365-4.289-1.097-6.531.244-10.943 6.507-21.886 13.087-33.024 19.278-3.826 2.12-4.947 4.85-4.947 8.871.048 12.576 0 25.176-.171 37.801-.024 2.583.95 3.924 3.12 5.093 5.166 2.779 10.163 5.874 15.329 8.652 7.921 4.29 15.939 8.433 23.324 12.308 13.819-8.018 27.028-15.671 40.213-23.275zm-123.077-103.9454v-47.5249c-12.917-7.3846-25.322-14.428-37.654-21.59334-2.267-1.31607-4.071-.80426-6.093.36558-11.26 6.67786-22.471 13.42886-33.877 19.81426-3.168 1.7547-4.119 3.9969-4.119 7.2627-.024 13.0877-.073 26.1996-.219 39.3116-.025 2.1448.707 3.3877 2.559 4.387 5.167 2.8027 10.187 5.8492 15.354 8.6519 8.091 4.3869 16.232 8.652 23.835 12.6736 13.868-8.0429 27.199-15.7688 40.238-23.3484zm-158.49.0731v-47.6224c-12.746-7.3115-25.151-14.3305-37.483-21.49582-2.242-1.31608-4.046-.97487-6.093.24372-10.967 6.4829-21.91 13.0389-33.024 19.3024-3.656 2.0472-5.215 4.5575-5.191 8.7251.146 12.7708 0 25.5416-.122 38.288 0 2.0716.536 3.412 2.437 4.46 13.21 7.2384 26.37 14.5743 38.971 21.5443 13.965-8.0911 27.15-15.7438 40.481-23.4453zm-122.565 104.0183v-47.72c-12.893-7.384-25.298-14.476-37.654-21.593-1.755-.999-3.339-1.097-5.191-.122-13.161 7.044-26.0538 14.501-39.0196 23.226 0 14.38.0244 29.003 0 43.626 0 2.047.6337 3.388 2.5347 4.411 5.1912 2.779 10.1874 5.849 15.3539 8.652 8.092 4.387 16.256 8.652 23.982 12.747 7.117-4.266 13.697-8.287 20.375-12.162 6.629-3.851 13.38-7.555 19.643-11.089z"/><path d="m565.448 137.771c.585 1.097-1.218 2.218-1.706 2.632-4.46 3.607-28.368 15.842-31.634 15.988-1.56 0-.341-1.755.487-2.218 9.164-5.118 18.352-10.163 27.589-15.183 1.194-.634 4.753-2.096 5.289-1.219z"/><path d="m529.719 166.505c.074 9.603.269 18.718-1.121 28.783-.268 2.023-1.072 1.974-1.364.195-.415-1.511-.464-4.679-.488-6.215-.073-8.505.268-14.33.414-22.86 0-.853.366-4.533 1.195-4.533 1.048 0 1.34 3.436 1.364 4.63z"/><path d="m498.67 139.306c7.36 4.241 27.028 15.55 26.346 16.793-1 2.022-16.451-7.41-28.052-14.453-1.365-.926-3.875-2.925-3.12-4.07.707-.487 3.875 1.145 4.85 1.706z"/><path d="m474.128 518.092c10.845-.414 17.645-1.779 24.786-4.606-7.483 5.678-11.26 7.92-24.786 4.606z"/><path d="m498.402 522.357c-5.313 8.043-12.771 10.797-32.683 4.387 17.475 1.462 22.373-.658 32.683-4.387z"/><path d="m483.998 534.104c-8.53 5.801-12.551 11.455-33.316 2.096 18.522 1.755 23.446.902 33.316-2.096z"/><path d="m348.126 524.502c32.682-14.989 65.34-29.978 98.023-44.966-15.428 16.597-91.638 51.497-98.023 44.966z"/><path d="m445.71 297.601c.536 14.233-2.34 27.978-6.41 41.529-2.023 6.776-4.533 13.307-8.14 19.424-1.584 2.681-3.412 5.118-6.093 6.873 1.316-3.997 2.998-7.75 4.509-11.576 4.46-11.114 6.824-19.473 9.139-31.123 2.194-10.992 3.705-26.029 2.413-37.24-.073-.439-.097-1.145 0-1.609.025-.804.268-1.535 1.536-.268.999 1.048 2.12 4.217 2.388 5.484.634 3.388.536 5.216.634 8.53z"/><path d="m442.201 33.5087c.584 1.0967-1.219 2.2178-1.706 2.6321-4.46 3.607-28.369 15.8416-31.635 15.9879-1.56 0-.341-1.7548.487-2.2179 9.164-5.118 18.352-10.1873 27.565-15.1835 1.194-.6337 4.752-2.1204 5.289-1.2186z"/><path d="m435.206 231.895c.195.804.439 2.169-.585 2.656-1.609.536-2.657-3.339-3.241-4.119-3.169-6.775-4.558-9.09-9.164-14.598-8.043-8.872-26.712-11.455-36.826-7.141-6.702 3.363-10.139 5.483-14.428 9.407-.731.683-1.925 0-1.657-.975 1.072-3.777 4.167-8.408 5.581-9.895 6.02-6.068 16.646-12.307 30.733-9.602 17.84 3.095 27.832 18.157 29.611 34.267z"/><path d="m431.038 258.338c5.46 22.129 3.144 43.65-.219 65.804-3.168 20.984-12.503 40.14-22.154 58.857-3.948 7.677-9.042 14.599-15.184 20.619-6.117 6.02-12.575 11.674-21.227 13.916-9.213 2.413-16.11-.244-21.252-8.189-.537-.828-1.146-1.681-1.487-2.608-1.926-4.996-4.143-9.919-5.581-15.061-4.436-15.842-5.167-32.074-4.558-48.598.683-19.716 2.413-39.019 5.849-58.394 2.316-13.161 6.483-25.615 13.551-37.118 5.24-8.531 11.625-15.72 20.765-19.449 13.136-5.362 26.589-4.558 37.922 4.752 7.531 6.166 11.431 16.671 13.624 25.493zm-9.651 65.365c2.925-19.595 3.339-34.852.78-54.617-3.51-23.226-22.641-32.244-34.608-29.1-8.822 2.827-13.672 7.604-16.134 10.553-4.777 5.557-6.8 9.822-9.505 17.743 1.877.853 3.436 1.096 5.021 1.608 11.552 3.729 19.936 11.406 26.589 21.252 10.894 16.086 12.015 33.731 8.36 52.131-2.779 13.819-8.555 26.078-18.693 36.071-8.067 7.993-17.183 13.916-28.93 14.598 2.389 10.383 12.211 15.33 21.252 10.553 4.071-2.169 7.897-5.118 11.26-8.335 10.334-9.895 17.304-22.154 23.348-34.998 5.606-11.918 9.237-24.493 11.309-37.459zm-41.091 48.719c12.064-15.525 18.133-33.316 15.988-53.106-1.755-16.158-9.383-29.246-23.007-38.459-4.192-2.827-9.115-4.192-14.038-4.192-1.023 3.388-2.169 6.63-2.851 10.797 2.729-.487 5.386-.512 8.018.439 11.211 4.07 16.938 12.868 19.4 23.908 3.388 15.233 1.828 30.1-4.996 44.186-5.655 11.723-17.036 22.593-29.003 22.447.317 3.266.61 5.167 1.828 9.237 12.503-.22 21.667-6.264 28.661-15.233zm-15.281-30.343c2.242-6.02 3.559-12.088 1.487-18.449-.877-2.779-2.291-5.801-5.874-6.069-2.461-.17-5.751 2.949-7.019 7.092-1.34 4.217-1.828 7.702-1.828 11.845s.049 8.116.707 12.064c.756 4.582 3.802 5.459 6.922 2.194 2.339-2.462 4.435-5.508 5.605-8.677z"/><path d="m397.966 564.837c19.814-.707 38.922-4.826 57.663-11.236-9.431 11.114-42.626 17.426-57.663 11.236z"/><path d="m427.675 457.845.414.658c-1.194 1.097-2.364 2.218-3.558 3.266-16.5 14.355-35.217 25.249-55.056 34.096-18.693 8.384-37.678 15.988-57.346 21.764-4.558 1.34-9.115 2.364-13.868 1.486-1.048-.195-2.023-.731-4.216-1.559 4.387-1.487 7.604-2.852 10.943-3.632 16.158-3.777 31.074-10.723 45.819-17.913 24.298-11.845 48.329-24.128 72.481-36.216 1.438-.707 2.949-1.316 4.387-1.95z"/><path d="m406.472 62.243c.073 9.6024.268 18.7175-1.122 28.783-.268 2.0228-1.072 1.9741-1.364.195-.415-1.5111-.463-4.6794-.488-6.2148-.073-8.5058.268-14.3306.415-22.8607 0-.853.365-4.5332 1.194-4.5332 1.048 0 1.365 3.4365 1.365 4.6307z"/><path d="m375.422 35.0685c7.36 4.2407 27.028 15.5491 26.322 16.7921-1 2.0229-16.451-7.409-28.052-14.4524-1.365-.9262-3.875-2.9246-3.12-4.0701.707-.4631 3.851 1.1698 4.85 1.7304z"/><path d="m380.15 577.705c1.828.658 3.826 1.194 4.631 3.9-19.595-3.705-39.044-5.582-58.614-5.801-19.498-.219-38.751 2.218-57.81 6.532-1.194.317-1.414-.463-.487-1.316 1.121-.707 2.169-1.633 3.387-2.048 11.723-4.021 14.769-5.654 26.541-9.505 2.218-.706 9.968-2.729 16.938-3.533 17.621-1.438 30.319-1.097 47.013 4.85 5.07 1.779 13.332 5.166 18.377 6.97z"/><path d="m311.568 343.054c.585 16.524-.146 32.756-4.557 48.597-1.438 5.143-3.681 10.066-5.582 15.062-.365.926-.95 1.779-1.486 2.608-5.143 7.921-12.04 10.601-21.252 8.189-8.652-2.243-15.111-7.921-21.228-13.917-6.142-6.019-11.236-12.941-15.184-20.618-9.675-18.718-18.985-37.874-22.154-58.858-3.363-22.154-5.678-43.674-.219-65.803 2.193-8.823 6.093-19.327 13.624-25.493 11.357-9.31 24.786-10.115 37.922-4.753 9.14 3.729 15.525 10.919 20.765 19.449 7.092 11.503 11.235 23.957 13.551 37.118 3.436 19.351 5.166 38.678 5.849 58.395zm-10.504 35.388c-11.967.146-23.348-10.724-29.002-22.447-6.8-14.086-8.384-28.929-4.997-44.186 2.462-11.04 8.189-19.838 19.4-23.908 2.632-.951 5.289-.926 8.018-.439-.706-4.143-1.827-7.385-2.851-10.797-4.947 0-9.846 1.365-14.038 4.192-13.624 9.213-21.252 22.276-23.007 38.459-2.12 19.814 3.948 37.581 15.988 53.106 6.97 8.969 16.158 15.013 28.661 15.232 1.194-4.07 1.511-5.971 1.828-9.237zm-2.657-29.856c.658-3.948.707-7.896.707-12.064 0-4.167-.487-7.652-1.828-11.844-1.267-4.143-4.557-7.263-7.019-7.092-3.582.268-4.996 3.314-5.873 6.068-2.048 6.361-.756 12.43 1.486 18.45 1.17 3.168 3.266 6.214 5.606 8.676 3.119 3.266 6.141 2.388 6.921-2.194zm-9.407-80.28c-2.73-7.897-4.728-12.186-9.505-17.743-2.462-2.973-7.312-7.75-16.134-10.553-11.967-3.168-31.099 5.85-34.608 29.1-2.559 19.766-2.145 35.022.78 54.617 2.071 12.966 5.703 25.517 11.308 37.46 6.02 12.843 12.99 25.078 23.348 34.997 3.364 3.217 7.19 6.191 11.26 8.336 9.042 4.801 18.864-.147 21.228-10.553-11.747-.707-20.862-6.63-28.929-14.599-10.139-9.993-15.939-22.276-18.693-36.07-3.681-18.401-2.535-36.046 8.359-52.131 6.654-9.822 15.037-17.499 26.59-21.253 1.559-.487 3.119-.755 5.02-1.608z"/><path d="m273.402 537.882c24.396-4.607 34.705-6.142 58.029-14.258-20.131 11.406-29.417 16.865-58.029 14.258z"/><path d="m281.566 217.15c.293.95-.926 1.657-1.657.975-4.289-3.924-7.726-6.045-14.428-9.408-10.114-4.338-28.783-1.755-36.826 7.141-4.606 5.508-6.019 7.823-9.163 14.599-.585.804-1.658 4.679-3.242 4.118-1.048-.511-.804-1.876-.585-2.656 1.755-16.11 11.747-31.172 29.612-34.267 14.087-2.705 24.713 3.559 30.733 9.603 1.389 1.486 4.508 6.141 5.581 9.895z"/><path d="m280.25 33.3381c.756 1.1455-1.754 3.1683-3.119 4.0701-11.626 7.0434-27.077 16.4753-28.076 14.4524-.683-1.243 18.961-12.5514 26.345-16.7921.975-.5606 4.144-2.1935 4.85-1.7304z"/><path d="m255.464 563.643c-1.559 2.778-3.509 2.875-5.459 2.949-8.92.341-17.791-.244-26.443-2.608-6.288-1.706-12.479-3.753-18.62-5.971-2.413-.878-4.509-2.632-6.751-3.997-.951-.926-.61-1.17.365-.926 18.572 4.679 37.118 9.407 56.908 10.553z"/><path d="m246.91 62.1455c.146 8.5301.512 14.3549.414 22.8607 0 1.5354-.049 4.7037-.487 6.2148-.317 1.7791-1.097 1.8278-1.365-.195-1.365-10.0655-1.194-19.1806-1.121-28.783 0-1.1942.317-4.6307 1.365-4.6307.804 0 1.17 3.6802 1.194 4.5332z"/><path d="m241.499 49.9108c.805.4631 2.048 2.2179.488 2.2179-3.242-.1463-27.175-12.3809-31.635-15.9879-.512-.4143-2.315-1.5354-1.706-2.6321.536-.9018 4.07.5849 5.289 1.2186 9.212 4.9962 18.401 10.0655 27.564 15.1835z"/><path d="m221.295 353.826c1.536 3.827 3.217 7.58 4.509 11.577-2.681-1.755-4.509-4.168-6.093-6.873-3.607-6.093-6.117-12.624-8.14-19.424-4.07-13.551-6.946-27.296-6.41-41.53.122-3.314 0-5.118.634-8.53.268-1.267 1.389-4.46 2.388-5.483 1.267-1.268 1.487-.537 1.536.268.097.487.073 1.17 0 1.608-1.292 11.236.219 26.249 2.412 37.24 2.316 11.65 4.68 20.01 9.14 31.123z"/><path d="m191.659 530.838c.341.049.366.561.024.634-12.965 3.046-22.933.634-35.265-8.262-.171-.122-.025-.39.17-.317 16.5 5.581 22.885 6.532 35.047 7.945z"/><path d="m185.128 540.319c6.58.195 6.799-.488 10.382-.829-6.191 4.801-16.451 4.753-23.129-1.194 3.095.804 7.141 1.877 12.747 2.047z"/><path d="m158.904 514.217c.633-1.755 20.667 2.656 20.155 3.802-.731 1.535-20.862-1.974-20.155-3.802z"/><path d="m157.904 137.6c.756 1.146-1.755 3.144-3.119 4.07-11.626 7.044-27.053 16.476-28.052 14.453-.707-1.243 18.961-12.552 26.346-16.792.975-.561 4.143-2.194 4.85-1.706z"/><path d="m123.735 269.11c5.63 8.603 8.433 17.207 8.14 27.394-.243 7.945-8.871 14.891-16.914 19.4-12.819 6.361-25.8581 7.872-26.5649 8.164.8043 4.144 1.4379 8.409 2.4616 12.576 2.8514 11.674-3.4852 24.372-18.6201 25.274-5.9223.341-11.7228.219-17.3526-1.999-5.5568-2.169-9.1394-5.971-9.042-12.039.0732-5.313.9749-10.626 1.6817-15.939.3412-2.633 1.0967-5.192 1.7548-8.141-6.3611-1.194-12.0153-2.022-17.4989-3.412-7.5309-1.901-14.5987-4.801-20.3017-10.504-6.70222-6.702-8.55448-14.769-6.92157-23.64 3.29018-18.06 14.06247-30.904 29.61167-39.873 6.0685-3.509 12.4052-6.751 19.0343-8.993 17.2796-5.849 33.4137-2.681 48.1097 7.945 8.384 6.069 17.743 16.159 22.446 23.738zm-15.744 39.092c9.456-2.949 16.524-12.575 14.379-20.642-6.58 1.291-13.112.219-16.572-5.435-4.095-6.678-3.9-14.112 3.022-20.131-6.069-7.068-10.9433-10.7-14.6965-13.039-13.8188-9.554-33.5599-9.383-45.7458-1.292 2.949 8.823 1.0967 15.671-5.6299 21.155-4.5087 3.655-8.9444 4.167-14.0137 1.316-2.1204-1.194-4.0457-2.779-6.0198-4.192-7.604 7.872-11.4547 19.473-7.994 27.247 4.2651.317 9.042-1.194 12.649 2.779 3.3876 3.753 4.6306 8.043 3.607 13.502 15.7685 4.387 31.6345 6.921 48.0367 5.654.0731-1.487.1706-2.486.195-3.485 0-6.532 3.1195-9.822 8.6032-12.99 4.8987-2.827 10.9429-1.926 15.2078 1.876 2.9 2.608 3.558 4.095 4.948 7.677zm1.803-29.416c2.291 3.558 6.63 4.63 11.406 4.021-2.096-7.896-5.191-13.185-9.602-17.158-3.899 3.193-4.46 8.994-1.804 13.137zm-5.8 30.976c-1.925-6.068-6.6535-9.456-11.4547-8.457-5.9955 1.243-9.6756 6.702-8.652 13.21 7.141.146 13.5263-2.072 20.1307-4.753zm-26.6383 40.457c3.5095-1.608 5.1912-4.46 4.8256-8.091-.5849-5.801-1.6085-11.577-2.4372-17.328h-6.5803c0 3.997-.0244 13.136-.0244 16.792-.0488 1.876-1.2673 2.242-1.6573.243-.7555-3.826-1.4379-12.965-2.2178-16.938h-4.9231c0 .877-.7312 7.068-1.1455 9.188-.3656 1.901-1.7304.707-1.7304-.975-.0975-2.071-.4143-6.019-.6824-8.262-2.2666 0-3.3389-.365-5.6542-.365-.7799 5.557-1.6086 10.845-2.2178 16.134-.5119 4.387 1.706 7.531 5.4592 9.359 6.2148 2.997 12.5758 3.168 18.9369.219zm-37.9224-85.593c5.2643-3.753 6.7022-9.895 3.2658-14.769-5.8249 2.949-11.1866 6.531-15.9879 11.479 4.0457 5.386 8.4083 6.361 12.7465 3.265zm-12.6246 42.797c1.438-7.824-2.2665-11.309-10.5042-9.725 2.0472 5.289 6.0686 7.58 10.5042 9.725z"/><path d="m124.564 166.408c.146 8.53.487 14.355.414 22.86 0 1.536-.049 4.704-.487 6.215-.317 1.779-1.097 1.828-1.365-.195-1.365-10.065-1.194-19.18-1.121-28.783 0-1.194.317-4.63 1.365-4.63.804 0 1.169 3.68 1.194 4.533z"/><path d="m119.153 154.173c.805.463 2.047 2.218.488 2.218-3.217-.146-27.1748-12.381-31.6105-15.988-.5118-.414-2.3153-1.535-1.7304-2.632.5362-.877 4.0945.585 5.2887 1.219 9.2372 5.02 18.4002 10.065 27.5892 15.183z"/><path d="m94.0016 251.319c3.0221 2.949 4.9474 6.97 4.3869 10.845-.8774 6.093-6.0198 11.26-12.0153 11.845-6.0685.585-11.9909-2.852-13.7944-8.018-1.9253-5.557.5362-12.942 5.5324-16.013 2.1203-1.169 4.1432-1.974 7.5796-1.974 3.997.098 5.3374 1.316 8.2864 3.339zm-1.1942 12.966c2.4859-5.752-.6581-11.431-8.1158-11.553-2.4616 0-3.6558.756-4.9962 1.682-2.4372 1.657-3.1684 6.654-1.9254 9.773 1.3648 3.363 4.0701 4.753 7.5065 4.899 3.412.146 6.1904-1.682 7.5309-4.826z"/><path d="m57.2734 272.205c7.1896.147 13.2582 5.923 13.0389 11.967-.2438 6.922-6.1417 12.405-13.7701 12.332-7.7014-.073-11.674-4.119-11.6497-11.942 0-7.019 5.4106-12.478 12.4052-12.357zm8.7007 13.673c.658-3.266-1.9985-6.897-6.3123-8.603-3.0952-1.243-6.3123-.536-8.7007 1.925-2.4859 2.559-2.7296 5.654-1.7548 8.847.8774 2.827 3.4608 4.289 7.1653 4.387 4.2894.097 8.8957-3.046 9.6269-6.556z"/></g><path d="m637.906 404.032c.901 4.996.974 10.114-.878 14.867-1.828 4.63-4.241 9.066-6.653 13.453-.805 1.487-2.413 2.559-3.656 3.802-.366-.195-.731-.366-1.097-.536 1.073-10.504-1.486-20.302-5.703-29.734-.804-1.754-.414-3.168.561-4.63 2.778-4.217 8.871-5.971 13.355-3.754 2.73 1.317 3.607 3.924 4.095 6.556z" fill="#fff799"/><path d="m628.181 265.918c7.58 7.872 11.431 19.473 7.994 27.247-4.046-.244-10.333-1.023-13.94 2.973-3.388 3.729-3.339 7.848-2.316 13.307-15.768 4.387-31.951 6.703-48.378 5.411.293-1.511.171-2.242.171-3.241-.024-6.532-3.12-9.822-8.603-12.991-4.899-2.827-10.968-1.925-15.208 1.877-2.925 2.608-3.559 4.094-4.948 7.677-9.48-2.949-16.548-12.576-14.379-20.643 6.556 1.292 13.112.22 16.548-5.435 4.119-6.678 3.9-14.111-2.997-20.131 6.068-7.067 10.943-10.699 14.671-13.039 13.819-9.553 33.585-9.383 45.746-1.291-2.924 8.822-1.097 15.671 5.63 21.154 4.484 3.656 8.92 4.168 13.989 1.316 2.145-1.194 4.046-2.778 6.02-4.191zm-33.803 30.586c7.701-.073 11.674-4.119 11.649-11.942 0-7.019-5.41-12.478-12.381-12.357-7.214.147-13.282 5.923-13.038 11.967.268 6.922 6.141 12.405 13.77 12.332zm-16.061-30.513c1.925-5.557-.537-12.942-5.533-16.013-2.12-1.169-4.143-1.974-7.555-1.974-3.997.098-5.362 1.316-8.311 3.339-3.022 2.949-4.947 6.971-4.387 10.846.878 6.093 6.02 11.259 12.016 11.844 6.068.585 11.991-2.851 13.794-8.018z" fill="#ea5506"/><path d="m624.111 307.398c-1.438-7.823 2.267-11.308 10.504-9.724-2.047 5.289-6.068 7.579-10.504 9.724z" fill="#fff"/><path d="m617.287 429.111c.049 1.169 0 2.339-.146 3.509-1.194 11.674-9.213 16.402-20.935 11.869 1.218-11.455-1.097-22.178-4.753-32.755-1.901-5.508 3.047-12.917 8.75-13.624 3.899-.463 6.385 1.852 8.383 4.63 5.679 7.824 8.238 16.768 8.677 26.371z" fill="#fff799"/><path d="m624.233 261.311c-4.07 5.386-8.408 6.361-12.746 3.266-5.265-3.753-6.703-9.895-3.266-14.769 5.825 2.949 11.186 6.531 16.012 11.479z" fill="#fff"/><path d="m616.215 389.287c.146 2.876-1.682 4.168-3.656 5.971-4.704-3.022-9.359-6.093-15.647-4.435-6.068 1.608-9.017 5.995-11.576 11.235-2.072-1.462-3.851-2.925-5.825-4.07-8.823-5.045-18.303-1.146-21.155 8.506-2.169 7.262-.365 14.062 2.657 20.496 1.755 3.729 3.339 6.191 5.508 8.092 1.803 1.633 3.68 3.192 6.19 2.754-6.751-8.53-7.141-13.624-8.116-19.376-.585-3.558-.463-7.043.975-10.382 1.877-4.314 5.898-5.703 9.944-3.266 3.558 2.096 6.263 5.167 7.848 8.944 3.168 7.653 5.118 15.55 5.459 23.909.39 10.041-6.434 19.839-21.106 16.451-8.165-1.877-15.622-5.532-21.374-11.723-5.24-5.63-9.822-11.844-14.696-17.84-.951-1.17-1.682-2.559-2.754-3.583-1.268-1.242-2.486-4.167-4.241-3.338-2.291 1.486.707 10.796 3.632 15.622-4.168 5.581-9.554 9.554-14.867 13.599-4.168 3.144-8.628 5.849-12.722 9.067-12.698 10.016-32.122 1.048-35.875-12.601-.537-1.925-1.048-3.923-1.268-5.922-1.438-14.038-2.778-28.101-4.167-42.114-.537-5.508-1.097-11.016-1.731-16.524-.317-2.681-.609-5.167 1.048-7.702 14.818-22.666 23.105-47.573 25.103-74.943 2.827.975 4.095 3.217 4.801 5.459 1.56 4.948 3.217 9.944 3.924 15.038 1.877 13.477 3.827 26.979 4.655 40.53.926 15.257.707 30.562.829 45.843 0 1.438-1.048 3.12-2.047 4.29-1.877 2.144-4.119 3.948-6.166 5.946-4.485 4.412-8.726 11.967-7.214 18.742 1.267-1.608 1.608-2.876 2.217-3.948 3.51-5.971 9.262-9.895 14.867-13.624 13.258-8.847 26.687-17.499 40.14-26.029 8.628-5.459 17.962-7.238 27.955-4.265 8.189 2.437 16.231 1.974 24.176-1.145 4.875-1.901 9.895-3.242 15.208-2.998 5.801.244 8.774 3.583 9.018 9.334z" fill="#fff799"/><path d="m599.959 279.2c2.486 2.559 2.754 5.654 1.754 8.847-.877 2.827-3.46 4.289-7.165 4.387-4.289.097-8.895-3.047-9.602-6.556-.683-3.266 1.998-6.897 6.312-8.603 3.095-1.243 6.312-.536 8.701 1.925z" fill="#fff"/><path d="m597.96 340.617c.488 4.387-1.706 7.531-5.483 9.359-6.215 2.997-12.576 3.168-18.937.219-3.485-1.609-5.167-4.46-4.826-8.091.585-5.801 1.609-11.577 2.437-17.329h6.556c0 3.997.025 13.137.025 16.792.048 1.877 1.267 2.243 1.657.244.756-3.826 1.438-12.966 2.218-16.938h4.923c0 .877.731 7.068 1.145 9.188.366 1.901 1.731.707 1.731-.975.097-2.072.414-6.02.682-8.262 2.267 0 3.339-.366 5.679-.366.755 5.557 1.608 10.846 2.218 16.134z" fill="#fffcdb"/><path d="m571.224 254.414c2.438 1.657 3.169 6.654 1.926 9.773-1.365 3.363-4.046 4.753-7.507 4.899-3.387.146-6.166-1.682-7.531-4.826-2.485-5.751.659-11.43 8.116-11.552 2.462 0 3.656.756 4.996 1.682z" fill="#fff"/><path d="m568.251 133.603v47.379c-13.185 7.628-26.37 15.257-40.213 23.275-7.36-3.899-15.379-8.018-23.324-12.308-5.191-2.778-10.163-5.873-15.33-8.652-2.169-1.17-3.144-2.51-3.119-5.093.17-12.601.219-25.201.17-37.801 0-3.997 1.121-6.751 4.948-8.871 11.138-6.191 22.056-12.771 33.023-19.278 2.243-1.341 4.144-1.609 6.532-.244 11.747 6.824 23.592 13.502 35.388 20.253.585.341 1.097.755 1.901 1.34zm-4.509 6.8c.488-.414 2.316-1.535 1.706-2.632-.536-.877-4.094.585-5.288 1.219-9.213 5.02-18.401 10.065-27.589 15.183-.804.463-2.047 2.218-.487 2.218 3.241-.146 27.174-12.381 31.634-15.988zm-35.119 54.885c1.389-10.065 1.194-19.18 1.121-28.783 0-1.194-.317-4.63-1.365-4.63-.804 0-1.194 3.68-1.194 4.533-.146 8.53-.512 14.355-.414 22.86 0 1.536.048 4.704.487 6.215.317 1.779 1.097 1.828 1.365-.195zm-3.607-39.19c.707-1.242-18.961-12.551-26.346-16.792-.975-.56-4.119-2.193-4.85-1.706-.756 1.146 1.755 3.144 3.12 4.07 11.625 7.044 27.052 16.476 28.051 14.453z" fill="#ea5506"/><path d="m558.356 301.281c5.996 1.243 9.676 6.702 8.652 13.209-7.141.147-13.502-2.071-20.131-4.752 1.926-6.069 6.654-9.456 11.455-8.457z" fill="#fff"/><path d="m539.298 265.625c3.899 3.193 4.46 8.993 1.803 13.136-2.291 3.559-6.629 4.631-11.406 4.022 2.096-7.897 5.191-13.185 9.603-17.158z" fill="#fff"/><path d="m538.932 520.042c5.679 7.701 8.067 17.352-2.218 18.303-4.509-2.925-5.069-7.068-3.558-15.988-.707.585-2.998 2.291-3.851 4.387-2.437 6.702-2.608 10.699 1.584 17.158.634.974 1.268 1.998 1.828 3.022 3.437 6.361 2.389 14.476-2.827 19.521-1.219 1.195-3.168 2.243-4.801 2.291-3.632.122-7.409.049-10.894-.804-6.508-1.633-9.505-5.752-11.236-12.478-.877-3.364.317-7.702 2.584-12.552-6.044 2.827-8.555 7.775-8.677 14.014-.048 3.168.293 6.361.878 9.481 1.316 7.262.073 11.991-2.974 15.963-2.997 3.948-7.409 6.629-12.234 7.799-3.778.926-7.921 1.243-10.967.487-5.289-1.023-10.748-4.435-14.55-7.433-2.901-2.266-5.85-4.606-9.067-6.312-8.749-4.68-19.619-2.51-26.077 4.972-3.461 4.021-7.093 7.994-8.628 14.184 7.604-5.459 13.697-12.235 23.616-13.404-1.901 8.262-6.19 14.306-11.82 19.448-2.315 2.121-5.094 3.875-7.872 5.386-7.531 4.119-15.33 4.485-23.202.78-3.339-1.584-6.629-3.266-9.993-4.801-7.092-3.217-14.452-4.606-22.056-2.437-3.168.877-6.312 2.218-9.139 3.899-3.412 2.048-6.459 4.728-9.505 7.629 8.457-2.876 16.889-5.265 26.809-4.29-4.802 5.533-9.7 9.7-15.501 12.698-8.043 4.119-16.573 6.483-25.688 6.239-6.702-.171-13.575.244-20.082-1.048-10.553-2.096-18.644-8.457-25.298-17.962 9.31-.609 17.207 1.633 25.566 5.118-10.626-11.381-21.374-15.988-35.899-11.674-3.997 1.17-7.848 3.022-11.504 5.021-14.379 7.896-26.541 3.729-36.947-6.654-4.558-4.557-7.872-9.992-9.432-16.378 3.152-.731 10.756 3.218 22.812 11.845-.073-1.828-.707-3.656-1.146-4.533-4.362-8.701-10.504-13.648-20.423-15.598-5.46-1.048-10.358-.195-14.867 2.852-2.778 1.876-5.362 4.045-8.091 6.019-7.166 5.192-14.819 5.898-22.837 2.291-1.535-.706-2.949-1.608-4.411-2.413-7.555-4.191-11.504-10.552-11.625-19.253-.025-1.852-.049-3.705-.171-5.533-.682-9.236-6.483-16.061-16.378-18.741.853 1.145 1.268 1.925 1.877 2.485 6.044 5.874 6.141 13.088 4.63 20.595-.243 1.169-1.316 2.486-2.412 2.924-4.168 1.731-8.555 2.389-13.137 2.584-9.724.365-18.912-14.843-12.868-23.08 3.826-5.192 5.752-11.479 5.069-18.084-.292-2.705-.755-3.68-2.291-6.239-.731-1.048-1.925-2.608-3.68-3.656 1.779 5.484 1.365 9.846-.633 14.038-1.268 2.656-2.486 2.998-4.558 1.316-5.679-4.655-4.947-15.549 1.414-19.254 3.899-2.266 7.969-4.167 12.356-6.458 6.507 16.183 17.67 28.271 33.097 36.314 5.24 2.729 10.431 3.461 15.647 2.778-5.46-2.242-9.164-4.46-13.039-7.75-10.87-9.261-19.059-21.935-24.177-35.485-5.069-13.478-4.874-26.931 1.779-39.994.293-.585.756-1.048 1.34-1.877 1.585 1.121 3.023 2.193 4.509 3.217 13.088 9.091 29.514 9.944 41.603-.097 2.608-2.194 6.312-6.24 7.579-9.359 2.681-6.629 3.729-12.064 5.143-20.18 4.606-.487 10.504.488 15.281 3.047 7.994 4.265 15.988 8.578 23.494 13.648 13.405 9.042 26.858 17.889 41.676 24.42 4.85 2.169 9.87 3.997 14.745 6.239-10.383-.316-20.472-2.315-30.294-5.532-9.603-3.144-19.035-6.824-28.954-9.529 6.751 3.875 13.332 8.164 20.375 11.479 7.092 3.339 14.647 5.678 21.983 8.457 1.048.365 1.024.877-.048.926-1.78.17-3.559.487-5.362.487-15.452-.219-30.952.025-46.355-.975-9.481-.633-16.719-1.023-28.223-4.947-2.656-1.146-4.923-2.047-7.336-3.193-.755-.341-1.462-.609-2.193-1.048-1.194-.707-2.779-1.17-3.29-.049-.415.805.292 2.218 1.925 2.925 8.091 4.143 16.451 7.36 25.469 9.164 18.546 3.729 37.215 5.484 56.079 4.947 6.215-.17 12.405-.975 18.596-1.462 1.657-.146 3.314-.244 5.069 0-6.605 3.826-13.746 6.434-20.936 8.701-7.53 2.339-15.207 4.119-22.763 6.385-7.043 2.096-14.745.853-21.593 3.778-.731.317-.561 1.389.244 1.486 1.486.195 2.997.415 4.508.537 9.335.804 18.328-1.024 27.419-2.949 35.655-7.58 69.654-19.888 102.458-35.559 10.431-4.972 20.083-11.552 30.416-16.792 10.456-5.337 21.131-10.285 31.976-14.769 10.139-4.216 20.789-6.459 32.293-5.752.414 1.341 3.241 10.87 4.338 14.209 4.777 14.55 22.3 21.106 35.972 17.474 5.752-1.535 11.114-3.777 15.671-7.701.756-.634 1.633-1.097 2.56-1.706 3.996 3.046 5.605 7.36 6.385 11.796 2.486 14.209.682 27.784-7.19 40.213-3.656 5.801-6.41 12.308-12.137 16.549-5.922 4.386-11.966 8.676-17.962 12.965-1.438 1.024-3.875 1.609-2.608 3.997 1.097 2.048 3.266 1.511 4.948.707 3.631-1.682 7.19-3.558 10.723-5.459 13.697-7.312 23.032-18.815 30.416-32.122.415-.731.805-1.487 1.195-2.218.073-.146.243-.219.779-.707 3.949 4.168 8.384 8.043 11.796 12.698zm-39.994-6.532c-7.141 2.827-13.941 4.168-24.786 4.606 13.526 3.339 17.304 1.073 24.786-4.606zm-33.194 13.234c19.911 6.41 27.369 3.656 32.682-4.387-10.309 3.729-15.208 5.849-32.682 4.387zm-15.038 9.48c20.765 9.359 24.786 3.681 33.316-2.096-9.87 2.998-14.769 3.876-33.316 2.096zm-4.557-56.664c-32.683 14.989-65.341 29.977-98.023 44.966 6.385 6.532 82.571-28.369 98.023-44.966zm9.505 74.066c-18.742 6.41-37.85 10.528-57.664 11.235 15.038 6.191 48.208-.146 57.664-11.235zm-27.54-95.099-.415-.658c-1.462.634-2.949 1.243-4.387 1.95-24.152 12.088-48.207 24.396-72.481 36.216-14.769 7.19-29.66 14.136-45.819 17.914-3.339.78-6.532 2.169-10.943 3.631 2.194.829 3.168 1.365 4.216 1.56 4.753.877 9.31-.146 13.868-1.487 19.692-5.752 38.678-13.38 57.347-21.764 19.838-8.871 38.531-19.741 55.055-34.096 1.195-1.048 2.389-2.169 3.559-3.266zm-43.309 123.078c-.804-2.681-2.803-3.217-4.631-3.9-5.044-1.803-13.306-5.191-18.376-6.97-16.694-5.923-29.392-6.264-47.013-4.85-6.97.804-14.745 2.827-16.938 3.534-11.772 3.85-14.818 5.483-26.541 9.505-1.219.414-2.267 1.364-3.388 2.047-.926.853-.731 1.608.488 1.316 19.058-4.289 38.312-6.751 57.809-6.532 19.571.22 39.02 2.096 58.614 5.801zm-53.35-57.956c-23.299 8.115-33.608 9.675-58.029 14.257 28.613 2.608 37.874-2.876 58.029-14.257zm-81.426 42.991c1.95-.073 3.9-.195 5.46-2.949-19.79-1.145-38.337-5.873-56.908-10.553-.975-.243-1.316 0-.366.927 2.242 1.364 4.338 3.143 6.751 3.996 6.142 2.218 12.332 4.266 18.62 5.972 8.652 2.364 17.523 2.949 26.443 2.607zm-58.297-35.144c.341-.073.317-.585-.024-.633-12.186-1.438-18.547-2.389-35.047-7.946-.195-.073-.341.195-.17.317 12.332 8.896 22.275 11.284 35.266 8.262zm3.827 8.019c-3.583.341-3.802 1.048-10.383.828-5.63-.146-9.675-1.218-12.746-2.047 6.702 5.971 16.938 5.995 23.129 1.194zm-16.451-21.472c.511-1.145-19.522-5.557-20.156-3.802-.707 1.828 19.425 5.338 20.156 3.802z" fill="#fac03e"/><path d="m469.887 251.489c15.354 64.512-18.06 127.245-59.857 153.884 3.266-3.9 3.948-5.752 3.631-13.478-2.388 3.997-1.901 3.168-3.217 5.63-5.386 8.652-9.944 13.551-16.402 20.594-6.117 6.629-16.67 11.991-25.615 12.941-8.042.878-15.817-.682-21.617-7.092-2.681-2.973-4.85-6.41-7.19-9.675-.829-1.146-1.584-2.364-2.876-3.315-1.097 7.848 2.51 14.038 6.922 19.985-7.531 2.998-27.029 2.803-36.095.365 1.828-3.314 3.924-6.482 5.337-9.919 1.341-3.266 2.901-6.726 1.487-11.333-1.121 1.463-1.828 2.267-2.437 3.169-.804 1.267-1.56 2.583-2.315 3.899-8.555 14.599-23.86 17.158-37.533 11.016-7.872-3.558-13.843-9.48-19.4-15.768-4.338-4.899-8.164-10.236-12.259-15.355-1.413-1.754-1.901-2.68-4.07-5.605-.292 4.972.878 9.383 4.217 13.673-39.483-24.787-75.163-86.813-59.638-153.104 16.719-71.36 78.136-115.79 143.793-116.204 65.195-.414 128 43.552 145.158 115.741zm-30.562 87.641c4.07-13.55 6.946-27.296 6.409-41.529-.121-3.315 0-5.118-.633-8.53-.268-1.268-1.389-4.46-2.389-5.484-1.267-1.267-1.486-.536-1.535.268-.098.488-.073 1.17 0 1.609 1.292 11.235-.219 26.248-2.413 37.24-2.315 11.649-4.679 20.009-9.139 31.122-1.536 3.827-3.217 7.58-4.509 11.577 2.681-1.755 4.509-4.168 6.093-6.873 3.607-6.093 6.117-12.624 8.14-19.424zm-4.68-104.579c1.048-.512.805-1.877.585-2.656-1.755-16.11-11.747-31.172-29.611-34.267-14.087-2.705-24.713 3.558-30.733 9.602-1.389 1.487-4.509 6.142-5.581 9.895-.293.951.926 1.658 1.657.975 4.289-3.924 7.726-6.044 14.428-9.407 10.114-4.338 28.783-1.755 36.826 7.141 4.606 5.508 6.02 7.823 9.163 14.598.585.805 1.658 4.68 3.242 4.119zm-3.802 89.591c3.364-22.154 5.679-43.675.22-65.804-2.194-8.823-6.093-19.327-13.624-25.493-11.357-9.31-24.786-10.114-37.923-4.752-9.139 3.728-15.524 10.918-20.764 19.448-7.092 11.504-11.236 23.958-13.551 37.118-3.436 19.352-5.167 38.678-5.849 58.395-.585 16.524.146 32.756 4.557 48.597 1.438 5.143 3.68 10.066 5.581 15.062.366.926.951 1.779 1.487 2.608 5.143 7.921 12.04 10.602 21.252 8.189 8.652-2.242 15.111-7.921 21.228-13.917 6.142-6.019 11.235-12.941 15.184-20.618 9.675-18.718 18.985-37.874 22.154-58.858zm-123.808 67.534c4.436-15.842 5.167-32.074 4.557-48.598-.682-19.716-2.412-39.019-5.849-58.394-2.315-13.161-6.483-25.615-13.551-37.118-5.239-8.53-11.625-15.72-20.764-19.449-13.137-5.362-26.59-4.558-37.923 4.752-7.531 6.167-11.43 16.671-13.623 25.493-5.46 22.13-3.144 43.65.219 65.804 3.168 20.984 12.503 40.14 22.154 58.858 3.948 7.677 9.042 14.598 15.183 20.618 6.118 6.02 12.576 11.674 21.228 13.916 9.213 2.413 16.11-.243 21.252-8.188.537-.829 1.146-1.682 1.487-2.608 1.925-4.996 4.143-9.92 5.581-15.062zm-27.077-173.551c.731.682 1.925 0 1.657-.975-1.072-3.778-4.167-8.409-5.581-9.895-6.02-6.069-16.646-12.308-30.733-9.603-17.84 3.096-27.832 18.157-29.611 34.267-.195.804-.439 2.169.585 2.656 1.608.537 2.656-3.338 3.241-4.118 3.168-6.776 4.557-9.091 9.164-14.599 8.042-8.871 26.711-11.455 36.825-7.141 6.703 3.363 10.139 5.484 14.429 9.408zm-54.105 147.278c-1.316-3.997-2.998-7.75-4.509-11.577-4.46-11.113-6.824-19.473-9.14-31.122-2.193-10.992-3.704-26.029-2.412-37.24.073-.439.097-1.146 0-1.609-.025-.804-.268-1.535-1.536-.268-.999 1.048-2.12 4.216-2.388 5.484-.634 3.387-.536 5.215-.634 8.53-.536 14.233 2.34 27.979 6.41 41.529 2.023 6.776 4.533 13.307 8.14 19.424 1.584 2.681 3.412 5.119 6.093 6.873z" fill="#fff799"/><path d="m445.174 29.5117v47.5005c-13.039 7.5796-26.37 15.3055-40.238 23.3478-7.604-4.021-15.744-8.286-23.835-12.673-5.167-2.7783-10.188-5.8492-15.355-8.6519-1.827-1.0236-2.583-2.2666-2.559-4.3869.147-13.0877.195-26.1996.22-39.3116 0-3.2415.975-5.4837 4.119-7.2628 11.406-6.4098 22.617-13.1364 33.876-19.81423 2.023-1.19422 3.827-1.68165 6.093-.36558 12.332 7.16531 24.737 14.20871 37.655 21.59331zm-4.679 6.6291c.487-.4143 2.315-1.5354 1.706-2.6321-.537-.9018-4.071.5849-5.289 1.2186-9.213 4.9962-18.401 10.0655-27.565 15.1836-.828.463-2.047 2.2178-.487 2.2178 3.241-.1462 27.174-12.3809 31.635-15.9879zm-35.12 54.8852c1.389-10.0656 1.194-19.1806 1.121-28.783 0-1.1943-.317-4.6307-1.365-4.6307-.804 0-1.17 3.6802-1.194 4.5332-.146 8.5301-.512 14.3549-.414 22.8606 0 1.5355.048 4.7038.487 6.2148.317 1.7792 1.097 1.8279 1.365-.1949zm-3.607-39.1898c.707-1.2429-18.961-12.5514-26.322-16.7921-.975-.5605-4.143-2.1935-4.85-1.7304-.755 1.1455 1.755 3.1683 3.12 4.0701 11.625 7.0434 27.053 16.4753 28.052 14.4524z" fill="#ea5506"/><path d="m422.167 269.11c2.559 19.766 2.145 35.022-.78 54.617-2.071 12.966-5.703 25.517-11.308 37.46-6.02 12.844-12.99 25.078-23.348 34.997-3.364 3.217-7.19 6.191-11.26 8.336-9.042 4.801-18.864-.147-21.252-10.553 11.747-.707 20.862-6.63 28.929-14.599 10.139-9.993 15.939-22.276 18.693-36.07 3.68-18.401 2.535-36.046-8.36-52.131-6.653-9.822-15.037-17.499-26.589-21.253-1.56-.487-3.12-.755-5.021-1.608 2.73-7.896 4.728-12.186 9.505-17.743 2.462-2.973 7.312-7.75 16.134-10.553 11.967-3.168 31.099 5.85 34.608 29.1z" fill="#fff"/><path d="m396.309 319.34c2.12 19.815-3.949 37.582-15.988 53.106-6.971 8.969-16.159 15.013-28.661 15.233-1.195-4.07-1.511-5.971-1.828-9.237 11.966.146 23.348-10.724 29.002-22.447 6.8-14.086 8.384-28.929 4.996-44.186-2.461-11.04-8.189-19.838-19.4-23.908-2.632-.951-5.288-.926-8.018-.439.707-4.143 1.828-7.385 2.852-10.797 4.947 0 9.846 1.365 14.038 4.192 13.623 9.213 21.252 22.276 23.007 38.459z" fill="#7ecef4"/><path d="m366.502 323.654c2.047 6.361.755 12.43-1.487 18.45-1.17 3.168-3.266 6.214-5.605 8.676-3.12 3.266-6.142 2.388-6.922-2.194-.658-3.948-.707-7.896-.707-12.064 0-4.167.488-7.652 1.828-11.844 1.268-4.143 4.558-7.263 7.019-7.092 3.583.268 4.997 3.314 5.874 6.068z" fill="#fff"/><path d="m272.062 355.995c5.654 11.723 17.035 22.593 29.002 22.447-.317 3.266-.609 5.167-1.828 9.237-12.503-.22-21.666-6.264-28.661-15.233-12.064-15.524-18.133-33.316-15.988-53.106 1.755-16.158 9.383-29.246 23.007-38.458 4.192-2.827 9.115-4.192 14.038-4.192 1.024 3.387 2.169 6.629 2.851 10.796-2.729-.487-5.386-.511-8.018.439-11.211 4.07-16.938 12.868-19.4 23.909-3.387 15.232-1.828 30.099 4.997 44.186z" fill="#7ecef4"/><path d="m299.09 336.522c0 4.168-.049 8.116-.707 12.064-.756 4.582-3.802 5.46-6.922 2.194-2.339-2.462-4.435-5.508-5.605-8.676-2.242-6.02-3.558-12.089-1.487-18.45.878-2.778 2.291-5.8 5.874-6.068 2.461-.171 5.752 2.949 7.019 7.092 1.34 4.216 1.828 7.701 1.828 11.844z" fill="#fff"/><path d="m286.684 29.4873v47.598c-13.306 7.7015-26.516 15.3542-40.481 23.4457-12.6-6.9704-25.761-14.3063-38.97-21.5447-1.901-1.048-2.462-2.3884-2.438-4.46.122-12.7464.244-25.5172.122-38.288-.024-4.1676 1.536-6.6779 5.192-8.7251 11.113-6.2391 22.056-12.7951 33.023-19.30239 2.047-1.19422 3.851-1.53542 6.093-.24372 12.332 7.16531 24.737 14.20871 37.484 21.49591zm-9.553 7.9208c1.365-.9261 3.85-2.9246 3.119-4.07-.706-.4631-3.85 1.1698-4.85 1.7304-7.36 4.2406-27.028 15.5491-26.345 16.7921.999 2.0228 16.45-7.409 28.076-14.4525zm-29.831 47.598c.097-8.5057-.268-14.3305-.415-22.8607 0-.853-.365-4.5331-1.194-4.5331-1.048 0-1.365 3.4364-1.365 4.6306-.073 9.6025-.243 18.7175 1.122 28.7831.268 2.0228 1.072 1.9741 1.364.1949.415-1.511.488-4.6794.488-6.2148zm-5.338-32.8531c1.536 0 .317-1.7547-.487-2.2178-9.164-5.1181-18.352-10.1874-27.565-15.1836-1.194-.6336-4.752-2.1203-5.288-1.2186-.585 1.0968 1.194 2.2179 1.706 2.6322 4.46 3.607 28.369 15.8416 31.634 15.9878z" fill="#ea5506"/><path d="m279.47 250.563c4.777 5.557 6.8 9.822 9.505 17.743-1.876.853-3.436 1.097-5.02 1.608-11.552 3.729-19.936 11.406-26.59 21.253-10.894 16.085-12.015 33.73-8.359 52.131 2.778 13.819 8.554 26.078 18.693 36.07 8.067 7.994 17.182 13.916 28.929 14.599-2.388 10.382-12.186 15.329-21.228 10.553-4.07-2.17-7.896-5.118-11.259-8.336-10.334-9.894-17.304-22.153-23.348-34.997-5.606-11.918-9.237-24.494-11.309-37.46-2.925-19.595-3.339-34.851-.78-54.617 3.51-23.226 22.642-32.244 34.608-29.1 8.823 2.827 13.673 7.604 16.134 10.553z" fill="#fff"/><path d="m191.074 369.278c2.047 3.193 2.559 6.142 2.145 9.871-1.609 14.355-2.778 28.758-4.192 43.113-.561 5.679-1.145 11.357-2.047 17.012-2.047 13.16-10.943 19.351-22.983 20.984-3.387.463-7.628-.658-10.553-2.486-10.504-6.629-20.886-13.527-29.514-22.642-.439-.487-.755-1.048-1.267-1.706 2.559-4.85 6.41-14.208 3.607-15.671-1.828-.95-4.801 3.827-6.8 6.435-4.704 6.092-9.334 12.307-14.574 17.962-5.8251 6.312-13.4534 9.943-21.7398 12.039-4.1432 1.048-8.4327 1.097-12.3565-.731-5.7517-2.657-8.4814-7.604-8.7251-13.721-.3656-9.578 1.9985-18.693 6.1661-27.248 1.2673-2.608 3.607-4.899 5.8979-6.775 4.6063-3.778 9.5781-2.218 11.5035 3.363 2.3397 6.873 1.8279 12.283-1.0236 18.45-1.3892 3.022-2.4372 5.946-6.6048 9.748 1.6329 2.218 7.0922-.926 8.457-2.559 5.508-6.678 6.5804-10.967 6.751-20.082.0731-2.949-.3168-6.02-1.048-8.896-2.6322-10.114-13.7457-11.674-19.7898-8.262-2.3154 1.316-4.4357 2.949-6.6292 4.411-8.3351-13.185-14.7692-14.769-27.1013-6.799-4.1189-3.12-4.8256-4.728-3.7289-8.628 1.048-3.729 3.9482-6.361 8.1402-6.361 3.8019 0 7.6527.756 11.4303 1.414 1.9497.365 3.8507 1.145 5.7274 1.876 7.1409 2.779 14.4768 3.144 21.7639.975 10.8942-3.266 20.8627-1.413 30.2697 4.68 12.795 8.31 25.712 16.499 38.434 24.956 5.752 3.827 11.138 8.116 14.745 14.233.634 1.097 1.243 1.901 1.877 3.485 1.535-7.092-1.048-13.038-5.46-17.718-2.071-2.218-6.872-7.384-9.212-9.31 0 0 .073-.56 0-3.119-.609-25.761.609-51.4 4.85-76.844 1.072-6.435 1.974-12.918 3.339-19.303.755-3.558 2.266-6.97 6.117-9.383.585 4.582 1.048 8.701 1.657 12.844 3.047 21.764 10.675 41.895 22.496 60.393z" fill="#fff799"/><path d="m164.119 133.408v47.72c-6.263 3.534-13.014 7.239-19.644 11.089-6.677 3.875-13.258 7.897-20.374 12.162-7.726-4.119-15.891-8.36-23.982-12.747-5.1669-2.778-10.1631-5.849-15.3543-8.651-1.8766-1.048-2.559-2.365-2.5347-4.412.0488-14.623 0-29.221 0-43.625 12.9658-8.725 25.858-16.207 39.019-23.226 1.852-.975 3.437-.878 5.191.121 12.357 7.117 24.762 14.209 37.655 21.594zm-9.334 8.238c1.364-.926 3.875-2.925 3.119-4.07-.707-.487-3.875 1.145-4.85 1.706-7.36 4.241-27.028 15.549-26.346 16.792 1 2.023 16.451-7.409 28.052-14.452zm-29.807 47.598c.073-8.506-.268-14.331-.414-22.861 0-.853-.366-4.533-1.194-4.533-1.073 0-1.365 3.437-1.365 4.631-.073 9.602-.244 18.717 1.121 28.783.268 2.023 1.072 1.974 1.365.195.414-1.511.463-4.68.487-6.215zm-5.362-32.853c1.56 0 .341-1.755-.487-2.218-9.164-5.118-18.352-10.163-27.589-15.183-1.1942-.634-4.7525-2.096-5.2886-1.219-.585 1.097 1.2186 2.218 1.7304 2.632 4.4356 3.607 28.3682 15.842 31.6102 15.988z" fill="#ea5506"/><path d="m122.37 287.535c2.169 8.067-4.898 17.694-14.379 20.643-1.414-3.583-2.047-5.069-4.947-7.677-4.2412-3.802-10.2854-4.704-15.2085-1.877-5.4836 3.169-8.5788 6.483-8.6032 12.991 0 .999-.0975 1.998-.195 3.485-16.4265 1.267-32.2681-1.268-48.0366-5.655.9992-5.459-.2194-9.748-3.6071-13.502-3.607-3.996-8.3838-2.485-12.6489-2.778-3.4364-7.799.4143-19.375 7.9939-27.247 1.9742 1.413 3.8995 2.997 6.0199 4.191 5.0693 2.852 9.5049 2.34 14.0137-1.316 6.7266-5.459 8.5545-12.332 5.6299-21.154 12.1858-8.092 31.9269-8.262 45.7457 1.291 3.7289 2.316 8.6032 5.972 14.6962 13.039-6.922 6.02-7.117 13.478-3.022 20.131 3.461 5.655 9.992 6.727 16.573 5.435zm-23.9571-25.395c.5605-3.851-1.3648-7.897-4.3869-10.846-2.949-2.022-4.2895-3.217-8.2864-3.338-3.4364 0-5.4593.804-7.5796 1.974-5.0206 3.071-7.4578 10.455-5.5324 16.012 1.8035 5.167 7.7258 8.603 13.7944 8.018 5.9954-.585 11.1135-5.752 12.0152-11.844zm-28.1006 22.008c.2437-6.045-5.8249-11.796-13.0389-11.967-6.9703-.146-12.3808 5.337-12.4052 12.357-.0244 7.823 3.9482 11.869 11.6497 11.942 7.6527.073 13.5263-5.411 13.77-12.332z" fill="#ea5506"/><path d="m121.2 282.783c-4.801.585-9.115-.463-11.406-4.022-2.656-4.143-2.095-9.943 1.804-13.136 4.436 3.973 7.506 9.261 9.602 17.158z" fill="#fff"/><path d="m92.5393 301.281c4.8012-.999 9.5537 2.388 11.4547 8.457-6.6047 2.681-12.9901 4.899-20.131 4.752-.9993-6.507 2.6565-11.966 8.6519-13.209z" fill="#fff"/><path d="m84.6672 252.732c7.4578.122 10.6017 5.801 8.1158 11.553-1.3404 3.144-4.1188 4.947-7.5309 4.825-3.4364-.146-6.1416-1.535-7.5065-4.898-1.2673-3.12-.5118-8.141 1.9254-9.774 1.3405-.926 2.5347-1.681 4.9962-1.681z" fill="#fff"/><path d="m82.1813 342.104c.3656 3.607-1.3161 6.482-4.8256 8.091-6.361 2.949-12.7221 2.778-18.9368-.219-3.7777-1.828-5.9711-4.972-5.4593-9.359.5849-5.289 1.4379-10.577 2.2178-16.134 2.3153 0 3.3877.365 5.6543.365.2437 2.218.5849 6.191.6824 8.262 0 1.658 1.3648 2.876 1.7304.975.4143-2.12 1.1454-8.311 1.1454-9.188h4.9231c.7799 3.973 1.4623 13.112 2.2178 16.938.39 1.999 1.6086 1.609 1.6573-.243 0-3.632.0244-12.795.0244-16.792h6.5804c.8286 5.751 1.8522 11.503 2.4371 17.328z" fill="#fffcdb"/><path d="m59.6618 277.275c4.3382 1.706 6.9703 5.361 6.3123 8.603-.7312 3.509-5.3618 6.653-9.6268 6.556-3.7046-.073-6.3123-1.56-7.1653-4.387-.9749-3.193-.7068-6.288 1.7547-8.847 2.4128-2.461 5.6299-3.168 8.7007-1.925z" fill="#fff"/><path d="m53.5201 399.085c4.7525 2.437 7.4822 8.31 5.8249 13.136-2.6078 7.482-4.5575 15.11-4.8013 23.056-.0974 2.997 0 6.02 0 9.334-4.0944 2.169-8.0426 1.999-12.0152.877-3.2171-.926-5.8005-2.851-6.8972-6.092-.9505-2.828-1.901-5.825-1.9254-8.75-.0731-10.139 2.6809-19.522 8.6032-27.881 3.2171-4.558 7.0678-5.801 11.2354-3.68z" fill="#fff799"/><path d="m42.6991 249.832c3.4364 4.875 1.9985 11.016-3.2658 14.769-4.3382 3.096-8.7007 2.096-12.7464-3.265 4.8012-4.948 10.163-8.555 15.9878-11.479z" fill="#fff"/><path d="m31.3175 402.862c.2437.999-.1463 2.267-.5362 3.315-5.3618 14.33-5.5811 15.305-5.4593 30.635-1.8035-1.535-3.1683-2.266-3.9482-3.388-4.8987-7.335-9.1881-14.939-8.8957-24.152.0731-2.169.3656-4.363.9261-6.458 1.243-4.631 3.6802-6.313 8.4327-6.313 4.0944.025 8.6032 2.925 9.4806 6.361z" fill="#fff799"/><path d="m16.3045 297.674c8.2133-1.584 11.9178 1.901 10.5042 9.724-4.4356-2.169-8.457-4.46-10.5042-9.724z" fill="#fff"/><path d="m637.906 404.032c.901 4.996.974 10.114-.878 14.867-1.828 4.631-4.241 9.066-6.653 13.453-.805 1.487-2.413 2.559-3.656 3.802-.366-.195-.731-.366-1.097-.536 1.073-10.504-1.486-20.302-5.703-29.734-.804-1.754-.414-3.168.561-4.63 2.778-4.217 8.871-5.971 13.355-3.754 2.73 1.317 3.607 3.924 4.095 6.557z" fill="#fff799"/><path d="m628.181 265.918c7.58 7.872 11.431 19.473 7.994 27.247-4.045-.244-10.333-1.023-13.94 2.973-3.388 3.729-3.339 7.848-2.316 13.307-15.768 4.387-31.951 6.703-48.378 5.411.293-1.511.171-2.242.171-3.241-.024-6.532-3.12-9.822-8.603-12.991-4.899-2.827-10.968-1.925-15.208 1.877-2.925 2.608-3.558 4.094-4.948 7.677-9.48-2.949-16.548-12.576-14.379-20.643 6.556 1.292 13.112.22 16.548-5.435 4.119-6.678 3.9-14.111-2.997-20.131 6.068-7.067 10.943-10.699 14.672-13.039 13.818-9.553 33.584-9.383 45.745-1.291-2.924 8.822-1.096 15.671 5.63 21.154 4.485 3.656 8.92 4.168 13.989 1.316 2.145-1.194 4.046-2.778 6.02-4.191zm-33.803 30.586c7.701-.073 11.674-4.119 11.649-11.942 0-7.019-5.41-12.478-12.38-12.357-7.214.147-13.283 5.923-13.039 11.967.268 6.922 6.141 12.405 13.77 12.332zm-16.061-30.513c1.925-5.557-.536-12.942-5.533-16.013-2.12-1.169-4.143-1.974-7.555-1.974-3.997.098-5.362 1.316-8.311 3.339-3.022 2.949-4.947 6.971-4.387 10.846.878 6.093 6.02 11.259 12.016 11.844 6.068.585 11.991-2.851 13.794-8.018z" fill="#ea5506"/><path d="m624.111 307.398c-1.438-7.823 2.267-11.308 10.504-9.724-2.047 5.289-6.068 7.579-10.504 9.724z" fill="#fff"/><path d="m617.287 429.111c.049 1.169 0 2.339-.146 3.509-1.194 11.674-9.213 16.402-20.935 11.869 1.218-11.455-1.097-22.178-4.753-32.755-1.901-5.508 3.047-12.917 8.75-13.624 3.899-.463 6.385 1.852 8.383 4.63 5.679 7.824 8.238 16.768 8.677 26.371z" fill="#fff799"/><path d="m624.233 261.311c-4.07 5.386-8.408 6.361-12.746 3.266-5.265-3.753-6.703-9.895-3.266-14.769 5.825 2.949 11.186 6.531 16.012 11.479z" fill="#fff"/><path d="m616.215 389.287c.146 2.876-1.682 4.168-3.656 5.971-4.704-3.022-9.359-6.093-15.647-4.435-6.068 1.608-9.017 5.995-11.576 11.235-2.072-1.462-3.851-2.925-5.825-4.07-8.823-5.045-18.303-1.146-21.155 8.506-2.169 7.262-.365 14.062 2.657 20.496 1.754 3.729 3.339 6.191 5.508 8.092 1.803 1.633 3.68 3.192 6.19 2.754-6.751-8.53-7.141-13.624-8.116-19.376-.585-3.558-.463-7.043.975-10.382 1.877-4.314 5.898-5.703 9.944-3.266 3.558 2.096 6.263 5.167 7.848 8.944 3.168 7.653 5.118 15.55 5.459 23.909.39 10.041-6.434 19.839-21.106 16.451-8.165-1.877-15.622-5.532-21.374-11.723-5.24-5.63-9.822-11.844-14.696-17.84-.951-1.17-1.682-2.559-2.754-3.583-1.268-1.242-2.486-4.167-4.241-3.338-2.291 1.486.707 10.796 3.631 15.622-4.167 5.581-9.553 9.554-14.866 13.599-4.168 3.144-8.628 5.849-12.722 9.067-12.698 10.016-32.122 1.047-35.876-12.601-.536-1.925-1.048-3.923-1.267-5.922-1.438-14.038-2.778-28.101-4.167-42.114-.537-5.508-1.097-11.016-1.731-16.524-.317-2.681-.609-5.167 1.048-7.702 14.818-22.666 23.105-47.573 25.103-74.943 2.827.975 4.094 3.217 4.801 5.459 1.56 4.948 3.217 9.944 3.924 15.038 1.877 13.477 3.826 26.979 4.655 40.53.926 15.257.707 30.562.829 45.843 0 1.438-1.048 3.12-2.048 4.29-1.876 2.144-4.118 3.948-6.166 5.946-4.484 4.412-8.725 11.967-7.214 18.742 1.268-1.608 1.609-2.876 2.218-3.948 3.51-5.971 9.262-9.895 14.867-13.624 13.258-8.847 26.687-17.499 40.14-26.029 8.628-5.459 17.962-7.238 27.955-4.265 8.189 2.437 16.231 1.974 24.176-1.145 4.875-1.901 9.895-3.242 15.208-2.998 5.801.244 8.774 3.582 9.018 9.334z" fill="#fff799"/><path d="m599.959 279.2c2.486 2.559 2.754 5.654 1.755 8.847-.878 2.827-3.461 4.29-7.166 4.387-4.289.097-8.895-3.046-9.602-6.556-.683-3.266 1.998-6.897 6.312-8.603 3.095-1.243 6.312-.536 8.701 1.925z" fill="#fff"/><path d="m597.96 340.617c.488 4.387-1.706 7.531-5.483 9.359-6.215 2.997-12.576 3.168-18.937.219-3.485-1.609-5.167-4.46-4.826-8.091.585-5.801 1.609-11.577 2.437-17.329h6.556c0 3.997.025 13.137.025 16.792.048 1.877 1.267 2.243 1.657.244.756-3.826 1.438-12.966 2.218-16.938h4.923c0 .877.731 7.068 1.145 9.188.366 1.901 1.731.707 1.731-.975.097-2.072.414-6.02.682-8.262 2.267 0 3.339-.366 5.679-.366.755 5.557 1.608 10.846 2.218 16.135z" fill="#fffcdb"/><path d="m571.224 254.414c2.438 1.657 3.169 6.654 1.926 9.773-1.365 3.363-4.046 4.753-7.507 4.899-3.387.146-6.166-1.682-7.531-4.826-2.486-5.751.658-11.43 8.116-11.552 2.462 0 3.656.756 4.996 1.682z" fill="#fff"/><path d="m568.251 133.603v47.379c-13.185 7.628-26.37 15.257-40.213 23.275-7.36-3.9-15.379-8.018-23.324-12.308-5.191-2.778-10.163-5.873-15.33-8.652-2.169-1.17-3.144-2.51-3.119-5.093.17-12.601.219-25.201.17-37.801 0-3.997 1.122-6.751 4.948-8.871 11.138-6.191 22.056-12.771 33.024-19.278 2.242-1.341 4.143-1.609 6.531-.244 11.747 6.824 23.592 13.502 35.388 20.253.585.341 1.097.755 1.901 1.34zm-4.508 6.8c.487-.414 2.315-1.535 1.706-2.632-.537-.877-4.095.585-5.289 1.218-9.213 5.021-18.401 10.066-27.589 15.184-.804.463-2.047 2.218-.487 2.218 3.241-.146 27.174-12.381 31.634-15.988zm-35.12 54.885c1.389-10.065 1.194-19.18 1.121-28.783 0-1.194-.317-4.63-1.365-4.63-.804 0-1.194 3.68-1.194 4.533-.146 8.53-.512 14.355-.414 22.86 0 1.536.048 4.704.487 6.215.317 1.779 1.097 1.828 1.365-.195zm-3.607-39.19c.707-1.243-18.961-12.551-26.346-16.792-.975-.56-4.119-2.193-4.85-1.706-.755 1.146 1.755 3.144 3.12 4.07 11.625 7.044 27.052 16.476 28.052 14.453z" fill="#ea5506"/><path d="m558.356 301.281c5.996 1.243 9.676 6.702 8.652 13.209-7.141.147-13.502-2.071-20.131-4.752 1.926-6.069 6.654-9.456 11.455-8.457z" fill="#fff"/><path d="m539.298 265.625c3.899 3.193 4.46 8.993 1.803 13.136-2.291 3.559-6.629 4.631-11.406 4.022 2.096-7.897 5.191-13.185 9.603-17.158z" fill="#fff"/><path d="m538.932 520.042c5.679 7.701 8.067 17.352-2.218 18.303-4.509-2.925-5.069-7.068-3.558-15.988-.707.585-2.998 2.291-3.851 4.387-2.437 6.702-2.608 10.699 1.584 17.157.634.975 1.268 1.999 1.828 3.023 3.437 6.361 2.389 14.476-2.827 19.521-1.219 1.195-3.168 2.243-4.801 2.291-3.632.122-7.409.049-10.894-.804-6.508-1.633-9.505-5.752-11.236-12.478-.877-3.364.317-7.702 2.584-12.552-6.045 2.827-8.555 7.775-8.677 14.014-.048 3.168.293 6.361.878 9.481 1.316 7.262.073 11.99-2.974 15.963-2.997 3.948-7.409 6.629-12.234 7.799-3.778.926-7.921 1.243-10.968.487-5.288-1.023-10.748-4.435-14.549-7.433-2.901-2.266-5.85-4.606-9.067-6.312-8.749-4.68-19.619-2.51-26.078 4.972-3.46 4.021-7.092 7.994-8.627 14.184 7.604-5.459 13.697-12.235 23.616-13.404-1.901 8.262-6.19 14.306-11.82 19.448-2.315 2.121-5.094 3.875-7.872 5.386-7.531 4.119-15.33 4.485-23.202.78-3.339-1.584-6.629-3.266-9.993-4.801-7.092-3.217-14.452-4.606-22.056-2.437-3.168.877-6.312 2.218-9.139 3.899-3.412 2.048-6.459 4.728-9.505 7.629 8.457-2.876 16.889-5.265 26.809-4.29-4.802 5.533-9.7 9.7-15.501 12.698-8.043 4.119-16.573 6.483-25.688 6.239-6.702-.171-13.575.244-20.082-1.048-10.553-2.096-18.644-8.457-25.298-17.962 9.31-.609 17.207 1.633 25.566 5.118-10.626-11.381-21.374-15.988-35.899-11.674-3.997 1.17-7.848 3.022-11.504 5.021-14.379 7.896-26.541 3.729-36.947-6.654-4.558-4.557-7.873-9.992-9.432-16.378 3.152-.731 10.756 3.217 22.812 11.845-.074-1.828-.707-3.656-1.146-4.533-4.362-8.701-10.504-13.648-20.423-15.598-5.46-1.048-10.358-.195-14.867 2.851-2.779 1.877-5.362 4.046-8.092 6.02-7.165 5.192-14.818 5.898-22.836 2.291-1.535-.707-2.949-1.608-4.411-2.413-7.555-4.191-11.504-10.552-11.625-19.253-.025-1.852-.049-3.705-.171-5.533-.682-9.236-6.483-16.061-16.378-18.741.853 1.145 1.267 1.925 1.877 2.485 6.044 5.874 6.141 13.088 4.63 20.595-.243 1.169-1.316 2.486-2.412 2.924-4.168 1.731-8.555 2.389-13.137 2.584-9.724.365-18.912-14.843-12.868-23.08 3.826-5.192 5.752-11.48 5.069-18.084-.292-2.706-.755-3.68-2.291-6.239-.731-1.048-1.925-2.608-3.68-3.656 1.779 5.483 1.365 9.846-.633 14.038-1.268 2.656-2.486 2.998-4.558 1.316-5.679-4.655-4.947-15.549 1.414-19.254 3.899-2.266 7.969-4.167 12.356-6.458 6.507 16.183 17.67 28.271 33.097 36.314 5.24 2.729 10.431 3.46 15.646 2.778-5.459-2.242-9.163-4.46-13.038-7.75-10.87-9.261-19.059-21.935-24.177-35.485-5.069-13.478-4.874-26.931 1.779-39.994.292-.585.756-1.048 1.34-1.877 1.585 1.121 3.023 2.193 4.509 3.217 13.088 9.091 29.514 9.944 41.603-.097 2.608-2.194 6.312-6.24 7.579-9.359 2.681-6.629 3.729-12.064 5.143-20.18 4.606-.487 10.504.487 15.281 3.047 7.994 4.265 15.988 8.578 23.494 13.648 13.405 9.042 26.858 17.889 41.676 24.42 4.85 2.169 9.87 3.997 14.745 6.239-10.383-.317-20.472-2.315-30.294-5.532-9.603-3.144-19.035-6.824-28.954-9.529 6.751 3.875 13.331 8.164 20.375 11.479 7.092 3.339 14.647 5.678 21.983 8.457 1.048.365 1.024.877-.049.926-1.779.17-3.558.487-5.361.487-15.452-.219-30.952.025-46.355-.975-9.481-.633-16.719-1.023-28.223-4.947-2.656-1.146-4.923-2.047-7.336-3.193-.755-.341-1.462-.609-2.193-1.048-1.194-.707-2.779-1.17-3.29-.049-.415.805.292 2.218 1.925 2.925 8.091 4.143 16.451 7.36 25.468 9.164 18.547 3.729 37.216 5.483 56.08 4.947 6.215-.17 12.405-.975 18.595-1.462 1.658-.146 3.315-.244 5.07 0-6.605 3.826-13.746 6.434-20.936 8.701-7.53 2.339-15.208 4.119-22.763 6.385-7.043 2.096-14.745.853-21.593 3.778-.731.317-.561 1.389.244 1.486 1.486.195 2.997.415 4.508.537 9.335.804 18.328-1.024 27.419-2.949 35.655-7.58 69.654-19.888 102.458-35.559 10.431-4.972 20.083-11.552 30.416-16.792 10.456-5.337 21.131-10.285 31.976-14.769 10.139-4.216 20.789-6.459 32.293-5.752.414 1.341 3.241 10.87 4.338 14.209 4.777 14.55 22.3 21.106 35.972 17.474 5.752-1.535 11.114-3.777 15.671-7.701.756-.634 1.633-1.097 2.559-1.706 3.997 3.046 5.606 7.36 6.386 11.796 2.486 14.209.682 27.784-7.19 40.213-3.656 5.801-6.41 12.308-12.137 16.549-5.922 4.386-11.966 8.676-17.962 12.965-1.438 1.024-3.875 1.609-2.608 3.997 1.097 2.048 3.266 1.511 4.948.707 3.631-1.682 7.189-3.558 10.723-5.459 13.697-7.312 23.032-18.815 30.416-32.122.415-.731.805-1.487 1.194-2.218.074-.146.244-.219.78-.707 3.949 4.168 8.384 8.043 11.796 12.698zm-39.994-6.532c-7.141 2.827-13.941 4.167-24.786 4.606 13.526 3.339 17.304 1.073 24.786-4.606zm-33.194 13.234c19.911 6.41 27.369 3.656 32.682-4.387-10.309 3.729-15.208 5.849-32.682 4.387zm-15.038 9.48c20.765 9.359 24.786 3.68 33.316-2.096-9.87 2.998-14.769 3.876-33.316 2.096zm-4.557-56.664c-32.683 14.989-65.341 29.977-98.023 44.966 6.385 6.532 82.571-28.369 98.023-44.966zm9.505 74.066c-18.742 6.41-37.85 10.528-57.664 11.235 15.038 6.191 48.207-.146 57.664-11.235zm-27.54-95.099-.415-.658c-1.462.634-2.949 1.243-4.387 1.95-24.152 12.088-48.207 24.396-72.481 36.216-14.769 7.19-29.661 14.136-45.819 17.914-3.339.78-6.532 2.169-10.943 3.631 2.194.829 3.168 1.365 4.216 1.56 4.753.877 9.31-.146 13.868-1.487 19.692-5.752 38.678-13.38 57.347-21.764 19.838-8.871 38.531-19.741 55.055-34.096 1.195-1.048 2.389-2.169 3.559-3.266zm-43.309 123.078c-.804-2.681-2.803-3.218-4.631-3.9-5.045-1.803-13.307-5.191-18.376-6.97-16.694-5.923-29.392-6.264-47.013-4.85-6.97.804-14.745 2.827-16.938 3.534-11.772 3.85-14.818 5.483-26.541 9.505-1.219.414-2.267 1.364-3.388 2.047-.926.853-.731 1.608.488 1.316 19.058-4.289 38.312-6.751 57.809-6.532 19.571.22 39.02 2.096 58.614 5.801zm-53.35-57.956c-23.299 8.115-33.608 9.675-58.029 14.257 28.613 2.608 37.874-2.876 58.029-14.257zm-81.426 42.991c1.95-.073 3.9-.195 5.46-2.949-19.79-1.145-38.337-5.873-56.908-10.553-.975-.243-1.316 0-.366.926 2.242 1.365 4.338 3.144 6.751 3.997 6.142 2.218 12.332 4.266 18.62 5.972 8.652 2.364 17.523 2.949 26.443 2.607zm-58.297-35.144c.341-.073.317-.585-.024-.633-12.186-1.438-18.547-2.389-35.047-7.946-.195-.073-.341.195-.17.317 12.332 8.896 22.275 11.284 35.266 8.262zm3.827 8.019c-3.583.341-3.802 1.048-10.383.828-5.63-.146-9.675-1.218-12.746-2.047 6.702 5.971 16.938 5.995 23.129 1.194zm-16.451-21.472c.511-1.145-19.522-5.557-20.156-3.802-.707 1.828 19.424 5.337 20.156 3.802z" fill="#fac03e"/><path d="m469.887 251.489c15.354 64.512-18.06 127.245-59.857 153.884 3.266-3.9 3.948-5.752 3.631-13.478-2.388 3.997-1.901 3.168-3.217 5.63-5.386 8.652-9.943 13.551-16.402 20.594-6.117 6.629-16.67 11.991-25.615 12.941-8.042.878-15.817-.682-21.617-7.092-2.681-2.973-4.85-6.41-7.19-9.675-.829-1.146-1.584-2.364-2.876-3.315-1.097 7.848 2.51 14.038 6.922 19.985-7.531 2.998-27.029 2.803-36.095.365 1.828-3.314 3.924-6.482 5.338-9.919 1.34-3.266 2.9-6.726 1.486-11.333-1.121 1.463-1.828 2.267-2.437 3.169-.804 1.267-1.56 2.583-2.315 3.899-8.555 14.599-23.86 17.158-37.533 11.016-7.872-3.558-13.843-9.48-19.4-15.768-4.338-4.899-8.164-10.237-12.259-15.355-1.413-1.754-1.901-2.68-4.07-5.605-.292 4.972.878 9.383 4.217 13.672-39.483-24.786-75.163-86.812-59.638-153.103 16.719-71.36 78.136-115.79 143.793-116.204 65.195-.415 128.001 43.552 145.158 115.741zm-30.562 87.641c4.07-13.551 6.946-27.296 6.41-41.529-.122-3.315 0-5.118-.634-8.53-.268-1.268-1.389-4.46-2.389-5.484-1.267-1.267-1.486-.536-1.535.268-.097.488-.073 1.17 0 1.609 1.292 11.235-.219 26.248-2.413 37.24-2.315 11.649-4.679 20.009-9.139 31.122-1.536 3.827-3.217 7.58-4.509 11.577 2.681-1.755 4.509-4.168 6.093-6.873 3.607-6.093 6.117-12.624 8.14-19.424zm-4.68-104.579c1.048-.512.805-1.877.585-2.656-1.754-16.11-11.747-31.172-29.611-34.267-14.087-2.705-24.713 3.558-30.733 9.602-1.389 1.487-4.509 6.142-5.581 9.895-.293.951.926 1.658 1.657.975 4.289-3.924 7.726-6.044 14.428-9.407 10.114-4.339 28.783-1.755 36.826 7.141 4.606 5.508 6.02 7.823 9.164 14.598.585.805 1.657 4.68 3.241 4.119zm-3.802 89.591c3.364-22.154 5.679-43.675.22-65.804-2.194-8.823-6.093-19.327-13.624-25.493-11.357-9.31-24.786-10.114-37.922-4.752-9.14 3.728-15.525 10.918-20.765 19.448-7.092 11.504-11.236 23.958-13.551 37.118-3.436 19.352-5.167 38.678-5.849 58.395-.585 16.524.146 32.756 4.557 48.597 1.438 5.143 3.681 10.066 5.582 15.062.365.926.95 1.779 1.486 2.608 5.143 7.921 12.04 10.601 21.252 8.189 8.652-2.243 15.111-7.921 21.228-13.917 6.142-6.019 11.236-12.941 15.184-20.618 9.675-18.718 18.985-37.874 22.154-58.858zm-123.808 67.534c4.436-15.842 5.167-32.074 4.558-48.598-.683-19.716-2.413-39.019-5.85-58.394-2.315-13.161-6.483-25.615-13.55-37.118-5.24-8.531-11.626-15.72-20.765-19.449-13.136-5.362-26.59-4.558-37.923 4.752-7.53 6.166-11.43 16.671-13.623 25.493-5.46 22.13-3.144 43.65.219 65.804 3.168 20.984 12.503 40.14 22.154 58.858 3.948 7.677 9.042 14.598 15.184 20.618 6.117 6.02 12.575 11.674 21.227 13.916 9.213 2.413 16.11-.243 21.252-8.188.537-.829 1.146-1.682 1.487-2.608 1.925-4.996 4.143-9.92 5.581-15.062zm-27.077-173.551c.731.682 1.925 0 1.657-.975-1.072-3.778-4.167-8.409-5.581-9.895-6.02-6.069-16.646-12.308-30.733-9.603-17.84 3.095-27.832 18.157-29.611 34.267-.195.804-.439 2.169.585 2.656 1.608.537 2.656-3.338 3.241-4.118 3.168-6.776 4.558-9.091 9.164-14.599 8.043-8.871 26.711-11.455 36.826-7.141 6.702 3.363 10.138 5.484 14.428 9.408zm-54.105 147.278c-1.316-3.997-2.998-7.75-4.509-11.577-4.46-11.113-6.824-19.473-9.139-31.122-2.194-10.992-3.705-26.029-2.413-37.24.073-.439.097-1.146 0-1.609-.025-.804-.268-1.535-1.536-.268-.999 1.048-2.12 4.216-2.388 5.484-.634 3.387-.536 5.215-.634 8.53-.536 14.233 2.34 27.978 6.41 41.529 2.023 6.776 4.533 13.307 8.14 19.424 1.584 2.681 3.412 5.119 6.093 6.873z" fill="#fff799"/><path d="m445.174 29.5117v47.5005c-13.039 7.5796-26.37 15.3054-40.238 23.3478-7.604-4.0211-15.744-8.2861-23.835-12.673-5.167-2.7784-10.188-5.8492-15.355-8.652-1.828-1.0236-2.583-2.2666-2.559-4.3869.147-13.0876.195-26.1996.22-39.3116 0-3.2414.975-5.4836 4.119-7.2628 11.405-6.4097 22.616-13.1363 33.876-19.81419 2.023-1.19422 3.827-1.68165 6.093-.36558 12.332 7.16527 24.737 14.20877 37.654 21.59337zm-4.68 6.6291c.488-.4144 2.316-1.5355 1.706-2.6322-.536-.9017-4.07.5849-5.288 1.2186-9.213 4.9962-18.401 10.0655-27.565 15.1836-.828.4631-2.047 2.2178-.487 2.2178 3.241-.1462 27.174-12.3808 31.634-15.9878zm-35.119 54.8851c1.389-10.0655 1.194-19.1805 1.121-28.783 0-1.1942-.317-4.6306-1.365-4.6306-.804 0-1.17 3.6801-1.194 4.5331-.146 8.5301-.512 14.355-.414 22.8607 0 1.5354.048 4.7037.487 6.2148.317 1.7791 1.097 1.8279 1.365-.195zm-3.607-39.1897c.707-1.243-18.961-12.5515-26.322-16.7922-.975-.5605-4.143-2.1934-4.85-1.7304-.755 1.1455 1.755 3.1684 3.12 4.0701 11.625 7.0435 27.053 16.4753 28.052 14.4525z" fill="#ea5506"/><path d="m422.167 269.11c2.559 19.766 2.145 35.022-.78 54.617-2.072 12.966-5.703 25.517-11.308 37.46-6.02 12.843-12.991 25.078-23.349 34.997-3.363 3.217-7.189 6.191-11.259 8.336-9.042 4.801-18.864-.147-21.252-10.553 11.747-.707 20.862-6.63 28.929-14.599 10.138-9.993 15.939-22.276 18.693-36.07 3.68-18.401 2.535-36.046-8.36-52.131-6.653-9.822-15.037-17.499-26.589-21.253-1.56-.487-3.12-.755-5.021-1.608 2.73-7.897 4.728-12.186 9.505-17.743 2.462-2.973 7.312-7.75 16.134-10.553 11.967-3.168 31.099 5.85 34.608 29.1z" fill="#fff"/><path d="m396.309 319.34c2.12 19.815-3.949 37.582-15.988 53.106-6.971 8.969-16.159 15.013-28.661 15.233-1.195-4.07-1.511-5.971-1.828-9.237 11.966.146 23.348-10.724 29.002-22.447 6.8-14.086 8.384-28.929 4.996-44.186-2.461-11.04-8.189-19.838-19.4-23.908-2.632-.951-5.288-.926-8.018-.439.707-4.143 1.828-7.384 2.852-10.797 4.947 0 9.846 1.365 14.038 4.192 13.624 9.213 21.252 22.276 23.007 38.459z" fill="#7ecef4"/><path d="m366.502 323.654c2.047 6.361.756 12.43-1.487 18.45-1.17 3.168-3.265 6.214-5.605 8.676-3.12 3.266-6.142 2.388-6.922-2.194-.658-3.948-.707-7.896-.707-12.064 0-4.167.488-7.652 1.828-11.844 1.268-4.143 4.558-7.263 7.019-7.092 3.583.268 4.997 3.314 5.874 6.068z" fill="#fff"/><path d="m272.061 355.996c5.655 11.722 17.036 22.592 29.003 22.446-.317 3.266-.609 5.167-1.828 9.237-12.503-.22-21.667-6.264-28.661-15.233-12.064-15.524-18.133-33.316-15.988-53.106 1.755-16.158 9.383-29.246 23.007-38.458 4.192-2.827 9.115-4.192 14.038-4.192 1.024 3.388 2.169 6.629 2.851 10.797-2.729-.488-5.386-.512-8.018.438-11.211 4.07-16.938 12.869-19.4 23.909-3.387 15.232-1.828 30.099 4.996 44.186z" fill="#7ecef4"/><path d="m299.09 336.522c0 4.168-.049 8.116-.707 12.064-.756 4.582-3.802 5.46-6.922 2.194-2.339-2.462-4.435-5.508-5.605-8.676-2.242-6.02-3.558-12.089-1.487-18.45.878-2.778 2.291-5.8 5.874-6.068 2.461-.171 5.752 2.949 7.019 7.092 1.34 4.216 1.828 7.701 1.828 11.844z" fill="#fff"/><path d="m286.684 29.4873v47.598c-13.307 7.7015-26.516 15.3542-40.481 23.4457-12.6-6.9704-25.761-14.3063-38.97-21.5447-1.901-1.048-2.462-2.3884-2.438-4.46.122-12.7464.244-25.5172.122-38.288-.024-4.1676 1.536-6.6779 5.191-8.7251 11.114-6.2391 22.057-12.7951 33.024-19.30239 2.047-1.19422 3.851-1.53542 6.093-.24372 12.332 7.16531 24.737 14.20871 37.484 21.49591zm-9.553 7.9208c1.365-.9261 3.85-2.9246 3.119-4.07-.706-.4631-3.85 1.1698-4.85 1.7304-7.36 4.2406-27.028 15.5491-26.346 16.7921 1 2.0228 16.451-7.409 28.077-14.4525zm-29.831 47.598c.097-8.5057-.268-14.3305-.415-22.8607 0-.853-.365-4.5331-1.194-4.5331-1.048 0-1.365 3.4364-1.365 4.6306-.073 9.6025-.243 18.7175 1.121 28.7831.269 2.0228 1.073 1.9741 1.365.1949.415-1.511.488-4.6794.488-6.2148zm-5.338-32.8531c1.536 0 .317-1.7547-.487-2.2178-9.164-5.1181-18.352-10.1874-27.565-15.1836-1.194-.6336-4.752-2.1203-5.288-1.2186-.585 1.0968 1.194 2.2179 1.706 2.6322 4.46 3.607 28.368 15.8416 31.634 15.9878z" fill="#ea5506"/><path d="m279.47 250.563c4.777 5.557 6.8 9.822 9.505 17.743-1.876.853-3.436 1.097-5.02 1.608-11.552 3.729-19.936 11.406-26.59 21.253-10.894 16.085-12.015 33.73-8.359 52.131 2.778 13.819 8.554 26.077 18.693 36.07 8.067 7.994 17.182 13.916 28.929 14.599-2.388 10.382-12.186 15.329-21.228 10.553-4.07-2.17-7.896-5.119-11.259-8.336-10.334-9.895-17.304-22.154-23.348-34.997-5.606-11.918-9.237-24.494-11.309-37.46-2.925-19.595-3.339-34.851-.78-54.617 3.51-23.226 22.641-32.244 34.608-29.1 8.823 2.827 13.673 7.604 16.134 10.553z" fill="#fff"/><path d="m191.074 369.278c2.047 3.193 2.559 6.142 2.145 9.871-1.609 14.355-2.779 28.758-4.192 43.113-.561 5.679-1.146 11.357-2.047 17.012-2.048 13.16-10.943 19.351-22.983 20.984-3.388.463-7.628-.658-10.553-2.486-10.504-6.629-20.886-13.527-29.514-22.642-.439-.487-.756-1.048-1.267-1.706 2.559-4.85 6.409-14.208 3.607-15.671-1.828-.95-4.802 3.827-6.8 6.435-4.704 6.092-9.334 12.307-14.574 17.962-5.8252 6.312-13.4535 9.943-21.7399 12.039-4.1432 1.048-8.4326 1.097-12.3565-.731-5.7517-2.657-8.4813-7.604-8.7251-13.721-.3655-9.578 1.9985-18.693 6.1661-27.248 1.2673-2.608 3.607-4.899 5.898-6.775 4.6062-3.778 9.578-2.218 11.5034 3.363 2.3397 6.873 1.8279 12.283-1.0236 18.449-1.3892 3.023-2.4372 5.947-6.6047 9.749 1.6329 2.218 7.0921-.926 8.4569-2.559 5.5081-6.678 6.5804-10.967 6.751-20.082.0731-2.949-.3168-6.02-1.048-8.896-2.6321-10.114-13.7456-11.674-19.7898-8.262-2.3153 1.316-4.4357 2.949-6.6291 4.411-8.3352-13.185-14.7693-14.769-27.1014-6.799-4.1188-3.12-4.8256-4.728-3.7289-8.628 1.048-3.729 3.9483-6.361 8.1402-6.361 3.802 0 7.6527.756 11.4303 1.414 1.9498.365 3.8508 1.145 5.7274 1.876 7.1409 2.779 14.4768 3.144 21.7639.975 10.8942-3.266 20.8618-1.413 30.2698 4.679 12.795 8.311 25.712 16.5 38.434 24.957 5.752 3.827 11.138 8.116 14.745 14.233.634 1.097 1.243 1.901 1.877 3.485 1.535-7.092-1.048-13.038-5.46-17.718-2.071-2.218-6.872-7.385-9.212-9.31 0 0 .073-.56 0-3.119-.609-25.761.609-51.4 4.85-76.845 1.072-6.434 1.974-12.917 3.339-19.302.755-3.558 2.266-6.97 6.117-9.383.585 4.582 1.048 8.701 1.657 12.844 3.047 21.764 10.675 41.895 22.496 60.393z" fill="#fff799"/><path d="m164.119 133.408v47.72c-6.263 3.534-13.014 7.239-19.643 11.089-6.678 3.876-13.259 7.897-20.375 12.162-7.726-4.119-15.891-8.36-23.982-12.746-5.1668-2.779-10.163-5.85-15.3542-8.652-1.8766-1.048-2.5591-2.365-2.5347-4.412.0488-14.623 0-29.221 0-43.625 12.9658-8.725 25.8589-16.207 39.0189-23.226 1.853-.975 3.437-.878 5.191.121 12.357 7.117 24.762 14.209 37.655 21.594zm-9.334 8.238c1.365-.926 3.875-2.925 3.119-4.07-.706-.487-3.875 1.145-4.85 1.706-7.36 4.241-27.028 15.549-26.345 16.792.999 2.023 16.45-7.409 28.051-14.452zm-29.807 47.598c.073-8.506-.268-14.331-.414-22.861 0-.853-.366-4.533-1.194-4.533-1.073 0-1.365 3.437-1.365 4.631-.073 9.602-.244 18.717 1.121 28.783.268 2.023 1.072 1.974 1.365.195.414-1.511.463-4.68.487-6.215zm-5.362-32.853c1.56 0 .342-1.755-.487-2.218-9.164-5.118-18.352-10.163-27.5889-15.183-1.1942-.634-4.7525-2.096-5.2886-1.219-.585 1.097 1.2185 2.218 1.7304 2.632 4.4356 3.607 28.3691 15.842 31.6101 15.988z" fill="#ea5506"/><path d="m122.37 287.535c2.169 8.067-4.899 17.694-14.379 20.643-1.414-3.583-2.047-5.069-4.948-7.677-4.2403-3.802-10.2845-4.704-15.2076-1.877-5.4836 3.169-8.5788 6.483-8.6032 12.991 0 .999-.0975 1.998-.1949 3.485-16.4266 1.267-32.2682-1.268-48.0367-5.655.9992-5.459-.2194-9.748-3.607-13.502-3.6071-3.996-8.3839-2.485-12.649-2.778-3.4364-7.799.4143-19.375 7.994-27.247 1.9741 1.413 3.8994 2.997 6.0198 4.191 5.0693 2.852 9.5049 2.34 14.0137-1.316 6.7266-5.459 8.5545-12.332 5.6299-21.154 12.1859-8.092 31.927-8.262 45.7457 1.291 3.7289 2.316 8.6033 5.972 14.6963 13.039-6.922 6.02-7.117 13.478-3.022 20.131 3.461 5.655 9.992 6.727 16.573 5.435zm-23.9572-25.395c.5605-3.851-1.3648-7.897-4.3869-10.846-2.949-2.022-4.2894-3.217-8.2864-3.338-3.4364 0-5.4593.804-7.5796 1.974-5.0206 3.071-7.4578 10.455-5.5324 16.012 1.8035 5.167 7.7258 8.603 13.7944 8.018 5.9954-.585 11.1135-5.752 12.0152-11.844zm-28.1006 22.008c.2437-6.045-5.8249-11.796-13.0389-11.967-6.9703-.146-12.3808 5.337-12.4052 12.357-.0244 7.823 3.9482 11.869 11.6497 11.942 7.6527.073 13.5263-5.411 13.77-12.332z" fill="#ea5506"/><path d="m121.2 282.783c-4.801.585-9.115-.463-11.406-4.022-2.656-4.143-2.095-9.943 1.804-13.136 4.436 3.973 7.506 9.261 9.602 17.158z" fill="#fff"/><path d="m92.5392 301.281c4.8012-.999 9.5538 2.388 11.4548 8.457-6.6049 2.681-12.9903 4.899-20.1312 4.752-.9992-6.507 2.6566-11.966 8.652-13.209z" fill="#fff"/><path d="m84.6672 252.732c7.4577.122 10.6017 5.801 8.1157 11.553-1.3404 3.144-4.1188 4.947-7.5308 4.825-3.4364-.146-6.1417-1.535-7.5065-4.898-1.2673-3.12-.5118-8.141 1.9253-9.773 1.3405-.927 2.5347-1.682 4.9963-1.682z" fill="#fff"/><path d="m82.1813 342.103c.3656 3.607-1.3161 6.483-4.8256 8.092-6.361 2.949-12.7221 2.778-18.9368-.219-3.7777-1.828-5.9711-4.972-5.4593-9.359.5849-5.289 1.4379-10.578 2.2178-16.134 2.3153 0 3.3877.365 5.6543.365.2437 2.218.5849 6.191.6824 8.262 0 1.658 1.3648 2.876 1.7304.975.4143-2.12 1.1454-8.311 1.1454-9.188h4.9231c.7799 3.973 1.4623 13.112 2.2178 16.938.39 1.999 1.6086 1.609 1.6573-.243 0-3.632.0244-12.796.0244-16.792h6.5804c.8286 5.751 1.8522 11.503 2.4371 17.328z" fill="#fffcdb"/><path d="m59.6617 277.275c4.3382 1.706 6.9704 5.362 6.3123 8.603-.7311 3.51-5.3618 6.653-9.6268 6.556-3.7045-.073-6.3123-1.56-7.1653-4.387-.9749-3.193-.7068-6.288 1.7548-8.847 2.4128-2.461 5.6298-3.168 8.7007-1.925z" fill="#fff"/><path d="m53.5202 399.085c4.7525 2.437 7.4821 8.31 5.8249 13.136-2.6078 7.482-4.5575 15.111-4.8013 23.056-.0974 2.997 0 6.02 0 9.334-4.0944 2.169-8.0426 1.999-12.0152.877-3.2171-.926-5.8005-2.851-6.8972-6.092-.9505-2.828-1.901-5.825-1.9254-8.75-.0731-10.139 2.6809-19.522 8.6032-27.881 3.2171-4.558 7.0678-5.801 11.2354-3.68z" fill="#fff799"/><path d="m42.699 249.832c3.4364 4.875 1.9985 11.016-3.2658 14.769-4.3382 3.096-8.7007 2.096-12.7464-3.265 4.8012-4.948 10.163-8.555 15.9878-11.479z" fill="#fff"/><path d="m31.3176 402.862c.2437.999-.1462 2.267-.5362 3.315-5.3618 14.33-5.5811 15.305-5.4593 30.635-1.8035-1.535-3.1683-2.267-3.9482-3.388-4.8987-7.336-9.1881-14.94-8.8957-24.152.0732-2.169.3656-4.363.9262-6.459 1.2429-4.63 3.6801-6.312 8.4326-6.312 4.0944.025 8.6032 2.925 9.4806 6.361z" fill="#fff799"/><path d="m16.3044 297.674c8.2133-1.584 11.9178 1.901 10.5043 9.724-4.4357-2.169-8.457-4.46-10.5043-9.724z" fill="#fff"/></g></svg>