<svg height="169.51" viewBox="0 0 440.89 169.51" width="440.89" xmlns="http://www.w3.org/2000/svg"><g fill="#231916"><path d="m419.14 0h21.74v118.97h-21.74z"/><path d="m87.94 31.33c-9.34 0-18.25 3.55-25.08 10l-.61.58-.61-.58c-6.83-6.45-15.73-10-25.08-10-20.05 0-36.45 16.32-36.56 36.38v.89s0 50.37 0 50.37h21.74l.05-52.15c.56-7.65 7.01-13.74 14.77-13.74s14.21 6.09 14.77 13.74h.04v.89s0 51.26 0 51.26h21.74l.05-52.15c.56-7.65 7.01-13.74 14.77-13.74s14.21 6.09 14.77 13.74h.04v.89s0 51.26 0 51.26h21.74v-51.26c-.11-20.06-16.51-36.38-36.56-36.38z"/><path d="m277.16 50.15c6.65 0 12.92 2.37 17.75 6.7l14.75-14.15c-8.78-8.11-20.28-12.56-32.5-12.56-25.86 0-46.9 20.19-46.9 45.01s21.04 45.01 46.9 45.01c12.21 0 23.72-4.45 32.5-12.56l-14.75-14.16c-4.83 4.33-11.1 6.7-17.75 6.7-14.36 0-26.05-11.21-26.05-25s11.69-25 26.05-25z"/><path d="m360.16 30.14c-25.86 0-46.9 20.19-46.9 45.01s21.04 45.01 46.9 45.01c12.19 0 23.68-4.47 32.46-12.6l-14.74-14.15c-4.85 4.35-11.11 6.74-17.72 6.74-11.28 0-21.23-6.92-24.75-17.21l-.4-1.17h71.49c.37-2.37.56-4.55.56-6.62 0-24.82-21.04-45.01-46.9-45.01zm0 20.01c11.29 0 21.21 6.9 24.73 17.19h-49.46c3.53-10.29 13.44-17.19 24.73-17.19z"/><path d="m196.43 86.1c0 9.57-7.78 17.35-17.35 17.35s-17.35-7.78-17.35-17.35v-51.07h-21.74v51.26c.11 21.46 17.64 38.91 39.1 38.91 5.56 0 10.97-1.18 16.1-3.5l1.26-.57v9.29c0 9.57-7.78 17.35-17.35 17.35-6.2 0-11.86-3.28-14.97-8.6l-20.68 7.31c6.32 14.02 20.21 23.03 35.65 23.03 21.56 0 39.1-17.54 39.1-39.1v-95.38h-21.74v51.07z"/></g></svg>