<svg height="262.27" viewBox="0 0 888.91 262.27" width="888.91" xmlns="http://www.w3.org/2000/svg"><g fill="#231916"><path d="m263.58 117.45c.67 3.64-.09 6.95-2.84 9.7-2.33 2.34-5.24 3.53-8.33 4.31-2.26.57-4.58.91-7.18 1.4.26 1.21.58 2.26.72 3.34.29 2.17.66 4.36.69 6.54.03 2.48-1.44 4.05-3.71 4.93-2.31.91-4.68.95-7.12.82-6.22-.37-8.82-5.58-7.64-10.37.42-1.71.68-3.46 1.01-5.16-.29-.13-5.63-.75-10.9-3.35-3.3-1.85-6.84-4.7-6.93-7.96-.13-4.18 1.02-7.71 3.34-11.24 1.92-3.12 5.76-7.25 9.2-9.74 6.04-4.36 12.65-5.67 19.75-3.26 2.71.92 5.32 2.26 7.81 3.69 6.38 3.68 10.8 8.94 12.15 16.36zm-4.19 2.83c1.41-3.2-.17-7.95-3.28-11.18-.82.58-1.6 1.23-2.47 1.72-2.08 1.17-3.9.96-5.74-.54-2.77-2.24-3.51-5.06-2.31-8.68-4.99-3.32-13.1-3.39-18.77.53-1.53.95-3.53 2.45-6.02 5.35 2.84 2.47 2.92 5.53 1.23 8.26-1.41 2.32-4.1 2.76-6.79 2.23-.89 3.31 2.01 7.26 5.9 8.47.57-1.47.84-2.08 2.03-3.15 1.74-1.56 4.22-1.93 6.24-.77 2.25 1.3 3.51 2.66 3.53 5.33 0 .41.05.71-.07 1.33 6.75.52 13.38-.42 19.85-2.22-.41-2.24-.44-3.93.95-5.46 1.48-1.64 4.06-1.32 5.72-1.22zm-.64 1.85c-3.37-.65-4.89.78-4.31 3.99 1.82-.89 3.47-1.83 4.31-3.99zm-9.49-13.57c1.78 1.27 3.57.86 5.23-1.34-1.98-2.03-4.18-3.51-6.57-4.71-1.41 2-.82 4.52 1.34 6.06zm-7.79 35.03c1.55-.75 2.45-2.04 2.25-3.84-.25-2.17-.59-4.34-.91-6.62-.95 0-1.39.15-2.33.15-.1.91-.24 2.54-.28 3.39 0 .68-.56 1.18-.71.4-.17-.87-.47-3.41-.47-3.77h-2.02c-.31 1.63-.6 5.38-.91 6.95-.16.82-.66.66-.68-.1 0-1.49-.01-5.25-.01-6.89h-2.69c-.34 2.36-.77 4.72-1 7.11-.14 1.48.55 2.66 1.98 3.32 2.61 1.21 5.22 1.14 7.77-.09zm-10.45-14.56c.42-2.67-1.09-4.91-3.55-5.42-1.97-.41-3.92.98-4.7 3.47 2.72 1.1 5.33 2.01 8.26 1.95zm-10.63-14.66c1.09-1.7.86-4.08-.74-5.39-1.82 1.63-3.08 3.8-3.94 7.04 1.97.24 3.74-.19 4.68-1.65z"/><path d="m263.39 163.91c1.15 6.44-.83 11.99-5.28 16.7-1.02 1.09-2.38 1.76-3.81 2.2-1.71.51-2.63 2.52-4.48 3.22-2.74 1.05-5.48 1.34-8.24.13-.21.13-.42.2-.54.34-3.12 3.64-7.03 4.32-11.44 3.1-4.3-1.19-7.99-3.34-10.8-6.88-.22-.27-.44-.54-.67-.79-.09-.1-.22-.17-.49-.38-1.28 1.15-2.58 2.33-3.97 3.61 3.39 4.55 3.31 9.74 2.59 14.89-.43 3.11.66 5.32 2.71 7.35 1.07 1.07 2.15 2.13 3.17 3.26 1.66 1.83 2.98 4.14 3.36 6.59.49 3.16 0 5.96-2.73 7.77.12 1.87.5 3.53.27 5.11-.76 5.16-5.64 8.79-11.09 8.45-1.16-.08-2.32-.24-3.46-.37-.15.17-.29.26-.32.38-.85 3.39-3.31 5.26-6.25 6.71-2.11 1.04-4.27 1.92-6.63 2.18-3.31.37-6.44-.12-9.23-2.06-1.18-.81-2.36-1.62-3.44-2.36-1.46 2.02-2.8 4.02-4.28 5.92-4.85 6.2-15.67 9-23.25 3.29-.22-.16-.47-.29-.82-.51-.38.4-.78.75-1.09 1.17-4.52 5.95-10.72 8.75-17.99 9.23-3.28.22-6.61.01-9.91-.25-4.06-.33-7.48-2.32-10.51-4.9-1.71-1.46-3.16-3.24-4.87-5.03-4.84 3.27-10.16 4.89-16.01 2.44-5.57-2.33-9.4-6.36-11.41-12.43-2.66 2.15-5.2 4.2-8.57 4.5-3.25.29-6.33-.37-9.14-2.03-2.79-1.65-5.47-3.5-6.89-6.72-4.5 1.49-8.89 2.3-12.79-1.07-3.83-3.3-4.36-7.62-3.38-12.28-.35-.29-.6-.51-.87-.7-3.02-2.23-3.9-5.32-3.16-8.8.68-3.19 2.24-5.92 5.39-7.42 1.06-.51 2.05-1.14 3.07-1.72 1.14-.65 1.57-1.46 1.27-2.89-.73-3.48-.66-7.03.16-10.47.56-2.38 1.65-4.63 2.61-7.21-1.12-1.04-2.52-2.33-4.01-3.69-.51.58-.91 1.02-1.3 1.48-3.21 3.78-7.29 6.03-12.13 6.94-3.73.7-6.97-.18-9.57-3.04-.23-.25-.34-.61-.48-.88-3.01 1.3-5.7 1.18-8.36.1-.63-.25-1.41-.45-1.82-.93-1.47-1.71-3.52-2.45-5.37-3.55-1.09-.65-2.07-1.62-2.84-2.65-2.86-3.8-4.4-8.03-4.13-12.91.27-4.8 2.62-7.17 7.46-7.12h1.09c.07-.41.11-.75.17-1.07.82-4.16 4.17-6.76 8.39-6.22 2.51.32 5.01.91 7.44 1.62 2.26.67 4.48.95 6.7.17 5.04-1.76 9.66-.6 14.05 1.96 3.92 2.29 7.52 5.25 11.51 7.69.04-.32.01-1.34.03-1.77.13-6.61-.16-15.86 3.39-36.5.55-3.19 2.67-6.01 5.35-7.84.02-.01.03-.03.06-.04.85-.57.92-.74.92-.74.56-29.13 21.17-56.26 50.36-63.19 6.31-1.51 12.75-1.92 19.29-1.49 13.57.9 25.65 5.57 36.2 14.02 12.28 9.85 20.13 22.55 23.25 38.01.73 3.63.89 7.39 1.2 11.09l.13 2.08c4.61 1.47 6.1 6.73 7.09 10.69.86 3.46 1.32 7.05 1.67 10.6.76 7.97.87 15.98.58 23.98 0 .2.04.4.09.82.53-.32.98-.59 1.41-.86 3.8-2.36 7.52-4.88 11.43-7.06 4.09-2.29 8.47-3.07 13.07-1.45 1.9.66 3.98.65 5.91.08 2.52-.73 5.08-1.44 7.67-1.8 4.75-.64 7.83 1.59 8.97 6.22.08.32.17.64.24.93 1.12.09 2.15.1 3.16.28 2.84.49 4.51 2 5 4.77zm-3.64 7.95c.76-1.94.73-4.05.36-6.1-.2-1.08-.56-2.15-1.68-2.69-1.84-.91-4.34-.19-5.48 1.54-.4.61-.56 1.18-.23 1.9 1.74 3.87 2.78 7.89 2.34 12.2.15.08.31.15.45.22.51-.52 1.16-.95 1.5-1.56.99-1.8 1.99-3.62 2.73-5.52zm-8.15 5.64c.05-.48.08-.96.06-1.44-.18-3.94-1.23-7.6-3.56-10.82-.82-1.14-1.85-2.08-3.44-1.9-2.34.29-4.37 3.32-3.59 5.59 1.5 4.33 2.45 8.74 1.95 13.44 4.81 1.86 8.1-.08 8.59-4.87zm-1.87-15.33c.81-.74 1.55-1.26 1.5-2.45-.1-2.36-1.32-3.72-3.7-3.83-2.17-.1-4.24.45-6.24 1.23-3.26 1.28-6.56 1.46-9.92.47-4.1-1.22-7.93-.49-11.47 1.75-5.53 3.51-11.03 7.05-16.47 10.68-2.3 1.53-4.67 3.14-6.1 5.59-.25.44-.39.96-.91 1.62-.62-2.77 1.12-5.87 2.96-7.69.84-.82 1.76-1.56 2.53-2.44.41-.47.84-1.16.84-1.76-.05-6.27.04-12.55-.34-18.81-.34-5.56-1.14-11.1-1.91-16.63-.29-2.1-.97-4.15-1.61-6.17-.29-.91-.82-1.83-1.97-2.24-.82 11.23-4.22 21.45-10.3 30.75-.68 1.05-.56 2.06-.43 3.16.26 2.26.49 4.52.71 6.78.57 5.76 1.12 11.52 1.71 17.28.08.82.29 1.63.52 2.43 1.55 5.6 9.51 9.28 14.72 5.17 1.68-1.32 3.51-2.43 5.22-3.72 2.19-1.65 4.4-3.29 6.1-5.58-1.2-1.99-2.43-5.8-1.49-6.41.72-.35 1.22.86 1.74 1.37.44.43.74.99 1.13 1.47 2 2.45 3.89 5 6.03 7.32 2.36 2.54 5.42 4.03 8.77 4.81 6.02 1.39 8.82-2.63 8.66-6.75-.14-3.44-.93-6.68-2.24-9.81-.65-1.55-1.76-2.81-3.22-3.67-1.67-1-3.31-.43-4.08 1.34-.59 1.37-.65 2.79-.4 4.26.4 2.36.56 4.45 3.33 7.95-1.03.18-1.8-.46-2.54-1.13-.9-.79-1.54-1.8-2.26-3.32-1.25-2.64-1.98-5.43-1.09-8.41 1.18-3.96 5.07-5.56 8.68-3.49.81.47 1.54 1.07 2.39 1.67 1.05-2.15 2.25-3.95 4.75-4.61 2.58-.68 4.49.58 6.42 1.82zm-31.12 58.7c4.22-.39 3.23-4.34.91-7.51-1.4-1.9-3.22-3.49-4.84-5.21-.22.2-.29.23-.32.29-.17.3-.33.61-.49.91-3.03 5.46-6.86 10.17-12.48 13.18-1.45.78-2.91 1.55-4.4 2.24-.69.33-1.59.54-2.03-.29-.52-.99.48-1.23 1.07-1.64 2.47-1.76 4.94-3.52 7.37-5.32 2.35-1.74 3.48-4.41 4.98-6.79 3.23-5.09 3.97-10.66 2.95-16.5-.32-1.81-.98-3.58-2.62-4.84-.38.25-.74.44-1.05.7-1.87 1.61-4.08 2.54-6.43 3.16-5.61 1.49-12.8-1.2-14.76-7.17-.45-1.37-1.61-5.28-1.78-5.83-4.72-.29-9.09.63-13.25 2.36-4.45 1.84-8.83 3.87-13.12 6.06-4.24 2.15-8.2 4.85-12.48 6.89-13.46 6.43-27.41 11.48-42.04 14.59-3.73.79-7.41 1.53-11.25 1.21-.61-.05-1.23-.14-1.85-.22-.33-.04-.4-.49-.1-.61 2.81-1.2 5.97-.69 8.86-1.55 3.09-.93 6.25-1.66 9.34-2.62 2.95-.93 5.88-1.99 8.59-3.57-.72-.1-1.41-.06-2.08 0-2.54.2-5.08.53-7.63.6-7.74.22-15.4-.5-23.01-2.03-3.69-.75-7.12-2.06-10.45-3.76-.67-.29-.95-.86-.79-1.2.22-.46.86-.27 1.35.02.3.17.59.29.9.43.99.47 1.92.84 3.01 1.31 4.72 1.61 7.69 1.77 11.58 2.03 6.33.41 12.68.31 19.02.4.73 0 1.46-.13 2.2-.2.44-.03.45-.23.02-.38-3.01-1.14-6.11-2.1-9.02-3.47-2.89-1.36-5.58-3.12-8.36-4.71 4.07 1.11 7.94 2.62 11.88 3.91 4.03 1.32 8.17 2.15 12.43 2.27-2-.92-4.06-1.67-6.05-2.56-6.08-2.68-11.6-6.31-17.1-10.02-3.07-2.08-6.36-3.85-9.64-5.6-1.96-1.05-4.38-1.44-6.27-1.25-.58 3.32-1.01 5.56-2.11 8.28-.52 1.28-2.03 2.94-3.11 3.84-4.96 4.12-11.7 3.77-17.07.04-.61-.42-1.2-.86-1.85-1.32-.24.34-.43.54-.55.77-2.73 5.36-2.82 10.88-.73 16.41 2.1 5.55 5.46 10.75 9.92 14.56 1.59 1.36 3.11 2.26 5.35 3.18-2.14.28-4.27-.03-6.42-1.14-6.33-3.3-10.91-8.26-13.58-14.9-1.8.93-3.47 1.72-5.07 2.65-2.61 1.52-2.91 5.99-.58 7.9.85.7 1.36.55 1.87-.54.82-1.72.99-3.51.26-5.76.72.43 1.21 1.07 1.51 1.5.63 1.05.82 1.45.94 2.56.28 2.71-.52 5.3-2.08 7.42-2.49 3.38 1.28 9.62 5.28 9.47 1.88-.08 3.67-.35 5.39-1.06.45-.18.89-.72.99-1.2.63-3.08.59-6.04-1.9-8.45-.24-.24-.42-.56-.77-1.02 4.06 1.1 6.44 3.9 6.72 7.69.05.75.06 1.51.07 2.27.06 3.56 1.67 6.17 4.77 7.9.6.33 1.18.7 1.81.99 3.3 1.48 6.43 1.19 9.37-.94 1.12-.81 2.17-1.69 3.32-2.47 1.85-1.25 3.87-1.6 6.1-1.17 4.08.79 6.59 2.82 8.38 6.4.18.36.43 1.11.47 1.86q-7.42-5.32-9.36-4.86c.64 2.62 2 4.85 3.87 6.72 4.26 4.26 9.25 5.97 15.16 2.73 1.5-.82 3.08-1.58 4.72-2.06 5.97-1.76 10.38.13 14.73 4.79-3.44-1.43-6.68-2.35-10.49-2.1 2.73 3.9 6.05 6.5 10.38 7.37 2.67.52 5.48.36 8.24.43 3.74.1 7.24-.86 10.54-2.56 2.38-1.23 4.39-2.93 6.36-5.21-4.06-.4-7.53.58-11 1.76 1.25-1.19 2.49-2.29 3.9-3.13 1.16-.7 2.45-1.24 3.75-1.6 3.12-.89 6.15-.31 9.05 1 1.38.63 2.72 1.32 4.1 1.97 3.23 1.52 6.43 1.37 9.52-.32 1.14-.62 2.28-1.34 3.23-2.21 2.31-2.1 4.07-4.59 4.85-7.98-4.07.48-6.57 3.26-9.69 5.5.63-2.54 2.12-4.17 3.54-5.82 2.66-3.07 7.12-3.96 10.7-2.04 1.32.7 2.53 1.67 3.72 2.59 1.56 1.23 3.8 2.63 5.97 3.05 1.25.31 2.95.18 4.5-.2 1.98-.48 3.78-1.58 5.02-3.2 1.25-1.63 1.76-3.57 1.22-6.55-.24-1.28-.38-2.59-.36-3.89.05-2.56 1.08-4.59 3.56-5.75-.93 1.99-1.41 3.77-1.06 5.15.71 2.75 1.94 4.45 4.61 5.12 1.44.36 2.98.38 4.47.33.68-.02 1.47-.45 1.97-.94 2.13-2.06 2.56-5.4 1.16-8.01-.23-.43-.49-.84-.75-1.24-1.71-2.65-1.65-4.29-.65-7.04.36-.86 1.29-1.55 1.58-1.8-.63 3.66-.4 5.36 1.46 6.56zm-51.99-54.56c17.15-10.93 30.86-36.66 24.56-63.14-7.05-29.62-32.82-47.65-59.56-47.49-26.94.17-52.14 18.4-59 47.68-6.37 27.21 8.27 52.66 24.47 62.82-1.37-1.76-1.85-3.57-1.73-5.61.89 1.2 1.09 1.58 1.67 2.3 1.68 2.1 3.25 4.29 5.03 6.3 2.28 2.59 4.73 5.01 7.96 6.47 5.61 2.52 11.9 1.47 15.4-4.52.31-.54.62-1.08.95-1.6.24-.36.54-.7 1-1.3.58 1.89-.06 3.31-.61 4.65-.58 1.41-1.44 2.71-2.19 4.07 3.71 1 11.71 1.07 14.81-.15-1.81-2.43-3.3-4.98-2.84-8.2.53.39.84.89 1.18 1.36.97 1.33 1.85 2.75 2.95 3.97 2.38 2.63 5.58 3.26 8.87 2.91 3.67-.39 8-2.59 10.51-5.31 2.66-2.89 4.52-4.9 6.73-8.45.54-1.01.34-.67 1.32-2.31.13 3.17-.15 3.94-1.49 5.53zm17.83 8.01c-.36-5.46-.83-10.86-1.63-16.36-.38.24-.51.29-.6.38-.38.4-.74.82-1.11 1.23-4.77 5.42-10.19 10.08-16.5 13.64-2.58 1.46-5.06 2.99-7.35 4.91-3.46 2.9-7.48 3.99-11.98 2.91-.57-.14-1.21-.06-1.8-.01-3.49.3-6.98.86-10.48.88-3.63.03-7.28-.43-10.91-.7-1.63-.13-3.23-.44-4.89 0-1.03.27-2.18.2-3.27.12-3.7-.3-6.54-2.35-9.23-4.68-.62-.54-1.25-1.11-1.97-1.47-7.87-3.97-14.59-9.37-20.37-15.98-.38-.44-.82-.82-1.45-1.44-.54 5.59-1.04 10.84-1.55 16.21.56.06.89.13 1.23.13 3.97.05 7.6 1.3 10.85 3.48 6.77 4.54 13.92 8.4 21.16 12.08 4.61 2.33 9.36 4.34 14.34 5.76 3.22.91 6.3 1.09 9.37-.65 3.83-2.16 7.9-3.94 11.64-6.25 5.65-3.47 11.53-6.46 17.56-9.18 4.39-1.99 8.89-3.74 13.69-4.51 1.67-.26 3.39-.33 5.24-.49zm-106.79-18.77c.17-1.53-.04-2.74-.88-4.05-4.84-7.59-7.97-15.85-9.23-24.78-.24-1.69-.44-3.39-.68-5.27-1.57 1-2.2 2.4-2.51 3.85-.56 2.62-.93 5.28-1.37 7.92-1.74 10.45-2.24 20.96-1.99 31.53.02 1.05 0 1.28 0 1.28.95.79 2.93 2.91 3.78 3.82 1.81 1.92 2.88 4.36 2.24 7.27-.26-.65-.5-.98-.77-1.43-1.48-2.51-3.69-4.27-6.05-5.84-5.22-3.47-10.52-6.83-15.77-10.24-3.85-2.5-7.94-3.26-12.42-1.92-2.99.89-5.99.73-8.93-.4-.77-.3-1.55-.63-2.35-.77-1.55-.27-3.13-.57-4.69-.58-1.72 0-2.91 1.08-3.34 2.61-.45 1.6-.16 2.26 1.53 3.54 5.05-3.28 7.69-2.63 11.12 2.79.91-.61 1.78-1.28 2.72-1.81 2.48-1.4 7.04-.75 8.12 3.39.31 1.18.46 2.44.43 3.65-.08 3.74-.52 5.5-2.77 8.24-.56.67-2.8 1.97-3.47 1.05 1.71-1.56 2.14-2.76 2.71-4 1.17-2.53 1.38-4.75.42-7.57-.79-2.29-2.83-2.93-4.72-1.38-.94.77-1.9 1.71-2.42 2.78-1.71 3.51-2.68 7.25-2.53 11.18.1 2.51 1.23 4.54 3.58 5.63 1.61.75 3.37.73 5.07.3 3.4-.86 6.53-2.35 8.92-4.94 2.15-2.32 4.05-4.86 5.98-7.37.82-1.07 2.04-3.03 2.79-2.64 1.15.6-.43 4.44-1.48 6.43.2.27.33.51.52.7 3.54 3.74 7.8 6.57 12.11 9.29 1.2.75 2.94 1.21 4.33 1.02 4.93-.67 8.59-3.21 9.43-8.61.36-2.31.61-4.65.84-6.98.58-5.9 1.07-11.81 1.72-17.69zm-54.93 13.58c.68-1.97-.44-4.39-2.39-5.39-1.71-.87-3.28-.36-4.61 1.51-2.43 3.43-3.56 7.28-3.53 11.44.01 1.2.4 2.43.79 3.59.45 1.33 1.51 2.13 2.83 2.5 1.63.47 3.25.53 4.93-.36 0-1.36-.03-2.6 0-3.83.1-3.27.89-6.39 1.97-9.46zm-11.71-2.48c.16-.43.31-.95.22-1.36-.36-1.41-2.21-2.59-3.89-2.61-1.95 0-2.95.69-3.46 2.59-.24.86-.36 1.76-.38 2.65-.12 3.78 1.64 6.9 3.65 9.91.31.47.88.77 1.62 1.39-.04-6.29.04-6.69 2.24-12.57z"/><path d="m247.03 116.75c.01 3.21-1.62 4.87-4.78 4.9-3.14.03-5.54-2.22-5.65-5.06-.1-2.48 2.39-4.84 5.35-4.91 2.86-.06 5.07 2.19 5.08 5.07zm-1.76 1.44c.4-1.31.29-2.58-.72-3.63-.99-1.01-2.31-1.3-3.57-.79-1.77.7-2.86 2.2-2.59 3.53.29 1.44 2.19 2.73 3.94 2.69 1.52-.03 2.59-.64 2.94-1.8z"/><path d="m233.38 102.55c2.06 1.26 3.06 4.29 2.27 6.57-.74 2.12-3.16 3.53-5.66 3.29-2.45-.24-4.56-2.36-4.93-4.86-.22-1.58.56-3.24 1.8-4.45 1.21-.83 1.77-1.32 3.41-1.37 1.4 0 2.23.33 3.1.81zm.15 5.84c.52-1.28.22-3.34-.79-4.01-.55-.38-1.04-.69-2.05-.69-3.06.05-4.35 2.38-3.33 4.74.56 1.29 1.69 2.03 3.09 1.98 1.42-.06 2.52-.63 3.08-2.01z"/><path d="m232.61 52.13c1.32.71 1.9 1.57 1.86 3.09-.08 3.09-.03 6.2-.03 9.3h-.01c0 3.1.01 6.2 0 9.3-.01 1.55-.59 2.75-2.03 3.55-.78.43-1.55.86-2.33 1.3 2.37 4.88 4.38 9.96 5.99 15.12-1.46.05-2.91.23-4.34.54h-.01c-1.52-4.88-3.16-9.05-5.36-13.59-3.39 1.9-6.77 3.8-10.15 5.72-.95.54-1.75.62-2.7.08-5.39-3.05-10.79-6.08-16.2-9.12-.42-.24-.91-.45-1.18-.81-.38-.51-.84-1.14-.85-1.74-.12-5.37-.14-10.74-.2-16.1-.06-4.6.03-4.98 3.94-7.33 1.28-.77 2.58-1.53 3.87-2.27-6.23-5.74-13.12-10.68-20.52-14.75-.15.11-.32.22-.49.32-5.42 3-10.82 6.02-16.2 9.09-.95.54-1.76.59-2.7.06-5.33-3.01-10.68-6-16.02-9-.48-.27-1.02-.52-1.35-.93-.4-.49-.82-1.14-.83-1.74-.08-3.3-.11-6.61-.14-9.9-4.13-.49-8.34-.76-12.52-.76-4.4 0-8.84.29-13.18.84v8.76c0 1.64-.68 2.84-2.19 3.67-5.37 2.95-10.7 5.95-16.02 8.98-.94.54-1.75.65-2.7.12-5.39-3.05-10.79-6.08-16.2-9.12-.1-.06-.2-.13-.31-.19-7.26 4.02-14.02 8.89-20.15 14.53 1.8.99 3.59 1.98 5.39 2.95 1.39.75 2.02 1.67 1.98 3.25-.08 3.1-.03 6.2-.03 9.3h-.01c0 3.03.03 6.06-.01 9.09-.02 1.53-.59 2.79-2.01 3.58-5.47 3.05-10.94 6.1-16.38 9.2-.98.56-1.78.47-2.7-.04-3.28-1.84-6.55-3.67-9.83-5.51-2.14 4.44-3.76 8.56-5.25 13.35h-.01c-1.43-.31-2.88-.49-4.33-.54 1.58-5.08 3.56-10.09 5.88-14.9-.59-.33-1.18-.66-1.77-.99-.66-.37-1.37-.72-1.89-1.24-.44-.44-.9-1.12-.91-1.69-.08-6.13-.05-12.27-.13-18.39-.02-1.94.72-3.26 2.4-4.22 5.38-3.07 10.73-6.19 16.08-9.3.85-.49 1.57-.59 2.49-.07 2.37 1.34 4.74 2.67 7.12 3.99 6.72-6.35 14.22-11.8 22.29-16.24 0-4.52-.03-9.03-.15-13.54-.15-5.72-.06-6.1 4.77-8.94 4.57-2.69 9.22-5.23 13.82-7.86.86-.49 1.57-.54 2.49-.02 5.45 3.08 10.92 6.13 16.43 9.11 1.32.71 1.92 1.56 1.89 3.07-.06 1.85-.05 3.71-.04 5.55 4.35-.52 8.77-.8 13.18-.8 4.17 0 8.35.25 12.47.72 0-.57 0-1.14-.02-1.71-.06-4.79.01-5.17 4.14-7.64 4.79-2.86 9.69-5.53 14.52-8.31.88-.51 1.59-.48 2.48.02 5.46 3.08 10.92 6.14 16.43 9.12 1.33.72 1.87 1.6 1.84 3.1-.08 3.09-.03 6.2-.03 9.3h-.01c0 2.84.01 5.68 0 8.52 8.29 4.49 15.97 10.05 22.84 16.54 2.31-1.31 4.63-2.61 6.93-3.94.87-.5 1.59-.51 2.49 0 5.45 3.08 10.92 6.14 16.43 9.12zm-1.08 22.12v-19.44c-.33-.24-.54-.41-.78-.55-4.84-2.77-9.7-5.51-14.52-8.31-.98-.56-1.76-.45-2.68.1-4.49 2.67-8.98 5.37-13.55 7.91-1.57.87-2.03 1.99-2.03 3.64.02 5.16 0 10.33-.07 15.51-.01 1.06.39 1.61 1.28 2.09 2.12 1.14 4.17 2.41 6.29 3.55 3.25 1.76 6.54 3.46 9.57 5.05 5.67-3.29 11.09-6.43 16.5-9.55zm-50.5-42.65v-19.5c-5.3-3.03-10.39-5.92-15.45-8.86-.93-.54-1.67-.33-2.5.15-4.62 2.74-9.22 5.51-13.9 8.13-1.3.72-1.69 1.64-1.69 2.98-.01 5.37-.03 10.75-.09 16.13-.01.88.29 1.39 1.05 1.8 2.12 1.15 4.18 2.4 6.3 3.55 3.32 1.8 6.66 3.55 9.78 5.2 5.69-3.3 11.16-6.47 16.51-9.58zm-65.03.03v-19.54c-5.23-3-10.32-5.88-15.38-8.82-.92-.54-1.66-.4-2.5.1-4.5 2.66-8.99 5.35-13.55 7.92-1.5.84-2.14 1.87-2.13 3.58.06 5.24 0 10.48-.05 15.71 0 .85.22 1.4 1 1.83 5.42 2.97 10.82 5.98 15.99 8.84 5.73-3.32 11.14-6.46 16.61-9.62zm-50.29 42.68v-19.58c-5.29-3.03-10.38-5.94-15.45-8.86-.72-.41-1.37-.45-2.13-.05-5.4 2.89-10.69 5.95-16.01 9.53 0 5.9.01 11.9 0 17.9 0 .84.26 1.39 1.04 1.81 2.13 1.14 4.18 2.4 6.3 3.55 3.32 1.8 6.67 3.55 9.84 5.23 2.92-1.75 5.62-3.4 8.36-4.99 2.72-1.58 5.49-3.1 8.06-4.55z"/><path d="m230.38 56.52c.24.45-.5.91-.7 1.08-1.83 1.48-11.64 6.5-12.98 6.56-.64 0-.14-.72.2-.91 3.76-2.1 7.53-4.17 11.32-6.23.49-.26 1.95-.86 2.17-.5z"/><path d="m215.72 68.31c.03 3.94.11 7.68-.46 11.81-.11.83-.44.81-.56.08-.17-.62-.19-1.92-.2-2.55-.03-3.49.11-5.88.17-9.38 0-.35.15-1.86.49-1.86.43 0 .55 1.41.56 1.9z"/><path d="m202.98 57.15c3.02 1.74 11.09 6.38 10.81 6.89-.41.83-6.75-3.04-11.51-5.93-.56-.38-1.59-1.2-1.28-1.67.29-.2 1.59.47 1.99.7z"/><path d="m192.91 212.57c4.45-.17 7.24-.73 10.17-1.89-3.07 2.33-4.62 3.25-10.17 1.89z"/><path d="m202.87 214.32c-2.18 3.3-5.24 4.43-13.41 1.8 7.17.6 9.18-.27 13.41-1.8z"/><path d="m196.96 219.14c-3.5 2.38-5.15 4.7-13.67.86 7.6.72 9.62.37 13.67-.86z"/><path d="m141.21 215.2c13.41-6.15 26.81-12.3 40.22-18.45-6.33 6.81-37.6 21.13-40.22 18.45z"/><path d="m181.25 122.1c.22 5.84-.96 11.48-2.63 17.04-.83 2.78-1.86 5.46-3.34 7.97-.65 1.1-1.4 2.1-2.5 2.82.54-1.64 1.23-3.18 1.85-4.75 1.83-4.56 2.8-7.99 3.75-12.77.9-4.51 1.52-10.68.99-15.28-.03-.18-.04-.47 0-.66.01-.33.11-.63.63-.11.41.43.87 1.73.98 2.25.26 1.39.22 2.14.26 3.5z"/><path d="m179.81 13.74c.24.45-.5.91-.7 1.08-1.83 1.48-11.64 6.5-12.98 6.56-.64 0-.14-.72.2-.91 3.76-2.1 7.53-4.18 11.31-6.23.49-.26 1.95-.87 2.17-.5z"/><path d="m176.94 95.14c.08.33.18.89-.24 1.09-.66.22-1.09-1.37-1.33-1.69-1.3-2.78-1.87-3.73-3.76-5.99-3.3-3.64-10.96-4.7-15.11-2.93-2.75 1.38-4.16 2.25-5.92 3.86-.3.28-.79 0-.68-.4.44-1.55 1.71-3.45 2.29-4.06 2.47-2.49 6.83-5.05 12.61-3.94 7.32 1.27 11.42 7.45 12.15 14.06z"/><path d="m175.23 105.99c2.24 9.08 1.29 17.91-.09 27-1.3 8.61-5.13 16.47-9.09 24.15-1.62 3.15-3.71 5.99-6.23 8.46-2.51 2.47-5.16 4.79-8.71 5.71-3.78.99-6.61-.1-8.72-3.36-.22-.34-.47-.69-.61-1.07-.79-2.05-1.7-4.07-2.29-6.18-1.82-6.5-2.12-13.16-1.87-19.94.28-8.09.99-16.01 2.4-23.96.95-5.4 2.66-10.51 5.56-15.23 2.15-3.5 4.77-6.45 8.52-7.98 5.39-2.2 10.91-1.87 15.56 1.95 3.09 2.53 4.69 6.84 5.59 10.46zm-3.96 26.82c1.2-8.04 1.37-14.3.32-22.41-1.44-9.53-9.29-13.23-14.2-11.94-3.62 1.16-5.61 3.12-6.62 4.33-1.96 2.28-2.79 4.03-3.9 7.28.77.35 1.41.45 2.06.66 4.74 1.53 8.18 4.68 10.91 8.72 4.47 6.6 4.93 13.84 3.43 21.39-1.14 5.67-3.51 10.7-7.67 14.8-3.31 3.28-7.05 5.71-11.87 5.99.98 4.26 5.01 6.29 8.72 4.33 1.67-.89 3.24-2.1 4.62-3.42 4.24-4.06 7.1-9.09 9.58-14.36 2.3-4.89 3.79-10.05 4.64-15.37zm-16.86 19.99c4.95-6.37 7.44-13.67 6.56-21.79-.72-6.63-3.85-12-9.44-15.78-1.72-1.16-3.74-1.72-5.76-1.72-.42 1.39-.89 2.72-1.17 4.43 1.12-.2 2.21-.21 3.29.18 4.6 1.67 6.95 5.28 7.96 9.81 1.39 6.25.75 12.35-2.05 18.13-2.32 4.81-6.99 9.27-11.9 9.21.13 1.34.25 2.12.75 3.79 5.13-.09 8.89-2.57 11.76-6.25zm-6.27-12.45c.92-2.47 1.46-4.96.61-7.57-.36-1.14-.94-2.38-2.41-2.49-1.01-.07-2.36 1.21-2.88 2.91-.55 1.73-.75 3.16-.75 4.86s.02 3.33.29 4.95c.31 1.88 1.56 2.24 2.84.9.96-1.01 1.82-2.26 2.3-3.56z"/><path d="m161.66 231.75c8.13-.29 15.97-1.98 23.66-4.61-3.87 4.56-17.49 7.15-23.66 4.61z"/><path d="m173.85 187.85.17.27c-.49.45-.97.91-1.46 1.34-6.77 5.89-14.45 10.36-22.59 13.99-7.67 3.44-15.46 6.56-23.53 8.93-1.87.55-3.74.97-5.69.61-.43-.08-.83-.3-1.73-.64 1.8-.61 3.12-1.17 4.49-1.49 6.63-1.55 12.75-4.4 18.8-7.35 9.97-4.86 19.83-9.9 29.74-14.86.59-.29 1.21-.54 1.8-.8z"/><path d="m165.15 25.53c.03 3.94.11 7.68-.46 11.81-.11.83-.44.81-.56.08-.17-.62-.19-1.92-.2-2.55-.03-3.49.11-5.88.17-9.38 0-.35.15-1.86.49-1.86.43 0 .56 1.41.56 1.9z"/><path d="m152.41 14.38c3.02 1.74 11.09 6.38 10.8 6.89-.41.83-6.75-3.04-11.51-5.93-.56-.38-1.59-1.2-1.28-1.67.29-.19 1.58.48 1.99.71z"/><path d="m154.35 237.03c.75.27 1.57.49 1.9 1.6-8.04-1.52-16.02-2.29-24.05-2.38-8-.09-15.9.91-23.72 2.68-.49.13-.58-.19-.2-.54.46-.29.89-.67 1.39-.84 4.81-1.65 6.06-2.32 10.89-3.9.91-.29 4.09-1.12 6.95-1.45 7.23-.59 12.44-.45 19.29 1.99 2.08.73 5.47 2.12 7.54 2.86z"/><path d="m126.21 140.75c.24 6.78-.06 13.44-1.87 19.94-.59 2.11-1.51 4.13-2.29 6.18-.15.38-.39.73-.61 1.07-2.11 3.25-4.94 4.35-8.72 3.36-3.55-.92-6.2-3.25-8.71-5.71-2.52-2.47-4.61-5.31-6.23-8.46-3.97-7.68-7.79-15.54-9.09-24.15-1.38-9.09-2.33-17.92-.09-27 .9-3.62 2.5-7.93 5.59-10.46 4.66-3.82 10.17-4.15 15.56-1.95 3.75 1.53 6.37 4.48 8.52 7.98 2.91 4.72 4.61 9.83 5.56 15.23 1.41 7.94 2.12 15.87 2.4 23.96zm-4.31 14.52c-4.91.06-9.58-4.4-11.9-9.21-2.79-5.78-3.44-11.87-2.05-18.13 1.01-4.53 3.36-8.14 7.96-9.81 1.08-.39 2.17-.38 3.29-.18-.29-1.7-.75-3.03-1.17-4.43-2.03 0-4.04.56-5.76 1.72-5.59 3.78-8.72 9.14-9.44 15.78-.87 8.13 1.62 15.42 6.56 21.79 2.86 3.68 6.63 6.16 11.76 6.25.49-1.67.62-2.45.75-3.79zm-1.09-12.25c.27-1.62.29-3.24.29-4.95s-.2-3.14-.75-4.86c-.52-1.7-1.87-2.98-2.88-2.91-1.47.11-2.05 1.36-2.41 2.49-.84 2.61-.31 5.1.61 7.57.48 1.3 1.34 2.55 2.3 3.56 1.28 1.34 2.52.98 2.84-.9zm-3.86-32.94c-1.12-3.24-1.94-5-3.9-7.28-1.01-1.22-3-3.18-6.62-4.33-4.91-1.3-12.76 2.4-14.2 11.94-1.05 8.11-.88 14.37.32 22.41.85 5.32 2.34 10.47 4.64 15.37 2.47 5.27 5.33 10.29 9.58 14.36 1.38 1.32 2.95 2.54 4.62 3.42 3.71 1.97 7.74-.06 8.71-4.33-4.82-.29-8.56-2.72-11.87-5.99-4.16-4.1-6.54-9.14-7.67-14.8-1.51-7.55-1.04-14.79 3.43-21.39 2.73-4.03 6.17-7.18 10.91-8.72.64-.2 1.28-.31 2.06-.66z"/><path d="m110.55 220.69c10.01-1.89 14.24-2.52 23.81-5.85-8.26 4.68-12.07 6.92-23.81 5.85z"/><path d="m113.9 89.09c.12.39-.38.68-.68.4-1.76-1.61-3.17-2.48-5.92-3.86-4.15-1.78-11.81-.72-15.11 2.93-1.89 2.26-2.47 3.21-3.76 5.99-.24.33-.68 1.92-1.33 1.69-.43-.21-.33-.77-.24-1.09.72-6.61 4.82-12.79 12.15-14.06 5.78-1.11 10.14 1.46 12.61 3.94.57.61 1.85 2.52 2.29 4.06z"/><path d="m113.36 13.67c.31.47-.72 1.3-1.28 1.67-4.77 2.89-11.11 6.76-11.52 5.93-.28-.51 7.78-5.15 10.81-6.89.4-.23 1.7-.9 1.99-.71z"/><path d="m103.19 231.26c-.64 1.14-1.44 1.18-2.24 1.21-3.66.14-7.3-.1-10.85-1.07-2.58-.7-5.12-1.54-7.64-2.45-.99-.36-1.85-1.08-2.77-1.64-.39-.38-.25-.48.15-.38 7.62 1.92 15.23 3.86 23.35 4.33z"/><path d="m99.68 25.49c.06 3.5.21 5.89.17 9.38 0 .63-.02 1.93-.2 2.55-.13.73-.45.75-.56-.08-.56-4.13-.49-7.87-.46-11.81 0-.49.13-1.9.56-1.9.33 0 .48 1.51.49 1.86z"/><path d="m97.46 20.47c.33.19.84.91.2.91-1.33-.06-11.15-5.08-12.98-6.56-.21-.17-.95-.63-.7-1.08.22-.37 1.67.24 2.17.5 3.78 2.05 7.55 4.13 11.31 6.23z"/><path d="m89.17 145.17c.63 1.57 1.32 3.11 1.85 4.75-1.1-.72-1.85-1.71-2.5-2.82-1.48-2.5-2.51-5.18-3.34-7.97-1.67-5.56-2.85-11.2-2.63-17.04.05-1.36 0-2.1.26-3.5.11-.52.57-1.83.98-2.25.52-.52.61-.22.63.11.04.2.03.48 0 .66-.53 4.61.09 10.77.99 15.28.95 4.78 1.92 8.21 3.75 12.77z"/><path d="m77.01 217.8c.14.02.15.23.01.26-5.32 1.25-9.41.26-14.47-3.39-.07-.05-.01-.16.07-.13 6.77 2.29 9.39 2.68 14.38 3.26z"/><path d="m74.33 221.69c2.7.08 2.79-.2 4.26-.34-2.54 1.97-6.75 1.95-9.49-.49 1.27.33 2.93.77 5.23.84z"/><path d="m63.57 210.98c.26-.72 8.48 1.09 8.27 1.56-.3.63-8.56-.81-8.27-1.56z"/><path d="m63.16 56.45c.31.47-.72 1.29-1.28 1.67-4.77 2.89-11.1 6.76-11.51 5.93-.29-.51 7.78-5.15 10.81-6.89.4-.23 1.7-.9 1.99-.7z"/><path d="m49.14 110.41c2.31 3.53 3.46 7.06 3.34 11.24-.1 3.26-3.64 6.11-6.94 7.96-5.26 2.61-10.61 3.23-10.9 3.35.33 1.7.59 3.45 1.01 5.16 1.17 4.79-1.43 10-7.64 10.37-2.43.14-4.81.09-7.12-.82-2.28-.89-3.75-2.45-3.71-4.94.03-2.18.4-4.36.69-6.54.14-1.08.45-2.13.72-3.34-2.61-.49-4.93-.83-7.18-1.4-3.09-.78-5.99-1.97-8.33-4.31-2.75-2.75-3.51-6.06-2.84-9.7 1.35-7.41 5.77-12.68 12.15-16.36 2.49-1.44 5.09-2.77 7.81-3.69 7.09-2.4 13.71-1.1 19.74 3.26 3.44 2.49 7.28 6.63 9.21 9.74zm-6.46 16.04c3.88-1.21 6.78-5.16 5.9-8.47-2.7.53-5.38.09-6.8-2.23-1.68-2.74-1.6-5.79 1.24-8.26-2.49-2.9-4.49-4.39-6.03-5.35-5.67-3.92-13.77-3.85-18.77-.53 1.21 3.62.45 6.43-2.31 8.68-1.85 1.5-3.67 1.71-5.75.54-.87-.49-1.66-1.14-2.47-1.72-3.12 3.23-4.7 7.99-3.28 11.18 1.75.13 3.71-.49 5.19 1.14 1.39 1.54 1.9 3.3 1.48 5.54 6.47 1.8 12.98 2.84 19.71 2.32.03-.61.07-1.02.08-1.43 0-2.68 1.28-4.03 3.53-5.33 2.01-1.16 4.49-.79 6.24.77 1.19 1.07 1.46 1.68 2.03 3.15zm.74-12.07c.94 1.46 2.72 1.9 4.68 1.65-.86-3.24-2.13-5.41-3.94-7.04-1.6 1.31-1.83 3.69-.74 5.39zm-2.38 12.71c-.79-2.49-2.73-3.88-4.7-3.47-2.46.51-3.97 2.75-3.55 5.42 2.93.06 5.55-.85 8.26-1.95zm-10.93 16.6c1.44-.66 2.13-1.83 1.98-3.32-.24-2.38-.66-4.75-1-7.11h-2.7c0 1.64-.01 5.39-.01 6.89-.02.77-.52.92-.68.1-.31-1.57-.59-5.32-.91-6.95h-2.02c0 .36-.3 2.9-.47 3.77-.15.78-.71.29-.71-.4-.04-.85-.17-2.47-.28-3.39-.93 0-1.37-.15-2.32-.15-.32 2.28-.66 4.45-.91 6.62-.21 1.8.7 3.09 2.24 3.84 2.55 1.23 5.16 1.3 7.77.09zm-15.56-35.12c2.16-1.54 2.75-4.06 1.34-6.06-2.39 1.21-4.59 2.68-6.56 4.71 1.66 2.21 3.45 2.61 5.23 1.34zm-5.18 17.56c.59-3.21-.93-4.64-4.31-3.99.84 2.17 2.49 3.11 4.31 3.99z"/><path d="m49.48 68.27c.06 3.5.2 5.89.17 9.38 0 .63-.02 1.93-.2 2.55-.13.73-.45.75-.56-.08-.56-4.13-.49-7.87-.46-11.81 0-.49.13-1.9.56-1.9.33 0 .48 1.51.49 1.86z"/><path d="m47.26 63.25c.33.19.84.91.2.91-1.32-.06-11.15-5.08-12.97-6.56-.21-.17-.95-.63-.71-1.08.22-.36 1.68.24 2.17.5 3.79 2.06 7.55 4.13 11.32 6.23z"/><path d="m36.94 103.11c1.24 1.21 2.03 2.86 1.8 4.45-.36 2.5-2.47 4.62-4.93 4.86-2.49.24-4.92-1.17-5.66-3.29-.79-2.28.22-5.31 2.27-6.57.87-.48 1.7-.81 3.11-.81 1.64.04 2.19.54 3.4 1.37zm-.49 5.32c1.02-2.36-.27-4.69-3.33-4.74-1.01 0-1.5.31-2.05.69-1 .68-1.3 2.73-.79 4.01.56 1.38 1.67 1.95 3.08 2.01 1.4.06 2.54-.69 3.09-1.98z"/><path d="m21.87 111.68c2.95.06 5.44 2.43 5.35 4.91-.1 2.84-2.52 5.09-5.65 5.06-3.16-.03-4.79-1.69-4.78-4.9 0-2.88 2.22-5.12 5.09-5.07zm3.57 5.61c.27-1.34-.82-2.83-2.59-3.53-1.27-.51-2.59-.22-3.57.79-1.02 1.05-1.12 2.32-.72 3.63.36 1.16 1.42 1.76 2.94 1.8 1.76.04 3.65-1.25 3.95-2.69z"/></g><path d="m260.11 165.77c.37 2.05.4 4.15-.36 6.1-.75 1.9-1.74 3.72-2.73 5.52-.33.61-.99 1.05-1.5 1.56-.15-.08-.3-.15-.45-.22.44-4.31-.61-8.33-2.34-12.2-.33-.72-.17-1.3.23-1.9 1.14-1.73 3.64-2.45 5.48-1.54 1.12.54 1.48 1.61 1.68 2.69z" fill="#fff799"/><path d="m256.12 109.1c3.11 3.23 4.69 7.99 3.28 11.18-1.66-.1-4.24-.42-5.72 1.22-1.39 1.53-1.37 3.22-.95 5.46-6.47 1.8-13.11 2.75-19.85 2.22.12-.62.07-.92.07-1.33-.01-2.68-1.28-4.03-3.53-5.33-2.01-1.16-4.5-.79-6.24.77-1.2 1.07-1.46 1.68-2.03 3.15-3.89-1.21-6.79-5.16-5.9-8.47 2.69.53 5.38.09 6.79-2.23 1.69-2.74 1.6-5.79-1.23-8.26 2.49-2.9 4.49-4.39 6.02-5.35 5.67-3.92 13.78-3.85 18.77-.53-1.2 3.62-.45 6.43 2.31 8.68 1.84 1.5 3.66 1.71 5.74.54.88-.49 1.66-1.14 2.47-1.72zm-13.87 12.55c3.16-.03 4.79-1.69 4.78-4.9 0-2.88-2.22-5.12-5.08-5.07-2.96.06-5.45 2.43-5.35 4.91.11 2.84 2.52 5.09 5.65 5.06zm-6.59-12.52c.79-2.28-.22-5.31-2.27-6.57-.87-.48-1.7-.81-3.1-.81-1.64.04-2.2.54-3.41 1.37-1.24 1.21-2.03 2.86-1.8 4.45.36 2.5 2.47 4.62 4.93 4.86 2.49.24 4.92-1.17 5.66-3.29z" fill="#ea5506"/><path d="m254.45 126.12c-.59-3.21.93-4.64 4.31-3.99-.84 2.17-2.49 3.11-4.31 3.99z" fill="#fff"/><path d="m251.65 176.06c.02.48 0 .96-.06 1.44-.49 4.79-3.78 6.73-8.59 4.87.5-4.7-.45-9.1-1.95-13.44-.78-2.26 1.25-5.3 3.59-5.59 1.6-.19 2.62.76 3.44 1.9 2.33 3.21 3.38 6.88 3.56 10.82z" fill="#fff799"/><path d="m254.5 107.21c-1.67 2.21-3.45 2.61-5.23 1.34-2.16-1.54-2.75-4.06-1.34-6.06 2.39 1.21 4.59 2.68 6.57 4.71z" fill="#fff"/><path d="m251.21 159.72c.06 1.18-.69 1.71-1.5 2.45-1.93-1.24-3.84-2.5-6.42-1.82-2.49.66-3.7 2.46-4.75 4.61-.85-.6-1.58-1.2-2.39-1.67-3.62-2.07-7.51-.47-8.68 3.49-.89 2.98-.15 5.77 1.09 8.41.72 1.53 1.37 2.54 2.26 3.32.74.67 1.51 1.31 2.54 1.13-2.77-3.5-2.93-5.59-3.33-7.95-.24-1.46-.19-2.89.4-4.26.77-1.77 2.42-2.34 4.08-1.34 1.46.86 2.57 2.12 3.22 3.67 1.3 3.14 2.1 6.38 2.24 9.81.16 4.12-2.64 8.14-8.66 6.75-3.35-.77-6.41-2.27-8.77-4.81-2.15-2.31-4.03-4.86-6.03-7.32-.39-.48-.69-1.05-1.13-1.47-.52-.51-1.02-1.71-1.74-1.37-.94.61.29 4.43 1.49 6.41-1.71 2.29-3.92 3.92-6.1 5.58-1.71 1.29-3.54 2.4-5.22 3.72-5.21 4.11-13.18.43-14.72-5.17-.22-.79-.43-1.61-.52-2.43-.59-5.76-1.14-11.53-1.71-17.28-.22-2.26-.45-4.52-.71-6.78-.13-1.1-.25-2.12.43-3.16 6.08-9.3 9.48-19.52 10.3-30.75 1.16.4 1.68 1.32 1.97 2.24.64 2.03 1.32 4.08 1.61 6.17.77 5.53 1.57 11.07 1.91 16.63.38 6.26.29 12.54.34 18.81 0 .59-.43 1.28-.84 1.76-.77.88-1.69 1.62-2.53 2.44-1.84 1.81-3.58 4.91-2.96 7.69.52-.66.66-1.18.91-1.62 1.44-2.45 3.8-4.06 6.1-5.59 5.44-3.63 10.95-7.18 16.47-10.68 3.54-2.24 7.37-2.97 11.47-1.75 3.36 1 6.66.81 9.92-.47 2-.78 4.06-1.33 6.24-1.23 2.38.1 3.6 1.47 3.7 3.83z" fill="#fff799"/><path d="m244.54 114.55c1.02 1.05 1.13 2.32.72 3.63-.36 1.16-1.42 1.76-2.94 1.8-1.76.04-3.65-1.25-3.94-2.69-.28-1.34.82-2.83 2.59-3.53 1.27-.51 2.59-.22 3.57.79z" fill="#fff"/><path d="m243.72 139.75c.2 1.8-.7 3.09-2.25 3.84-2.55 1.23-5.16 1.3-7.77.09-1.43-.66-2.12-1.83-1.98-3.32.24-2.38.66-4.75 1-7.11h2.69c0 1.64.01 5.39.01 6.89.02.77.52.92.68.1.31-1.57.59-5.32.91-6.95h2.02c0 .36.3 2.9.47 3.77.15.78.71.29.71-.4.04-.85.17-2.47.28-3.39.93 0 1.37-.15 2.33-.15.31 2.28.66 4.45.91 6.62z" fill="#fffcdb"/><path d="m232.75 104.38c1 .68 1.3 2.73.79 4.01-.56 1.38-1.66 1.95-3.08 2.01-1.39.06-2.53-.69-3.09-1.98-1.02-2.36.27-4.69 3.33-4.74 1.01 0 1.5.31 2.05.69z" fill="#fff"/><path d="m231.53 54.81v19.44c-5.41 3.13-10.82 6.26-16.5 9.55-3.02-1.6-6.31-3.29-9.57-5.05-2.13-1.14-4.17-2.41-6.29-3.55-.89-.48-1.29-1.03-1.28-2.09.07-5.17.09-10.34.07-15.51 0-1.64.46-2.77 2.03-3.64 4.57-2.54 9.05-5.24 13.55-7.91.92-.55 1.7-.66 2.68-.1 4.82 2.8 9.68 5.54 14.52 8.31.24.14.45.31.78.55zm-1.85 2.79c.2-.17.95-.63.7-1.08-.22-.36-1.68.24-2.17.5-3.78 2.06-7.55 4.13-11.32 6.23-.33.19-.84.91-.2.91 1.33-.06 11.15-5.08 12.98-6.56zm-14.41 22.52c.57-4.13.49-7.87.46-11.81 0-.49-.13-1.9-.56-1.9-.33 0-.49 1.51-.49 1.86-.06 3.5-.21 5.89-.17 9.38 0 .63.02 1.93.2 2.55.13.73.45.75.56-.08zm-1.48-16.08c.29-.51-7.78-5.15-10.81-6.89-.4-.23-1.69-.9-1.99-.7-.31.47.72 1.29 1.28 1.67 4.77 2.89 11.1 6.76 11.51 5.93z" fill="#ea5506"/><path d="m227.47 123.61c2.46.51 3.97 2.75 3.55 5.42-2.93.06-5.54-.85-8.26-1.95.79-2.49 2.73-3.88 4.7-3.47z" fill="#fff"/><path d="m219.65 108.98c1.6 1.31 1.83 3.69.74 5.39-.94 1.46-2.72 1.9-4.68 1.65.86-3.24 2.13-5.41 3.94-7.04z" fill="#fff"/><path d="m219.5 213.37c2.33 3.16 3.31 7.12-.91 7.51-1.85-1.2-2.08-2.9-1.46-6.56-.29.24-1.23.94-1.58 1.8-1 2.75-1.07 4.39.65 7.04.26.4.52.82.75 1.24 1.41 2.61.98 5.94-1.16 8.01-.5.49-1.3.92-1.97.94-1.49.05-3.04.02-4.47-.33-2.67-.67-3.9-2.36-4.61-5.12-.36-1.38.13-3.16 1.06-5.15-2.48 1.16-3.51 3.19-3.56 5.75-.02 1.3.12 2.61.36 3.89.54 2.98.03 4.92-1.22 6.55-1.23 1.62-3.04 2.72-5.02 3.2-1.55.38-3.25.51-4.5.2-2.17-.42-4.41-1.82-5.97-3.05-1.19-.93-2.4-1.89-3.72-2.59-3.59-1.92-8.05-1.03-10.7 2.04-1.42 1.65-2.91 3.28-3.54 5.82 3.12-2.24 5.62-5.02 9.69-5.5-.78 3.39-2.54 5.87-4.85 7.98-.95.87-2.09 1.59-3.23 2.21-3.09 1.69-6.29 1.84-9.52.32-1.37-.65-2.72-1.34-4.1-1.97-2.91-1.32-5.93-1.89-9.05-1-1.3.36-2.59.91-3.75 1.6-1.4.84-2.65 1.94-3.9 3.13 3.47-1.18 6.93-2.16 11-1.76-1.97 2.27-3.98 3.98-6.36 5.21-3.3 1.69-6.8 2.66-10.54 2.56-2.75-.07-5.57.1-8.24-.43-4.33-.86-7.65-3.47-10.38-7.37 3.82-.25 7.06.67 10.49 2.1-4.36-4.67-8.77-6.56-14.73-4.79-1.64.48-3.22 1.24-4.72 2.06-5.9 3.24-10.89 1.53-15.16-2.73-1.87-1.87-3.23-4.1-3.87-6.72q1.94-.45 9.36 4.86c-.03-.75-.29-1.5-.47-1.86-1.79-3.57-4.31-5.6-8.38-6.4-2.24-.43-4.25-.08-6.1 1.17-1.14.77-2.2 1.66-3.32 2.47-2.94 2.13-6.08 2.42-9.37.94-.63-.29-1.21-.66-1.81-.99-3.1-1.72-4.72-4.33-4.77-7.9-.01-.76-.02-1.52-.07-2.27-.28-3.79-2.66-6.59-6.72-7.69.35.47.52.79.77 1.02 2.48 2.41 2.52 5.37 1.9 8.45-.1.48-.54 1.02-.99 1.2-1.71.71-3.51.98-5.39 1.06-3.99.15-7.76-6.09-5.28-9.47 1.57-2.13 2.36-4.71 2.08-7.42-.12-1.11-.31-1.51-.94-2.56-.3-.43-.79-1.07-1.51-1.5.73 2.25.56 4.04-.26 5.76-.52 1.09-1.02 1.23-1.87.54-2.33-1.91-2.03-6.38.58-7.9 1.6-.93 3.27-1.71 5.07-2.65 2.67 6.64 7.25 11.6 13.58 14.9 2.15 1.12 4.28 1.42 6.42 1.14-2.24-.92-3.76-1.83-5.35-3.18-4.46-3.8-7.82-9-9.92-14.56-2.08-5.53-2-11.05.73-16.41.12-.24.31-.43.55-.77.65.46 1.24.9 1.85 1.32 5.37 3.73 12.11 4.08 17.07-.04 1.07-.9 2.59-2.56 3.11-3.84 1.1-2.72 1.53-4.95 2.11-8.28 1.89-.2 4.31.2 6.27 1.25 3.28 1.75 6.56 3.52 9.64 5.6 5.5 3.71 11.02 7.34 17.1 10.02 1.99.89 4.05 1.64 6.05 2.56-4.26-.13-8.4-.95-12.43-2.27-3.94-1.29-7.81-2.8-11.88-3.91 2.77 1.59 5.47 3.35 8.36 4.71 2.91 1.37 6.01 2.33 9.02 3.47.43.15.42.36-.02.38-.73.07-1.46.2-2.2.2-6.34-.09-12.7.01-19.02-.4-3.89-.26-6.86-.42-11.58-2.03-1.09-.47-2.02-.84-3.01-1.31-.31-.14-.6-.25-.9-.43-.49-.29-1.14-.48-1.35-.02-.17.33.12.91.79 1.2 3.32 1.7 6.75 3.02 10.45 3.76 7.61 1.53 15.27 2.25 23.01 2.03 2.55-.07 5.09-.4 7.63-.6.68-.06 1.36-.1 2.08 0-2.71 1.57-5.64 2.64-8.59 3.57-3.09.96-6.24 1.69-9.34 2.62-2.89.86-6.05.35-8.86 1.55-.3.13-.23.57.1.61.61.08 1.23.17 1.85.22 3.83.33 7.52-.42 11.25-1.21 14.63-3.11 28.58-8.16 42.04-14.59 4.28-2.04 8.24-4.74 12.48-6.89 4.29-2.19 8.67-4.22 13.12-6.06 4.16-1.73 8.53-2.65 13.25-2.36.17.55 1.33 4.46 1.78 5.83 1.96 5.97 9.15 8.66 14.76 7.17 2.36-.63 4.56-1.55 6.43-3.16.31-.26.67-.45 1.05-.7 1.64 1.25 2.3 3.02 2.62 4.84 1.02 5.83.28 11.4-2.95 16.5-1.5 2.38-2.63 5.05-4.98 6.79-2.43 1.8-4.91 3.56-7.37 5.32-.59.42-1.59.66-1.07 1.64.45.84 1.34.62 2.03.29 1.49-.69 2.95-1.46 4.4-2.24 5.62-3 9.45-7.72 12.48-13.18.17-.3.33-.61.49-.91.03-.06.1-.09.32-.29 1.62 1.71 3.44 3.3 4.84 5.21zm-16.41-2.68c-2.93 1.16-5.72 1.71-10.17 1.89 5.55 1.37 7.1.44 10.17-1.89zm-13.62 5.43c8.17 2.63 11.23 1.5 13.41-1.8-4.23 1.53-6.24 2.4-13.41 1.8zm-6.17 3.89c8.52 3.84 10.17 1.51 13.67-.86-4.05 1.23-6.06 1.59-13.67.86zm-1.87-23.25c-13.41 6.15-26.81 12.3-40.22 18.45 2.62 2.68 33.88-11.64 40.22-18.45zm3.9 30.39c-7.69 2.63-15.53 4.32-23.66 4.61 6.17 2.54 19.78-.06 23.66-4.61zm-11.3-39.02-.17-.27c-.6.26-1.21.51-1.8.8-9.91 4.96-19.78 10.01-29.74 14.86-6.06 2.95-12.17 5.8-18.8 7.35-1.37.32-2.68.89-4.49 1.49.9.34 1.3.56 1.73.64 1.95.36 3.82-.06 5.69-.61 8.08-2.36 15.87-5.49 23.53-8.93 8.14-3.64 15.81-8.1 22.59-13.99.49-.43.98-.89 1.46-1.34zm-17.77 50.5c-.33-1.1-1.15-1.32-1.9-1.6-2.07-.74-5.46-2.13-7.54-2.86-6.85-2.43-12.06-2.57-19.29-1.99-2.86.33-6.05 1.16-6.95 1.45-4.83 1.58-6.08 2.25-10.89 3.9-.5.17-.93.56-1.39.84-.38.35-.3.66.2.54 7.82-1.76 15.72-2.77 23.72-2.68 8.03.09 16.01.86 24.05 2.38zm-21.89-23.78c-9.56 3.33-13.79 3.97-23.81 5.85 11.74 1.07 15.54-1.18 23.81-5.85zm-33.41 17.64c.8-.03 1.6-.08 2.24-1.21-8.12-.47-15.73-2.41-23.35-4.33-.4-.1-.54 0-.15.38.92.56 1.78 1.29 2.77 1.64 2.52.91 5.06 1.75 7.64 2.45 3.55.97 7.19 1.21 10.85 1.07zm-23.92-14.42c.14-.03.13-.24-.01-.26-5-.59-7.61-.98-14.38-3.26-.08-.03-.14.08-.07.13 5.06 3.65 9.14 4.63 14.47 3.39zm1.57 3.29c-1.47.14-1.56.43-4.26.34-2.31-.06-3.97-.5-5.23-.84 2.75 2.45 6.95 2.46 9.49.49zm-6.75-8.81c.21-.47-8.01-2.28-8.27-1.56-.29.75 7.97 2.19 8.27 1.56z" fill="#fac03e"/><path d="m191.17 103.18c6.3 26.47-7.41 52.21-24.56 63.14 1.34-1.6 1.62-2.36 1.49-5.53-.98 1.64-.78 1.3-1.32 2.31-2.21 3.55-4.08 5.56-6.73 8.45-2.51 2.72-6.84 4.92-10.51 5.31-3.3.36-6.49-.28-8.87-2.91-1.1-1.22-1.99-2.63-2.95-3.97-.34-.47-.65-.97-1.18-1.36-.45 3.22 1.03 5.76 2.84 8.2-3.09 1.23-11.09 1.15-14.81.15.75-1.36 1.61-2.66 2.19-4.07.55-1.34 1.19-2.76.61-4.65-.46.6-.75.93-1 1.3-.33.52-.64 1.06-.95 1.6-3.51 5.99-9.79 7.04-15.4 4.52-3.23-1.46-5.68-3.89-7.96-6.47-1.78-2.01-3.35-4.2-5.03-6.3-.58-.72-.78-1.1-1.67-2.3-.12 2.04.36 3.85 1.73 5.61-16.2-10.17-30.84-35.62-24.47-62.82 6.86-29.28 32.06-47.51 59-47.68 26.75-.17 52.52 17.87 59.56 47.49zm-12.54 35.96c1.67-5.56 2.85-11.2 2.63-17.04-.05-1.36 0-2.1-.26-3.5-.11-.52-.57-1.83-.98-2.25-.52-.52-.61-.22-.63.11-.04.2-.03.48 0 .66.53 4.61-.09 10.77-.99 15.28-.95 4.78-1.92 8.21-3.75 12.77-.63 1.57-1.32 3.11-1.85 4.75 1.1-.72 1.85-1.71 2.5-2.82 1.48-2.5 2.51-5.18 3.34-7.97zm-1.92-42.91c.43-.21.33-.77.24-1.09-.72-6.61-4.82-12.79-12.15-14.06-5.78-1.11-10.14 1.46-12.61 3.94-.57.61-1.85 2.52-2.29 4.06-.12.39.38.68.68.4 1.76-1.61 3.17-2.48 5.92-3.86 4.15-1.78 11.81-.72 15.11 2.93 1.89 2.26 2.47 3.21 3.76 5.99.24.33.68 1.92 1.33 1.69zm-1.56 36.76c1.38-9.09 2.33-17.92.09-27-.9-3.62-2.5-7.93-5.59-10.46-4.66-3.82-10.17-4.15-15.56-1.95-3.75 1.53-6.37 4.48-8.52 7.98-2.91 4.72-4.61 9.83-5.56 15.23-1.41 7.94-2.12 15.87-2.4 23.96-.24 6.78.06 13.44 1.87 19.94.59 2.11 1.51 4.13 2.29 6.18.15.38.39.73.61 1.07 2.11 3.25 4.94 4.35 8.72 3.36 3.55-.92 6.2-3.25 8.71-5.71 2.52-2.47 4.61-5.31 6.23-8.46 3.97-7.68 7.79-15.54 9.09-24.15zm-50.8 27.71c1.82-6.5 2.12-13.16 1.87-19.94-.28-8.09-.99-16.01-2.4-23.96-.95-5.4-2.66-10.51-5.56-15.23-2.15-3.5-4.77-6.45-8.52-7.98-5.39-2.2-10.91-1.87-15.56 1.95-3.09 2.53-4.69 6.84-5.59 10.46-2.24 9.08-1.29 17.91.09 27 1.3 8.61 5.13 16.47 9.09 24.15 1.62 3.15 3.71 5.99 6.23 8.46 2.51 2.47 5.16 4.79 8.71 5.71 3.78.99 6.61-.1 8.72-3.36.22-.34.47-.69.61-1.07.79-2.05 1.7-4.07 2.29-6.18zm-11.11-71.21c.3.28.79 0 .68-.4-.44-1.55-1.71-3.45-2.29-4.06-2.47-2.49-6.83-5.05-12.61-3.94-7.32 1.27-11.42 7.45-12.15 14.06-.08.33-.18.89.24 1.09.66.22 1.09-1.37 1.33-1.69 1.3-2.78 1.87-3.73 3.76-5.99 3.3-3.64 10.96-4.7 15.11-2.93 2.75 1.38 4.16 2.25 5.92 3.86zm-22.2 60.43c-.54-1.64-1.23-3.18-1.85-4.75-1.83-4.56-2.8-7.99-3.75-12.77-.9-4.51-1.52-10.68-.99-15.28.03-.18.04-.47 0-.66-.01-.33-.11-.63-.63-.11-.41.43-.87 1.73-.98 2.25-.26 1.39-.22 2.14-.26 3.5-.22 5.84.96 11.48 2.63 17.04.83 2.78 1.86 5.46 3.34 7.97.65 1.1 1.4 2.1 2.5 2.82z" fill="#fff799"/><path d="m181.03 12.1v19.49c-5.35 3.11-10.82 6.28-16.51 9.58-3.12-1.65-6.46-3.4-9.78-5.2-2.12-1.14-4.18-2.4-6.3-3.55-.75-.42-1.06-.93-1.05-1.8.06-5.37.08-10.75.09-16.13 0-1.33.4-2.25 1.69-2.98 4.68-2.63 9.28-5.39 13.9-8.13.83-.49 1.57-.69 2.5-.15 5.06 2.94 10.15 5.83 15.45 8.86zm-1.92 2.72c.2-.17.95-.63.7-1.08-.22-.37-1.67.24-2.17.5-3.78 2.05-7.55 4.13-11.31 6.23-.34.19-.84.91-.2.91 1.33-.06 11.15-5.08 12.98-6.56zm-14.41 22.52c.57-4.13.49-7.87.46-11.81 0-.49-.13-1.9-.56-1.9-.33 0-.48 1.51-.49 1.86-.06 3.5-.21 5.89-.17 9.38 0 .63.02 1.93.2 2.55.13.73.45.75.56-.08zm-1.48-16.08c.29-.51-7.78-5.15-10.8-6.89-.4-.23-1.7-.9-1.99-.71-.31.47.72 1.3 1.28 1.67 4.77 2.89 11.1 6.76 11.51 5.93z" fill="#ea5506"/><path d="m171.59 110.41c1.05 8.11.88 14.37-.32 22.41-.85 5.32-2.34 10.47-4.64 15.37-2.47 5.27-5.33 10.29-9.58 14.36-1.38 1.32-2.95 2.54-4.62 3.42-3.71 1.97-7.74-.06-8.72-4.33 4.82-.29 8.56-2.72 11.87-5.99 4.16-4.1 6.54-9.14 7.67-14.8 1.51-7.55 1.04-14.79-3.43-21.39-2.73-4.03-6.17-7.18-10.91-8.72-.64-.2-1.28-.31-2.06-.66 1.12-3.24 1.94-5 3.9-7.28 1.01-1.22 3-3.18 6.62-4.33 4.91-1.3 12.76 2.4 14.2 11.94z" fill="#fff"/><path d="m160.98 131.02c.87 8.13-1.62 15.42-6.56 21.79-2.86 3.68-6.63 6.16-11.76 6.25-.49-1.67-.62-2.45-.75-3.79 4.91.06 9.58-4.4 11.9-9.21 2.79-5.78 3.44-11.87 2.05-18.13-1.01-4.53-3.36-8.14-7.96-9.81-1.08-.39-2.17-.38-3.29-.18.29-1.7.75-3.03 1.17-4.43 2.03 0 4.04.56 5.76 1.72 5.59 3.78 8.72 9.14 9.44 15.78z" fill="#7ecef4"/><path d="m148.75 132.79c.84 2.61.31 5.1-.61 7.57-.48 1.3-1.34 2.55-2.3 3.56-1.28 1.34-2.52.98-2.84-.9-.27-1.62-.29-3.24-.29-4.95s.2-3.14.75-4.86c.52-1.7 1.87-2.98 2.88-2.91 1.47.11 2.05 1.36 2.41 2.49z" fill="#fff"/><path d="m110 146.06c2.32 4.81 6.99 9.27 11.9 9.21-.13 1.34-.25 2.12-.75 3.79-5.13-.09-8.89-2.57-11.76-6.25-4.95-6.37-7.44-13.67-6.56-21.79.72-6.63 3.85-12 9.44-15.78 1.72-1.16 3.74-1.72 5.76-1.72.42 1.39.89 2.72 1.17 4.43-1.12-.2-2.21-.21-3.29.18-4.6 1.67-6.95 5.28-7.96 9.81-1.39 6.25-.75 12.35 2.05 18.13z" fill="#7ecef4"/><path d="m121.09 138.07c0 1.71-.02 3.33-.29 4.95-.31 1.88-1.56 2.24-2.84.9-.96-1.01-1.82-2.26-2.3-3.56-.92-2.47-1.46-4.96-.61-7.57.36-1.14.94-2.38 2.41-2.49 1.01-.07 2.36 1.21 2.88 2.91.55 1.73.75 3.16.75 4.86z" fill="#fff"/><path d="m116 12.09v19.53c-5.46 3.16-10.88 6.3-16.61 9.62-5.17-2.86-10.57-5.87-15.99-8.84-.78-.43-1.01-.98-1-1.83.05-5.23.1-10.47.05-15.71-.01-1.71.63-2.74 2.13-3.58 4.56-2.56 9.05-5.25 13.55-7.92.84-.49 1.58-.63 2.5-.1 5.06 2.94 10.15 5.83 15.38 8.82zm-3.92 3.25c.56-.38 1.58-1.2 1.28-1.67-.29-.19-1.58.48-1.99.71-3.02 1.74-11.09 6.38-10.81 6.89.41.83 6.75-3.04 11.52-5.93zm-12.24 19.53c.04-3.49-.11-5.88-.17-9.38 0-.35-.15-1.86-.49-1.86-.43 0-.56 1.41-.56 1.9-.03 3.94-.1 7.68.46 11.81.11.83.44.81.56.08.17-.62.2-1.92.2-2.55zm-2.19-13.48c.63 0 .13-.72-.2-.91-3.76-2.1-7.53-4.18-11.31-6.23-.49-.26-1.95-.87-2.17-.5-.24.45.49.91.7 1.08 1.83 1.48 11.64 6.5 12.98 6.56z" fill="#ea5506"/><path d="m113.04 102.8c1.96 2.28 2.79 4.03 3.9 7.28-.77.35-1.41.45-2.06.66-4.74 1.53-8.18 4.68-10.91 8.72-4.47 6.6-4.93 13.84-3.43 21.39 1.14 5.67 3.51 10.7 7.67 14.8 3.31 3.28 7.05 5.71 11.87 5.99-.98 4.26-5 6.29-8.71 4.33-1.67-.89-3.24-2.1-4.62-3.42-4.24-4.06-7.1-9.09-9.58-14.36-2.3-4.89-3.79-10.05-4.64-15.37-1.2-8.04-1.37-14.3-.32-22.41 1.44-9.53 9.29-13.23 14.2-11.94 3.62 1.16 5.61 3.12 6.62 4.33z" fill="#fff"/><path d="m76.77 151.51c.84 1.31 1.05 2.52.88 4.05-.66 5.89-1.14 11.8-1.72 17.69-.23 2.33-.47 4.66-.84 6.98-.84 5.4-4.49 7.94-9.43 8.61-1.39.19-3.13-.27-4.33-1.02-4.31-2.72-8.57-5.55-12.11-9.29-.18-.2-.31-.43-.52-.7 1.05-1.99 2.63-5.83 1.48-6.43-.75-.39-1.97 1.57-2.79 2.64-1.93 2.5-3.83 5.05-5.98 7.37-2.39 2.59-5.52 4.08-8.92 4.94-1.7.43-3.46.45-5.07-.3-2.36-1.09-3.48-3.12-3.58-5.63-.15-3.93.82-7.67 2.53-11.18.52-1.07 1.48-2.01 2.42-2.78 1.89-1.55 3.93-.91 4.72 1.38.96 2.82.75 5.04-.42 7.57-.57 1.24-1 2.44-2.71 4 .67.91 2.91-.38 3.47-1.05 2.26-2.74 2.7-4.5 2.77-8.24.03-1.21-.13-2.47-.43-3.65-1.08-4.15-5.64-4.79-8.12-3.39-.95.54-1.82 1.21-2.72 1.81-3.42-5.41-6.06-6.06-11.12-2.79-1.69-1.28-1.98-1.94-1.53-3.54.43-1.53 1.62-2.61 3.34-2.61 1.56 0 3.14.31 4.69.58.8.15 1.58.47 2.35.77 2.93 1.14 5.94 1.29 8.93.4 4.47-1.34 8.56-.58 12.42 1.92 5.25 3.41 10.55 6.77 15.77 10.24 2.36 1.57 4.57 3.33 6.05 5.84.26.45.51.78.77 1.43.63-2.91-.43-5.35-2.24-7.27-.85-.91-2.82-3.03-3.78-3.82 0 0 .03-.23 0-1.28-.25-10.57.25-21.09 1.99-31.53.44-2.64.81-5.3 1.37-7.92.31-1.46.93-2.86 2.51-3.85.24 1.88.43 3.57.68 5.27 1.25 8.93 4.38 17.19 9.23 24.78z" fill="#fff799"/><path d="m65.71 54.73v19.58c-2.57 1.45-5.34 2.97-8.06 4.55-2.74 1.59-5.44 3.24-8.36 4.99-3.17-1.69-6.52-3.43-9.84-5.23-2.12-1.14-4.17-2.4-6.3-3.55-.77-.43-1.05-.97-1.04-1.81.02-6 0-11.99 0-17.9 5.32-3.58 10.61-6.65 16.01-9.53.76-.4 1.41-.36 2.13.05 5.07 2.92 10.16 5.83 15.45 8.86zm-3.83 3.38c.56-.38 1.59-1.2 1.28-1.67-.29-.2-1.59.47-1.99.7-3.02 1.74-11.09 6.38-10.81 6.89.41.83 6.75-3.04 11.51-5.93zm-12.23 19.53c.03-3.49-.11-5.88-.17-9.38 0-.35-.15-1.86-.49-1.86-.44 0-.56 1.41-.56 1.9-.03 3.94-.1 7.68.46 11.81.11.83.44.81.56.08.17-.62.19-1.92.2-2.55zm-2.2-13.48c.64 0 .14-.72-.2-.91-3.76-2.1-7.53-4.17-11.32-6.23-.49-.26-1.95-.86-2.17-.5-.24.45.5.91.71 1.08 1.82 1.48 11.64 6.5 12.97 6.56z" fill="#ea5506"/><path d="m48.58 117.97c.89 3.31-2.01 7.26-5.9 8.47-.58-1.47-.84-2.08-2.03-3.15-1.74-1.56-4.22-1.93-6.24-.77-2.25 1.3-3.52 2.66-3.53 5.33 0 .41-.04.82-.08 1.43-6.74.52-13.24-.52-19.71-2.32.41-2.24-.09-4-1.48-5.54-1.48-1.64-3.44-1.02-5.19-1.14-1.41-3.2.17-7.95 3.28-11.18.81.58 1.6 1.23 2.47 1.72 2.08 1.17 3.9.96 5.75-.54 2.76-2.24 3.51-5.06 2.31-8.68 5-3.32 13.1-3.39 18.77.53 1.53.95 3.53 2.45 6.03 5.35-2.84 2.47-2.92 5.53-1.24 8.26 1.42 2.32 4.1 2.76 6.8 2.23zm-9.83-10.42c.23-1.58-.56-3.24-1.8-4.45-1.21-.83-1.76-1.32-3.4-1.37-1.41 0-2.24.33-3.11.81-2.06 1.26-3.06 4.29-2.27 6.57.74 2.12 3.17 3.53 5.66 3.29 2.46-.24 4.56-2.36 4.93-4.86zm-11.53 9.03c.1-2.48-2.39-4.84-5.35-4.91-2.86-.06-5.08 2.19-5.09 5.07-.01 3.21 1.62 4.87 4.78 4.9 3.14.03 5.55-2.22 5.65-5.06z" fill="#ea5506"/><path d="m48.1 116.02c-1.97.24-3.74-.19-4.68-1.65-1.09-1.7-.86-4.08.74-5.39 1.82 1.63 3.08 3.8 3.94 7.04z" fill="#fff"/><path d="m36.34 123.61c1.97-.41 3.92.98 4.7 3.47-2.71 1.1-5.33 2.01-8.26 1.95-.41-2.67 1.09-4.91 3.55-5.42z" fill="#fff"/><path d="m33.11 103.69c3.06.05 4.35 2.38 3.33 4.74-.55 1.29-1.69 2.03-3.09 1.98-1.41-.06-2.52-.63-3.08-2.01-.52-1.28-.21-3.34.79-4.01.55-.38 1.04-.69 2.05-.69z" fill="#fff"/><path d="m32.09 140.36c.15 1.48-.54 2.66-1.98 3.32-2.61 1.21-5.22 1.14-7.77-.09-1.55-.75-2.45-2.04-2.24-3.84.24-2.17.59-4.34.91-6.62.95 0 1.39.15 2.32.15.1.91.24 2.54.28 3.39 0 .68.56 1.18.71.4.17-.87.47-3.41.47-3.77h2.02c.32 1.63.6 5.38.91 6.95.16.82.66.66.68-.1 0-1.49.01-5.25.01-6.89h2.7c.34 2.36.76 4.72 1 7.11z" fill="#fffcdb"/><path d="m22.85 113.76c1.78.7 2.86 2.2 2.59 3.53-.3 1.44-2.2 2.73-3.95 2.69-1.52-.03-2.59-.64-2.94-1.8-.4-1.31-.29-2.58.72-3.63.99-1.01 2.31-1.3 3.57-.79z" fill="#fff"/><path d="m20.33 163.74c1.95 1 3.07 3.41 2.39 5.39-1.07 3.07-1.87 6.2-1.97 9.46-.04 1.23 0 2.47 0 3.83-1.68.89-3.3.82-4.93.36-1.32-.38-2.38-1.17-2.83-2.5-.39-1.16-.78-2.39-.79-3.59-.03-4.16 1.1-8.01 3.53-11.44 1.32-1.87 2.9-2.38 4.61-1.51z" fill="#fff799"/><path d="m15.89 102.5c1.41 2 .82 4.52-1.34 6.06-1.78 1.27-3.57.86-5.23-1.34 1.97-2.03 4.17-3.51 6.56-4.71z" fill="#fff"/><path d="m11.22 165.29c.1.41-.06.93-.22 1.36-2.2 5.88-2.29 6.28-2.24 12.57-.74-.63-1.3-.93-1.62-1.39-2.01-3.01-3.77-6.13-3.65-9.91.03-.89.15-1.79.38-2.65.51-1.9 1.51-2.59 3.46-2.59 1.68.01 3.53 1.2 3.89 2.61z" fill="#fff799"/><path d="m5.06 122.13c3.37-.65 4.89.78 4.31 3.99-1.82-.89-3.47-1.83-4.31-3.99z" fill="#fff"/><path d="m859.27 15.58h29.64v162.2h-29.64z" fill="#231916"/><path d="m407.71 58.3c-12.74 0-24.88 4.84-34.19 13.64l-.83.79-.83-.79c-9.31-8.79-21.45-13.64-34.19-13.64-27.34 0-49.7 22.25-49.83 49.6v1.21s-.01 68.68-.01 68.68h29.64l.06-71.11c.76-10.43 9.56-18.73 20.14-18.73s19.38 8.3 20.14 18.73h.05v1.21s.01 69.89.01 69.89h29.64l.06-71.11c.76-10.43 9.56-18.73 20.14-18.73s19.38 8.3 20.14 18.73h.05v1.21s.01 69.89.01 69.89h29.64v-69.89c-.15-27.35-22.51-49.6-49.85-49.6z" fill="#231916"/><path d="m665.69 83.95c9.06 0 17.61 3.24 24.2 9.14l20.11-19.3c-11.97-11.05-27.65-17.12-44.31-17.12-35.26 0-63.94 27.53-63.94 61.37s28.69 61.37 63.94 61.37c16.65 0 32.34-6.07 44.31-17.12l-20.11-19.3c-6.59 5.9-15.14 9.14-24.2 9.14-19.58 0-35.52-15.29-35.52-34.08s15.93-34.09 35.52-34.09z" fill="#231916"/><path d="m778.85 56.67c-35.26 0-63.94 27.53-63.94 61.37s28.69 61.37 63.94 61.37c16.62 0 32.28-6.09 44.25-17.18l-20.1-19.29c-6.61 5.93-15.14 9.18-24.15 9.18-15.38 0-28.94-9.43-33.74-23.47l-.54-1.6h97.46c.51-3.24.76-6.2.76-9.02 0-33.84-28.69-61.37-63.94-61.37zm0 27.28c15.39 0 28.91 9.41 33.72 23.43h-67.44c4.81-14.02 18.33-23.43 33.72-23.43z" fill="#231916"/><path d="m555.62 132.96c0 13.04-10.61 23.66-23.66 23.66s-23.66-10.61-23.66-23.66v-69.63h-29.64l.02 69.88c.14 29.25 24.04 53.05 53.29 53.05 7.58 0 14.96-1.6 21.94-4.77l1.71-.77v12.66c0 13.04-10.61 23.66-23.66 23.66-8.45 0-16.18-4.47-20.42-11.73l-28.19 9.97c8.62 19.12 27.56 31.4 48.61 31.4 29.39 0 53.3-23.91 53.3-53.3v-130.05h-29.64z" fill="#231916"/></svg>