<?xml version="1.0" encoding="UTF-8" standalone="no"?><!DOCTYPE svg PUBLIC "-//W3C//DTD SVG 1.1//EN" "http://www.w3.org/Graphics/SVG/1.1/DTD/svg11.dtd"><svg width="100%" height="100%" viewBox="0 0 82 204" version="1.1" xmlns="http://www.w3.org/2000/svg" xmlns:xlink="http://www.w3.org/1999/xlink" xml:space="preserve" xmlns:serif="http://www.serif.com/" style="fill-rule:evenodd;clip-rule:evenodd;stroke-miterlimit:10;"><g><path d="M33.439,184.155c0.426,-0.473 0.817,-0.978 1.17,-1.51c0.319,-0.623 0.587,-1.272 0.8,-1.94c0.097,-0.237 0.128,-0.496 0.09,-0.75c-0.216,-1.01 -0.017,-2.066 0.55,-2.93c0.49,-1.06 0.74,-2.25 1.25,-3.3c0.82,-1.68 1.73,-3.32 2.69,-4.91c0.31,-0.53 0.93,-0.83 1.37,-1.29c0.541,-0.513 1.02,-1.086 1.43,-1.71c1.21,-2.11 3.08,-3.57 4.56,-5.41c0.22,-0.27 0.47,-0.52 0.71,-0.77c2.73,-2.68 4.42,-6.1 6.07,-9.56c0.28,-0.6 0.53,-1.22 0.85,-1.8c1.39,-2.47 2,-5.26 2.72,-8c1.46,-4.463 2.137,-9.145 2,-13.84c-0,-0.82 0.07,-1.64 -0,-2.46c-0.09,-2.17 -0.21,-4.33 -0.32,-6.5c-1.19,-1.91 -1,-4.24 -1.65,-6.3c-0.039,-0.094 -0.097,-0.179 -0.17,-0.25c-0.114,-0.073 -0.239,-0.127 -0.37,-0.16c-0.444,0.96 -0.779,1.967 -1,3c-0.063,1.06 -0.753,1.986 -1.75,2.35c0.13,0.83 0.25,1.63 0.38,2.43c-0,0.1 0.09,0.21 0.06,0.3c-0.58,2 0.64,3.9 0.54,5.89c-0.05,0.93 -0.19,1.85 -0.22,2.77c-0.07,2.06 -0.1,4.12 -0.16,6.17c0.022,0.463 -0.012,0.926 -0.1,1.38c-0.57,2.07 -1.1,4.16 -1.8,6.19c-0.89,2.59 -1.41,5.35 -2.8,7.74c-1.21,2.08 -2,4.42 -3.55,6.33c-1,1.26 -2.06,2.57 -3.08,3.86c-1.02,1.29 -1.87,2.75 -2.83,4.09c-1.672,2.569 -3.534,5.01 -5.57,7.3c-1.226,1.288 -2.137,2.842 -2.66,4.54c-0.26,0.77 -0.61,1.51 -0.92,2.26c-0.13,0.33 -0.39,0.68 -0.35,1c0.16,1.4 -0.74,2 -1.58,2.71c-1.34,-2.48 -0.44,-4.85 0.25,-7.15c0.797,-2.574 2.211,-4.916 4.12,-6.82c1.024,-1.235 1.972,-2.53 2.84,-3.88c1.31,-1.77 2.64,-3.53 4,-5.29c1,-1.33 0.91,-1.73 -0.2,-3c-0.68,-0.79 -1.14,-1.79 -1.76,-2.64c-1,-1.3 -2,-2.51 -2.93,-3.83c-1.11,-1.61 -2.53,-3 -3.33,-4.82c-0.051,-0.142 -0.141,-0.266 -0.26,-0.36c-1.11,-0.77 -1.6,-2 -2.27,-3.17c-1.24,-2.08 -2.57,-4.12 -3.7,-6.27c-1.13,-2.15 -2.61,-4.31 -3.23,-6.87c-0.38,-1.046 -0.866,-2.051 -1.45,-3c-0.56,-1.19 -1.12,-2.39 -1.6,-3.62c-0.954,-2.466 -1.867,-4.95 -2.74,-7.45c-0.306,-0.87 -0.543,-1.762 -0.71,-2.67c-0.39,-2.06 -0.76,-4.13 -1.06,-6.21c-0.074,-0.871 -0.097,-1.746 -0.07,-2.62c-0.07,-3.35 -0.26,-6.71 -0.18,-10.06c0.108,-6.193 0.889,-12.355 2.33,-18.38c0.591,-2.808 1.51,-5.536 2.74,-8.13c0.92,-1.8 1.71,-3.68 2.62,-5.5c2.289,-4.623 4.927,-9.066 7.89,-13.29c1,-1.43 2.19,-2.74 3.32,-4.08c1.13,-1.34 2.16,-2.35 3.18,-3.58c1.02,-1.23 1.69,-2.23 2.51,-3.36c0.162,-0.182 0.251,-0.418 0.251,-0.662c0,-0.398 -0.237,-0.759 -0.601,-0.918c-1.11,-0.84 -2.24,-1.63 -3.36,-2.44c-1.059,-0.57 -1.946,-1.412 -2.57,-2.44c-0.259,-0.603 -0.483,-1.22 -0.67,-1.85c-0.08,-0.24 -0,-0.54 -0.11,-0.76c-0.93,-2 -0.13,-3.89 0.22,-5.94c1.39,0.39 1.91,-0.47 2.15,-1.63c0.34,-1.64 1.69,-2.35 2.73,-3.28c2.033,-1.716 4.458,-2.904 7.06,-3.46c1.92,-0.48 3.53,-1.67 5.3,-2.49c1.41,-0.609 2.583,-1.663 3.34,-3c0.53,-0.852 1.422,-1.416 2.42,-1.53c2.883,-0.67 5.842,-0.949 8.8,-0.83c1.484,-0.024 2.902,0.628 3.85,1.77c0.533,0.666 1.118,1.288 1.75,1.86c0.814,0.786 1.276,1.869 1.28,3c0.08,1.8 0.08,3.61 0.07,5.42c0.041,2.518 0.571,5.005 1.56,7.32c0.65,1.61 1.47,3.16 2,4.82c0.398,1.597 0.676,3.222 0.83,4.86c0.006,1.184 0.251,2.354 0.72,3.44c0.078,0.137 0.113,0.294 0.1,0.45c-0.26,2 0.07,4.06 -1,5.86c-0.615,1.248 -1.691,2.21 -3,2.68c-1.022,0.449 -1.997,0.999 -2.91,1.64c-0.25,0.14 -0.49,0.41 -0.73,0.41c-2.762,0.094 -5.522,-0.243 -8.18,-1c-1.363,-0.388 -2.7,-0.866 -4,-1.43c-0.979,-0.591 -1.908,-1.26 -2.78,-2c-0.293,-0.248 -0.634,-0.435 -1,-0.55c-1.087,-0.026 -1.974,-0.912 -2,-2c-1.13,-0.288 -2.331,0.062 -3.13,0.91c-1.06,1.16 -2.29,2.15 -3.43,3.23c-0.255,0.243 -0.48,0.515 -0.67,0.81l-3.59,5.59c-0.667,1.176 -1.437,2.29 -2.3,3.33c-0.751,0.95 -1.376,1.992 -1.86,3.1c-1.11,2.11 -2.24,4.22 -3.25,6.39c-1.43,3.09 -2.83,6.2 -4.12,9.35c-0.91,2.22 -1.61,4.53 -2.4,6.8c-0.31,0.87 -0.64,1.73 -0.9,2.61c-0.208,0.58 -0.329,1.186 -0.36,1.8c-0.014,2.019 -0.242,4.03 -0.68,6c-0.132,0.813 -0.169,1.639 -0.11,2.46c-0,2 0.15,4.1 0.15,6.16c-0,2.35 0.72,4.55 1.08,6.82c0.25,1.64 0.68,3.18 1.08,4.76c0.598,2.219 1.517,4.338 2.73,6.29c0.51,0.86 0.75,1.9 1.23,2.78c1.64,3 3.36,5.9 5,8.87c0.762,1.697 1.711,3.304 2.83,4.79c1.89,2.13 3.79,4.26 5.67,6.41c1,1.17 2,2.38 3,3.56c0.32,0.37 0.67,0.71 1.1,1.17c0.254,-0.285 0.472,-0.601 0.65,-0.94c0.32,-0.92 0.58,-1.86 0.86,-2.79c0.67,-2.2 1.61,-4.31 1.8,-6.65c-0,-0.36 0.12,-0.72 0.13,-1.08c-0,-4 0.11,-8 0.13,-11.94c-0,-2.23 -0.91,-4.21 -1.66,-6.21c-0.151,-0.29 -0.436,-0.488 -0.76,-0.53c-0.82,-0.035 -1.639,0.105 -2.4,0.41c-0.999,0.524 -2.158,0.659 -3.25,0.38c-1,-0.2 -2,-0.45 -3,-0.74c-0.335,-0.08 -0.632,-0.275 -0.84,-0.55c-0.34,-0.624 -1.084,-0.92 -1.76,-0.7c-0.785,0.086 -1.555,-0.268 -2,-0.92c-0.87,-1.1 -1.71,-2.21 -2.65,-3.26c-0.71,-0.79 -0.86,-2.22 -1.09,-3.41c-0.157,-1.065 -0.224,-2.142 -0.2,-3.22c-0.087,-0.77 -0.056,-1.548 0.09,-2.31c0.616,-2.566 0.742,-5.226 0.37,-7.84c-0.248,-2.354 -0.635,-4.691 -1.16,-7c-0.36,-1.75 -0.86,-3.48 -1.3,-5.21c-0.4,-1.824 -0.4,-3.715 -0,-5.54c0.002,-0.152 0.055,-0.3 0.15,-0.42c1.15,-1 1.72,-2.65 3.21,-3.3c0.304,-0.162 0.587,-0.364 0.84,-0.6c1.464,-1.529 3.868,-1.723 5.56,-0.45c0.91,0.58 1.82,1.15 2.74,1.7c0.204,0.127 0.432,0.212 0.67,0.25c2.78,0.448 5.503,1.199 8.12,2.24c1.427,0.621 2.91,1.103 4.43,1.44c1.83,0.39 3.543,1.205 5,2.38c1.81,1.41 3.78,2.69 4.81,5c0.265,0.426 0.604,0.802 1,1.11c0.995,0.955 1.622,2.23 1.77,3.6c0.485,3.032 -0.5,6.12 -2.65,8.31c-0.24,0.25 -0.59,0.48 -0.68,0.79c-0.44,1.49 -1.59,2.43 -2.39,3.64c-1.2,1.82 -2.377,3.667 -3.53,5.54c-0.141,0.325 -0.114,0.699 0.07,1c0.803,0.935 1.299,2.094 1.42,3.32c0.56,2.49 1.18,5 1.73,7.46c0.194,0.855 0.315,1.725 0.36,2.6c0.11,3 0.23,6.09 0.22,9.14c-0.092,1.178 -0.283,2.345 -0.57,3.49c-0.15,0.81 -0.39,1.6 -0.48,2.42c-0.499,3.41 -1.268,6.774 -2.3,10.06c-0.256,0.667 -0.563,1.312 -0.92,1.93c-0.59,1.3 -1.15,2.6 -1.74,3.9c-0.112,0.281 -0.253,0.549 -0.42,0.8c-1.28,1.83 -1.31,2.25 -0.14,4.12c0.35,0.55 0.82,1 1.15,1.59c0.63,1.09 1.21,2.21 1.79,3.33c1.67,3.23 2,6.88 2.68,10.38c0.122,0.814 0.159,1.639 0.11,2.46c-0,1.13 -0,2.26 -0.06,3.39c-0.044,0.719 -0.155,1.432 -0.33,2.13c-0.061,0.749 -0.694,1.334 -1.446,1.334c-0.337,-0 -0.664,-0.118 -0.924,-0.334c-0.406,-0.258 -0.571,-0.774 -0.39,-1.22c0.196,-0.799 0.31,-1.617 0.34,-2.44c-0.055,-1.438 -0.205,-2.871 -0.45,-4.29c-0.454,-2.533 -0.967,-5.053 -1.54,-7.56c-0.092,-0.937 -0.502,-1.816 -1.16,-2.49c-0.76,0.25 -0.75,0.84 -0.88,1.4c-0.407,1.8 -0.837,3.594 -1.29,5.38c-0.085,0.381 -0.28,0.729 -0.56,1c-0.717,0.607 -1.073,1.541 -0.94,2.47c0.08,2.027 -0.166,4.053 -0.73,6c-0.093,0.416 -0.349,0.776 -0.71,1c-0.56,0.2 -0.9,-0.33 -1,-0.86c-0.276,-1.091 -0.417,-2.213 -0.42,-3.34c0.21,-2.62 -0.184,-5.254 -1.15,-7.7c-0.57,-1.46 -1.83,-1.87 -2.87,-0.75c-1.649,1.645 -2.946,3.608 -3.81,5.77c-0.3,0.83 -1,1.56 -0.71,2.55c0.55,0.283 1.085,0.597 1.6,0.94c0.13,0.09 0.11,0.49 0.06,0.73c-0.29,1.39 -0.86,1.8 -2.57,1.73c-0.85,2.26 -0.18,4.84 -1.07,7.34l-3.37,-2c-1.2,1.15 -0.55,2.89 -1.22,4.33l-1.27,-0.7c-0.46,0.36 -0.33,0.79 -0.16,1.23c0.236,0.511 0.43,1.039 0.58,1.58c0.027,0.38 -0.003,0.761 -0.09,1.13c-1.17,-0.23 -0.82,-1.35 -1.42,-1.92c-0.444,-0.027 -0.885,-0.084 -1.32,-0.17c-0.732,-0.14 -1.266,-0.786 -1.266,-1.532c-0,-0.183 0.032,-0.365 0.096,-0.538c0.099,-0.5 0.149,-1.009 0.15,-1.52c-0,-0.6 -0,-1.15 0.64,-1.38c0.61,-0.262 1.327,-0.046 1.69,0.51c0.267,0.491 0.501,0.999 0.7,1.52c0.34,-0.72 0.9,-1.26 0.21,-2l-0.17,-0.08Zm8.65,-154.34c0.104,-0.081 0.201,-0.172 0.29,-0.27c1.55,-2.11 3,-4.35 4.68,-6.28c1.68,-1.93 3,-3.76 4.46,-5.63c0.529,-0.857 1.522,-1.322 2.52,-1.18c0.83,0.05 1.508,0.703 1.59,1.53c0.174,0.816 -0.243,1.651 -1,2c-1.71,0.78 -2.82,2.29 -4.11,3.6c-1.81,1.85 -2.73,4.56 -5.08,5.86c-0.2,0.11 -0.3,0.4 -0.45,0.6c-0.75,1 -0.72,1.3 0.34,1.88c1.28,0.69 2.6,1.32 3.89,2c0.365,0.141 0.704,0.344 1,0.6c1.3,1.42 3.16,1.74 4.64,2.79c0.446,0.275 0.915,0.512 1.4,0.71c0.133,-0.683 0.33,-1.353 0.59,-2c0.695,-1.262 1.041,-2.688 1,-4.13c-0,-0.91 0.54,-1.47 1.2,-1.42c0.827,0.058 1.472,0.762 1.46,1.59c-0.081,0.975 -0.268,1.937 -0.56,2.87c-0.378,0.979 -0.312,2.074 0.18,3c0.14,0.25 0.25,0.52 0.37,0.75l-1,0.81c2,1.26 4,1.7 6,0.76c0.045,-0.174 0.079,-0.351 0.1,-0.53c-0.003,-0.256 -0.037,-0.511 -0.1,-0.76c-0.87,-2.8 -0.77,-5.71 -0.93,-8.59c-0.11,-2.15 0.43,-4.32 -0.2,-6.47c-0.24,-0.8 0.31,-1.26 1.1,-1.14c0.63,0.09 0.86,0.55 1,1.15c0.14,0.6 0.42,1.36 0.54,2.06c0.144,0.797 0.234,1.602 0.27,2.41c0.13,2.48 0.19,5 0.37,7.42c0.096,0.483 0.385,0.906 0.8,1.17c0.46,0.28 0.77,-0.19 1,-0.62c0.186,-0.485 0.656,-0.808 1.176,-0.808c0.192,0 0.381,0.044 0.554,0.128c0.282,0.061 0.571,0.092 0.86,0.09c-0.06,-0.55 -0.07,-1 -0.15,-1.42c-0.474,-1.84 -0.841,-3.707 -1.1,-5.59c-0.232,-2.35 -0.725,-4.668 -1.47,-6.91c-0.491,-1.464 -0.758,-2.995 -0.79,-4.54c0.037,-2.063 -0.503,-4.097 -1.56,-5.87c-0.72,-0.926 -0.87,-2.179 -0.39,-3.25c-1.09,-0.82 -2,-1.81 -3.43,-1.51c-0.24,0 -0.52,-0.22 -0.79,-0.31c-1.234,-0.512 -2.637,-0.427 -3.8,0.23c-0.707,0.465 -1.358,1.008 -1.94,1.62c-1.031,1.231 -2.291,2.25 -3.71,3c-1.21,0.56 -2.13,1.78 -3.58,1.91c-0.27,0 -0.5,0.3 -0.77,0.43c-0.647,0.435 -1.355,0.772 -2.1,1c-1.188,0.268 -2.322,0.738 -3.35,1.39c-2.363,1.108 -4.246,3.034 -5.3,5.42c-0.54,1.169 -0.587,2.507 -0.13,3.71c0.88,2.15 2.11,3.94 4.41,4.74Zm14.16,71.08c-0.454,-0.074 -0.917,-0.074 -1.37,0c-1.28,0.53 -2.17,-0.09 -2.93,-1c-0.422,-0.506 -0.779,-1.064 -1.06,-1.66c-0.74,-1.61 -1.42,-3.25 -2.11,-4.89c-0.076,-0.133 -0.11,-0.286 -0.1,-0.44c0.08,-0.38 0.11,-0.94 0.33,-1.07c0.368,-0.195 0.811,-0.195 1.18,0c0.62,0.503 1.154,1.105 1.58,1.78c0.598,1.003 1.125,2.045 1.58,3.12c0.191,0.575 0.757,0.945 1.36,0.89c0.62,0.01 1.229,0.165 1.78,0.45c0.722,0.45 1.411,0.951 2.06,1.5c0.64,-0.58 1.4,-1.22 2.09,-1.92c0.17,-0.149 0.268,-0.366 0.268,-0.592c-0,-0.3 -0.17,-0.574 -0.438,-0.708c-1.585,-1.103 -2.983,-2.454 -4.14,-4c-0.542,-0.587 -1.047,-1.208 -1.51,-1.86c-0.2,-0.452 -0.2,-0.967 -0,-1.42c0.3,-0.286 0.736,-0.382 1.13,-0.25c1.856,0.822 3.462,2.124 4.65,3.77c0.43,0.851 1.079,1.572 1.88,2.09c1.107,-1.147 1.863,-2.587 2.18,-4.15c0.37,-1.72 0.57,-3.6 -0.48,-5.24c-2.001,-3.421 -5.099,-6.068 -8.79,-7.51c-1.91,-0.68 -3.89,-1.17 -5.83,-1.75l-1.81,-0.59c-2.15,-0.71 -4.29,-1.49 -6.47,-2.1c-0.908,-0.174 -1.768,-0.542 -2.52,-1.08c-0.34,-0.241 -0.774,-0.307 -1.17,-0.18c-1.12,0.47 -2.215,0.998 -3.28,1.58c-0.27,0.15 -0.65,0.46 -0.67,0.72c-0.12,1.274 -0.12,2.557 -0,3.83c0.24,1.67 0.71,3.29 1.11,4.93c0.19,0.79 0.5,1.55 0.67,2.34c0.29,1.41 0.48,2.84 0.81,4.24c0.109,0.695 0.384,1.353 0.8,1.92c0.554,0.545 0.763,1.356 0.54,2.1c-0.23,1 -0.51,1.88 -0.73,2.82c-0.105,0.385 -0.135,0.785 -0.09,1.18c0.228,1.373 0.181,2.777 -0.14,4.13c-0.164,1.012 -0.208,2.039 -0.13,3.06c-0,0.29 0.28,0.58 0.53,1c0.23,-0.45 0.35,-0.71 0.49,-0.95c0.286,-0.578 0.642,-1.118 1.06,-1.61c0.357,-0.21 0.792,-0.247 1.18,-0.1c0.48,0.18 0.52,0.69 0.38,1.19l-0.33,1.22c0.321,-0.086 0.614,-0.255 0.85,-0.49c0.79,-0.66 1.09,-0.57 1.54,0.33c0.45,0.9 1,1.91 1.67,3.05l2,-1.18c-0.19,-0.59 -0.32,-1 -0.47,-1.45c-0.601,-1.403 -1.115,-2.843 -1.54,-4.31c-0.61,-2.6 -1,-5.25 -1.51,-7.88c-0.247,-1.366 -0.487,-2.736 -0.72,-4.11c-0.08,-0.51 -0.17,-1 0.42,-1.34c0.758,-0.319 1.645,0.018 2,0.76c0.738,1.588 1.081,3.331 1,5.08c-0.16,1.348 -0.02,2.714 0.41,4c0.52,1.121 0.78,2.345 0.76,3.58c-0.06,0.57 0.52,1.31 1,1.83c0.22,0.26 0.79,0.26 1.2,0.26c0.564,-0.04 1.075,0.354 1.18,0.91c0.112,0.298 0.242,0.589 0.39,0.87c0.975,-0.295 1.814,-0.925 2.37,-1.78c-0.62,-0.17 -1.12,-0.27 -1.59,-0.45c-0.517,-0.118 -0.853,-0.628 -0.76,-1.15c0.023,-0.438 0.39,-0.786 0.829,-0.786c0.033,0 0.067,0.002 0.101,0.006c1.205,0.045 2.404,0.203 3.58,0.47c0.79,0.21 1.18,-0.09 1.75,-1.03l-0,0.02Zm-8.89,46.76c-1.58,-0.308 -2.897,-1.403 -3.49,-2.9c-0.138,-0.269 -0.317,-0.515 -0.53,-0.73c-1.47,-1.64 -2.94,-3.27 -4.4,-4.91c-0.945,-0.968 -1.83,-1.994 -2.65,-3.07c-1.14,-1.66 -2.14,-3.43 -3.18,-5.17c-0.657,-0.827 -1.162,-1.765 -1.49,-2.77c-0.258,-0.719 -0.626,-1.393 -1.09,-2c-0.641,-0.847 -1.197,-1.754 -1.66,-2.71c-1.06,-3 -3.09,-5.47 -4,-8.58c-0.66,-2.28 -1.92,-4.34 -2.22,-6.79c-0.28,-2.24 -0.78,-4.45 -1.1,-6.68c-0.599,-5.235 -0.471,-10.529 0.38,-15.73c0.061,-0.77 0.175,-1.535 0.34,-2.29c0.59,-2.07 1.23,-4.13 1.91,-6.16c0.818,-2.803 1.82,-5.549 3,-8.22c1,-2.1 1.61,-4.38 2.82,-6.41c1.21,-2.03 1.92,-4.15 3.32,-5.95c0.099,-0.115 0.177,-0.247 0.23,-0.39c0.821,-2.188 2.045,-4.203 3.61,-5.94c0.207,-0.312 0.378,-0.648 0.51,-1l-1.14,-0.94c-0.11,-1.5 1.08,-2.58 0.84,-4.24c-0.357,0.277 -0.691,0.582 -1,0.91c-1.6,2.12 -3.19,4.24 -4.76,6.38c-0.39,0.52 -0.69,1.12 -1,1.67c-1,1.61 -2.16,3.16 -3.08,4.85c-1.27,2.36 -2.39,4.82 -3.57,7.24c-0.15,0.32 -0.26,0.66 -0.38,1c-0.55,1.48 -1.13,2.95 -1.61,4.45c-0.66,2 -1.26,4.11 -1.87,6.16c-0.051,0.254 -0.081,0.512 -0.09,0.77c-0.17,1.38 -0.32,2.76 -0.51,4.14c-0.23,1.63 -0.57,3.25 -0.73,4.89c-0.129,1.43 -0.182,2.865 -0.16,4.3c-0,1.71 0.19,3.42 0.06,5.11c-0.217,2.618 -0.045,5.253 0.51,7.82c0.076,0.244 0.12,0.496 0.13,0.75c-0.111,2.605 0.375,5.202 1.42,7.59c0.61,1.56 1.12,3.17 1.69,4.75c0.47,1.3 0.91,2.62 1.45,3.89c0.73,1.72 1.68,3.35 2.3,5.11c0.79,2.24 2.2,4.08 3.14,6.22c0.634,1.32 1.349,2.599 2.14,3.83c0.85,1.43 1.67,2.89 2.63,4.24c1.36,1.92 2.89,3.71 4.25,5.63c1.36,1.92 2.77,4.18 4.15,6.27c0.28,0.43 0.54,0.86 0.85,1.26c0.47,0.59 0.83,0.56 1.27,-0.09c0.483,-0.634 0.921,-1.303 1.31,-2c0.47,-1.17 0.88,-2.29 1.45,-3.58l-0,0.02Z" style="fill:#000050;fill-rule:nonzero;stroke:#f9f4be;stroke-width:0.75px;"/><g><path d="M57.979,174.815l-0.83,4.19c0.81,0.45 1.47,0.77 1.53,1.71c-0,0.24 0.45,0.59 0.72,0.63c0.865,0.21 1.596,0.788 2,1.58c0.72,1 1,0.94 1.62,-0.21c0.227,-0.488 0.571,-0.913 1,-1.24c0.37,-0.19 0.815,-0.163 1.16,0.07c0.231,0.385 0.29,0.851 0.16,1.28c-0.222,0.428 -0.516,0.814 -0.87,1.14c1.09,1.55 -0.16,2.77 -0.71,4c-0.2,0.47 -1,0.77 -1.61,0.88c-1.18,0.21 -1.82,-0.76 -1.35,-1.95c0.26,-0.66 0.59,-1.28 1,-2.11c-0.267,0.039 -0.528,0.106 -0.78,0.2c-0.416,0.272 -0.974,0.195 -1.3,-0.18c-0.86,-0.74 -1.24,-0.65 -2.05,0.19c-0.17,0.171 -0.365,0.313 -0.58,0.42c-0.192,0.081 -0.389,0.148 -0.59,0.2c-0.33,0.94 -0.46,2 -1.38,2.62c-0.2,0.15 -0.22,0.73 -0.2,1.1c-0,0.55 -0,1 -0.53,1.28c-1.534,-0.82 -2.289,-2.62 -1.8,-4.29c0.38,-1.71 0.72,-3.43 1,-5.16c0.059,-0.666 0.043,-1.337 -0.05,-2c-0.222,-0.972 0.25,-1.979 1.14,-2.43c0.396,-0.277 0.713,-0.652 0.92,-1.09c0.21,-0.34 0.26,-0.78 0.44,-1.14c0.41,-0.85 0.78,-0.92 1.46,-0.3c0.171,0.195 0.331,0.398 0.48,0.61Zm-2.08,9.47c-0.44,0.49 -0.44,0.49 -0.31,1.11c0.6,-0.45 0.6,-0.45 0.31,-1.13l-0,0.02Zm-0.59,-1l0.35,0l-0.11,-0.62c-0.08,0 -0.22,0.05 -0.23,0.09c-0.019,0.18 -0.022,0.361 -0.01,0.54l-0,-0.01Z" style="fill:#000050;fill-rule:nonzero;stroke:#f9f4be;stroke-width:0.75px;"/><path d="M8.059,185.815c0.714,-1.181 2.236,-1.619 3.47,-1c1.201,0.533 2.335,1.204 3.38,2c0.715,0.542 1.362,1.166 1.93,1.86c1,1.14 0.65,2.22 -0.78,2.54c-1.43,0.32 -1.56,0.24 -2.37,-1c-1.052,-1.503 -2.465,-2.717 -4.11,-3.53l-1.52,-0.87Z" style="fill:#000050;fill-rule:nonzero;stroke:#f9f4be;stroke-width:0.75px;"/><path d="M24.159,187.125c0.044,0.664 -0.433,1.259 -1.09,1.36c-0.61,0 -1.31,-0.42 -1.24,-1c0.22,-2.15 -1.27,-3.58 -1.89,-5.37c-0.267,-0.523 -0.663,-0.971 -1.15,-1.3c-0.44,-0.37 -0.9,-0.69 -0.52,-1.37c0.211,-0.379 0.613,-0.616 1.048,-0.616c0.207,0 0.411,0.054 0.592,0.156c0.4,0.203 0.744,0.502 1,0.87c0.88,1.51 1.74,3 2.49,4.64c0.322,0.856 0.577,1.735 0.76,2.63Z" style="fill:#000050;fill-rule:nonzero;stroke:#f9f4be;stroke-width:0.75px;"/><path d="M40.789,194.875c-0.06,0.61 -0.1,1 -0.14,1.48c-0,0.001 -0,0.003 -0,0.004c-0,0.444 -0.366,0.81 -0.81,0.81c-0.024,-0 -0.047,-0.001 -0.07,-0.004c-2.091,0.018 -4.063,-0.992 -5.27,-2.7c-0.166,-0.193 -0.258,-0.44 -0.258,-0.696c0,-0.318 0.143,-0.62 0.388,-0.824c0.415,-0.438 1.086,-0.526 1.6,-0.21c0.16,0.12 0.296,0.269 0.4,0.44c1.06,1.34 2.28,2.21 4.16,1.7Z" style="fill:#000050;fill-rule:nonzero;stroke:#f9f4be;stroke-width:0.75px;"/><path d="M22.929,174.965c0.14,0.06 0.52,0.1 0.65,0.3c0.91,1.52 2.52,2.63 2.44,4.72c-0,0.42 -0,1.06 -0.2,1.22c-0.392,0.263 -0.885,0.326 -1.33,0.17c-0.455,-0.262 -0.808,-0.671 -1,-1.16c-0.57,-1.36 -1,-2.76 -1.54,-4.16c-0.3,-0.74 0.04,-1.14 0.98,-1.09Z" style="fill:#000050;fill-rule:nonzero;stroke:#f9f4be;stroke-width:0.75px;"/><path d="M66.929,177.655c-1,-0.06 -1.48,-0.78 -1.08,-1.82c0.306,-0.688 0.657,-1.356 1.05,-2c0.32,-0.58 0.61,-1.17 1,-1.71c0.201,-0.336 0.501,-0.601 0.86,-0.76c0.348,-0.074 0.711,0.002 1,0.21c0.16,0.15 0.14,0.69 -0,1c-0.175,0.357 -0.39,0.692 -0.64,1c-0.651,0.792 -1.005,1.786 -1,2.81c0.13,0.93 -0.33,1.32 -1.19,1.27Z" style="fill:#000050;fill-rule:nonzero;stroke:#f9f4be;stroke-width:0.75px;"/><path d="M44.969,184.455c-0.066,0.53 -0.18,1.052 -0.34,1.56c-0.334,0.632 -0.392,1.375 -0.16,2.05c0.33,0.92 -0.94,1.91 -2,1.69c-0.703,-0.036 -1.262,-0.624 -1.262,-1.328c0,-0.285 0.092,-0.562 0.262,-0.792c0.544,-0.961 1.17,-1.874 1.87,-2.73c0.33,-0.52 0.39,-0.46 1.63,-0.45Z" style="fill:#000050;fill-rule:nonzero;stroke:#f9f4be;stroke-width:0.75px;"/><path d="M46.979,177.955c0.03,0.255 0.084,0.506 0.16,0.75c0.17,0.51 0.15,0.94 -0.38,1.12c-0.53,0.18 -1.17,0.25 -1.41,-0.37c-0.246,-0.918 -0.69,-1.771 -1.3,-2.5c-0.37,-0.37 -0,-1.09 0.56,-1.32c0.207,-0.079 0.428,-0.12 0.65,-0.12c0.993,-0 1.81,0.817 1.81,1.81c0,0.013 0,0.027 -0,0.04c-0.011,0.2 -0.042,0.397 -0.09,0.59Z" style="fill:#000050;fill-rule:nonzero;stroke:#f9f4be;stroke-width:0.75px;"/><path d="M8.279,197.485c-0.15,1.46 -1.23,1.84 -2.31,2.11c-0.876,0.253 -1.815,-0.174 -2.2,-1c1.15,-1.94 3.02,-2.39 4.51,-1.11Z" style="fill:#000050;fill-rule:nonzero;stroke:#f9f4be;stroke-width:0.75px;"/><path d="M47.869,172.105c-0.024,0.506 -0.094,1.008 -0.21,1.5c-0.09,0.28 -0.44,0.69 -0.62,0.66c-0.363,-0.067 -0.675,-0.295 -0.85,-0.62c-0.248,-0.713 -0.435,-1.445 -0.56,-2.19c-0.19,-0.91 0.13,-1.53 0.83,-1.67c0.7,-0.14 1.28,0.41 1.35,1.39l-0,0.92l0.06,0.01Z" style="fill:#000050;fill-rule:nonzero;stroke:#f9f4be;stroke-width:0.75px;"/><path d="M55.899,196.625c-0.954,0.052 -1.871,-0.385 -2.43,-1.16c-0.2,-0.28 -0.39,-0.9 -0.26,-1c0.273,-0.32 0.679,-0.497 1.1,-0.48c0.796,0.243 1.561,0.579 2.28,1c0.28,0.18 0.452,0.488 0.46,0.82c-0.103,0.325 -0.315,0.605 -0.6,0.79c-0.177,0.062 -0.368,0.072 -0.55,0.03Z" style="fill:#000050;fill-rule:nonzero;stroke:#f9f4be;stroke-width:0.75px;"/><path d="M8.789,177.715l0.68,0c0.59,0.06 1.23,0.13 1.35,0.89c0.12,0.76 -0.5,0.91 -1,1.14c-0.34,0.194 -0.698,0.351 -1.07,0.47c-0.131,0.044 -0.268,0.067 -0.406,0.067c-0.561,-0 -1.06,-0.37 -1.224,-0.907c-0.143,-0.7 0.304,-1.396 1,-1.56c0.217,-0.066 0.443,-0.1 0.67,-0.1Z" style="fill:#000050;fill-rule:nonzero;stroke:#f9f4be;stroke-width:0.75px;"/><path d="M33.459,184.135c-0.214,-0.819 -0.523,-1.611 -0.92,-2.36c-0.326,-0.572 -0.432,-1.244 -0.3,-1.89c-0,-0.58 0.44,-0.76 0.92,-0.75c0.48,0.01 0.66,0.32 0.71,0.79c0.237,1.419 0.092,2.876 -0.42,4.22l0.01,-0.01Z" style="fill:#000050;fill-rule:nonzero;stroke:#f9f4be;stroke-width:0.75px;"/><path d="M49.849,32.485c0.04,-0.282 0.118,-0.557 0.23,-0.82c1.06,-2 2.15,-4 3.23,-6c0.103,-0.23 0.19,-0.467 0.26,-0.71c0.196,-0.867 0.973,-1.489 1.863,-1.489c0.471,-0 0.926,0.174 1.277,0.489c0.342,0.201 0.553,0.57 0.553,0.967c0,0.323 -0.14,0.631 -0.383,0.843c-0.5,0.55 -1.26,0.9 -1.61,1.52c-1,1.65 -1.78,3.38 -2.6,5.12c-0.3,0.64 -0.43,1.37 -1.22,1.59c-1.01,0.28 -1.6,-0.18 -1.6,-1.51Z" style="fill:#000050;fill-rule:nonzero;stroke:#f9f4be;stroke-width:0.75px;"/><path d="M39.489,25.685c0.7,-2.41 2.43,-4 4,-5.74c1.1,-1.23 3,-1.92 4.38,0c-0.274,1.045 -1.069,1.878 -2.1,2.2c-1.108,0.624 -2.119,1.405 -3,2.32c-0.59,0.51 -1.11,1.13 -1.66,1.7l-1.62,-0.48Z" style="fill:#000050;fill-rule:nonzero;stroke:#f9f4be;stroke-width:0.75px;"/><path d="M63.789,87.105c0.094,0.441 0.214,0.875 0.36,1.3c0.245,0.634 0.15,1.351 -0.25,1.9c-0.156,0.371 -0.52,0.614 -0.923,0.614c-0.207,0 -0.408,-0.064 -0.577,-0.184c-0.87,-0.62 -1.81,-1.25 -1.89,-2.58c-0.026,-0.358 -0.086,-0.713 -0.18,-1.06c-0.145,-0.753 -0.697,-1.366 -1.43,-1.59c-0.789,-0.262 -1.541,-0.621 -2.24,-1.07c-1.352,-0.867 -2.794,-1.584 -4.3,-2.14c-0.76,-0.28 -1.41,-0.84 -2.3,-0.68c-0.17,0 -0.57,-0.36 -0.57,-0.54c-0,-0.37 0.17,-0.93 0.41,-1c0.638,-0.344 1.354,-0.519 2.08,-0.51c1.792,0.174 3.512,0.797 5,1.81c1.256,0.835 2.597,1.536 4,2.09c0.756,0.243 1.395,0.761 1.79,1.45c0.19,0.35 0.48,0.64 0.69,1c0.21,0.36 0.38,0.73 0.56,1.1l-0.23,0.09Z" style="fill:#000050;fill-rule:nonzero;stroke:#f9f4be;stroke-width:0.75px;"/><path d="M40.239,99.905c1.436,0.299 2.571,1.411 2.9,2.84c0.003,0.381 -0.157,0.746 -0.44,1c-0.378,0.156 -0.802,0.156 -1.18,0c-0.28,-0.1 -0.51,-0.47 -0.68,-0.77c-0.38,-0.64 -0.72,-1.31 -1,-2c-0.28,-0.69 -0.16,-1.07 0.4,-1.07Z" style="fill:#000050;fill-rule:nonzero;stroke:#f9f4be;stroke-width:0.75px;"/><path d="M57.979,174.815l-0.83,4.19c0.81,0.45 1.47,0.77 1.53,1.71c-0,0.24 0.45,0.59 0.72,0.63c0.865,0.21 1.596,0.788 2,1.58c0.72,1 1,0.94 1.62,-0.21c0.227,-0.488 0.571,-0.913 1,-1.24c0.37,-0.19 0.815,-0.163 1.16,0.07c0.231,0.385 0.29,0.851 0.16,1.28c-0.222,0.428 -0.516,0.814 -0.87,1.14c1.09,1.55 -0.16,2.77 -0.71,4c-0.2,0.47 -1,0.77 -1.61,0.88c-1.18,0.21 -1.82,-0.76 -1.35,-1.95c0.26,-0.66 0.59,-1.28 1,-2.11c-0.267,0.039 -0.528,0.106 -0.78,0.2c-0.416,0.272 -0.974,0.195 -1.3,-0.18c-0.86,-0.74 -1.24,-0.65 -2.05,0.19c-0.17,0.171 -0.365,0.313 -0.58,0.42c-0.192,0.081 -0.389,0.148 -0.59,0.2c-0.33,0.94 -0.46,2 -1.38,2.62c-0.2,0.15 -0.22,0.73 -0.2,1.1c-0,0.55 -0,1 -0.53,1.28c-1.534,-0.82 -2.289,-2.62 -1.8,-4.29c0.38,-1.71 0.72,-3.43 1,-5.16c0.059,-0.666 0.043,-1.337 -0.05,-2c-0.222,-0.972 0.25,-1.979 1.14,-2.43c0.396,-0.277 0.713,-0.652 0.92,-1.09c0.21,-0.34 0.26,-0.78 0.44,-1.14c0.41,-0.85 0.78,-0.92 1.46,-0.3c0.171,0.195 0.331,0.398 0.48,0.61Zm-2.08,9.47c-0.44,0.49 -0.44,0.49 -0.31,1.11c0.6,-0.45 0.6,-0.45 0.31,-1.13l-0,0.02Zm-0.59,-1l0.35,0l-0.11,-0.62c-0.08,0 -0.22,0.05 -0.23,0.09c-0.019,0.18 -0.022,0.361 -0.01,0.54l-0,-0.01Z" style="fill:#000050;fill-rule:nonzero;stroke:#f9f4be;stroke-width:0.75px;"/><path d="M8.059,185.815c0.714,-1.181 2.236,-1.619 3.47,-1c1.201,0.533 2.335,1.204 3.38,2c0.715,0.542 1.362,1.166 1.93,1.86c1,1.14 0.65,2.22 -0.78,2.54c-1.43,0.32 -1.56,0.24 -2.37,-1c-1.052,-1.503 -2.465,-2.717 -4.11,-3.53l-1.52,-0.87Z" style="fill:#000050;fill-rule:nonzero;stroke:#f9f4be;stroke-width:0.75px;"/><path d="M24.159,187.125c0.044,0.664 -0.433,1.259 -1.09,1.36c-0.61,0 -1.31,-0.42 -1.24,-1c0.22,-2.15 -1.27,-3.58 -1.89,-5.37c-0.267,-0.523 -0.663,-0.971 -1.15,-1.3c-0.44,-0.37 -0.9,-0.69 -0.52,-1.37c0.211,-0.379 0.613,-0.616 1.048,-0.616c0.207,0 0.411,0.054 0.592,0.156c0.4,0.203 0.744,0.502 1,0.87c0.88,1.51 1.74,3 2.49,4.64c0.322,0.856 0.577,1.735 0.76,2.63Z" style="fill:#000050;fill-rule:nonzero;stroke:#f9f4be;stroke-width:0.75px;"/><path d="M40.789,194.875c-0.06,0.61 -0.1,1 -0.14,1.48c-0,0.001 -0,0.003 -0,0.004c-0,0.444 -0.366,0.81 -0.81,0.81c-0.024,-0 -0.047,-0.001 -0.07,-0.004c-2.091,0.018 -4.063,-0.992 -5.27,-2.7c-0.166,-0.193 -0.258,-0.44 -0.258,-0.696c0,-0.318 0.143,-0.62 0.388,-0.824c0.415,-0.438 1.086,-0.526 1.6,-0.21c0.16,0.12 0.296,0.269 0.4,0.44c1.06,1.34 2.28,2.21 4.16,1.7Z" style="fill:#000050;fill-rule:nonzero;stroke:#f9f4be;stroke-width:0.75px;"/><path d="M22.929,174.965c0.14,0.06 0.52,0.1 0.65,0.3c0.91,1.52 2.52,2.63 2.44,4.72c-0,0.42 -0,1.06 -0.2,1.22c-0.392,0.263 -0.885,0.326 -1.33,0.17c-0.455,-0.262 -0.808,-0.671 -1,-1.16c-0.57,-1.36 -1,-2.76 -1.54,-4.16c-0.3,-0.74 0.04,-1.14 0.98,-1.09Z" style="fill:#000050;fill-rule:nonzero;stroke:#f9f4be;stroke-width:0.75px;"/><path d="M66.929,177.655c-1,-0.06 -1.48,-0.78 -1.08,-1.82c0.306,-0.688 0.657,-1.356 1.05,-2c0.32,-0.58 0.61,-1.17 1,-1.71c0.201,-0.336 0.501,-0.601 0.86,-0.76c0.348,-0.074 0.711,0.002 1,0.21c0.16,0.15 0.14,0.69 -0,1c-0.175,0.357 -0.39,0.692 -0.64,1c-0.651,0.792 -1.005,1.786 -1,2.81c0.13,0.93 -0.33,1.32 -1.19,1.27Z" style="fill:#000050;fill-rule:nonzero;stroke:#f9f4be;stroke-width:0.75px;"/><path d="M44.969,184.455c-0.066,0.53 -0.18,1.052 -0.34,1.56c-0.334,0.632 -0.392,1.375 -0.16,2.05c0.33,0.92 -0.94,1.91 -2,1.69c-0.703,-0.036 -1.262,-0.624 -1.262,-1.328c0,-0.285 0.092,-0.562 0.262,-0.792c0.544,-0.961 1.17,-1.874 1.87,-2.73c0.33,-0.52 0.39,-0.46 1.63,-0.45Z" style="fill:#000050;fill-rule:nonzero;stroke:#f9f4be;stroke-width:0.75px;"/><path d="M46.979,177.955c0.03,0.255 0.084,0.506 0.16,0.75c0.17,0.51 0.15,0.94 -0.38,1.12c-0.53,0.18 -1.17,0.25 -1.41,-0.37c-0.246,-0.918 -0.69,-1.771 -1.3,-2.5c-0.37,-0.37 -0,-1.09 0.56,-1.32c0.207,-0.079 0.428,-0.12 0.65,-0.12c0.993,-0 1.81,0.817 1.81,1.81c0,0.013 0,0.027 -0,0.04c-0.011,0.2 -0.042,0.397 -0.09,0.59Z" style="fill:#000050;fill-rule:nonzero;stroke:#f9f4be;stroke-width:0.75px;"/><path d="M8.279,197.485c-0.15,1.46 -1.23,1.84 -2.31,2.11c-0.876,0.253 -1.815,-0.174 -2.2,-1c1.15,-1.94 3.02,-2.39 4.51,-1.11Z" style="fill:#000050;fill-rule:nonzero;stroke:#f9f4be;stroke-width:0.75px;"/><path d="M47.869,172.105c-0.024,0.506 -0.094,1.008 -0.21,1.5c-0.09,0.28 -0.44,0.69 -0.62,0.66c-0.363,-0.067 -0.675,-0.295 -0.85,-0.62c-0.248,-0.713 -0.435,-1.445 -0.56,-2.19c-0.19,-0.91 0.13,-1.53 0.83,-1.67c0.7,-0.14 1.28,0.41 1.35,1.39l-0,0.92l0.06,0.01Z" style="fill:#000050;fill-rule:nonzero;stroke:#f9f4be;stroke-width:0.75px;"/><path d="M55.899,196.625c-0.954,0.052 -1.871,-0.385 -2.43,-1.16c-0.2,-0.28 -0.39,-0.9 -0.26,-1c0.273,-0.32 0.679,-0.497 1.1,-0.48c0.796,0.243 1.561,0.579 2.28,1c0.28,0.18 0.452,0.488 0.46,0.82c-0.103,0.325 -0.315,0.605 -0.6,0.79c-0.177,0.062 -0.368,0.072 -0.55,0.03Z" style="fill:#000050;fill-rule:nonzero;stroke:#f9f4be;stroke-width:0.75px;"/><path d="M8.789,177.715l0.68,0c0.59,0.06 1.23,0.13 1.35,0.89c0.12,0.76 -0.5,0.91 -1,1.14c-0.34,0.194 -0.698,0.351 -1.07,0.47c-0.131,0.044 -0.268,0.067 -0.406,0.067c-0.561,-0 -1.06,-0.37 -1.224,-0.907c-0.143,-0.7 0.304,-1.396 1,-1.56c0.217,-0.066 0.443,-0.1 0.67,-0.1Z" style="fill:#000050;fill-rule:nonzero;stroke:#f9f4be;stroke-width:0.75px;"/><path d="M33.459,184.135c-0.214,-0.819 -0.523,-1.611 -0.92,-2.36c-0.326,-0.572 -0.432,-1.244 -0.3,-1.89c-0,-0.58 0.44,-0.76 0.92,-0.75c0.48,0.01 0.66,0.32 0.71,0.79c0.237,1.419 0.092,2.876 -0.42,4.22l0.01,-0.01Z" style="fill:#000050;fill-rule:nonzero;stroke:#f9f4be;stroke-width:0.75px;"/><path d="M49.849,32.485c0.04,-0.282 0.118,-0.557 0.23,-0.82c1.06,-2 2.15,-4 3.23,-6c0.103,-0.23 0.19,-0.467 0.26,-0.71c0.196,-0.867 0.973,-1.489 1.863,-1.489c0.471,-0 0.926,0.174 1.277,0.489c0.342,0.201 0.553,0.57 0.553,0.967c0,0.323 -0.14,0.631 -0.383,0.843c-0.5,0.55 -1.26,0.9 -1.61,1.52c-1,1.65 -1.78,3.38 -2.6,5.12c-0.3,0.64 -0.43,1.37 -1.22,1.59c-1.01,0.28 -1.6,-0.18 -1.6,-1.51Z" style="fill:#000050;fill-rule:nonzero;stroke:#f9f4be;stroke-width:0.75px;"/><path d="M39.489,25.685c0.7,-2.41 2.43,-4 4,-5.74c1.1,-1.23 3,-1.92 4.38,0c-0.274,1.045 -1.069,1.878 -2.1,2.2c-1.108,0.624 -2.119,1.405 -3,2.32c-0.59,0.51 -1.11,1.13 -1.66,1.7l-1.62,-0.48Z" style="fill:#000050;fill-rule:nonzero;stroke:#f9f4be;stroke-width:0.75px;"/><path d="M63.789,87.105c0.094,0.441 0.214,0.875 0.36,1.3c0.245,0.634 0.15,1.351 -0.25,1.9c-0.156,0.371 -0.52,0.614 -0.923,0.614c-0.207,0 -0.408,-0.064 -0.577,-0.184c-0.87,-0.62 -1.81,-1.25 -1.89,-2.58c-0.026,-0.358 -0.086,-0.713 -0.18,-1.06c-0.145,-0.753 -0.697,-1.366 -1.43,-1.59c-0.789,-0.262 -1.541,-0.621 -2.24,-1.07c-1.352,-0.867 -2.794,-1.584 -4.3,-2.14c-0.76,-0.28 -1.41,-0.84 -2.3,-0.68c-0.17,0 -0.57,-0.36 -0.57,-0.54c-0,-0.37 0.17,-0.93 0.41,-1c0.638,-0.344 1.354,-0.519 2.08,-0.51c1.792,0.174 3.512,0.797 5,1.81c1.256,0.835 2.597,1.536 4,2.09c0.756,0.243 1.395,0.761 1.79,1.45c0.19,0.35 0.48,0.64 0.69,1c0.21,0.36 0.38,0.73 0.56,1.1l-0.23,0.09Z" style="fill:#000050;fill-rule:nonzero;stroke:#f9f4be;stroke-width:0.75px;"/><path d="M40.239,99.905c1.436,0.299 2.571,1.411 2.9,2.84c0.003,0.381 -0.157,0.746 -0.44,1c-0.378,0.156 -0.802,0.156 -1.18,0c-0.28,-0.1 -0.51,-0.47 -0.68,-0.77c-0.38,-0.64 -0.72,-1.31 -1,-2c-0.28,-0.69 -0.16,-1.07 0.4,-1.07Z" style="fill:#000050;fill-rule:nonzero;stroke:#f9f4be;stroke-width:0.75px;"/></g><path d="M71.599,186.715c0.17,-0.41 0.4,-1 0.67,-1.62c0.491,-1.164 1.042,-2.302 1.65,-3.41c0.466,-0.746 1.038,-1.42 1.7,-2c0.153,-0.174 0.375,-0.274 0.607,-0.274c0.276,0 0.534,0.142 0.683,0.374c0.194,0.447 0.194,0.954 -0,1.4c-0.65,1.19 -1.65,2.14 -2,3.51c-0.19,0.462 -0.321,0.946 -0.39,1.44c0.015,0.881 -0.552,1.672 -1.39,1.94c-0.94,0.4 -1.57,-0.09 -1.53,-1.36Z" style="fill:#000050;fill-rule:nonzero;stroke:#f9f4be;stroke-width:0.75px;"/><path d="M33.439,184.155c0.426,-0.473 0.817,-0.978 1.17,-1.51c0.319,-0.623 0.587,-1.272 0.8,-1.94c0.097,-0.237 0.128,-0.496 0.09,-0.75c-0.216,-1.01 -0.017,-2.066 0.55,-2.93c0.49,-1.06 0.74,-2.25 1.25,-3.3c0.82,-1.68 1.73,-3.32 2.69,-4.91c0.31,-0.53 0.93,-0.83 1.37,-1.29c0.541,-0.513 1.02,-1.086 1.43,-1.71c1.21,-2.11 3.08,-3.57 4.56,-5.41c0.22,-0.27 0.47,-0.52 0.71,-0.77c2.73,-2.68 4.42,-6.1 6.07,-9.56c0.28,-0.6 0.53,-1.22 0.85,-1.8c1.39,-2.47 2,-5.26 2.72,-8c1.46,-4.463 2.137,-9.145 2,-13.84c-0,-0.82 0.07,-1.64 -0,-2.46c-0.09,-2.17 -0.21,-4.33 -0.32,-6.5c-1.19,-1.91 -1,-4.24 -1.65,-6.3c-0.039,-0.094 -0.097,-0.179 -0.17,-0.25c-0.114,-0.073 -0.239,-0.127 -0.37,-0.16c-0.444,0.96 -0.779,1.967 -1,3c-0.063,1.06 -0.753,1.986 -1.75,2.35c0.13,0.83 0.25,1.63 0.38,2.43c-0,0.1 0.09,0.21 0.06,0.3c-0.58,2 0.64,3.9 0.54,5.89c-0.05,0.93 -0.19,1.85 -0.22,2.77c-0.07,2.06 -0.1,4.12 -0.16,6.17c0.022,0.463 -0.012,0.926 -0.1,1.38c-0.57,2.07 -1.1,4.16 -1.8,6.19c-0.89,2.59 -1.41,5.35 -2.8,7.74c-1.21,2.08 -2,4.42 -3.55,6.33c-1,1.26 -2.06,2.57 -3.08,3.86c-1.02,1.29 -1.87,2.75 -2.83,4.09c-1.672,2.569 -3.534,5.01 -5.57,7.3c-1.226,1.288 -2.137,2.842 -2.66,4.54c-0.26,0.77 -0.61,1.51 -0.92,2.26c-0.13,0.33 -0.39,0.68 -0.35,1c0.16,1.4 -0.74,2 -1.58,2.71c-1.34,-2.48 -0.44,-4.85 0.25,-7.15c0.797,-2.574 2.211,-4.916 4.12,-6.82c1.024,-1.235 1.972,-2.53 2.84,-3.88c1.31,-1.77 2.64,-3.53 4,-5.29c1,-1.33 0.91,-1.73 -0.2,-3c-0.68,-0.79 -1.14,-1.79 -1.76,-2.64c-1,-1.3 -2,-2.51 -2.93,-3.83c-1.11,-1.61 -2.53,-3 -3.33,-4.82c-0.051,-0.142 -0.141,-0.266 -0.26,-0.36c-1.11,-0.77 -1.6,-2 -2.27,-3.17c-1.24,-2.08 -2.57,-4.12 -3.7,-6.27c-1.13,-2.15 -2.61,-4.31 -3.23,-6.87c-0.38,-1.046 -0.866,-2.051 -1.45,-3c-0.56,-1.19 -1.12,-2.39 -1.6,-3.62c-0.954,-2.466 -1.867,-4.95 -2.74,-7.45c-0.306,-0.87 -0.543,-1.762 -0.71,-2.67c-0.39,-2.06 -0.76,-4.13 -1.06,-6.21c-0.074,-0.871 -0.097,-1.746 -0.07,-2.62c-0.07,-3.35 -0.26,-6.71 -0.18,-10.06c0.108,-6.193 0.889,-12.355 2.33,-18.38c0.591,-2.808 1.51,-5.536 2.74,-8.13c0.92,-1.8 1.71,-3.68 2.62,-5.5c2.289,-4.623 4.927,-9.066 7.89,-13.29c1,-1.43 2.19,-2.74 3.32,-4.08c1.13,-1.34 2.16,-2.35 3.18,-3.58c1.02,-1.23 1.69,-2.23 2.51,-3.36c0.162,-0.182 0.251,-0.418 0.251,-0.662c0,-0.398 -0.237,-0.759 -0.601,-0.918c-1.11,-0.84 -2.24,-1.63 -3.36,-2.44c-1.059,-0.57 -1.946,-1.412 -2.57,-2.44c-0.259,-0.603 -0.483,-1.22 -0.67,-1.85c-0.08,-0.24 -0,-0.54 -0.11,-0.76c-0.93,-2 -0.13,-3.89 0.22,-5.94c1.39,0.39 1.91,-0.47 2.15,-1.63c0.34,-1.64 1.69,-2.35 2.73,-3.28c2.033,-1.716 4.458,-2.904 7.06,-3.46c1.92,-0.48 3.53,-1.67 5.3,-2.49c1.41,-0.609 2.583,-1.663 3.34,-3c0.53,-0.852 1.422,-1.416 2.42,-1.53c2.883,-0.67 5.842,-0.949 8.8,-0.83c1.484,-0.024 2.902,0.628 3.85,1.77c0.533,0.666 1.118,1.288 1.75,1.86c0.814,0.786 1.276,1.869 1.28,3c0.08,1.8 0.08,3.61 0.07,5.42c0.041,2.518 0.571,5.005 1.56,7.32c0.65,1.61 1.47,3.16 2,4.82c0.398,1.597 0.676,3.222 0.83,4.86c0.006,1.184 0.251,2.354 0.72,3.44c0.078,0.137 0.113,0.294 0.1,0.45c-0.26,2 0.07,4.06 -1,5.86c-0.615,1.248 -1.691,2.21 -3,2.68c-1.022,0.449 -1.997,0.999 -2.91,1.64c-0.25,0.14 -0.49,0.41 -0.73,0.41c-2.762,0.094 -5.522,-0.243 -8.18,-1c-1.363,-0.388 -2.7,-0.866 -4,-1.43c-0.979,-0.591 -1.908,-1.26 -2.78,-2c-0.293,-0.248 -0.634,-0.435 -1,-0.55c-1.087,-0.026 -1.974,-0.912 -2,-2c-1.13,-0.288 -2.331,0.062 -3.13,0.91c-1.06,1.16 -2.29,2.15 -3.43,3.23c-0.255,0.243 -0.48,0.515 -0.67,0.81l-3.59,5.59c-0.667,1.176 -1.437,2.29 -2.3,3.33c-0.751,0.95 -1.376,1.992 -1.86,3.1c-1.11,2.11 -2.24,4.22 -3.25,6.39c-1.43,3.09 -2.83,6.2 -4.12,9.35c-0.91,2.22 -1.61,4.53 -2.4,6.8c-0.31,0.87 -0.64,1.73 -0.9,2.61c-0.208,0.58 -0.329,1.186 -0.36,1.8c-0.014,2.019 -0.242,4.03 -0.68,6c-0.132,0.813 -0.169,1.639 -0.11,2.46c-0,2 0.15,4.1 0.15,6.16c-0,2.35 0.72,4.55 1.08,6.82c0.25,1.64 0.68,3.18 1.08,4.76c0.598,2.219 1.517,4.338 2.73,6.29c0.51,0.86 0.75,1.9 1.23,2.78c1.64,3 3.36,5.9 5,8.87c0.762,1.697 1.711,3.304 2.83,4.79c1.89,2.13 3.79,4.26 5.67,6.41c1,1.17 2,2.38 3,3.56c0.32,0.37 0.67,0.71 1.1,1.17c0.254,-0.285 0.472,-0.601 0.65,-0.94c0.32,-0.92 0.58,-1.86 0.86,-2.79c0.67,-2.2 1.61,-4.31 1.8,-6.65c-0,-0.36 0.12,-0.72 0.13,-1.08c-0,-4 0.11,-8 0.13,-11.94c-0,-2.23 -0.91,-4.21 -1.66,-6.21c-0.151,-0.29 -0.436,-0.488 -0.76,-0.53c-0.82,-0.035 -1.639,0.105 -2.4,0.41c-0.999,0.524 -2.158,0.659 -3.25,0.38c-1,-0.2 -2,-0.45 -3,-0.74c-0.335,-0.08 -0.632,-0.275 -0.84,-0.55c-0.34,-0.624 -1.084,-0.92 -1.76,-0.7c-0.785,0.086 -1.555,-0.268 -2,-0.92c-0.87,-1.1 -1.71,-2.21 -2.65,-3.26c-0.71,-0.79 -0.86,-2.22 -1.09,-3.41c-0.157,-1.065 -0.224,-2.142 -0.2,-3.22c-0.087,-0.77 -0.056,-1.548 0.09,-2.31c0.616,-2.566 0.742,-5.226 0.37,-7.84c-0.248,-2.354 -0.635,-4.691 -1.16,-7c-0.36,-1.75 -0.86,-3.48 -1.3,-5.21c-0.4,-1.824 -0.4,-3.715 -0,-5.54c0.002,-0.152 0.055,-0.3 0.15,-0.42c1.15,-1 1.72,-2.65 3.21,-3.3c0.304,-0.162 0.587,-0.364 0.84,-0.6c1.464,-1.529 3.868,-1.723 5.56,-0.45c0.91,0.58 1.82,1.15 2.74,1.7c0.204,0.127 0.432,0.212 0.67,0.25c2.78,0.448 5.503,1.199 8.12,2.24c1.427,0.621 2.91,1.103 4.43,1.44c1.83,0.39 3.543,1.205 5,2.38c1.81,1.41 3.78,2.69 4.81,5c0.265,0.426 0.604,0.802 1,1.11c0.995,0.955 1.622,2.23 1.77,3.6c0.485,3.032 -0.5,6.12 -2.65,8.31c-0.24,0.25 -0.59,0.48 -0.68,0.79c-0.44,1.49 -1.59,2.43 -2.39,3.64c-1.2,1.82 -2.377,3.667 -3.53,5.54c-0.141,0.325 -0.114,0.699 0.07,1c0.803,0.935 1.299,2.094 1.42,3.32c0.56,2.49 1.18,5 1.73,7.46c0.194,0.855 0.315,1.725 0.36,2.6c0.11,3 0.23,6.09 0.22,9.14c-0.092,1.178 -0.283,2.345 -0.57,3.49c-0.15,0.81 -0.39,1.6 -0.48,2.42c-0.499,3.41 -1.268,6.774 -2.3,10.06c-0.256,0.667 -0.563,1.312 -0.92,1.93c-0.59,1.3 -1.15,2.6 -1.74,3.9c-0.112,0.281 -0.253,0.549 -0.42,0.8c-1.28,1.83 -1.31,2.25 -0.14,4.12c0.35,0.55 0.82,1 1.15,1.59c0.63,1.09 1.21,2.21 1.79,3.33c1.67,3.23 2,6.88 2.68,10.38c0.122,0.814 0.159,1.639 0.11,2.46c-0,1.13 -0,2.26 -0.06,3.39c-0.044,0.719 -0.155,1.432 -0.33,2.13c-0.061,0.749 -0.694,1.334 -1.446,1.334c-0.337,-0 -0.664,-0.118 -0.924,-0.334c-0.406,-0.258 -0.571,-0.774 -0.39,-1.22c0.196,-0.799 0.31,-1.617 0.34,-2.44c-0.055,-1.438 -0.205,-2.871 -0.45,-4.29c-0.454,-2.533 -0.967,-5.053 -1.54,-7.56c-0.092,-0.937 -0.502,-1.816 -1.16,-2.49c-0.76,0.25 -0.75,0.84 -0.88,1.4c-0.407,1.8 -0.837,3.594 -1.29,5.38c-0.085,0.381 -0.28,0.729 -0.56,1c-0.717,0.607 -1.073,1.541 -0.94,2.47c0.08,2.027 -0.166,4.053 -0.73,6c-0.093,0.416 -0.349,0.776 -0.71,1c-0.56,0.2 -0.9,-0.33 -1,-0.86c-0.276,-1.091 -0.417,-2.213 -0.42,-3.34c0.21,-2.62 -0.184,-5.254 -1.15,-7.7c-0.57,-1.46 -1.83,-1.87 -2.87,-0.75c-1.649,1.645 -2.946,3.608 -3.81,5.77c-0.3,0.83 -1,1.56 -0.71,2.55c0.55,0.283 1.085,0.597 1.6,0.94c0.13,0.09 0.11,0.49 0.06,0.73c-0.29,1.39 -0.86,1.8 -2.57,1.73c-0.85,2.26 -0.18,4.84 -1.07,7.34l-3.37,-2c-1.2,1.15 -0.55,2.89 -1.22,4.33l-1.27,-0.7c-0.46,0.36 -0.33,0.79 -0.16,1.23c0.236,0.511 0.43,1.039 0.58,1.58c0.027,0.38 -0.003,0.761 -0.09,1.13c-1.17,-0.23 -0.82,-1.35 -1.42,-1.92c-0.444,-0.027 -0.885,-0.084 -1.32,-0.17c-0.732,-0.14 -1.266,-0.786 -1.266,-1.532c-0,-0.183 0.032,-0.365 0.096,-0.538c0.099,-0.5 0.149,-1.009 0.15,-1.52c-0,-0.6 -0,-1.15 0.64,-1.38c0.61,-0.262 1.327,-0.046 1.69,0.51c0.267,0.491 0.501,0.999 0.7,1.52c0.34,-0.72 0.9,-1.26 0.21,-2l-0.17,-0.08Zm8.65,-154.34c0.104,-0.081 0.201,-0.172 0.29,-0.27c1.55,-2.11 3,-4.35 4.68,-6.28c1.68,-1.93 3,-3.76 4.46,-5.63c0.529,-0.857 1.522,-1.322 2.52,-1.18c0.83,0.05 1.508,0.703 1.59,1.53c0.174,0.816 -0.243,1.651 -1,2c-1.71,0.78 -2.82,2.29 -4.11,3.6c-1.81,1.85 -2.73,4.56 -5.08,5.86c-0.2,0.11 -0.3,0.4 -0.45,0.6c-0.75,1 -0.72,1.3 0.34,1.88c1.28,0.69 2.6,1.32 3.89,2c0.365,0.141 0.704,0.344 1,0.6c1.3,1.42 3.16,1.74 4.64,2.79c0.446,0.275 0.915,0.512 1.4,0.71c0.133,-0.683 0.33,-1.353 0.59,-2c0.695,-1.262 1.041,-2.688 1,-4.13c-0,-0.91 0.54,-1.47 1.2,-1.42c0.827,0.058 1.472,0.762 1.46,1.59c-0.081,0.975 -0.268,1.937 -0.56,2.87c-0.378,0.979 -0.312,2.074 0.18,3c0.14,0.25 0.25,0.52 0.37,0.75l-1,0.81c2,1.26 4,1.7 6,0.76c0.045,-0.174 0.079,-0.351 0.1,-0.53c-0.003,-0.256 -0.037,-0.511 -0.1,-0.76c-0.87,-2.8 -0.77,-5.71 -0.93,-8.59c-0.11,-2.15 0.43,-4.32 -0.2,-6.47c-0.24,-0.8 0.31,-1.26 1.1,-1.14c0.63,0.09 0.86,0.55 1,1.15c0.14,0.6 0.42,1.36 0.54,2.06c0.144,0.797 0.234,1.602 0.27,2.41c0.13,2.48 0.19,5 0.37,7.42c0.096,0.483 0.385,0.906 0.8,1.17c0.46,0.28 0.77,-0.19 1,-0.62c0.186,-0.485 0.656,-0.808 1.176,-0.808c0.192,0 0.381,0.044 0.554,0.128c0.282,0.061 0.571,0.092 0.86,0.09c-0.06,-0.55 -0.07,-1 -0.15,-1.42c-0.474,-1.84 -0.841,-3.707 -1.1,-5.59c-0.232,-2.35 -0.725,-4.668 -1.47,-6.91c-0.491,-1.464 -0.758,-2.995 -0.79,-4.54c0.037,-2.063 -0.503,-4.097 -1.56,-5.87c-0.72,-0.926 -0.87,-2.179 -0.39,-3.25c-1.09,-0.82 -2,-1.81 -3.43,-1.51c-0.24,0 -0.52,-0.22 -0.79,-0.31c-1.234,-0.512 -2.637,-0.427 -3.8,0.23c-0.707,0.465 -1.358,1.008 -1.94,1.62c-1.031,1.231 -2.291,2.25 -3.71,3c-1.21,0.56 -2.13,1.78 -3.58,1.91c-0.27,0 -0.5,0.3 -0.77,0.43c-0.647,0.435 -1.355,0.772 -2.1,1c-1.188,0.268 -2.322,0.738 -3.35,1.39c-2.363,1.108 -4.246,3.034 -5.3,5.42c-0.54,1.169 -0.587,2.507 -0.13,3.71c0.88,2.15 2.11,3.94 4.41,4.74Zm14.16,71.08c-0.454,-0.074 -0.917,-0.074 -1.37,0c-1.28,0.53 -2.17,-0.09 -2.93,-1c-0.422,-0.506 -0.779,-1.064 -1.06,-1.66c-0.74,-1.61 -1.42,-3.25 -2.11,-4.89c-0.076,-0.133 -0.11,-0.286 -0.1,-0.44c0.08,-0.38 0.11,-0.94 0.33,-1.07c0.368,-0.195 0.811,-0.195 1.18,0c0.62,0.503 1.154,1.105 1.58,1.78c0.598,1.003 1.125,2.045 1.58,3.12c0.191,0.575 0.757,0.945 1.36,0.89c0.62,0.01 1.229,0.165 1.78,0.45c0.722,0.45 1.411,0.951 2.06,1.5c0.64,-0.58 1.4,-1.22 2.09,-1.92c0.17,-0.149 0.268,-0.366 0.268,-0.592c-0,-0.3 -0.17,-0.574 -0.438,-0.708c-1.585,-1.103 -2.983,-2.454 -4.14,-4c-0.542,-0.587 -1.047,-1.208 -1.51,-1.86c-0.2,-0.452 -0.2,-0.967 -0,-1.42c0.3,-0.286 0.736,-0.382 1.13,-0.25c1.856,0.822 3.462,2.124 4.65,3.77c0.43,0.851 1.079,1.572 1.88,2.09c1.107,-1.147 1.863,-2.587 2.18,-4.15c0.37,-1.72 0.57,-3.6 -0.48,-5.24c-2.001,-3.421 -5.099,-6.068 -8.79,-7.51c-1.91,-0.68 -3.89,-1.17 -5.83,-1.75l-1.81,-0.59c-2.15,-0.71 -4.29,-1.49 -6.47,-2.1c-0.908,-0.174 -1.768,-0.542 -2.52,-1.08c-0.34,-0.241 -0.774,-0.307 -1.17,-0.18c-1.12,0.47 -2.215,0.998 -3.28,1.58c-0.27,0.15 -0.65,0.46 -0.67,0.72c-0.12,1.274 -0.12,2.557 -0,3.83c0.24,1.67 0.71,3.29 1.11,4.93c0.19,0.79 0.5,1.55 0.67,2.34c0.29,1.41 0.48,2.84 0.81,4.24c0.109,0.695 0.384,1.353 0.8,1.92c0.554,0.545 0.763,1.356 0.54,2.1c-0.23,1 -0.51,1.88 -0.73,2.82c-0.105,0.385 -0.135,0.785 -0.09,1.18c0.228,1.373 0.181,2.777 -0.14,4.13c-0.164,1.012 -0.208,2.039 -0.13,3.06c-0,0.29 0.28,0.58 0.53,1c0.23,-0.45 0.35,-0.71 0.49,-0.95c0.286,-0.578 0.642,-1.118 1.06,-1.61c0.357,-0.21 0.792,-0.247 1.18,-0.1c0.48,0.18 0.52,0.69 0.38,1.19l-0.33,1.22c0.321,-0.086 0.614,-0.255 0.85,-0.49c0.79,-0.66 1.09,-0.57 1.54,0.33c0.45,0.9 1,1.91 1.67,3.05l2,-1.18c-0.19,-0.59 -0.32,-1 -0.47,-1.45c-0.601,-1.403 -1.115,-2.843 -1.54,-4.31c-0.61,-2.6 -1,-5.25 -1.51,-7.88c-0.247,-1.366 -0.487,-2.736 -0.72,-4.11c-0.08,-0.51 -0.17,-1 0.42,-1.34c0.758,-0.319 1.645,0.018 2,0.76c0.738,1.588 1.081,3.331 1,5.08c-0.16,1.348 -0.02,2.714 0.41,4c0.52,1.121 0.78,2.345 0.76,3.58c-0.06,0.57 0.52,1.31 1,1.83c0.22,0.26 0.79,0.26 1.2,0.26c0.564,-0.04 1.075,0.354 1.18,0.91c0.112,0.298 0.242,0.589 0.39,0.87c0.975,-0.295 1.814,-0.925 2.37,-1.78c-0.62,-0.17 -1.12,-0.27 -1.59,-0.45c-0.517,-0.118 -0.853,-0.628 -0.76,-1.15c0.023,-0.438 0.39,-0.786 0.829,-0.786c0.033,0 0.067,0.002 0.101,0.006c1.205,0.045 2.404,0.203 3.58,0.47c0.79,0.21 1.18,-0.09 1.75,-1.03l-0,0.02Zm-8.89,46.76c-1.58,-0.308 -2.897,-1.403 -3.49,-2.9c-0.138,-0.269 -0.317,-0.515 -0.53,-0.73c-1.47,-1.64 -2.94,-3.27 -4.4,-4.91c-0.945,-0.968 -1.83,-1.994 -2.65,-3.07c-1.14,-1.66 -2.14,-3.43 -3.18,-5.17c-0.657,-0.827 -1.162,-1.765 -1.49,-2.77c-0.258,-0.719 -0.626,-1.393 -1.09,-2c-0.641,-0.847 -1.197,-1.754 -1.66,-2.71c-1.06,-3 -3.09,-5.47 -4,-8.58c-0.66,-2.28 -1.92,-4.34 -2.22,-6.79c-0.28,-2.24 -0.78,-4.45 -1.1,-6.68c-0.599,-5.235 -0.471,-10.529 0.38,-15.73c0.061,-0.77 0.175,-1.535 0.34,-2.29c0.59,-2.07 1.23,-4.13 1.91,-6.16c0.818,-2.803 1.82,-5.549 3,-8.22c1,-2.1 1.61,-4.38 2.82,-6.41c1.21,-2.03 1.92,-4.15 3.32,-5.95c0.099,-0.115 0.177,-0.247 0.23,-0.39c0.821,-2.188 2.045,-4.203 3.61,-5.94c0.207,-0.312 0.378,-0.648 0.51,-1l-1.14,-0.94c-0.11,-1.5 1.08,-2.58 0.84,-4.24c-0.357,0.277 -0.691,0.582 -1,0.91c-1.6,2.12 -3.19,4.24 -4.76,6.38c-0.39,0.52 -0.69,1.12 -1,1.67c-1,1.61 -2.16,3.16 -3.08,4.85c-1.27,2.36 -2.39,4.82 -3.57,7.24c-0.15,0.32 -0.26,0.66 -0.38,1c-0.55,1.48 -1.13,2.95 -1.61,4.45c-0.66,2 -1.26,4.11 -1.87,6.16c-0.051,0.254 -0.081,0.512 -0.09,0.77c-0.17,1.38 -0.32,2.76 -0.51,4.14c-0.23,1.63 -0.57,3.25 -0.73,4.89c-0.129,1.43 -0.182,2.865 -0.16,4.3c-0,1.71 0.19,3.42 0.06,5.11c-0.217,2.618 -0.045,5.253 0.51,7.82c0.076,0.244 0.12,0.496 0.13,0.75c-0.111,2.605 0.375,5.202 1.42,7.59c0.61,1.56 1.12,3.17 1.69,4.75c0.47,1.3 0.91,2.62 1.45,3.89c0.73,1.72 1.68,3.35 2.3,5.11c0.79,2.24 2.2,4.08 3.14,6.22c0.634,1.32 1.349,2.599 2.14,3.83c0.85,1.43 1.67,2.89 2.63,4.24c1.36,1.92 2.89,3.71 4.25,5.63c1.36,1.92 2.77,4.18 4.15,6.27c0.28,0.43 0.54,0.86 0.85,1.26c0.47,0.59 0.83,0.56 1.27,-0.09c0.483,-0.634 0.921,-1.303 1.31,-2c0.47,-1.17 0.88,-2.29 1.45,-3.58l-0,0.02Z" style="fill:#000050;fill-rule:nonzero;stroke:#f9f4be;stroke-width:0.75px;"/><path d="M71.599,186.715c0.17,-0.41 0.4,-1 0.67,-1.62c0.491,-1.164 1.042,-2.302 1.65,-3.41c0.466,-0.746 1.038,-1.42 1.7,-2c0.153,-0.174 0.375,-0.274 0.607,-0.274c0.276,0 0.534,0.142 0.683,0.374c0.194,0.447 0.194,0.954 -0,1.4c-0.65,1.19 -1.65,2.14 -2,3.51c-0.19,0.462 -0.321,0.946 -0.39,1.44c0.015,0.881 -0.552,1.672 -1.39,1.94c-0.94,0.4 -1.57,-0.09 -1.53,-1.36Z" style="fill:#000050;fill-rule:nonzero;stroke:#f9f4be;stroke-width:0.75px;"/></g></svg>