<svg width="934" height="700" viewBox="0 0 934 700" fill="none" xmlns="http://www.w3.org/2000/svg">
<path d="M524.922 225.56C524.964 225.731 524.986 225.987 524.986 226.328C524.986 226.627 524.922 226.947 524.794 227.288C524.666 227.587 524.474 227.864 524.218 228.12C524.004 228.333 523.684 228.44 523.258 228.44C522.319 227.843 521.53 227.053 520.89 226.072C520.548 224.792 520.228 223.32 519.93 221.656C519.674 219.992 519.46 218.264 519.29 216.472C519.119 214.637 518.991 212.781 518.906 210.904C518.863 209.027 518.863 207.213 518.906 205.464C518.906 205.165 518.927 204.781 518.97 204.312C519.055 203.843 519.183 203.395 519.354 202.968C519.524 202.499 519.738 202.115 519.994 201.816C520.25 201.475 520.612 201.304 521.082 201.304C521.636 201.304 522.084 201.475 522.426 201.816C522.767 202.157 522.938 202.712 522.938 203.48C522.895 205.187 522.895 207.021 522.938 208.984C523.023 210.904 523.151 212.845 523.322 214.808C523.492 216.771 523.706 218.691 523.962 220.568C524.26 222.403 524.58 224.067 524.922 225.56ZM535.095 209.88C535.223 210.52 535.351 211.245 535.479 212.056C535.65 212.824 535.82 213.635 535.991 214.488C536.162 215.299 536.311 216.131 536.439 216.984C536.567 217.837 536.674 218.648 536.759 219.416C537.271 218.307 537.826 217.133 538.423 215.896C539.02 214.659 539.66 213.528 540.343 212.504C541.068 211.437 541.815 210.563 542.583 209.88C543.394 209.197 544.268 208.856 545.207 208.856C546.615 208.856 547.788 209.368 548.727 210.392C549.708 211.416 550.519 212.696 551.159 214.232C551.842 215.725 552.375 217.304 552.759 218.968C553.143 220.632 553.463 222.104 553.719 223.384C553.975 224.536 553.463 225.389 552.183 225.944C551.586 226.243 551.138 226.285 550.839 226.072C550.54 225.859 550.37 225.645 550.327 225.432C550.114 224.92 549.836 224.024 549.495 222.744C549.196 221.464 548.834 220.163 548.407 218.84C548.023 217.517 547.575 216.365 547.063 215.384C546.551 214.403 545.975 213.955 545.335 214.04C544.567 214.083 543.884 214.659 543.287 215.768C542.775 216.664 542.242 217.667 541.687 218.776C541.175 219.843 540.663 220.952 540.151 222.104C539.639 223.213 539.127 224.344 538.615 225.496C538.146 226.605 537.698 227.629 537.271 228.568C536.972 228.867 536.588 229.08 536.119 229.208C535.692 229.293 535.244 229.251 534.775 229.08C534.348 228.952 534.007 228.739 533.751 228.44C533.495 228.141 533.367 227.843 533.367 227.544C532.983 224.216 532.578 221.187 532.151 218.456C531.767 215.725 531.255 212.931 530.615 210.072C530.316 209.091 530.252 208.323 530.423 207.768C530.636 207.171 531.276 206.936 532.343 207.064C533.836 207.32 534.754 208.259 535.095 209.88ZM572.652 213.848C573.463 213.805 574.273 213.997 575.084 214.424C575.895 214.851 576.3 215.512 576.3 216.408C576.215 217.133 575.809 217.603 575.084 217.816C574.401 217.987 573.847 218.072 573.42 218.072C572.567 218.072 571.649 218.093 570.668 218.136C569.687 218.179 568.684 218.243 567.66 218.328C567.575 219.736 567.489 221.059 567.404 222.296C567.361 223.533 567.319 224.643 567.276 225.624C567.233 226.563 567.212 227.331 567.212 227.928C567.212 228.525 567.233 228.845 567.276 228.888C568.215 228.717 569.217 228.44 570.284 228.056C571.393 227.629 572.481 227.181 573.548 226.712C574.657 226.2 575.724 225.688 576.748 225.176C577.815 224.621 578.817 224.109 579.756 223.64C580.183 223.427 580.567 223.363 580.908 223.448C581.292 223.533 581.527 223.725 581.612 224.024C581.697 224.493 581.633 225.069 581.42 225.752C581.207 226.435 580.823 227.053 580.268 227.608C579.628 228.12 578.775 228.717 577.708 229.4C576.684 230.04 575.575 230.659 574.38 231.256C573.185 231.853 571.969 232.387 570.732 232.856C569.537 233.283 568.471 233.539 567.532 233.624C566.124 233.752 565.057 233.368 564.332 232.472C563.607 231.576 563.201 230.445 563.116 229.08C563.031 227.715 563.009 226.136 563.052 224.344C563.137 222.552 563.223 220.653 563.308 218.648C562.497 218.733 561.708 218.819 560.94 218.904C560.215 218.947 559.511 219.011 558.828 219.096C558.273 219.096 557.655 218.968 556.972 218.712C556.332 218.456 556.012 217.965 556.012 217.24C556.012 216.984 556.119 216.643 556.332 216.216C556.545 215.789 557.015 215.469 557.74 215.256C559.489 214.957 561.431 214.701 563.564 214.488C563.692 212.483 563.841 210.541 564.012 208.664C564.183 206.787 564.332 205.08 564.46 203.544C564.503 203.032 564.652 202.584 564.908 202.2C565.164 201.816 565.441 201.624 565.74 201.624C566.465 201.581 567.148 201.773 567.788 202.2C568.471 202.584 568.812 203.032 568.812 203.544C568.641 204.995 568.471 206.637 568.3 208.472C568.172 210.307 568.044 212.184 567.916 214.104C568.769 214.019 569.58 213.976 570.348 213.976C571.159 213.933 571.927 213.891 572.652 213.848ZM603.385 208.92C602.617 209.347 601.806 209.795 600.953 210.264C600.142 210.733 599.31 211.288 598.457 211.928C597.646 212.525 596.857 213.251 596.089 214.104C595.364 214.915 594.702 215.896 594.105 217.048C593.252 218.669 592.676 220.333 592.377 222.04C592.078 223.704 591.886 225.347 591.801 226.968C591.801 227.736 591.609 228.525 591.225 229.336C590.884 230.104 590.393 230.488 589.753 230.488C588.942 230.488 588.281 230.083 587.769 229.272C587.3 228.419 586.98 227.608 586.809 226.84C586.084 223.811 585.486 220.824 585.017 217.88C584.548 214.893 584.142 211.928 583.801 208.984C583.801 208.387 583.972 208.003 584.313 207.832C584.697 207.661 585.124 207.597 585.593 207.64C586.105 207.683 586.596 207.811 587.065 208.024C587.534 208.237 587.812 208.579 587.897 209.048C588.068 210.627 588.281 212.291 588.537 214.04C588.793 215.747 589.049 217.219 589.305 218.456C589.476 217.005 589.945 215.597 590.713 214.232C591.481 212.867 592.42 211.629 593.529 210.52C594.681 209.411 595.961 208.472 597.369 207.704C598.82 206.936 600.292 206.424 601.785 206.168C602.425 206.083 602.958 206.083 603.385 206.168C603.812 206.253 604.11 206.403 604.281 206.616C604.452 206.829 604.473 207.171 604.345 207.64C604.26 208.109 603.94 208.536 603.385 208.92ZM621.969 208.664C623.249 209.133 624.316 209.837 625.169 210.776C626.065 211.715 626.748 212.781 627.217 213.976C627.686 215.128 627.942 216.323 627.985 217.56C628.07 218.797 627.942 219.949 627.601 221.016C627.132 222.211 626.534 223.384 625.809 224.536C625.084 225.688 624.252 226.712 623.313 227.608C622.374 228.504 621.308 229.229 620.113 229.784C618.918 230.339 617.596 230.616 616.145 230.616C614.396 230.616 612.924 230.211 611.729 229.4C610.534 228.589 609.596 227.544 608.913 226.264C608.23 224.984 607.782 223.533 607.569 221.912C607.398 220.291 607.441 218.669 607.697 217.048C607.868 215.853 608.145 214.701 608.529 213.592C608.956 212.44 609.489 211.437 610.129 210.584C610.769 209.688 611.494 208.963 612.305 208.408C613.158 207.853 614.118 207.576 615.185 207.576C615.782 207.576 616.529 207.704 617.425 207.96C618.321 208.173 619.153 208.493 619.921 208.92C620.476 208.408 621.158 208.323 621.969 208.664ZM619.537 213.336C619.068 213.037 618.513 212.653 617.873 212.184C617.276 211.672 616.742 211.416 616.273 211.416C615.761 211.416 615.249 211.651 614.737 212.12C614.268 212.589 613.841 213.144 613.457 213.784C613.116 214.381 612.817 215 612.561 215.64C612.305 216.28 612.134 216.792 612.049 217.176C611.921 217.816 611.836 218.584 611.793 219.48C611.75 220.376 611.814 221.272 611.985 222.168C612.156 223.021 612.476 223.811 612.945 224.536C613.457 225.219 614.204 225.709 615.185 226.008C615.782 226.179 616.486 226.179 617.297 226.008C618.108 225.795 618.897 225.432 619.665 224.92C620.476 224.408 621.222 223.725 621.905 222.872C622.63 222.019 623.185 221.037 623.569 219.928C623.996 218.691 623.996 217.411 623.569 216.088C623.185 214.723 622.374 213.741 621.137 213.144C620.838 213.357 620.54 213.464 620.241 213.464C619.942 213.464 619.708 213.421 619.537 213.336ZM643.94 198.552C643.812 197.784 643.855 197.08 644.068 196.44C644.324 195.8 644.815 195.437 645.54 195.352C646.18 195.267 646.735 195.437 647.204 195.864C647.716 196.291 648.036 196.845 648.164 197.528C649.017 202.435 649.807 207.32 650.532 212.184C651.3 217.005 651.983 221.741 652.58 226.392C652.751 227.629 652.665 228.483 652.324 228.952C651.983 229.379 651.577 229.699 651.108 229.912C650.596 230.125 650.105 230.125 649.636 229.912C649.209 229.699 648.932 229.315 648.804 228.76L648.74 228.376L648.484 228.44C647.076 228.952 645.604 229.251 644.068 229.336C642.532 229.379 641.06 229.187 639.652 228.76C638.244 228.333 636.985 227.651 635.876 226.712C634.809 225.731 634.041 224.493 633.572 223C632.548 219.715 633.188 216.728 635.492 214.04C636.473 212.931 637.689 211.928 639.14 211.032C640.591 210.136 642.34 209.432 644.388 208.92L645.54 208.664L643.94 198.552ZM637.476 221.4C637.732 222.424 638.201 223.213 638.884 223.768C639.567 224.323 640.377 224.707 641.316 224.92C642.255 225.091 643.257 225.112 644.324 224.984C645.391 224.856 646.436 224.621 647.46 224.28L648.036 224.088L646.244 212.824L644.964 213.144C644.068 213.4 643.108 213.805 642.084 214.36C641.103 214.872 640.228 215.491 639.46 216.216C638.692 216.941 638.095 217.752 637.668 218.648C637.284 219.544 637.22 220.461 637.476 221.4ZM661.503 212.056C661.247 213.208 660.991 214.488 660.735 215.896C660.479 217.261 660.287 218.584 660.159 219.864C660.074 221.144 660.074 222.296 660.159 223.32C660.287 224.344 660.564 225.069 660.991 225.496C661.716 225.624 662.548 225.325 663.487 224.6C664.426 223.832 665.343 222.872 666.239 221.72C667.135 220.568 667.946 219.331 668.671 218.008C669.396 216.643 669.908 215.448 670.207 214.424C670.378 213.912 670.527 213.379 670.655 212.824C670.783 212.269 670.847 211.693 670.847 211.096C670.847 210.755 671.06 210.435 671.487 210.136C671.956 209.795 672.34 209.603 672.639 209.56C672.852 209.517 673.087 209.56 673.343 209.688C673.642 209.816 673.898 210.008 674.111 210.264C674.367 210.477 674.58 210.755 674.751 211.096C674.964 211.395 675.071 211.715 675.071 212.056C675.156 213.336 675.284 214.744 675.455 216.28C675.626 217.816 675.818 219.352 676.031 220.888C676.287 222.424 676.543 223.917 676.799 225.368C677.055 226.819 677.311 228.12 677.567 229.272C677.695 229.741 677.567 230.275 677.183 230.872C676.799 231.469 676.372 231.832 675.903 231.96C675.519 232.045 675.114 232.003 674.687 231.832C674.303 231.661 674.004 231.32 673.791 230.808C673.578 230.211 673.364 229.485 673.151 228.632C672.98 227.736 672.81 226.819 672.639 225.88C672.511 224.899 672.383 223.981 672.255 223.128C672.127 222.232 672.042 221.485 671.999 220.888C671.359 222.04 670.591 223.213 669.695 224.408C668.842 225.56 667.903 226.627 666.879 227.608C665.898 228.547 664.852 229.293 663.743 229.848C662.676 230.36 661.567 230.552 660.415 230.424C658.708 230.211 657.407 228.611 656.511 225.624C656.17 224.429 655.999 223.107 655.999 221.656C656.042 220.205 656.148 218.776 656.319 217.368C656.532 215.917 656.767 214.552 657.023 213.272C657.322 211.992 657.578 210.947 657.791 210.136C657.876 209.795 658.047 209.496 658.303 209.24C658.559 208.941 658.858 208.835 659.199 208.92C659.839 209.048 660.415 209.432 660.927 210.072C661.482 210.712 661.674 211.373 661.503 212.056ZM696.969 214.552C696.67 214.723 696.308 214.787 695.881 214.744C695.454 214.659 695.092 214.381 694.793 213.912C694.11 213.016 693.278 212.568 692.297 212.568C691.401 212.568 690.59 212.781 689.865 213.208C689.182 213.592 688.564 214.125 688.009 214.808C687.497 215.448 687.07 216.173 686.729 216.984C686.388 217.795 686.153 218.605 686.025 219.416C685.812 220.909 686.068 222.168 686.793 223.192C687.518 224.216 688.649 224.728 690.185 224.728C691.422 224.771 692.809 224.536 694.345 224.024C695.924 223.469 697.396 222.765 698.761 221.912C699.358 221.656 699.913 221.507 700.425 221.464C700.937 221.421 701.364 221.677 701.705 222.232C702.132 222.915 702.025 223.619 701.385 224.344C700.745 225.027 699.892 225.645 698.825 226.2C697.758 226.797 696.628 227.331 695.433 227.8C694.281 228.227 693.108 228.547 691.913 228.76C690.718 228.931 689.524 228.931 688.329 228.76C687.177 228.589 686.089 228.184 685.065 227.544C683.444 226.435 682.462 224.856 682.121 222.808C681.78 220.76 681.929 218.648 682.569 216.472C682.825 215.661 683.188 214.851 683.657 214.04C684.126 213.187 684.681 212.419 685.321 211.736C686.004 211.053 686.75 210.477 687.561 210.008C688.372 209.496 689.268 209.155 690.249 208.984C691.828 208.728 693.342 208.899 694.793 209.496C696.244 210.051 697.204 211.096 697.673 212.632C697.758 212.973 697.758 213.336 697.673 213.72C697.588 214.061 697.353 214.339 696.969 214.552ZM716.189 204.888C716.103 205.315 715.805 205.549 715.293 205.592C714.781 205.635 714.354 205.656 714.013 205.656C712.946 205.699 711.837 205.805 710.685 205.976C709.575 206.147 708.402 206.403 707.165 206.744C706.653 206.915 706.098 206.851 705.501 206.552C704.903 206.253 704.541 205.656 704.413 204.76C704.413 204.419 704.541 204.141 704.797 203.928C705.053 203.715 705.351 203.523 705.693 203.352C706.247 203.096 706.909 202.883 707.677 202.712C708.445 202.499 709.213 202.349 709.981 202.264C710.791 202.179 711.559 202.157 712.285 202.2C713.01 202.2 713.607 202.264 714.077 202.392C714.759 202.605 715.293 202.925 715.677 203.352C716.103 203.779 716.274 204.291 716.189 204.888ZM714.717 226.2C715.015 226.883 715.165 227.629 715.165 228.44C715.207 229.208 714.994 229.741 714.525 230.04C713.927 230.424 713.287 230.403 712.605 229.976C711.922 229.549 711.41 228.973 711.069 228.248C710.599 227.352 710.237 226.264 709.981 224.984C709.725 223.661 709.533 222.36 709.405 221.08C709.277 219.8 709.191 218.605 709.149 217.496C709.149 216.387 709.149 215.555 709.149 215C709.191 214.403 709.362 213.848 709.661 213.336C709.959 212.824 710.343 212.525 710.812 212.44C711.581 212.483 712.199 212.845 712.669 213.528C713.138 214.168 713.351 214.979 713.309 215.96C713.309 216.728 713.33 217.581 713.373 218.52C713.415 219.459 713.501 220.397 713.629 221.336C713.757 222.275 713.906 223.192 714.077 224.088C714.247 224.941 714.461 225.645 714.717 226.2ZM725.033 209.88C725.161 210.52 725.289 211.245 725.417 212.056C725.587 212.824 725.758 213.635 725.929 214.488C726.099 215.299 726.249 216.131 726.377 216.984C726.505 217.837 726.611 218.648 726.697 219.416C727.209 218.307 727.763 217.133 728.361 215.896C728.958 214.659 729.598 213.528 730.281 212.504C731.006 211.437 731.753 210.563 732.521 209.88C733.331 209.197 734.206 208.856 735.145 208.856C736.553 208.856 737.726 209.368 738.665 210.392C739.646 211.416 740.457 212.696 741.097 214.232C741.779 215.725 742.313 217.304 742.697 218.968C743.081 220.632 743.401 222.104 743.657 223.384C743.913 224.536 743.401 225.389 742.121 225.944C741.523 226.243 741.075 226.285 740.777 226.072C740.478 225.859 740.307 225.645 740.265 225.432C740.051 224.92 739.774 224.024 739.433 222.744C739.134 221.464 738.771 220.163 738.345 218.84C737.961 217.517 737.513 216.365 737.001 215.384C736.489 214.403 735.913 213.955 735.273 214.04C734.505 214.083 733.822 214.659 733.225 215.768C732.713 216.664 732.179 217.667 731.625 218.776C731.113 219.843 730.601 220.952 730.089 222.104C729.577 223.213 729.065 224.344 728.553 225.496C728.083 226.605 727.635 227.629 727.209 228.568C726.91 228.867 726.526 229.08 726.057 229.208C725.63 229.293 725.182 229.251 724.713 229.08C724.286 228.952 723.945 228.739 723.689 228.44C723.433 228.141 723.305 227.843 723.305 227.544C722.921 224.216 722.515 221.187 722.089 218.456C721.705 215.725 721.193 212.931 720.553 210.072C720.254 209.091 720.19 208.323 720.361 207.768C720.574 207.171 721.214 206.936 722.281 207.064C723.774 207.32 724.691 208.259 725.033 209.88ZM759.71 213.336C760.051 213.805 760.371 214.403 760.67 215.128C761.011 215.811 761.267 216.515 761.438 217.24C761.694 218.392 761.971 219.651 762.27 221.016C762.611 222.339 762.931 223.725 763.23 225.176C763.571 226.627 763.87 228.099 764.126 229.592C764.424 231.085 764.68 232.515 764.894 233.88C765.15 235.757 765 237.549 764.446 239.256C763.934 241.005 763.059 242.563 761.822 243.928C760.584 245.293 759.048 246.381 757.214 247.192C755.379 248.003 753.31 248.451 751.006 248.536C750.494 248.493 749.96 248.237 749.406 247.768C748.851 247.341 748.574 246.893 748.574 246.424C748.531 245.955 748.744 245.571 749.214 245.272C749.726 245.016 750.238 244.845 750.75 244.76C751.646 244.675 752.563 244.483 753.502 244.184C754.483 243.928 755.4 243.544 756.254 243.032C757.107 242.52 757.875 241.901 758.558 241.176C759.283 240.451 759.838 239.597 760.222 238.616C760.52 237.848 760.67 236.909 760.67 235.8C760.67 234.648 760.584 233.517 760.414 232.408C760.286 231.299 760.094 230.253 759.838 229.272C759.624 228.248 759.432 227.48 759.262 226.968C758.963 227.267 758.579 227.587 758.11 227.928C757.683 228.269 757.192 228.589 756.638 228.888C756.083 229.187 755.464 229.421 754.782 229.592C754.142 229.763 753.48 229.827 752.798 229.784C752.072 229.741 751.39 229.485 750.75 229.016C750.152 228.547 749.619 227.949 749.15 227.224C748.68 226.456 748.296 225.581 747.998 224.6C747.742 223.619 747.614 222.595 747.614 221.528C747.699 218.968 748.339 216.707 749.534 214.744C750.771 212.739 752.734 211.181 755.422 210.072C755.635 210.029 755.912 209.987 756.254 209.944C756.638 209.901 757.022 209.901 757.406 209.944C757.79 209.944 758.152 209.987 758.494 210.072C758.878 210.157 759.198 210.285 759.454 210.456C759.923 210.797 760.158 211.288 760.158 211.928C760.158 212.568 760.008 213.037 759.71 213.336ZM751.646 222.104C751.646 222.573 751.688 223.107 751.774 223.704C751.859 224.259 752.136 224.664 752.606 224.92C753.118 225.219 753.736 225.261 754.462 225.048C755.23 224.835 755.934 224.472 756.574 223.96C757.171 223.491 757.555 222.979 757.726 222.424C757.939 221.827 757.939 221.037 757.726 220.056C757.512 219.075 757.278 218.051 757.022 216.984C756.766 215.917 756.595 214.957 756.51 214.104C755.998 214.36 755.443 214.723 754.845 215.192C754.291 215.661 753.779 216.259 753.31 216.984C752.84 217.667 752.435 218.435 752.094 219.288C751.795 220.141 751.646 221.08 751.646 222.104ZM578.119 256.104C577.863 256.424 577.383 256.68 576.679 256.872C576.039 257 575.367 256.808 574.663 256.296C574.151 255.912 573.543 255.528 572.839 255.144C572.135 254.696 571.367 254.28 570.535 253.896C569.703 253.512 568.871 253.192 568.039 252.936C567.207 252.68 566.407 252.552 565.639 252.552C564.679 252.552 563.655 252.776 562.567 253.224C561.543 253.672 560.647 254.312 559.879 255.144C558.407 256.744 557.863 258.312 558.247 259.848C558.695 261.32 559.815 262.696 561.607 263.976C562.759 264.808 564.007 265.672 565.351 266.568C566.695 267.4 568.007 268.232 569.287 269.064C570.631 269.896 571.879 270.696 573.031 271.464C574.247 272.232 575.303 272.904 576.199 273.48C577.351 274.248 578.439 275.08 579.463 275.976C580.487 276.872 581.383 277.896 582.151 279.048C582.919 280.136 583.527 281.384 583.975 282.792C584.423 284.2 584.647 285.8 584.647 287.592C584.199 291.112 582.791 293.928 580.423 296.04C578.119 298.088 575.431 299.4 572.359 299.976C569.671 300.488 567.015 300.392 564.391 299.688C561.831 298.984 559.655 297.64 557.863 295.656C557.415 295.144 557.031 294.44 556.711 293.544C556.391 292.648 556.359 292.008 556.615 291.624C556.999 291.048 557.671 290.664 558.631 290.472C559.591 290.216 560.327 290.248 560.839 290.568C562.311 291.912 564.039 292.904 566.023 293.544C568.007 294.12 570.087 294.152 572.263 293.64C573.927 293.256 575.271 292.552 576.295 291.528C577.319 290.44 577.959 289.224 578.215 287.88C578.535 286.472 578.343 285.032 577.639 283.56C576.999 282.024 575.815 280.648 574.087 279.432C571.463 277.448 568.647 275.592 565.639 273.864C562.695 272.136 559.687 270.152 556.615 267.912C555.143 266.632 554.055 265.224 553.351 263.688C552.711 262.152 552.391 260.648 552.391 259.176C552.391 257.64 552.711 256.2 553.351 254.856C553.991 253.448 554.887 252.2 556.039 251.112C557.191 249.96 558.535 249.032 560.071 248.328C561.607 247.624 563.303 247.208 565.159 247.08C567.719 246.952 570.183 247.496 572.551 248.712C574.919 249.864 576.839 251.304 578.311 253.032C578.631 253.416 578.759 253.896 578.695 254.472C578.695 255.048 578.503 255.592 578.119 256.104ZM607.151 297.192C607.087 297.896 606.863 298.568 606.479 299.208C606.159 299.784 605.647 300.04 604.943 299.976C603.855 299.912 602.895 299.496 602.063 298.728C601.295 297.96 600.911 297.32 600.911 296.808C600.975 291.24 600.783 285.576 600.335 279.816C599.951 273.992 599.311 268.2 598.415 262.44C598.415 262.184 598.479 261.896 598.607 261.576C598.735 261.32 598.895 261.032 599.087 260.712C599.279 260.328 599.599 259.976 600.047 259.656C600.495 259.464 600.975 259.496 601.487 259.752C602.063 260.008 602.607 260.392 603.119 260.904C603.631 261.416 604.079 261.992 604.463 262.632C604.847 263.272 605.135 263.88 605.327 264.456C605.519 265.736 605.711 267.144 605.903 268.68C606.095 270.216 606.255 271.816 606.383 273.48C607.919 272.648 609.391 271.72 610.799 270.696C612.207 269.672 613.423 268.552 614.447 267.336C615.535 266.12 616.367 264.872 616.943 263.592C617.519 262.248 617.711 260.872 617.519 259.464C617.391 258.376 616.911 257.384 616.079 256.488C615.247 255.592 613.967 254.92 612.239 254.472C608.271 253.576 604.719 253.544 601.583 254.376C598.447 255.144 595.439 256.456 592.559 258.312C591.727 258.952 590.959 259.336 590.255 259.464C589.551 259.592 588.943 259.56 588.431 259.368C587.919 259.176 587.535 258.888 587.279 258.504C587.023 258.12 586.895 257.736 586.895 257.352C587.023 255.88 587.727 254.568 589.007 253.416C590.351 252.2 591.759 251.176 593.231 250.344C595.151 249.384 597.519 248.584 600.335 247.944C603.151 247.304 605.967 247.08 608.783 247.272C611.663 247.4 614.351 248.072 616.847 249.288C619.343 250.504 621.263 252.456 622.607 255.144C623.823 258.344 624.079 261.224 623.375 263.784C622.735 266.344 621.551 268.68 619.823 270.792C618.095 272.904 616.047 274.856 613.679 276.648C611.311 278.376 609.071 279.976 606.959 281.448C607.087 284.264 607.151 287.016 607.151 289.704C607.215 292.392 607.215 294.888 607.151 297.192ZM664.103 276.744C663.719 278.536 663.015 280.264 661.991 281.928C661.031 283.528 659.911 285.032 658.631 286.44C657.351 287.848 655.943 289.064 654.407 290.088C652.935 291.112 651.431 291.912 649.895 292.488C647.079 293.512 644.263 293.864 641.447 293.544C638.695 293.16 636.231 291.88 634.055 289.704C632.583 287.912 631.527 285.896 630.887 283.656C630.311 281.416 630.023 279.144 630.023 276.84C630.087 274.472 630.407 272.2 630.983 270.024C631.623 267.848 632.423 265.896 633.383 264.168C634.535 262.12 635.911 260.424 637.511 259.08C639.111 257.736 640.871 256.936 642.791 256.68C643.303 256.552 643.719 256.68 644.039 257.064C644.359 257.448 644.519 257.896 644.519 258.408C645.159 257.768 646.151 257.288 647.495 256.968C648.839 256.648 650.343 256.616 652.007 256.872C655.079 257.256 657.511 258.184 659.303 259.656C661.095 261.128 662.407 262.856 663.239 264.84C664.135 266.76 664.583 268.808 664.583 270.984C664.647 273.096 664.487 275.016 664.103 276.744ZM643.175 263.496C641.895 264.072 640.807 264.936 639.911 266.088C639.079 267.176 638.375 268.424 637.799 269.832C637.287 271.24 636.935 272.776 636.743 274.44C636.615 276.04 636.615 277.608 636.743 279.144C636.935 281.384 637.607 283.24 638.759 284.712C639.911 286.12 641.703 286.824 644.135 286.824C645.543 286.824 646.919 286.568 648.263 286.056C649.671 285.48 650.951 284.744 652.103 283.848C653.255 282.952 654.311 281.896 655.271 280.68C656.231 279.4 656.999 278.088 657.575 276.744C657.895 276.04 658.151 275.176 658.343 274.152C658.535 273.064 658.599 271.976 658.535 270.888C658.471 269.736 658.215 268.648 657.767 267.624C657.319 266.6 656.615 265.736 655.655 265.032C654.311 264.072 652.711 263.496 650.855 263.304C648.999 263.112 647.047 263.528 644.999 264.552C644.615 264.808 644.167 264.872 643.655 264.744C643.207 264.552 643.047 264.136 643.175 263.496ZM679.219 295.464C679.027 293.096 678.867 290.408 678.739 287.4C678.675 284.392 678.643 281.32 678.643 278.184C678.643 274.984 678.643 271.848 678.643 268.776C678.707 265.704 678.803 262.92 678.931 260.424C678.931 259.784 679.219 259.304 679.795 258.984C680.435 258.6 680.947 258.44 681.331 258.504C682.483 258.632 683.251 259.048 683.635 259.752C684.083 260.392 684.371 261.32 684.499 262.536C684.435 264.584 684.371 266.632 684.307 268.68C684.307 270.728 684.339 272.776 684.403 274.824C687.283 274.312 689.683 273.256 691.603 271.656C693.587 270.056 694.995 268.232 695.827 266.184C696.147 265.416 696.371 264.488 696.499 263.4C696.691 262.312 696.723 261.224 696.595 260.136C696.467 258.984 696.147 257.928 695.635 256.968C695.187 255.944 694.483 255.144 693.523 254.568C692.115 253.736 690.579 253.288 688.915 253.224C687.251 253.16 685.523 253.416 683.731 253.992C682.003 254.504 680.275 255.336 678.547 256.488C676.883 257.64 675.315 259.016 673.843 260.616C674.035 261.576 673.907 262.44 673.459 263.208C673.011 263.912 672.371 264.424 671.539 264.744C671.027 264.872 670.419 264.616 669.715 263.976C669.011 263.272 668.659 262.568 668.659 261.864C668.659 259.304 669.363 257.096 670.771 255.24C672.243 253.32 674.067 251.72 676.243 250.44C678.419 249.16 680.755 248.2 683.251 247.56C685.747 246.92 688.051 246.6 690.163 246.6C693.299 246.6 695.923 247.528 698.035 249.384C700.147 251.176 701.587 253.448 702.355 256.2C703.699 261 703.347 265.32 701.299 269.16C699.315 273 696.051 276.328 691.507 279.144C694.835 281.192 697.939 283.144 700.819 285C703.763 286.856 706.707 288.872 709.651 291.048C710.035 291.432 710.451 292.008 710.899 292.776C711.411 293.48 711.347 294.568 710.707 296.04C710.323 296.936 709.651 297.448 708.691 297.576C707.795 297.64 706.899 297.352 706.003 296.712C704.595 295.56 702.995 294.376 701.203 293.16C699.475 291.88 697.651 290.632 695.731 289.416C693.811 288.136 691.891 286.92 689.971 285.768C688.051 284.552 686.227 283.432 684.499 282.408C684.563 284.968 684.595 287.528 684.595 290.088C684.659 292.584 684.755 295.048 684.883 297.48C684.883 298.376 684.627 299.016 684.115 299.4C683.603 299.72 682.963 299.88 682.195 299.88C681.811 299.816 681.459 299.624 681.139 299.304C680.819 298.92 680.499 298.504 680.179 298.056C679.923 297.544 679.699 297.064 679.507 296.616C679.315 296.104 679.219 295.72 679.219 295.464ZM743.562 273.192C743.818 273.832 743.562 274.472 742.794 275.112C742.026 275.688 740.81 276.072 739.146 276.264C736.266 276.648 733.322 277.064 730.314 277.512C727.306 277.896 724.234 278.312 721.098 278.76C720.97 282.024 720.97 285.288 721.098 288.552C722.57 288.552 724.33 288.424 726.378 288.168C728.49 287.848 730.634 287.464 732.81 287.016C734.986 286.568 737.066 286.12 739.05 285.672C741.098 285.16 742.826 284.744 744.234 284.424C744.938 284.232 745.674 284.104 746.442 284.04C747.21 283.912 747.882 283.912 748.458 284.04C749.098 284.104 749.61 284.328 749.994 284.712C750.378 285.096 750.57 285.64 750.57 286.344C750.57 286.536 750.346 286.824 749.898 287.208C749.45 287.592 748.874 288.008 748.17 288.456C747.53 288.84 746.826 289.224 746.058 289.608C745.354 289.928 744.714 290.184 744.138 290.376C740.17 291.656 736.266 292.776 732.426 293.736C728.586 294.632 724.842 295.112 721.194 295.176C719.082 295.24 717.482 294.696 716.394 293.544C715.306 292.328 714.73 290.6 714.666 288.36C714.538 285.224 714.538 282.056 714.666 278.856C713.578 278.216 713.034 277.32 713.034 276.168C713.162 274.952 713.738 274.12 714.762 273.672C714.89 271.816 714.986 269.96 715.05 268.104C715.114 266.184 715.21 264.296 715.338 262.44C714.634 262.312 713.994 261.96 713.418 261.384C712.906 260.808 712.65 260.168 712.65 259.464C712.65 258.888 712.778 258.376 713.034 257.928C713.29 257.416 713.77 257.032 714.474 256.776C715.626 256.52 717.034 256.232 718.698 255.912C720.362 255.592 722.058 255.304 723.786 255.048C725.578 254.792 727.274 254.568 728.874 254.376C730.538 254.184 731.946 254.056 733.098 253.992C734.442 253.864 735.722 253.992 736.938 254.376C738.218 254.76 739.402 255.496 740.49 256.584C740.746 257.48 740.554 258.152 739.914 258.6C739.338 259.048 738.57 259.336 737.61 259.464C736.65 259.592 735.498 259.752 734.154 259.944C732.81 260.072 731.402 260.232 729.93 260.424C728.522 260.616 727.082 260.808 725.61 261C724.202 261.128 722.858 261.288 721.578 261.48C721.578 261.608 721.578 261.768 721.578 261.96C721.642 262.088 721.674 262.216 721.674 262.344C721.546 264.008 721.45 265.672 721.386 267.336C721.322 269 721.258 270.664 721.194 272.328C723.882 271.88 726.634 271.496 729.45 271.176C732.266 270.792 734.506 270.536 736.17 270.408C737.514 270.28 738.826 270.44 740.106 270.888C741.386 271.336 742.538 272.104 743.562 273.192Z" fill="black"/>
<path d="M473.049 597.451C473.049 600.116 473.798 600.843 474.548 598.905C475.297 597.209 475.047 595.028 474.298 594.301C473.549 593.332 472.799 594.786 473.049 597.451Z" fill="black"/>
<path d="M78.5905 9.13947C54.9874 25.2255 41.2406 42.8683 27.7531 74.0026C21.0093 89.5697 14.2656 108.769 12.45 116.553C9.85624 130.044 10.1156 131.86 16.8594 146.909C22.5656 159.622 25.1593 162.995 29.5687 162.735C32.4218 162.735 39.6843 164.551 45.1312 166.886L55.2468 171.557L53.6906 214.366C52.6531 238.236 51.8749 310.882 51.8749 376.524V495.353H37.6093C25.6781 495.353 22.5656 496.391 16.8594 502.618C8.04061 511.698 0 527.266 0 535.049C0 539.2 2.33437 542.314 6.48437 544.13C12.7094 546.984 15.5625 555.027 10.375 555.027C9.07811 555.027 7.78124 557.881 7.78124 560.994C7.78124 567.221 13.4875 573.708 21.0093 576.562C24.6406 577.599 25.4187 586.421 26.975 637.014C28.0125 669.445 29.3093 696.947 30.3468 698.504C34.4968 705.25 36.3125 689.423 36.3125 646.095C36.3125 576.302 34.4968 578.118 108.937 577.08C130.984 576.821 154.328 575.783 160.812 574.486C171.447 572.41 172.225 572.67 168.853 576.562C165.74 580.453 166 580.972 169.89 580.972C172.225 580.972 177.153 583.307 180.784 586.161C189.603 593.166 191.937 590.572 184.156 582.269C179.487 577.34 178.969 575.783 182.081 575.783C184.415 575.783 190.122 575.005 194.79 574.226L203.609 572.67L197.125 578.118C191.937 582.269 191.678 583.567 195.05 583.567C197.384 583.567 200.237 582.269 201.015 580.972C203.609 576.821 211.65 578.118 216.578 583.567C222.025 589.534 226.175 590.312 224.1 585.123C222.025 579.416 232.4 575.005 243.293 577.08C249.259 578.118 251.334 579.416 249.259 580.972C247.184 582.01 246.925 583.567 248.481 584.605C249.778 585.383 252.372 584.345 254.187 582.269C256.781 579.156 264.303 578.378 290.24 578.378C308.137 578.378 344.19 577.08 370.387 575.524C417.593 572.67 432.378 573.448 429.006 578.637C428.228 580.194 424.856 580.713 421.484 579.934C416.556 578.637 415.518 579.416 416.037 584.605C416.296 589.015 417.853 590.572 422.003 590.572C425.115 590.572 427.449 589.534 427.19 588.237C426.931 586.68 428.746 584.345 431.34 582.788C434.971 580.194 436.528 580.453 438.343 583.567C439.899 585.902 439.899 588.237 438.343 589.794C434.712 593.426 435.231 596.539 439.381 594.983C443.531 593.426 445.865 614.96 446.384 653.619C446.384 667.11 447.421 682.937 448.459 688.645L450.534 699.023L452.09 689.942C453.128 685.013 455.203 664.516 456.759 644.538C458.315 624.56 460.131 600.431 460.909 590.831L462.465 573.448L472.84 571.632C481.14 570.335 482.437 569.556 478.806 567.481C476.471 566.183 475.174 563.848 476.212 562.551C476.99 560.994 475.174 557.362 472.062 554.508C467.393 550.097 467.134 548.8 469.987 545.168C472.062 542.573 475.174 537.644 476.99 534.011C480.103 527.525 479.584 526.228 468.171 511.18L456.24 495.353H434.453C422.521 495.353 412.146 494.575 411.628 493.277C410.849 492.24 409.812 485.753 409.553 478.748L408.515 466.035L417.593 465.516C427.709 464.997 451.571 458.511 465.578 452.803C478.027 447.614 478.546 438.273 466.356 438.273H457.796L467.653 429.193C480.103 417.777 480.362 412.328 468.171 412.328C459.612 412.328 459.353 412.069 461.687 405.582C468.431 388.199 459.871 386.902 434.971 401.95C425.634 407.658 417.334 412.328 416.815 412.328C416.037 412.328 414.221 409.215 412.665 405.064C408.256 394.685 414.74 295.575 419.928 295.575C420.706 295.575 424.337 300.764 427.709 307.25C433.156 317.628 451.312 334.493 457.018 334.493C458.056 334.493 464.799 337.865 471.802 342.276C479.065 346.427 491.256 351.616 498.518 353.692C520.306 359.919 575.293 365.627 630.799 367.443C678.784 369 682.933 368.74 703.424 363.032C752.965 349.281 777.865 340.979 793.686 333.195C803.024 328.525 813.399 323.855 817.03 322.817C825.849 319.963 847.896 302.839 856.196 292.461C872.277 271.965 877.464 248.614 871.758 222.928C869.424 212.291 854.64 191.016 837.78 173.892C822.477 158.584 789.536 147.946 731.955 139.644C710.427 136.79 591.634 137.828 565.437 141.46C544.687 144.314 557.137 139.125 581.777 134.455C602.787 130.563 603.565 127.969 583.593 129.266C571.662 130.044 533.015 140.422 522.64 145.611C485.031 164.551 450.534 190.497 437.824 209.177L427.709 223.966L428.487 199.577L429.265 174.929L438.343 173.632C450.015 171.557 454.165 168.962 462.984 158.584C469.728 150.541 469.987 148.725 468.949 132.639C467.393 112.142 445.606 36.6414 437.824 24.7066C434.971 20.2959 427.709 12.7718 422.003 8.10168C410.071 -1.49805 410.849 -1.49803 354.046 4.72882C329.665 7.5828 192.975 8.62054 145.25 6.54492C133.059 6.02602 119.831 4.20985 115.94 2.65314C103.231 -2.27646 92.8561 -0.460267 78.5905 9.13947ZM101.415 15.8853C96.228 29.6362 103.75 41.3115 117.756 41.3115C125.019 41.3115 127.353 43.6466 140.581 64.9217C159.515 94.2398 161.072 100.207 151.994 102.542C141.359 105.137 133.319 101.764 129.687 93.4615C127.094 87.2346 127.353 84.6401 130.984 77.6349C133.319 73.2242 134.615 68.0352 134.097 66.4785C132.54 62.5867 124.5 80.7483 124.5 88.0129C124.5 101.245 137.728 110.066 152.772 107.212C158.997 105.915 160.294 106.693 161.85 112.142C163.406 118.888 159.256 134.714 155.625 134.714C154.587 134.714 151.994 132.379 150.178 129.525C148.103 126.671 142.915 123.558 138.765 122.78C128.909 120.963 118.015 129.006 111.79 142.238L107.64 151.579L81.4436 152.617C54.2093 153.395 39.1656 150.8 30.3468 143.017C25.9375 139.125 26.1968 138.606 32.4218 132.12C37.8687 126.412 38.6468 123.817 37.35 116.293C36.3125 111.364 33.9781 104.877 32.1625 101.764C29.05 96.8344 29.3093 94.4993 33.7187 84.3806C37.8687 74.7809 39.9437 72.4458 45.1312 72.4458C48.7624 72.4458 55.5062 69.0729 60.1749 64.9217C67.9562 57.9165 68.7343 55.8408 68.7343 42.6088C68.7343 28.0794 68.9937 28.0795 80.4061 20.8148C86.8905 16.923 93.6342 11.4745 95.7092 9.13947C100.637 3.17206 104.528 7.58278 101.415 15.8853ZM416.037 11.4745C429.524 20.2959 422.781 35.863 404.365 37.6792C390.1 39.2359 386.209 36.6415 383.875 24.1877C382.578 16.4042 381.54 15.1069 379.984 18.7392C376.871 25.7444 383.356 37.9387 391.915 41.0521C402.29 44.6845 420.706 39.236 424.078 31.4524C430.043 17.9609 432.378 23.4094 456.499 106.694C461.168 122.261 463.503 138.866 459.871 130.044C459.353 128.488 457.537 126.931 455.981 126.931C454.424 126.931 453.906 128.747 454.943 130.823C457.018 136.271 449.237 136.012 443.012 130.304C436.528 124.596 437.046 111.883 444.049 104.358C448.718 99.4289 448.978 98.3911 445.346 98.3911C438.862 98.3911 432.378 112.92 434.193 123.039C436.009 132.898 439.381 136.271 449.496 138.606C458.574 140.941 458.574 148.206 449.756 155.211C443.79 159.881 439.121 160.66 417.074 160.66C398.918 160.66 391.137 159.622 390.618 157.287C389.84 155.73 388.803 151.06 388.025 146.909C385.431 135.233 377.65 129.525 364.162 129.525C353.787 129.525 350.934 130.823 343.412 138.866C327.85 155.211 318.253 147.428 322.921 122.261C324.478 114.218 325.256 113.699 331.221 115.255C354.825 120.963 370.646 87.494 353.009 69.5918L345.228 62.0677L350.934 45.9817C357.678 27.3011 369.609 13.5502 381.021 11.2151C385.431 10.1773 389.062 8.3611 389.062 6.80438C389.062 2.9126 407.996 6.2855 416.037 11.4745ZM122.165 18.2203C132.8 29.6362 131.503 32.7496 120.09 23.4094C114.903 18.9987 109.975 15.8853 109.456 16.6636C108.937 17.1825 111.531 21.8526 115.422 27.0417C123.462 37.4198 122.425 40.7927 112.05 37.1603C104.528 34.5658 102.194 27.5606 104.787 16.4042C107.122 7.84225 113.087 8.62054 122.165 18.2203ZM153.031 12.7719C156.662 13.8097 157.959 14.8474 156.403 15.1069C154.587 15.3663 153.031 16.4042 153.031 17.7014C153.031 21.5932 185.194 23.6688 257.3 24.4471C294.909 24.7066 328.628 25.2255 332.518 25.485L339.262 25.7444L335.112 36.382C330.962 47.0195 330.962 47.0195 327.331 41.571C322.662 34.8252 318.512 34.5658 312.546 41.3115L307.878 46.5005L301.653 40.7927C295.687 35.3442 294.909 35.0847 292.056 39.236C288.943 43.3872 288.425 43.3872 284.534 39.236C280.903 35.8631 278.568 35.6036 270.009 37.6792C261.968 39.7548 259.634 39.7548 257.818 36.6414C254.187 30.9335 238.884 35.0847 235.512 42.8683C231.103 52.468 237.068 57.6571 250.815 56.1003C258.337 55.322 262.747 56.1004 264.822 58.4354C268.453 62.8461 280.643 63.1056 284.793 58.9543C287.128 56.6193 287.906 56.8787 287.906 60.511C287.906 62.8461 289.203 64.1433 290.5 63.365C292.056 62.5866 293.093 58.4354 293.093 54.5436C293.093 44.425 295.687 42.8682 302.171 49.0951L307.878 54.2841L312.546 49.0951C318.771 42.0899 320.328 42.6089 324.218 51.4302C326.812 57.9165 326.553 61.5488 321.884 75.5593C318.771 84.6401 312.546 98.9099 307.878 107.472L299.578 123.039L271.047 125.115C255.484 126.152 229.287 127.19 212.947 127.19L183.378 127.45L179.747 114.218C175.337 97.0938 166.519 76.0781 161.85 72.1863C159.775 70.6296 158.219 66.7379 158.219 63.6245C158.219 60.7705 155.884 51.6896 152.772 43.9061C149.4 35.3441 148.103 26.7822 148.881 22.3715C149.919 17.1825 149.4 15.3664 147.065 16.1447C145.509 16.6636 143.953 20.296 143.953 23.9283C144.212 33.2686 141.359 32.7496 137.469 23.1499C135.653 18.7392 133.059 15.3663 131.762 15.3663C130.465 15.3663 130.206 14.0691 130.984 12.7719C132.8 9.65842 143.694 9.65842 153.031 12.7719ZM357.937 15.3663C357.937 16.1447 355.603 20.0365 352.75 24.4471C349.118 29.6362 347.562 30.9335 347.562 27.8201C347.562 25.485 346.006 22.631 344.45 21.3337C342.634 20.2959 304.246 19.2581 259.375 18.7392C214.503 18.4797 173.522 17.1825 168.594 15.8853C162.628 14.3285 194.272 13.5502 258.597 13.8096C313.325 13.8096 357.937 14.588 357.937 15.3663ZM343.671 41.3115C341.337 45.4628 339.262 49.0951 338.484 49.0951C337.965 49.0951 338.743 45.4628 340.04 41.3115C341.596 36.9008 343.931 33.528 345.228 33.528C346.525 33.528 346.006 36.9008 343.671 41.3115ZM62.2499 45.2033C62.2499 55.8409 48.7624 70.3702 43.8343 65.4406C40.7218 62.3272 56.2843 37.9387 59.6562 40.0143C61.2124 40.7926 62.2499 43.1277 62.2499 45.2033ZM255.484 43.9061C257.818 47.7979 251.853 54.2841 246.147 54.2841C240.44 54.2841 237.587 50.1329 239.662 45.2033C241.218 40.7926 253.15 40.0143 255.484 43.9061ZM278.568 42.8683C283.756 44.9439 284.015 52.7275 279.087 56.6193C272.343 62.3272 262.747 54.0247 266.118 45.2033C267.675 41.0521 271.825 40.2738 278.568 42.8683ZM350.156 79.9699C354.565 88.5318 353.009 98.3911 346.265 104.877C339.521 111.883 337.706 112.402 332.259 109.029C329.406 107.212 329.406 104.618 333.296 92.9425C335.89 85.1589 338.484 78.1538 339.003 76.8565C341.078 73.2242 347.303 75.0403 350.156 79.9699ZM31.9031 113.958C33.9781 123.298 31.9031 129.525 26.975 129.525C23.0843 129.525 22.3062 122.001 24.9 111.883C27.2343 103.84 30.0875 104.618 31.9031 113.958ZM179.487 125.634C180.265 130.044 182.081 130.823 192.456 130.044C199.2 129.525 206.722 130.304 209.056 131.601C212.168 133.417 208.018 134.455 193.493 136.012C182.34 137.049 172.744 137.309 172.225 136.531C171.447 135.752 171.706 130.823 172.744 125.634C174.559 116.034 177.672 116.034 179.487 125.634ZM311.25 125.634C311.25 131.86 310.471 132.12 297.762 131.601C286.35 131.341 285.831 131.082 293.612 130.304C300.096 129.525 304.506 127.45 306.062 124.077C309.693 117.331 311.25 117.85 311.25 125.634ZM146.806 133.936C154.328 138.606 153.031 140.941 140.062 147.687C130.984 152.357 111.531 154.952 111.531 151.579C111.531 149.503 119.312 137.049 124.24 131.341C128.65 126.152 136.431 126.931 146.806 133.936ZM274.418 131.341C268.972 131.86 260.153 131.86 254.965 131.341C249.518 130.823 253.928 130.304 264.562 130.304C275.196 130.304 279.606 130.823 274.418 131.341ZM373.5 137.309C378.428 139.903 384.912 154.692 381.799 156.508C375.834 160.141 358.975 160.919 349.896 158.065C337.965 153.914 337.446 151.579 346.784 141.979C354.046 134.455 364.421 132.639 373.5 137.309ZM305.284 139.903C307.1 139.903 309.693 144.574 311.25 150.541C313.584 159.362 315.918 161.957 324.996 165.849C330.962 168.443 341.337 172.075 348.34 173.632L360.531 176.746V224.225C360.531 250.43 359.753 273.521 358.975 275.856C357.678 278.97 353.528 280.008 340.559 280.008C326.293 280.008 323.959 280.526 326.553 283.64C328.109 285.716 335.371 289.867 342.634 292.721L355.603 298.429L354.046 330.082C353.009 347.465 351.193 375.227 349.896 391.572C348.6 407.918 347.562 427.895 347.562 435.938C347.562 449.689 347.303 450.468 338.484 454.619C323.44 461.884 322.403 461.105 314.362 434.901C310.212 421.669 304.246 406.101 301.134 400.134C298.281 394.167 296.465 387.68 297.243 385.605C298.54 381.972 282.459 365.627 277.531 365.627C276.234 365.627 275.456 362.513 275.715 358.881C276.234 353.692 274.159 351.098 267.415 347.206C262.487 344.611 257.559 340.979 256.262 339.163C252.89 333.455 253.928 307.25 257.818 301.802C261.19 297.391 262.487 297.131 269.49 299.985C273.9 301.542 277.012 302.061 276.234 300.764C274.678 298.429 280.903 295.575 287.906 295.575C290.5 295.575 294.65 293.759 296.984 291.164C302.95 285.197 300.356 274.819 287.646 253.284C278.568 237.976 274.937 234.603 263.784 229.155C248.481 222.15 242.515 221.631 231.622 226.042C219.172 231.49 209.056 241.609 202.312 255.36C193.494 273.262 193.753 286.494 203.09 294.537C207.24 297.91 212.947 300.764 216.059 300.764C228.25 300.764 229.547 303.877 224.878 323.077C219.95 343.055 216.318 348.244 209.315 346.427C205.943 345.649 203.868 346.687 203.09 350.06C201.534 355.768 189.084 362.773 169.372 369.259C151.994 374.967 137.987 390.275 129.947 411.809C126.575 420.631 123.462 427.636 122.944 427.376C122.684 426.858 121.647 393.907 120.869 353.951C120.09 313.996 118.794 265.478 118.015 246.279C115.94 204.766 119.053 180.897 127.612 171.816C131.244 167.924 134.875 166.368 138.247 167.405C141.878 168.443 146.547 165.589 155.884 156.508C168.594 143.795 168.853 143.795 192.715 140.941C211.39 138.866 259.375 138.347 305.284 139.903ZM743.108 150.022C797.318 158.325 842.449 183.232 856.455 212.291C865.793 231.49 862.939 264.181 850.23 284.159C841.152 298.169 821.44 315.293 809.768 319.185C804.321 320.742 792.39 326.19 783.052 330.86C773.455 335.53 752.446 343.054 736.365 347.465C708.093 355.249 703.943 355.768 645.843 357.065C580.221 358.622 556.877 356.805 513.821 346.427C487.365 339.941 463.243 330.341 452.09 321.52C442.493 313.996 433.156 300.764 433.156 294.537C433.156 283.121 430.821 282.602 404.624 286.494C372.981 291.423 351.712 291.423 347.821 286.753C345.487 283.899 349.118 283.121 368.831 282.083C388.543 281.045 395.806 279.489 408.256 273.262C417.074 268.851 424.856 262.884 426.671 259.251C428.487 255.619 435.231 241.609 441.974 227.598C453.128 204.507 455.462 201.394 473.878 186.605C502.927 163.254 522.381 155.989 572.699 148.984C612.384 143.536 705.499 144.055 743.108 150.022ZM114.125 176.486C114.125 178.043 113.087 178.302 111.531 177.524C110.234 176.746 108.937 174.67 108.937 173.373C108.937 171.816 110.234 171.557 111.531 172.335C113.087 173.113 114.125 175.189 114.125 176.486ZM73.9218 255.879C73.9218 296.094 74.6999 326.709 75.7374 324.114C76.7749 321.26 78.0718 289.607 78.8499 253.543C79.628 217.48 80.1468 185.048 80.1468 181.416C80.4061 176.486 80.9249 175.708 83.778 178.562C86.1124 180.897 86.6311 214.626 86.1124 332.676C85.5936 415.701 84.2968 484.197 83.2593 484.975C81.9624 485.753 80.1468 488.867 79.1093 492.24C77.8124 497.169 75.7374 498.207 69.253 497.429C63.5468 496.91 61.2124 495.353 61.7312 492.758C62.2499 490.683 63.2874 421.15 63.8062 338.384C64.3249 255.619 65.3624 184.529 66.3999 180.378C67.9562 173.373 68.2155 173.113 71.0687 177.783C72.8843 181.156 73.9218 206.064 73.9218 255.879ZM100.637 179.859C101.415 182.972 100.378 184.27 98.0436 183.491C96.228 182.713 94.153 180.119 93.8936 177.783C93.1155 174.67 94.153 173.373 96.4874 174.151C98.303 174.929 100.378 177.524 100.637 179.859ZM374.796 181.416C376.353 184.01 371.943 257.435 369.35 270.148C365.718 288.31 364.681 273.521 365.978 228.896C367.015 201.912 367.793 179.859 368.053 179.34C368.831 177.783 373.24 179.081 374.796 181.416ZM110.494 254.062C109.715 290.386 108.937 357.324 108.678 402.469C108.678 452.803 107.64 484.975 106.344 484.975C104.787 484.975 103.75 430.23 103.75 340.979C103.75 230.712 104.528 196.983 106.862 196.983C109.197 196.983 109.197 196.205 106.862 193.869C105.047 192.053 103.75 188.421 103.75 185.826C103.75 181.416 104.269 181.156 107.9 184.27C111.79 187.643 112.05 194.388 110.494 254.062ZM405.921 186.605C410.849 188.68 410.849 188.94 405.403 188.94C402.29 189.199 398.918 187.902 398.14 186.605C396.324 183.491 398.659 183.491 405.921 186.605ZM99.8592 335.79C99.5999 414.923 98.8217 480.564 97.7842 481.343C91.2999 488.088 90.5218 474.856 90.7811 353.173C91.2999 214.107 92.3374 185.048 97.0061 189.199C99.3405 191.015 100.119 227.858 99.8592 335.79ZM389.321 228.636C387.506 246.279 385.69 263.143 384.912 266.257C384.134 270.408 384.912 272.224 387.765 272.224C390.878 272.224 391.656 268.851 391.656 257.176C391.915 249.133 393.212 232.787 395.028 221.112C397.881 201.912 398.659 200.356 402.549 203.21C406.44 206.064 406.699 209.696 404.884 237.457C403.587 254.322 403.068 269.111 403.587 270.148C404.884 272.224 376.353 278.451 374.278 276.375C373.5 275.597 374.278 263.662 375.575 249.652C377.131 235.641 379.206 215.663 380.243 205.026L381.799 186.086L387.246 191.275C392.174 196.464 392.434 197.761 389.321 228.636ZM419.149 211.253C420.187 213.588 419.928 226.301 418.89 239.793C417.334 260.03 416.296 264.959 412.406 267.035C407.996 269.37 407.737 268.851 408.515 261.327C409.293 256.657 410.331 242.646 411.368 229.933C412.665 208.918 415.778 201.912 419.149 211.253ZM254.965 232.268C265.859 235.901 280.384 249.652 277.012 253.025C273.64 256.138 267.156 250.171 267.156 244.203C267.156 239.274 266.378 238.236 264.303 240.311C259.375 245.241 263.006 252.765 272.084 255.619C280.903 258.473 290.24 268.073 290.5 274.04C290.5 275.856 287.646 277.413 284.015 277.413C280.125 277.413 275.715 280.267 272.084 284.937C267.415 291.424 264.562 292.461 248.222 294.277C214.762 297.65 204.906 295.834 204.906 286.234C204.906 280.527 214.762 282.083 216.578 288.051C217.875 291.683 219.172 292.721 220.987 290.905C225.397 286.494 221.506 280.526 212.947 278.71C202.572 276.375 202.572 270.148 212.687 266.516C221.765 263.403 229.287 249.911 225.137 244.463C221.765 240.052 224.878 236.16 234.475 231.749C238.884 229.933 242.515 228.377 242.775 228.117C242.775 228.117 248.222 229.933 254.965 232.268ZM215.54 260.03C211.39 264.181 208.797 260.03 212.947 255.1C215.281 252.246 216.837 251.987 217.356 254.062C217.875 255.619 217.097 258.473 215.54 260.03ZM286.868 282.862C288.684 285.975 283.756 290.386 278.05 290.386C275.456 290.386 275.456 289.088 277.531 285.197C280.643 279.489 284.015 278.451 286.868 282.862ZM407.218 302.58C407.218 300.245 408.515 298.169 409.812 298.169C411.368 298.169 412.406 298.948 412.406 299.985C412.406 309.066 404.624 395.204 403.846 395.983C400.993 398.577 399.956 375.227 402.031 357.843C403.328 347.206 404.365 331.379 404.106 322.817C404.106 314.255 402.031 329.304 399.696 356.546C394.768 413.885 389.84 429.193 374.537 436.717L365.718 440.868V401.172C365.718 379.637 367.015 347.984 368.831 331.12C371.943 302.32 372.203 300.764 377.909 300.764C381.021 300.764 384.134 301.802 384.912 303.099C385.95 304.396 384.134 329.822 381.281 359.659C375.575 418.296 374.796 436.717 378.428 430.49C380.243 427.117 384.653 380.156 388.284 322.298C389.581 303.099 390.359 301.023 395.287 300.245C398.14 299.726 402.29 301.023 404.106 303.099C406.699 306.472 407.218 306.472 407.218 302.58ZM368.312 308.288C368.312 312.439 367.015 325.152 365.459 336.309C363.903 347.465 361.828 376.264 361.05 400.393C359.753 429.452 358.196 444.76 356.381 445.279C350.934 447.095 350.156 433.603 354.046 398.837C356.121 379.897 358.715 350.06 359.493 332.417C360.79 308.547 362.087 300.764 364.94 300.764C367.015 300.764 368.312 303.618 368.312 308.288ZM242.775 317.109C245.368 316.071 246.406 317.888 246.406 324.114C246.406 328.525 247.443 334.493 249 337.087C252.112 343.054 249.518 352.395 246.147 346.946C244.331 344.352 243.812 344.611 243.812 347.984C243.812 350.319 242.515 353.173 240.7 354.211C238.625 355.508 238.106 352.395 239.403 342.795C240.44 334.752 239.922 329.304 238.625 329.304C237.068 329.304 236.031 330.601 236.031 332.417C236.031 334.752 235.253 334.752 233.178 332.676C231.103 330.601 231.103 328.266 233.178 324.633C234.734 321.779 236.29 316.59 236.29 313.217C236.809 307.25 236.809 307.25 237.847 312.958C238.625 316.59 240.181 318.147 242.775 317.109ZM229.028 343.573C228.25 345.908 226.953 347.206 226.434 346.427C225.656 345.649 225.915 344.092 226.953 342.536C229.287 338.384 230.843 339.163 229.028 343.573ZM221.765 355.249C223.581 358.103 213.465 366.405 210.353 364.33C207.24 362.513 206.462 354.47 209.056 352.135C210.612 350.319 220.209 352.654 221.765 355.249ZM266.637 355.768C265.859 357.584 261.709 360.438 257.3 362.254C249.778 365.367 249 365.108 249 360.697C249 355.249 252.372 353.173 261.45 352.914C265.081 352.654 267.156 353.951 266.637 355.768ZM204.128 378.859C205.943 386.642 209.834 405.582 212.947 421.409C216.059 436.976 219.172 452.543 219.95 455.916C220.728 460.586 217.615 458.251 206.462 446.576C198.422 438.273 191.937 429.712 191.937 427.895C191.937 425.82 195.05 421.15 198.681 416.998C205.425 410.253 205.425 409.734 201.275 403.507C198.94 399.875 197.125 395.204 197.125 392.869C197.125 390.794 194.272 386.383 190.64 383.27C187.009 380.156 184.156 376.783 184.156 375.745C184.156 372.373 195.309 362.773 198.422 363.811C199.718 364.33 202.312 371.075 204.128 378.859ZM265.34 371.335C264.043 373.151 260.153 383.529 256.781 394.167C253.409 404.804 250.297 414.663 249.518 415.961C247.184 419.852 244.072 409.474 244.072 397.539C243.812 387.94 243.034 386.383 237.068 384.826L230.325 383.01L239.143 379.118C243.812 376.783 248.222 374.189 249 373.41C250.815 371.594 265.6 366.405 266.897 367.443C267.415 367.702 266.637 369.519 265.34 371.335ZM286.09 376.524C291.278 381.713 291.796 386.383 287.387 386.642C285.571 386.642 281.162 390.275 277.79 394.426C272.343 401.431 272.084 402.988 274.937 409.993C278.05 417.258 277.79 418.036 264.043 432.566C256.262 440.609 247.703 450.727 245.109 454.619C238.365 465.257 237.328 461.365 243.553 447.354C246.665 440.609 249 433.084 249 430.749C249 428.414 250.037 425.301 251.334 424.004C252.631 422.447 256.522 412.069 260.153 400.393C271.565 364.848 271.825 364.589 277.012 368.481C279.347 370.297 283.497 373.929 286.09 376.524ZM220.468 372.632C220.468 374.448 222.543 377.043 225.137 378.599C229.287 381.194 229.287 381.194 225.137 383.788C221.247 386.124 220.468 390.275 220.468 405.323C220.209 427.376 217.356 424.522 212.947 398.058C211.131 387.94 209.315 377.562 208.797 374.708C208.018 370.556 209.056 369.519 213.984 369.519C217.615 369.519 220.468 370.816 220.468 372.632ZM178.969 376.005C178.969 377.302 182.6 384.307 186.75 391.572C196.087 407.399 196.087 409.215 189.084 421.409L183.637 430.749L198.681 447.095C207.24 456.176 216.318 463.959 219.172 464.478C223.062 465.257 224.359 467.592 224.359 474.337C224.359 479.267 225.915 483.678 227.731 484.197C229.287 484.975 230.843 487.569 230.843 490.423C230.843 494.834 228.768 495.353 210.353 495.353C190.9 495.353 189.862 495.094 188.306 489.126C187.009 484.197 184.675 482.64 175.337 481.343C169.112 480.305 162.369 477.71 160.812 475.635C157.44 471.743 158.478 456.176 163.147 436.976C164.703 431.268 166.519 423.485 167.556 419.593C169.112 412.588 167.037 402.469 164.703 405.064C162.109 407.658 155.625 450.208 155.625 464.478V479.007L139.544 480.824C130.725 481.602 123.203 482.121 122.684 481.602C120.35 479.267 130.465 422.966 134.875 412.847C141.878 397.28 151.734 384.567 161.85 378.34C170.409 373.151 178.969 371.854 178.969 376.005ZM296.725 407.658C300.096 415.182 306.321 430.23 310.212 440.868C319.29 465.516 320.846 467.592 329.146 465.516C334.075 464.219 373.5 446.317 387.246 439.052C388.284 438.533 393.99 442.684 399.956 448.392C410.331 458.77 410.59 459.289 405.662 462.921C403.068 464.997 395.546 468.629 389.062 471.224C382.578 473.559 371.684 478.748 364.421 482.64C347.303 491.98 325.256 496.65 315.918 493.018C311.768 491.461 305.543 484.975 300.875 476.672C293.093 463.44 292.834 462.143 293.872 438.273C295.168 411.809 294.39 407.139 289.721 407.139C287.646 407.139 286.35 414.404 286.09 428.674C285.312 453.322 280.903 488.088 278.05 490.423C277.012 491.461 267.675 492.758 257.04 493.537L237.847 495.094L239.662 482.899C241.737 468.11 250.297 454.878 270.009 436.198C286.09 420.89 287.647 417.517 281.422 412.328C276.753 408.436 276.493 401.431 280.643 397.28C286.35 391.572 290.5 394.167 296.725 407.658ZM459.093 398.837C459.093 400.134 455.721 404.285 451.312 408.436C444.309 414.923 440.418 424.782 445.606 422.187C446.643 421.669 450.534 419.593 454.684 417.517C459.612 415.182 462.724 414.923 464.54 416.739C467.653 419.852 456.24 434.641 448.718 436.976C445.865 438.014 443.531 440.09 443.531 442.165C443.531 445.019 445.346 445.279 451.831 443.203C462.724 440.09 467.653 440.09 465.578 443.463C464.799 444.76 456.24 448.133 446.643 450.987C415.518 460.067 417.334 460.327 407.478 445.798C402.29 438.273 396.843 433.084 393.99 433.084C386.468 433.084 388.543 424.522 399.696 409.993L404.624 404.026L407.218 411.29C409.293 416.739 409.293 418.815 406.699 420.631C404.365 421.928 405.143 422.706 409.293 422.706C412.665 422.706 418.371 419.852 422.262 416.22C429.006 409.993 452.609 396.761 457.018 396.761C458.056 396.761 459.093 397.799 459.093 398.837ZM404.624 483.937C404.624 495.353 404.365 495.612 397.621 494.834C391.137 494.056 390.359 493.018 391.137 486.272C391.915 479.007 397.621 472.002 402.549 472.002C403.587 472.002 404.624 477.451 404.624 483.937ZM233.437 477.191C233.437 478.489 232.4 479.786 230.843 479.786C229.547 479.786 228.25 478.489 228.25 477.191C228.25 475.635 229.547 474.597 230.843 474.597C232.4 474.597 233.437 475.635 233.437 477.191ZM305.025 494.575C304.246 495.353 300.875 495.353 297.503 494.315C292.315 493.018 291.537 491.721 292.575 485.753L293.872 478.748L300.096 486.013C303.468 490.164 305.803 494.056 305.025 494.575ZM386.468 486.272C386.468 490.423 384.912 492.758 382.578 492.758C378.687 492.758 377.131 484.715 380.503 481.602C383.874 477.97 386.468 480.045 386.468 486.272ZM179.487 487.569C182.859 487.569 187.269 508.844 184.675 511.439C180.265 515.85 169.89 512.736 169.112 506.25C168.594 503.137 169.372 500.542 170.928 500.542C172.484 500.542 173.003 498.726 172.225 496.65C171.187 494.315 167.297 492.758 162.887 492.758C156.403 492.758 155.625 493.537 156.662 497.947C157.44 500.801 158.737 505.212 159.515 508.066C160.812 511.958 159.775 512.477 154.328 511.439C147.065 510.142 146.287 507.807 151.475 503.137C157.181 498.726 153.55 492.758 144.99 492.758C136.95 492.758 136.172 494.315 139.803 503.915C141.878 509.363 141.359 510.661 136.69 511.958C126.315 514.812 119.312 513.774 119.312 509.363C119.312 506.25 121.128 505.731 126.834 507.028C132.022 508.066 134.615 507.547 135.653 504.693C138.506 497.169 124.759 488.607 120.609 495.353C119.572 496.91 117.756 497.429 116.459 496.391C115.162 495.612 108.159 494.315 101.156 493.796L88.4468 492.499L89.4843 502.877C90.2624 512.477 90.003 513.255 82.7405 514.812C78.5905 515.85 74.4405 517.666 73.6624 519.223C72.3655 521.298 73.9218 521.558 78.0718 520.52C81.4436 519.482 89.4843 518.704 95.9686 518.444C106.603 518.185 106.862 517.925 99.8592 516.109C95.7093 515.071 93.6342 514.034 95.7092 513.774C98.0436 513.515 98.8217 511.18 97.7842 505.991C97.0061 501.839 97.0061 497.947 97.7842 496.91C99.8592 494.834 111.531 508.844 111.531 513.515C111.531 516.888 117.497 517.406 149.919 517.406C170.928 517.147 189.603 516.109 191.418 515.071C193.493 513.774 194.531 510.92 193.753 508.326C192.715 504.174 196.606 503.655 240.181 502.099C266.378 501.061 288.684 500.801 289.981 501.32C291.018 502.099 325.515 503.396 366.756 504.434C407.737 505.212 443.271 506.769 445.865 507.547C448.978 508.326 448.978 507.807 445.087 504.693C441.456 501.839 441.196 500.542 443.531 500.542C446.384 500.542 473.618 525.968 471.543 526.747C460.131 529.86 22.825 531.417 14.7844 528.303C11.1531 527.006 11.4125 525.709 17.6375 519.223C21.5281 514.812 26.1968 509.623 28.0125 507.288C31.9031 502.358 46.9468 501.839 51.3562 506.25C53.6906 508.585 55.2468 508.585 57.5812 506.25C60.953 502.877 70.5499 502.099 73.403 504.693C74.1811 505.731 73.9218 508.585 72.3655 511.18C70.5499 514.552 70.8093 516.109 72.6249 516.109C74.1812 516.109 78.0718 510.661 80.9249 503.655C83.778 496.91 87.6686 490.683 89.2249 489.645C93.3749 486.791 111.012 487.05 112.828 490.164C113.865 491.721 116.459 491.202 120.09 488.607C124.759 485.234 130.465 484.975 151.734 486.013C166 486.791 178.45 487.569 179.487 487.569ZM370.906 492.758C370.906 496.91 369.09 497.947 363.125 497.947C353.787 497.947 353.009 494.575 361.309 490.683C369.609 486.791 370.906 487.051 370.906 492.758ZM136.69 541.017C135.912 541.795 133.578 542.054 131.762 541.276C129.687 540.498 130.465 539.719 133.319 539.719C136.172 539.46 137.728 540.238 136.69 541.017ZM460.131 544.908C461.687 546.465 461.687 548.281 459.871 550.097C458.056 551.914 449.496 551.914 431.599 550.097C413.703 548.281 391.656 548.281 360.531 550.097C335.631 551.654 260.412 552.692 193.234 552.173C126.056 551.914 60.4343 551.654 47.4656 551.914C23.0843 552.432 15.0437 549.06 33.2 545.946C38.6468 545.168 85.0749 544.13 136.172 544.13C187.528 543.871 235.512 543.092 242.515 542.314C263.006 539.979 457.537 542.054 460.131 544.908ZM117.497 562.032C115.681 562.551 112.05 562.551 109.715 562.032C107.122 561.254 108.678 560.735 112.828 560.735C117.237 560.735 119.053 561.254 117.497 562.032ZM466.874 562.811C466.874 564.108 462.465 565.146 457.278 565.146L447.421 564.627L456.499 562.811C461.428 561.773 465.837 560.735 466.356 560.475C466.615 560.475 466.874 561.254 466.874 562.811ZM369.09 564.627C367.275 565.146 363.643 565.146 361.309 564.627C358.715 563.848 360.271 563.329 364.421 563.329C368.831 563.329 370.646 563.848 369.09 564.627ZM277.012 572.41C271.565 572.929 262.747 572.929 257.559 572.41C252.112 571.891 256.522 571.372 267.156 571.372C277.79 571.372 282.2 571.891 277.012 572.41ZM447.421 575.783C448.199 577.08 448.199 579.675 447.162 581.232C445.606 584.086 441.196 579.675 440.937 575.005C440.937 572.41 445.606 572.67 447.421 575.783Z" fill="black"/>
<path d="M63.4071 94.1004C52.0262 106.267 49.181 112.738 52.0262 120.245C55.6474 129.564 64.7004 135 76.8573 135C90.0488 135 97.5499 129.823 101.43 117.915C109.965 92.5472 81.7718 74.9448 63.4071 94.1004ZM92.1181 96.689C98.0672 104.972 97.2912 119.986 91.0834 126.717C84.0997 134.223 67.287 134.482 60.0446 127.234C53.0608 120.245 53.5782 112.738 61.5965 100.831C67.5456 92.2884 69.8736 90.9941 78.4092 90.9941C85.6516 90.9941 89.2728 92.5472 92.1181 96.689Z" fill="black"/>
<path d="M403.759 58.6277C394.494 64.3867 395.009 67.2662 404.788 63.6014C411.994 60.7219 413.281 60.9837 418.942 67.7897C427.692 77.9988 426.92 88.4697 417.398 96.8464C412.509 100.773 407.876 102.867 405.045 101.82C396.81 98.9406 391.663 92.3963 391.663 84.8049C391.663 80.6166 390.634 77.7371 389.605 78.5224C385.487 81.1401 389.862 96.0611 396.296 101.035C405.303 108.364 414.053 107.579 422.803 98.6788C431.552 89.5168 432.324 79.8312 425.119 67.7897C418.17 55.7482 412.251 53.3923 403.759 58.6277Z" fill="black"/>
<path d="M153 27.5864C153 31.7535 162.48 44.5153 166.43 45.5571C174.066 48.1615 174.856 54.6726 167.483 54.6726C159.583 54.6726 158.793 58.8398 165.903 60.6629C178.542 63.7882 181.439 44.2548 169.063 40.3482C162.48 38.2646 161.69 31.2326 168.273 31.2326C171.959 31.2326 172.223 30.7117 168.799 28.6281C164.586 25.7632 153 24.9819 153 27.5864Z" fill="black"/>
<path d="M177.302 34.6556C178.06 36.7445 179.576 42.7501 180.587 47.7113C182.356 57.6336 186.651 60.5059 186.651 51.8891C186.651 48.4946 188.42 46.6668 191.199 46.6668C194.737 46.6668 196 44.5779 196 38.8334C196 34.3945 194.989 31 193.726 31C192.715 31 191.705 33.35 191.705 36.2223C191.705 39.0945 190.189 41.4446 188.167 41.4446C186.146 41.4446 183.619 39.0945 182.861 36.2223C182.103 33.35 180.082 31 178.566 31C177.302 31 176.544 32.5667 177.302 34.6556Z" fill="black"/>
<path d="M205.015 40.9355C205.274 45.1111 206.312 51.6354 207.35 56.0719C209.166 63.6401 209.425 63.6401 211.241 57.8987C213.576 51.1135 215.392 50.8525 225.77 56.3329C235.628 61.2914 237.963 59.4646 230.958 52.4183C227.845 49.2866 225.51 45.1111 225.51 43.0233C225.51 40.6746 222.397 37.8039 218.765 36.499C207.869 32.3235 204.755 33.1064 205.015 40.9355ZM222.397 44.0672C223.175 46.155 221.359 47.1989 217.468 46.416C214.095 46.155 210.982 43.5453 210.463 41.1965C209.685 37.2819 210.722 37.021 215.392 38.8478C218.765 39.8917 221.878 42.2404 222.397 44.0672Z" fill="black"/>
<path d="M192 57C192 59.75 193.25 62 194.5 62C196 62 197 59.75 197 57C197 54.25 196 52 194.5 52C193.25 52 192 54.25 192 57Z" fill="black"/>
<path d="M194.141 77.6942C190.289 78.9928 186.693 79.2526 186.18 78.7331C185.666 77.9539 183.611 79.2526 181.814 81.5901C179.246 84.7067 179.246 85.4859 182.841 85.4859C186.18 85.4859 186.95 88.3429 186.95 99.2512C186.95 107.043 187.72 113.796 188.491 114.575C190.545 116.912 204.413 109.121 208.522 103.147C211.347 99.2512 211.604 96.3943 210.063 93.0179C208.522 90.4207 208.265 86.7845 209.036 84.447C211.09 79.2526 202.615 75.3567 194.141 77.6942ZM202.359 85.4859C202.359 86.7845 200.047 88.0831 197.479 88.0831C194.654 88.0831 191.573 86.7845 190.802 85.4859C189.775 83.9276 192.086 82.8887 195.682 82.8887C199.277 82.8887 202.359 83.9276 202.359 85.4859ZM202.102 98.2123C206.468 101.069 204.156 105.225 197.222 107.043C193.113 108.082 192.086 107.043 192.086 102.108C192.086 95.6151 195.938 94.3165 202.102 98.2123Z" fill="black"/>
<path d="M218.306 86.6319C216.769 90.27 216 98.066 216 104.043C216.256 113.918 216.512 114.178 218.05 107.161C219.331 100.925 221.124 99.3653 225.993 99.3653C230.861 99.3653 232.654 100.925 233.935 107.161C235.473 113.918 235.729 113.398 235.985 103.263C236.498 83.7733 223.687 71.8195 218.306 86.6319ZM231.117 92.8687C231.117 94.168 228.811 94.4279 225.993 93.6483C220.868 92.3489 219.587 89.7503 222.662 86.8917C224.455 84.8128 231.117 89.7503 231.117 92.8687Z" fill="black"/>
<path d="M265.723 93.2965L267.284 104.677L256.623 94.814C244.921 83.6861 239.461 83.939 248.562 95.0669C254.022 101.895 266.244 111 270.144 111C273.524 111 271.964 91.7791 268.064 86.721C264.163 82.1686 264.163 82.6745 265.723 93.2965Z" fill="black"/>
<path d="M280 97.9065C280 103.823 281.055 109.483 282.373 110.255C283.955 111.026 285.01 110.512 285.01 108.711C285.01 106.91 287.91 108.197 291.601 111.541C300.566 119.773 303.467 115.657 294.766 106.91C288.174 100.222 287.91 99.45 292.129 95.3339C298.193 89.4171 294.238 86.33 287.91 91.9896C283.164 96.363 282.9 96.363 281.582 91.7324C280.791 89.1598 280.264 91.9896 280 97.9065Z" fill="black"/>
<path d="M242 99.8924C242 103.784 242.308 105.243 242.769 102.811C243.077 100.622 243.077 97.217 242.769 95.5145C242.308 94.0552 242 95.7577 242 99.8924Z" fill="black"/>
<path d="M233.197 147.417C230.314 149.256 233.46 150.044 243.684 150.044C263.871 150.044 269.901 154.773 269.901 170.01C269.901 190.764 254.171 199.433 232.673 190.764C225.332 187.874 227.168 193.653 234.508 196.806C246.83 202.585 255.22 200.746 266.755 189.45C278.815 178.154 281.174 166.595 273.834 156.087C267.542 146.892 242.111 141.638 233.197 147.417Z" fill="black"/>
<path d="M299.422 153C298.649 154.5 298.907 156 300.453 156C301.742 156 303.804 154.5 304.578 153C305.351 151.2 305.093 150 303.547 150C302.258 150 300.196 151.2 299.422 153Z" fill="black"/>
<path d="M187 157.154C187 160.514 204.144 163.874 205.909 160.773C206.665 159.739 202.631 157.929 197.085 156.379C189.269 154.311 187 154.569 187 157.154Z" fill="black"/>
<path d="M223.044 160.286C223.327 167.597 230.7 185.497 230.983 179.951C231.267 171.127 227.864 156 225.312 156C223.894 156 222.76 158.017 223.044 160.286Z" fill="black"/>
<path d="M242.549 170.43C241.517 171.756 242.033 175.736 243.323 179.184C245.645 185.286 246.42 184.49 249.258 174.144C249.774 172.022 251.322 171.756 253.645 173.083C258.031 176.001 255.193 185.817 249.258 187.408C245.387 188.469 245.387 188.735 249 189C251.322 189 255.709 187.143 258.805 184.49C263.966 180.246 264.224 179.715 260.353 173.879C256.225 168.042 245.129 165.92 242.549 170.43Z" fill="black"/>
<path d="M299.344 171C298.612 172.5 299.1 174 300.319 174C301.781 174 303 172.5 303 171C303 169.2 302.512 168 302.025 168C301.294 168 300.075 169.2 299.344 171Z" fill="black"/>
<path d="M183.467 175.287C179.2 176.055 176 178.105 176 180.154C176 182.716 177.6 183.484 180.8 182.716C183.2 181.947 188.533 180.666 192.8 179.642C196.8 178.873 200 177.08 200 175.799C200 173.494 196.8 173.494 183.467 175.287Z" fill="black"/>
<path d="M288.871 194.639C289.681 195.907 293.193 198.443 296.435 199.964C302.379 203.007 302.379 203.007 297.246 197.428C292.113 192.104 285.629 189.822 288.871 194.639Z" fill="black"/>
<path d="M189.131 201.944C177.405 207.755 177.66 207.49 180.974 210.924C183.013 213.037 186.327 212.244 194.229 206.698C209.269 196.398 206.465 193.493 189.131 201.944Z" fill="black"/>
<path d="M276.396 210.699C274.677 213.217 278.851 217.748 283.271 218C286.218 218 285.236 213.72 281.552 210.699C278.851 208.434 277.623 208.434 276.396 210.699Z" fill="black"/>
<path d="M210.491 219C208.734 221.133 208.483 223 209.989 223C211.243 223 213.753 221.133 215.509 219C217.266 216.867 217.517 215 216.011 215C214.757 215 212.247 216.867 210.491 219Z" fill="black"/>
<path d="M76 399.548C76 406.272 76.3636 408.962 76.7273 405.465C77.0909 402.237 77.0909 396.858 76.7273 393.361C76.3636 390.134 76 392.823 76 399.548Z" fill="black"/>
<path d="M74.4023 422.831C72.1701 432.168 71.0541 490 73.0072 490C75.5184 490 79.4246 420.238 77.4715 418.163C76.6344 417.385 75.2394 419.46 74.4023 422.831Z" fill="black"/>
<path d="M235.131 250.42C231.663 251.224 230.596 253.637 231.13 258.731C232.197 268.649 242.066 269.99 247.934 260.875C254.869 250.42 249.801 246.667 235.131 250.42ZM243.4 259.803C241.799 264.628 235.931 265.432 235.931 260.875C235.931 258.462 237.798 256.586 240.199 256.586C242.6 256.586 243.933 257.926 243.4 259.803Z" fill="black"/>
<path d="M269.72 262.844C266.207 267.2 268.465 275.143 272.981 273.862C276.493 272.581 278.751 259 275.239 259C273.984 259 271.476 260.794 269.72 262.844Z" fill="black"/>
<path d="M254.02 266.288C251.058 269.107 255.008 275 259.945 275C263.154 275 264.389 273.463 263.895 270.644C263.154 266.032 256.736 263.213 254.02 266.288Z" fill="black"/>
<path d="M382.268 583.5C383.076 584.75 384.961 586 386.577 586C387.923 586 389 584.75 389 583.5C389 582 387.115 581 384.692 581C382.537 581 381.46 582 382.268 583.5Z" fill="black"/>
<path d="M46.9376 595.5C43.6885 599.14 42.1889 602 43.4386 602C45.438 601.74 55.9352 589 53.6858 589C53.1859 589 50.1867 591.86 46.9376 595.5Z" fill="black"/>
<path d="M70 591.5C70 592.75 71.25 594 72.5 594C74 594 75 592.75 75 591.5C75 590 74 589 72.5 589C71.25 589 70 590 70 591.5Z" fill="black"/>
<path d="M399 596.5C399 597.75 400.524 599 402.352 599C403.875 599 404.485 597.75 403.571 596.5C402.656 595 401.133 594 400.219 594C399.609 594 399 595 399 596.5Z" fill="black"/>
<path d="M55.4295 604.5C54.5154 605.75 55.1248 607 56.6483 607C58.4765 607 60 605.75 60 604.5C60 603 59.3906 602 58.7812 602C57.8671 602 56.3436 603 55.4295 604.5Z" fill="black"/>
</svg>
