<svg clip-rule="evenodd" fill="#000050" fill-rule="evenodd" stroke-linejoin="round" stroke-miterlimit="2" viewBox="0 0 64 78" xmlns="http://www.w3.org/2000/svg"><g fill-rule="nonzero"><path d="m39.964 49.888c.573.33.79 1.061.49 1.65-.79 2.46-1.52 4.94-2.25 7.42-.214.704-.375 1.422-.48 2.15-.44 2.469-1.469 4.795-3 6.78-1.46 2.05-2.93 4.23-5.15 5.54-2.053 1.229-4.219 2.258-6.47 3.07-2.059.635-4.166 1.103-6.3 1.4-.54.059-1.085-.072-1.54-.37-2.11-1.356-3.786-3.289-4.83-5.57-.741-1.427-.673-3.146.18-4.51.36-.59.69-1.2 1-1.82.56-1.1 1.67-1.56 2.56-2.27l3.56-2.84c.186-.14.337-.321.44-.53 1.38-3.11 3.27-6 3.92-9.42.11-.59.19-1.19.27-1.78.36-2.74.71-5.48 1.09-8.35l-1.48-.32-5-1c-.328-.071-.664-.105-1-.1-2.454.027-4.883-.506-7.1-1.56-.12-.068-.253-.112-.39-.13-1.5.08-2.73-.76-4.08-1.19-1.368-.332-2.583-1.123-3.44-2.24-.11-.15-.28-.27-.33-.44-.74-2.4-1.1-4.77.45-7 .2-.318.374-.653.52-1 .429-1.124 1.217-2.076 2.24-2.71.48-.25.76-.88 1.15-1.32.28-.36.592-.694.93-1 1-.84 2.2-1.5 2.76-2.81.09-.21.43-.31.66-.47l3-2c.11-.08.28-.19.28-.29.07-1.42 1.31-1.83 2.21-2.42 1.728-1.138 3.342-2.441 4.82-3.89 1.18-1.16 2.45-2.21 3.67-3.31l3-2.7c.633-.684 1.493-1.114 2.42-1.21.275-.025.542-.11.78-.25 2.76-1.48 5.6-1.28 8.45-.34 1.899.785 3.582 2.013 4.91 3.58.43.42.86.84 1.3 1.24 3.26 3 6.56 6 9.77 9 1.53 1.45 2.9 3.08 4.34 4.63.207.251.445.472.71.66 1.5.83 2.23 2.3 3.1 3.65.098.159.172.33.22.51.38 1.67.77 3.35 1.1 5 .045.456.045.915 0 1.37 0 .43.05.86.08 1.4-.81-.19-1.27.5-1.91.93s-1.59.85-2.39 1.29c-.761.314-1.472.739-2.11 1.26-.507.528-1.14.917-1.84 1.13-2 .69-3.91 1.39-5.88 2-1.391.368-2.733.899-4 1.58-.549.239-1.133.385-1.73.43-1.108.01-2.027.894-2.08 2-.335 1.256-.359 2.574-.07 3.84.06.18 0 .56-.15.62-.94.42-.89 1.3-1.06 2.1-.072.321-.179.633-.32.93zm-4.73-39.64c-1.16.06-1.46.45-1 1.43l1-1.43c-.05-.82-.05-.82-.71-.88zm.73 8.75.89.91c.15-1.2-.37-1.07-.93-.88l.17-2.26-.81-.37c-.225.925.031 1.904.68 2.6zm-16 16.57c.172.095.353.172.54.23l8 1.43c1.73.31 3.45.61 5.17 1 .898.255 1.857.188 2.71-.19l-.23-.9c1.07-.21 1.66-.66 1.74-1.37s-.48-1.1-1.1-1.4c-.274-.152-.476-.408-.56-.71-.342-1.529-.586-3.079-.73-4.64-.28-4.886-.989-9.738-2.12-14.5-.49-2.16-.74-4.37-1.07-6.56.002-.267.043-.533.12-.79.56.71 0 1.8 1.22 2.26l1-1.82-2-1.42c1.25-.43 1.25-.43.88-1.7-.711-.047-1.425.031-2.11.23-1.875.783-3.575 1.932-5 3.38-.76.708-1.583 1.344-2.46 1.9-.305.21-.596.441-.87.69-.74.75-1.45 1.53-2.21 2.33.22.16.55.28.7.52.448.57.786 1.218 1 1.91.063.779-.004 1.564-.2 2.32-.146.546-.34 1.078-.58 1.59-.506-.479-.591-1.263-.2-1.84.419-.908.172-1.993-.6-2.63-.375-.362-.776-.696-1.2-1-.64.58-1.24 1.08-1.8 1.62s-1.17 1.3-1.83 1.87c-1.28 1.13-2.63 2.18-3.92 3.3-.342.3-.626.659-.84 1.06-.107.245-.08.529.07.75.52.44 1 1 1.81.82.411-.06.826-.08 1.24-.06 2.36 0 4.48-.62 6-2.65.09-.13.27-.19.61-.42-.325 1.085-.978 2.043-1.87 2.74-1.534 1.044-3.311 1.678-5.16 1.84-.888.048-1.758-.274-2.4-.89-.44-.39-.86-.8-1.41-1.32-1.41 1.78-2.83 3.42-4.09 5.17-1 1.34-.8 2.9-.45 4.42 0 .23.38.39.63.63.47-.68.26-1.58 1.16-1.83l.67.42-.46 2c.753.3 1.525.551 2.31.75 2.36.44 4.77.54 7.08 1.2.138.032.279.048.42.05.053.01.107.015.161.015.48 0 .88-.385.899-.865.051-.409.017-.824-.1-1.22-.326-.959-.85-1.838-1.54-2.58-.913-1.245-2.567-1.717-4-1.14-.84.24-1.68.49-2.53.71-.46.12-1 .34-1.28-.39 1.519-.906 3.234-1.434 5-1.54 1.29-.1 2.61 0 3.44 1.29.147.181.322.337.52.46 1.345.968 2.059 2.596 1.86 4.24-.04.36-.04.77-.04 1.21zm10.34 31.38c2-2 3.56-4.08 3.8-6.93.067-.364.153-.725.26-1.08.423-1.682.545-3.425.36-5.15-1-.2-.94-.21-1.49-.9s-.93-1.09-1.52-1.79c-.15.5-.24.74-.29 1-.39 1.84-.74 3.7-1.16 5.53-.187.666-.445 1.31-.77 1.92-.09.18-.36.27-.74.54.1-.47.13-.69.19-.9.37-1.38.8-2.75 1.11-4.14.327-.85.034-1.823-.71-2.35-.526-.47-.999-.996-1.41-1.57 1.23-.49 1.7.79 2.56.82.65-1.9 0-3.66-1.87-5.06.081.277.132.562.15.85 0 .18-.18.47-.31.5s-.5-.14-.53-.28c-.135-.579-.225-1.167-.27-1.76.026-.548-.004-1.098-.09-1.64-.18-.452-.18-.957 0-1.41.125-.568.047-1.163-.22-1.68-.13-.29-.69-.38-1.24-.65-.08 1.22-.1 2.18-.2 3.14-.2 1.92-.42 3.84-.66 5.76-.056.823-.2 1.638-.43 2.43-.67 1.88-1.49 3.71-2.16 5.6-.592 1.4-1.373 2.712-2.32 3.9-.494.77-1.093 1.466-1.78 2.07-1.538 1.163-2.931 2.506-4.15 4-.572.616-.84 1.457-.73 2.29.363 1.929 2.169 3.271 4.12 3.06 2.63-.158 5.181-.958 7.43-2.33 1.48-.91 2.82-1.79 3.44-3.53.34-1 .51-.95 1.62-.28zm17.33-33.79c.262.008.525-.019.78-.08 1.867-.626 3.737-1.276 5.61-1.95 1-.37 2.07-.75 3.09-1.19.712-.258 1.304-.771 1.66-1.44-.923-.031-1.797-.427-2.43-1.1-1-.73-1.89-1.56-3.18-1.53-1.835.049-3.547.948-4.63 2.43-1.11 1.36-1.91 2.84-.91 4.84zm-7.8-23.53c.087-.158.191-.305.31-.44.19-.16.45-.4.61-.36.38.1.39.4.25.77-.108.322-.132.666-.07 1 .135.486.299.964.49 1.43.62 1.86 2.24 2.52 3.87 2.94 1.097.313 2.281.074 3.17-.64-3-2.22-5.34-5-8.29-7-.451.271-.727.76-.727 1.286 0 .366.134.72.377.994zm-3.76 10.67c.37 3 0 6.06.77 9.31l1.52-1.84c-1.13-.51-1.17-.58-.93-1.45.045-.178.105-.352.18-.52.96-2.26-.54-3.8-1.55-5.52zm-1.76 32.59.33-.15c.12-.64.3-1.27-.4-1.8-.24-.267-.429-.575-.56-.91-.462-.885-1.153-1.631-2-2.16-.004.721.111 1.437.34 2.12.706 1.002 1.467 1.964 2.28 2.88zm-.17-4.15c.316-.448.252-1.067-.15-1.44-.967-.721-1.743-1.669-2.26-2.76-.15 1.93 1.42 2.88 2.4 4.18zm11.72-17.62c-.68.26-.95.62-.87 1.13s.28 1.22.46 2l1.34-.57zm-15.36 16.38.33-.15c.07-1.48-.82-2.43-1.92-3.53-.08.42-.19.64-.13.76.55.96 1.18 1.93 1.71 2.9zm14.69-17.28c.53-.82 1.2-1.27 1.2-2.14-.44-.28-1-.45-1 .12s-.6.71-1.09 1zm-6.51-8.11.39-.13c-.023-.489-.093-.974-.21-1.45-.07-.19-.46-.28-.7-.41-.1.22-.34.5-.27.65.228.458.489.899.78 1.32zm1.44 11.81c.031.486.108.969.23 1.44.09.22.46.33.7.49.14-.26.41-.53.4-.78-.04-.63-.49-.97-1.34-1.17zm-9.49 10.16c0-1.35-.32-1.72-1.66-2.2.291.89.872 1.658 1.65 2.18zm11.07-26.24c-.55-.43-.63-1.43-1.44-1s-.23 1 .18 1.5zm4.46-.25 1.33.51c-.14-.85.07-1.67-1-1.88-.11 0-.24.07-.37.11zm-7.68-7.48c-.206.26-.319.583-.319.915 0 .621.394 1.178.979 1.385.122-.833-.123-1.68-.67-2.32zm9.77 13c.21.6-.2 1.3.76 1.76l.9-1.27zm-3.11 3c.71-.94.35-1.71.15-2.54-.8.63-.81.79-.16 2.53zm-5.57 3.56c.392-.565.363-1.326-.07-1.86-1.02.7-1.01.87.06 1.85zm2.59-15.11c-.22 0-.53-.08-.61 0-.254.258-.434.579-.52.93-.1.67.39.68.87.66zm-4.46-.57.26-.19c-.105-.396-.256-.779-.45-1.14-.09-.14-.47-.08-.72-.11 0 .29-.2.69-.07.84.289.254.616.46.97.61zm14.78 6.73-.36.14 1.11 2.33c.158-.9-.125-1.823-.76-2.48zm-7.77-.74c-.85 1-.79 1.24.35 1.88-.1-.72-.25-1.3-.36-1.86zm-7.37-3.58c.44.4.73.8 1.37.39l-.47-1.48zm17.71 6.48c.59.32.83 1.1 1.7 1-.66-1.45-.79-1.55-1.71-1.01zm-15.15 7.9c-.44.81-.34 1.3.23 1.79.32-.83.32-.83-.24-1.8zm-4.82-24.06c.85-.72.74-1.17-.31-1.67zm1.73 2.77h-.27c-.185.232-.324.497-.41.78 0 .18.27.38.41.57.17-.16.47-.31.48-.48-.018-.304-.093-.603-.22-.88zm8.34 8c.14-1.39.11-1.42-1-1.37zm-6.78 13.49c0-.26.13-.46.07-.58-.146-.246-.328-.468-.54-.66-.212-.191-.3.15-.3.2.037.282.122.556.25.81.05.06.28.08.51.18zm8.8-5.65-.28.08.37 1.67c1.01-.96.07-1.31-.1-1.8zm-4.13 1.54h-.35c-.17.53-.26 1 .51 1.43zm.21-3.15c.145-.186.223-.415.223-.65 0-.359-.182-.694-.483-.89zm-30.06-7.6.25.27 1.09-1.12-.2-.19zm30.23 15.6h.31c.207-.538-.051-1.151-.58-1.38zm-6.8-25.81.59 1.09c.26-.83.24-1.18-.6-1.14zm2.91 9.12.28-.22c0-.38-.08-.73-.89-.74zm11.32 5.32c-.33.7-.33.7.25 1.25zm-27.69 32.91c.79-.33.95-.6.5-1.17zm27.65-28.26-.14-.37c-.46-.16-.72 0-.87.78zm-11.34-.65h-.32v.8h.28zm12.31-6-.33.24c.19.24.37.49.58.71 0 0 .2-.05.43-.11zm-16.17-9.22c.32-.18.71-.29.42-.77-.117-.118-.288-.167-.45-.13-.43.18-.26.49.03.82zm3.35-1.53c.12-.27.25-.42.23-.54s-.2-.24-.31-.36c-.09.13-.25.26-.25.38s.16.18.33.44zm10.83 8.4-.47-.36c-.09.13-.26.27-.25.38.049.158.172.282.33.33.08.06.21-.14.39-.35zm8.78 9.76.1-.38-.75-.15-.07.28zm-56.7 3.24.22.22.47-.68-.17-.14zm57.13-1.1h.36v-.8h-.24zm-12.71-5.07h.21l-.19-.6c-.06 0-.19.09-.19.11.05.11.11.29.17.47zm1.48-.36c.09-.13.22-.23.22-.32s-.15-.18-.23-.27c-.101.098-.188.209-.26.33-.071.121.15.13.27.24zm0-2.47c-.1.14-.23.24-.22.32s.15.18.23.27c.08-.08.22-.17.22-.25s-.13-.22-.23-.34zm-4.46-2.79.29.2c0-.07.13-.18.11-.22-.074-.092-.162-.173-.26-.24zm-2.29-4-.43-.34c0 .1-.15.22-.13.31.04.114.128.205.24.25.06-.04.16-.16.32-.27z"/><path d="m32.844 19.358-1.47-.69c-.594.289-1.218.513-1.86.67-1.494.202-2.796 1.132-3.47 2.48-.468.789-.853 1.623-1.15 2.49-.719 2.228.306 4.673 2.4 5.72.302.185.646.292 1 .31 2-.08 3.87-.25 5.22-2 .302-.309.637-.584 1-.82.6.58.24 1 0 1.34-1.628 1.938-4.126 2.931-6.64 2.64-.55-.13-1.22-.22-1.36-1-.059-.166-.176-.304-.33-.39-2.3-1.38-3.19-3.21-2.46-5.65.513-1.882 1.497-3.604 2.86-5 1.098-1.003 2.463-1.667 3.93-1.91.81-.12 1.96.76 2.33 1.81z"/><path d="m21.394 69.898c.532-.417 1.105-.778 1.71-1.08 2.6-1 4.32-2.93 5.89-5.06.46-.63.83-1.33 1.26-2 .215-.363.473-.699.77-1 .13-.12.56-.15.61-.07.133.215.169.477.1.72-1.5 2.58-2.92 5.27-5.44 7-1.164.737-2.397 1.359-3.68 1.86-.31.14-.76 0-1.14 0z"/><path d="m22.514 62.168c1.3-2.08 2.69-4.12 3.15-6.92.454.67.562 1.518.29 2.28-.8 1.53-1.76 3-2.68 4.45-.11.17-.36.25-.54.37z"/><path d="m20.524 66.918c-1 1.62-2 2.35-3.21 2.2-.12-1.3 1.17-1.48 1.78-2.18.37-.43.87-.46 1.43-.02z"/><path d="m32.244 56.828c-.358-.764-.253-1.668.27-2.33.505.731.388 1.734-.27 2.33z"/><path d="m15.724 71.588 1.29-.09c-.49.9-.49.9-1.29.09z"/><path d="m17.724 66.608c-.077.162-.164.319-.26.47l-.21-.11.26-.47z"/></g></svg>