<?xml version="1.0" encoding="UTF-8" standalone="no"?><!DOCTYPE svg PUBLIC "-//W3C//DTD SVG 1.1//EN" "http://www.w3.org/Graphics/SVG/1.1/DTD/svg11.dtd"><svg width="100%" height="100%" viewBox="0 0 258 116" version="1.1" xmlns="http://www.w3.org/2000/svg" xmlns:xlink="http://www.w3.org/1999/xlink" xml:space="preserve" xmlns:serif="http://www.serif.com/" style="fill-rule:evenodd;clip-rule:evenodd;stroke-linejoin:round;stroke-miterlimit:2;"><path d="M257.02,72.83l-0,26.52l-7.4,15.85l-36.01,0l-0,-98.11l7.4,-17.09l36.01,0l-0,1.38l-35.32,0l-0,96.73l34.63,0l-0,-25.28l0.69,0Z" style="fill:#000050;fill-rule:nonzero;"/><path d="M257.02,71.46l-0,1.37l-19.07,0l-0,-15.17l8.16,0l-0,-13.93l0.69,0l-0,15.17l-5.65,12.56l15.87,0Z" style="fill:#000050;fill-rule:nonzero;"/><path d="M257.02,1.38l-0,26.49l-7.4,15.86l-3.51,0l-0,-1.92l-8.16,0l-0,-15.16l18.38,0l-0,-25.27l0.69,0Z" style="fill:#000050;fill-rule:nonzero;"/><path d="M256.33,72.83l-0,25.28l-34.63,0l-0,-96.73l34.63,0l-0,25.27l-18.38,0l-0,15.16l8.16,0l-0,15.85l-8.16,0l-0,15.17l18.38,0Z" style="fill:#f9f4be;fill-rule:nonzero;"/><path d="M208.73,72.15l-0,27.2l-7.48,15.85l-17.62,0l-0,-17.09l1.38,0l0,-39.21l6.71,9.42l0,29.79l16.25,0l0,-25.28l-4.65,-6.62l0.45,-1.02l4.96,6.96Z" style="fill:#000050;fill-rule:nonzero;"/><path d="M208.73,0l-0,56.3l-0.23,0.4l-0.53,-0.95l-0,-54.37l-39.22,0l-0,96.73l14.88,0l-0,4.37l-6.02,12.72l-16.94,0l-0,-98.11l7.4,-17.09l40.66,0Z" style="fill:#000050;fill-rule:nonzero;"/><path d="M208.5,56.7l-4.73,8.49l-0.45,1.02l-7.33,-10.46l11.98,0l0.53,0.95Z" style="fill:#000050;fill-rule:nonzero;"/><path d="M207.97,72.84l-0,25.27l-16.25,0l-0,-29.79l-6.71,-9.43l-0,39.22l-16.25,0l-0,-96.74l39.21,0l-0,54.37l-12,0l7.33,10.46l4.67,6.64Zm-16.25,-32.25l-0,-14.63l-6.71,0l-0,14.63l6.71,0Z" style="fill:#f9f4be;fill-rule:nonzero;"/><rect x="185.01" y="25.96" width="6.71" height="14.63" style="fill:#000050;fill-rule:nonzero;"/><path d="M155.03,0l-0,99.35l-7.48,15.85l-40.59,0l-0,-98.09l7.4,-17.09l40.67,-0.02Zm-0.77,98.12l-0,-96.74l-39.21,0l-0,96.73l39.21,0.01Z" style="fill:#000050;fill-rule:nonzero;"/><path d="M154.26,1.38l-0,96.73l-39.21,0l-0,-96.74l39.21,0.01Zm-16.24,70.22l-0,-45.64l-6.72,0l-0,45.64l6.72,0Z" style="fill:#f9f4be;fill-rule:nonzero;"/><rect x="131.29" y="25.96" width="6.72" height="45.64" style="fill:#000050;fill-rule:nonzero;"/><path d="M102.08,0l-0,53.15l-0.33,0.68l-0.44,-0.68l-0,-51.77l-39.2,0l-0,96.73l16.24,0l-0,-13.66l0.84,0l-0,14.76l-7.85,15.99l-17.32,0l-0,-98.11l7.4,-17.09l40.66,0Z" style="fill:#000050;fill-rule:nonzero;"/><path d="M101.75,53.83l-7.83,16.41l-14.73,14.21l-0.84,0l-0,-9.16l22.96,-22.14l0.44,0.68Z" style="fill:#000050;fill-rule:nonzero;"/><path d="M101.31,1.38l-0,51.73l-23,22.15l-0,22.85l-16.15,0l-0,-96.74l39.15,0.01Zm-16.24,39.73l-0,-15.17l-6.72,0l-0,21.6l6.72,-6.43Z" style="fill:#f9f4be;fill-rule:nonzero;"/><path d="M85.07,25.96l-0,15.17l-6.72,6.43l-0,-21.6l6.72,0Z" style="fill:#000050;fill-rule:nonzero;"/><path d="M48.37,75.97l0,0.7l-17.85,38.53l-30.52,0l-0,-26.51l7.1,-17.09l1.37,-0l0,26.51l27.92,0l11.29,-22.14l0.69,0Z" style="fill:#000050;fill-rule:nonzero;"/><path d="M48.37,38.67l0,37.3l-0.69,0l-0,-36.08l-22.96,0l-0,-13.93l19.07,0l0.44,0.58l-5.02,12.13l9.16,0Z" style="fill:#000050;fill-rule:nonzero;"/><path d="M47.68,39.89l-0,36.08l-11.29,22.14l-27.92,0l0,-26.51l22.96,-0l0,-15.85l-22.96,0l0,-33.21l10.15,-21.16l25.17,0l-0,24.58l-19.07,0l-0,13.93l22.96,0Z" style="fill:#f9f4be;fill-rule:nonzero;"/><path d="M44.48,0l0,25.96l-0.25,0.58l-0.44,-0.58l-0,-24.58l-25.17,0l-10.15,21.16l0,33.21l22.96,0l0,15.85l-31.43,0l-0,-33.61l18.01,-37.99l26.47,0Z" style="fill:#000050;fill-rule:nonzero;"/><path d="M257.02,72.83l-0,26.52l-7.4,15.85l-36.01,0l-0,-98.11l7.4,-17.09l36.01,0l-0,1.38l-35.32,0l-0,96.73l34.63,0l-0,-25.28l0.69,0Z" style="fill:#000050;fill-rule:nonzero;"/><path d="M257.02,71.46l-0,1.37l-19.07,0l-0,-15.17l8.16,0l-0,-13.93l0.69,0l-0,15.17l-5.65,12.56l15.87,0Z" style="fill:#000050;fill-rule:nonzero;"/><path d="M257.02,1.38l-0,26.49l-7.4,15.86l-3.51,0l-0,-1.92l-8.16,0l-0,-15.16l18.38,0l-0,-25.27l0.69,0Z" style="fill:#000050;fill-rule:nonzero;"/><path d="M256.33,72.83l-0,25.28l-34.63,0l-0,-96.73l34.63,0l-0,25.27l-18.38,0l-0,15.16l8.16,0l-0,15.85l-8.16,0l-0,15.17l18.38,0Z" style="fill:#f9f4be;fill-rule:nonzero;"/><path d="M208.73,72.15l-0,27.2l-7.48,15.85l-17.62,0l-0,-17.09l1.38,0l0,-39.21l6.71,9.42l0,29.79l16.25,0l0,-25.28l-4.65,-6.62l0.45,-1.02l4.96,6.96Z" style="fill:#000050;fill-rule:nonzero;"/><path d="M208.73,0l-0,56.3l-0.23,0.4l-0.53,-0.95l-0,-54.37l-39.22,0l-0,96.73l14.88,0l-0,4.37l-6.02,12.72l-16.94,0l-0,-98.11l7.4,-17.09l40.66,0Z" style="fill:#000050;fill-rule:nonzero;"/><path d="M208.5,56.7l-4.73,8.49l-0.45,1.02l-7.33,-10.46l11.98,0l0.53,0.95Z" style="fill:#000050;fill-rule:nonzero;"/><path d="M207.97,72.84l-0,25.27l-16.25,0l-0,-29.79l-6.71,-9.43l-0,39.22l-16.25,0l-0,-96.74l39.21,0l-0,54.37l-12,0l7.33,10.46l4.67,6.64Zm-16.25,-32.25l-0,-14.63l-6.71,0l-0,14.63l6.71,0Z" style="fill:#f9f4be;fill-rule:nonzero;"/><rect x="185.01" y="25.96" width="6.71" height="14.63" style="fill:#000050;fill-rule:nonzero;"/><path d="M155.03,0l-0,99.35l-7.48,15.85l-40.59,0l-0,-98.09l7.4,-17.09l40.67,-0.02Zm-0.77,98.12l-0,-96.74l-39.21,0l-0,96.73l39.21,0.01Z" style="fill:#000050;fill-rule:nonzero;"/><path d="M154.26,1.38l-0,96.73l-39.21,0l-0,-96.74l39.21,0.01Zm-16.24,70.22l-0,-45.64l-6.72,0l-0,45.64l6.72,0Z" style="fill:#f9f4be;fill-rule:nonzero;"/><rect x="131.29" y="25.96" width="6.72" height="45.64" style="fill:#000050;fill-rule:nonzero;"/><path d="M102.08,0l-0,53.15l-0.33,0.68l-0.44,-0.68l-0,-51.77l-39.2,0l-0,96.73l16.24,0l-0,-13.66l0.84,0l-0,14.76l-7.85,15.99l-17.32,0l-0,-98.11l7.4,-17.09l40.66,0Z" style="fill:#000050;fill-rule:nonzero;"/><path d="M101.75,53.83l-7.83,16.41l-14.73,14.21l-0.84,0l-0,-9.16l22.96,-22.14l0.44,0.68Z" style="fill:#000050;fill-rule:nonzero;"/><path d="M101.31,1.38l-0,51.73l-23,22.15l-0,22.85l-16.15,0l-0,-96.74l39.15,0.01Zm-16.24,39.73l-0,-15.17l-6.72,0l-0,21.6l6.72,-6.43Z" style="fill:#f9f4be;fill-rule:nonzero;"/><path d="M85.07,25.96l-0,15.17l-6.72,6.43l-0,-21.6l6.72,0Z" style="fill:#000050;fill-rule:nonzero;"/><path d="M48.37,75.97l0,0.7l-17.85,38.53l-30.52,0l-0,-26.51l7.1,-17.09l1.37,-0l0,26.51l27.92,0l11.29,-22.14l0.69,0Z" style="fill:#000050;fill-rule:nonzero;"/><path d="M48.37,38.67l0,37.3l-0.69,0l-0,-36.08l-22.96,0l-0,-13.93l19.07,0l0.44,0.58l-5.02,12.13l9.16,0Z" style="fill:#000050;fill-rule:nonzero;"/><path d="M47.68,39.89l-0,36.08l-11.29,22.14l-27.92,0l0,-26.51l22.96,-0l0,-15.85l-22.96,0l0,-33.21l10.15,-21.16l25.17,0l-0,24.58l-19.07,0l-0,13.93l22.96,0Z" style="fill:#f9f4be;fill-rule:nonzero;"/><path d="M44.48,0l0,25.96l-0.25,0.58l-0.44,-0.58l-0,-24.58l-25.17,0l-10.15,21.16l0,33.21l22.96,0l0,15.85l-31.43,0l-0,-33.61l18.01,-37.99l26.47,0Z" style="fill:#000050;fill-rule:nonzero;"/></svg>