<svg width="316" height="333" viewBox="0 0 316 333" fill="none" xmlns="http://www.w3.org/2000/svg">
<path d="M237.115 0.704315C236.748 1.19424 233.073 1.92914 229.154 2.4191C225.112 2.90903 217.028 5.11371 211.026 7.56335C198.043 12.7076 169.872 21.5264 163.013 22.6288C160.196 23.1187 157.991 23.8536 157.991 24.3435C157.991 24.9559 155.052 26.3032 151.622 27.4056C142.068 30.4677 128.84 38.674 126.023 43.0834C124.431 45.778 123.696 48.9625 123.818 53.127C123.941 56.434 123.451 65.0078 122.716 72.1118C121.981 79.2158 121.369 91.8315 121.246 100.283C121.246 108.612 120.879 115.716 120.634 115.961C120.389 116.206 111.938 116.573 101.772 116.818C89.2783 117.063 83.2767 116.818 83.2767 115.961C83.2767 115.103 79.4797 114.981 71.3958 115.471C60.3724 116.328 59.27 116.696 56.0855 120.003C54.2482 121.962 52.656 122.942 52.656 122.33C52.656 120.125 49.9614 121.105 43.8372 125.514C40.5302 127.964 32.4463 133.108 25.8322 136.905C19.2182 140.702 12.2367 145.601 10.3994 147.806C7.09238 151.848 6.84742 152.705 5.86755 170.465C5.37762 180.754 4.88769 199.004 4.88769 211.13C4.76521 223.256 4.27528 241.383 3.66286 251.549C3.05045 261.593 2.43804 274.208 2.19307 279.353C2.07059 284.619 1.45817 288.906 0.84576 288.906C0.355829 288.906 0.110863 289.396 0.600794 290.131C0.968243 290.744 2.07059 290.988 3.05045 290.499C4.39776 290.009 4.88769 290.744 4.88769 293.071C4.88769 294.785 5.50011 296.255 6.11252 296.255C6.84742 296.255 7.33735 294.663 7.33735 292.703V289.029L14.0739 289.764C18.8507 290.254 22.4027 289.886 26.4447 288.294C30.2416 286.824 33.6711 286.457 37.1007 286.947C40.8976 287.559 41.755 287.314 40.4077 286.457C39.0604 285.477 40.0402 285.109 44.6946 285.109C48.1241 285.109 63.9244 284.864 79.8472 284.497C97.6072 284.129 110.59 284.374 113.285 285.109C116.837 286.089 118.674 285.844 121.981 284.374C124.308 283.272 126.146 281.925 126.146 281.312C126.146 280.822 127.248 280.332 128.595 280.332C130.922 280.332 131.045 280.455 129.085 283.395C126.023 288.049 127.615 290.131 134.107 290.131C137.169 290.131 139.619 290.621 139.619 291.356C139.619 291.968 140.476 292.581 141.578 292.581C142.681 292.581 143.048 291.968 142.558 291.233C142.068 290.376 142.436 290.009 143.416 290.376C144.396 290.744 145.253 292.458 145.375 294.173C145.498 296.99 145.13 297.48 142.558 297.48C140.966 297.48 139.619 297.97 139.619 298.705C139.619 299.317 140.599 299.93 141.823 299.93C143.048 299.93 144.518 300.42 145.253 301.155C145.865 301.767 149.662 302.379 153.704 302.379C164.483 302.502 165.34 302.379 165.34 301.032C165.34 300.42 166.442 299.93 167.79 299.93C170.484 299.93 171.097 297.97 168.77 297.235C167.79 296.868 168.402 296.01 170.239 295.03C174.159 292.948 176.854 290.254 175.996 289.274C174.894 288.294 180.65 284.007 182.978 284.007C184.08 284.007 184.937 283.395 184.937 282.782C184.937 282.047 186.407 281.557 188.367 281.557C193.389 281.557 197.186 280.21 197.186 278.618C197.186 277.638 199.513 277.025 203.065 276.78C206.249 276.658 211.026 275.923 213.598 275.311C218.008 274.086 223.764 274.208 259.652 275.923C277.167 276.903 289.415 278.373 291.007 279.965C292.11 281.067 292.722 281.19 292.722 280.332C292.722 279.353 295.417 279.23 302.398 279.72C308.155 280.332 312.932 280.088 314.157 279.353C316.606 278.005 314.769 277.638 299.826 276.046C289.293 274.943 291.252 273.596 302.888 273.841L312.932 274.086L307.053 272.494C298.479 269.921 298.601 269.309 307.788 269.309C312.319 269.309 315.994 268.819 315.994 268.207C315.994 267.594 312.319 267.104 307.91 267.104C302.888 267.104 299.459 266.614 298.846 265.635C297.622 263.675 296.274 232.932 296.397 208.68C296.519 184.306 298.356 148.664 300.806 122.942C301.908 112.164 303.011 90.6067 303.256 75.1738C303.746 51.9021 304.236 46.8803 305.705 46.6354C308.4 46.0229 307.788 44.6756 303.623 42.8384C301.541 41.981 296.642 37.2042 292.722 32.4274C282.066 19.4442 273.615 12.9526 262.469 8.91068C257.202 7.07343 249.731 4.25632 245.934 2.66406C237.972 -0.520508 238.34 -0.39801 237.115 0.704315ZM260.877 18.0969C277.044 29.9777 291.987 41.4911 296.029 45.1656C297.744 46.6354 297.867 49.2075 297.132 65.3752C296.764 75.4188 295.539 88.647 294.559 94.7711C292.477 107.019 291.13 169.608 292.6 180.999C293.335 186.021 293.09 188.593 291.62 191.41C289.905 194.717 289.66 200.106 290.028 230.972L290.518 266.737L283.903 266.002C280.351 265.635 274.717 265.512 271.288 265.757C260.387 266.247 256.712 266.124 247.404 264.532C242.259 263.552 235.155 263.185 231.236 263.675L224.132 264.41V260.858C224.132 258.898 224.867 257.061 225.724 256.693C226.826 256.326 226.826 255.836 225.602 254.244C224.622 253.141 223.764 250.692 223.519 248.854C223.274 247.017 222.662 243.833 222.172 241.873C221.56 239.301 221.682 238.566 222.785 239.178C224.867 240.526 224.377 237.953 222.172 236.116C220.457 234.769 220.335 233.054 221.07 225.828C221.56 221.173 222.172 210.395 222.295 201.944C222.785 177.324 226.337 146.826 228.786 146.826C229.276 146.826 229.766 140.09 229.889 131.761C230.011 123.555 230.868 114.001 231.726 110.694C233.196 105.06 233.686 104.57 237.36 104.202C240.177 103.957 241.524 104.447 242.137 105.917C242.504 107.019 242.259 114.858 241.524 123.432C239.565 144.989 238.707 165.199 240.055 157.237C241.157 150.378 243.729 118.165 243.729 110.939C243.729 104.937 245.321 105.06 254.263 111.919C259.529 115.838 262.714 117.43 265.776 117.43C268.103 117.43 271.41 118.288 273.125 119.268C277.412 121.717 280.107 121.472 284.271 118.533C286.966 116.696 287.7 115.348 287.211 113.633C286.721 112.286 286.966 110.571 287.578 109.714C288.435 108.734 288.435 105.917 287.7 101.508C284.883 84.605 285.006 84.9725 270.553 70.8869C262.469 62.9256 255.732 57.4138 253.773 57.0464C251.078 56.434 249.363 54.2293 244.831 45.533C240.912 38.0616 237.972 33.8972 235.033 32.0599C232.706 30.4677 230.134 28.6304 229.154 27.8955C228.051 26.9156 227.316 26.7932 226.704 27.773C226.337 28.5079 224.499 29.3653 222.785 29.8552C218.13 30.9576 214.701 35.4894 208.087 48.9625C204.902 55.3316 199.513 65.1303 196.083 70.7645C181.63 93.7912 175.751 108.612 178.323 115.471C179.303 117.92 186.162 118.043 192.899 115.716C195.593 114.736 198.655 114.368 199.635 114.981C200.615 115.471 202.085 115.593 202.82 115.348C206.617 114.001 205.514 154.788 201.35 170.71C197.186 187.123 196.206 193.492 195.471 209.905C194.614 229.012 191.796 247.997 189.347 250.447C188.489 251.304 187.387 254.244 186.897 256.816C186.162 261.47 185.795 261.838 181.263 262.572C178.568 263.062 175.874 264.165 175.384 265.267C174.771 266.247 172.077 267.227 169.137 267.349L163.87 267.717L164.36 259.265C164.605 254.611 165.34 250.447 166.075 249.957C167.912 248.732 170.239 241.383 170.239 236.729C170.239 232.932 170.484 232.687 173.669 233.299C176.119 233.789 177.711 233.299 179.303 231.462C181.263 229.257 181.508 227.665 180.895 220.071C180.528 215.049 179.058 208.558 177.711 205.373C174.649 198.636 172.689 189.205 173.914 187.246C176.241 183.571 171.219 163.484 166.932 159.564C163.993 156.87 163.87 156.135 164.605 149.031C164.973 144.744 165.83 134.456 166.442 126.004C166.932 117.553 167.667 110.081 167.912 109.469C168.157 108.734 167.912 105.917 167.422 103.1C166.198 95.506 164.973 95.1385 147.58 97.0983C143.538 97.5882 137.292 98.2006 133.862 98.5681L127.37 99.1805L127.493 86.5647C127.493 79.5832 127.983 67.9474 128.473 60.7209C129.208 49.8199 129.82 47.1253 131.902 45.0431C134.352 42.5934 143.661 38.1841 153.704 34.7545C156.399 33.8972 164.728 30.5901 172.077 27.4056C195.961 17.362 200.003 16.0147 215.558 12.5851C224.009 10.7479 232.583 8.54321 234.543 7.68585C241.524 4.62378 243.729 5.48114 260.877 18.0969ZM274.227 16.9945C275.942 18.2194 279.617 21.5264 282.311 24.466L287.211 29.6103L281.821 25.8133C278.759 23.6086 275.82 21.8938 275.085 21.8938C274.105 21.8938 263.204 14.1774 259.039 10.503C256.835 8.66571 270.92 14.5449 274.227 16.9945ZM298.846 94.8936C298.111 112.409 296.764 136.538 296.029 148.664L294.437 170.71L293.58 160.299C292.722 149.153 294.315 108.857 296.397 91.709C297.009 85.9523 297.867 77.0111 298.356 71.7443C299.826 52.1471 300.071 64.1504 298.846 94.8936ZM125.778 78.4809C125.533 80.0732 125.288 78.8483 125.288 75.7863C125.288 72.7242 125.533 71.4994 125.778 72.9692C126.023 74.5614 126.023 77.0111 125.778 78.4809ZM147.458 121.84C151.5 123.432 149.54 126.984 143.538 128.944C136.557 131.271 133.495 134.456 133.372 139.845C133.25 141.927 132.882 145.112 132.392 146.826C131.78 149.153 132.27 150.623 134.229 152.828C137.537 156.38 136.924 158.462 131.902 160.912C127.125 163.361 127.003 163.239 127.86 159.564C128.473 157.36 128.228 156.625 127.248 157.237C126.513 157.727 126.146 159.442 126.513 161.034C126.758 162.749 126.513 164.341 126.023 164.709C125.411 165.076 124.921 166.424 124.921 167.648C124.921 168.873 124.308 170.098 123.451 170.343C120.634 171.323 113.775 203.168 116.47 203.168C116.837 203.168 117.572 206.353 118.062 210.15C120.022 228.155 120.756 230.482 124.676 233.789C128.595 236.974 128.595 237.219 128.595 247.997C128.595 255.958 129.208 260.613 131.045 265.39C132.392 268.942 133.495 272.249 133.495 272.861C133.495 273.473 131.167 274.943 128.228 276.046C124.063 277.638 121.124 277.76 113.285 277.025C103.854 276.046 103.486 275.923 103.854 273.106C104.099 271.269 103.854 270.534 102.996 271.024C102.261 271.514 101.649 272.739 101.649 273.596C101.649 277.025 93.4427 279.108 80.3371 279.108C73.4781 279.108 66.1291 278.618 63.9244 278.005C60.7398 277.025 59.76 277.148 59.1476 278.618C58.7801 279.598 56.8204 280.332 54.3707 280.332C50.9412 280.332 50.2063 279.843 50.0838 277.515C49.8389 274.943 49.8389 274.943 49.3489 277.76C48.859 280.455 48.3691 280.577 42.1225 279.965C36.8557 279.475 35.5084 279.598 35.5084 281.067C35.5084 282.537 33.3037 282.782 23.0151 282.537L10.3994 282.17L10.7669 222.521C10.8893 187.123 11.5018 161.524 12.2367 159.687C13.094 157.36 15.9111 155.278 22.4027 152.338C27.4245 150.011 32.2013 147.194 33.1812 146.091C34.0386 144.989 36.8557 142.784 39.1829 141.315C41.51 139.722 45.1845 136.783 47.3892 134.823C53.7583 128.821 58.0452 126.249 61.2298 126.249C62.9445 126.372 72.7431 125.392 83.1542 124.289C93.4427 123.065 103.241 122.452 104.956 122.942C109.243 123.922 108.141 127.596 103.241 128.576C98.4645 129.556 97.6072 128.944 99.3219 125.882C100.057 124.534 100.057 123.555 99.3219 123.555C98.0971 123.555 96.7498 126.494 96.7498 129.189C96.7498 131.516 103.241 131.393 107.773 129.066C110.1 127.841 111.08 126.617 110.713 125.392C110.1 123.922 111.57 123.555 118.919 123.432C126.391 123.31 141.333 122.085 144.763 121.35C145.13 121.227 146.355 121.472 147.458 121.84ZM151.255 138.375C156.889 140.825 157.011 141.07 156.276 145.356C155.542 150.623 149.54 158.34 145.988 158.83C144.151 159.075 142.681 158.095 140.844 155.155C137.537 149.766 137.659 142.784 141.089 138.865C144.273 135.19 144.028 135.19 151.255 138.375ZM28.1594 139.967C28.1594 140.702 17.5034 146.826 16.2786 146.826C15.7887 146.826 18.1158 145.112 21.4229 143.152C27.9145 139.355 28.1594 139.232 28.1594 139.967ZM10.7669 156.135C9.90949 157.972 9.05211 158.707 8.80714 157.972C8.19473 156.012 9.41955 152.95 10.8893 152.95C11.7467 152.95 11.6242 154.175 10.7669 156.135ZM164.115 166.791C164.115 167.526 165.463 170.098 167.055 172.425C169.505 176.222 170.117 178.672 170.484 189.45C171.219 204.761 169.26 204.516 168.157 189.205C167.667 182.346 166.932 178.794 166.075 179.039C165.34 179.284 163.503 179.039 162.033 178.549C158.849 177.324 153.704 178.917 152.847 181.366C151.622 184.551 153.337 190.798 155.664 191.532C158.849 192.635 163.87 188.838 164.483 185.041C165.34 179.529 165.34 198.269 164.605 208.803C163.748 218.724 163.748 218.846 159.338 221.296C156.889 222.643 152.847 223.99 150.397 224.358L145.743 225.093V200.719C145.743 187.368 146.233 176.1 146.723 175.732C147.213 175.487 147.458 178.672 147.213 183.081C146.845 188.348 147.09 190.92 148.07 190.92C148.927 190.92 149.417 188.47 149.417 184.796C149.417 179.529 150.397 175.12 155.052 160.544C155.542 158.707 164.115 164.586 164.115 166.791ZM140.844 163.116C140.844 163.974 140.354 163.851 139.619 162.749C138.639 161.279 138.394 161.402 138.394 163.606C138.394 166.913 140.599 172.915 142.191 173.895C142.926 174.385 142.926 176.467 142.191 180.019C141.456 182.959 140.966 188.103 141.089 191.532L141.211 197.657L142.068 192.145C142.681 188.47 143.048 192.757 143.048 204.638L143.293 222.766H140.354C136.312 222.766 133.862 219.704 135.944 217.254C136.924 216.152 137.047 214.804 136.312 213.824C133.005 209.292 131.78 201.944 132.025 188.103C132.27 176.59 132.025 173.528 130.555 173.038C127.983 172.058 129.575 168.138 134.352 163.974C138.394 160.422 140.844 160.054 140.844 163.116ZM128.35 190.308C128.35 197.412 127.983 202.923 127.615 202.678C126.513 201.944 126.636 214.314 127.86 216.764C128.963 219.336 126.268 221.296 124.798 218.969C124.186 217.989 123.941 216.274 124.186 215.049C124.431 213.947 123.818 211.252 122.839 209.17C120.511 204.393 119.164 190.92 121.124 190.92C121.859 190.92 122.471 191.41 122.471 192.145C122.471 192.757 123.084 193.37 123.696 193.37C124.553 193.37 124.676 191.165 124.186 187.246C123.329 180.509 124.063 177.447 126.513 177.447C127.86 177.447 128.228 180.264 128.35 190.308ZM162.401 181.489C163.503 184.428 160.686 189.695 158.114 189.695C154.929 189.695 153.949 187.98 154.929 183.571C155.542 180.754 156.399 179.897 158.726 179.897C160.441 179.897 162.033 180.632 162.401 181.489ZM291.62 210.15C290.518 212.11 290.395 211.987 290.273 209.292C290.273 207.578 290.763 204.026 291.252 201.331L292.11 196.432L292.477 202.188C292.722 205.373 292.232 209.048 291.62 210.15ZM174.281 208.925C174.894 212.11 174.649 212.722 173.301 212.11C172.199 211.742 171.464 209.782 171.464 207.088C171.464 201.944 173.179 203.046 174.281 208.925ZM131.412 213.212C131.78 215.784 131.657 217.866 130.922 217.866C130.31 217.866 129.82 215.539 129.82 212.722C129.82 206.72 130.433 206.965 131.412 213.212ZM221.682 211.987C221.682 216.396 221.192 216.274 219.967 211.375C219.478 209.415 219.722 208.068 220.457 208.068C221.07 208.068 221.682 209.782 221.682 211.987ZM8.19473 215.049C7.82728 216.274 7.58231 215.294 7.58231 212.967C7.58231 210.64 7.82728 209.66 8.19473 210.762C8.43969 211.987 8.43969 213.947 8.19473 215.049ZM177.466 218.234C178.568 220.316 178.568 221.908 177.588 224.48C176.976 226.318 176.609 228.277 176.976 228.89C177.956 230.36 175.629 231.462 173.424 230.604C170.484 229.502 170.852 222.643 173.914 221.908C177.098 221.051 176.976 219.704 173.669 217.376C170.974 215.417 170.974 215.417 173.424 215.417C174.771 215.417 176.609 216.641 177.466 218.234ZM294.804 226.685C294.559 228.277 294.315 227.052 294.315 223.99C294.315 220.928 294.559 219.704 294.804 221.173C295.049 222.766 295.049 225.215 294.804 226.685ZM135.209 225.95C137.659 226.93 136.557 228.89 133.372 228.89C132.147 228.89 131.045 228.032 131.045 227.052C131.045 225.093 132.147 224.725 135.209 225.95ZM162.89 231.462C162.89 234.279 162.033 237.219 161.053 238.198C159.094 240.158 158.481 245.425 160.318 244.323C162.033 243.22 162.646 247.875 161.543 253.631C161.053 256.448 160.563 261.715 160.441 265.145C160.441 271.146 160.196 271.514 156.889 272.126C154.072 272.739 152.602 274.208 150.152 279.353L146.968 285.844L147.458 268.084C147.825 258.286 148.07 248.364 148.193 246.037L148.438 241.75L149.662 246.037C151.622 252.406 152.357 247.997 150.642 241.383C149.785 238.198 148.805 235.136 148.438 234.524C147.213 232.197 145.865 237.341 145.008 247.507C144.273 256.938 144.028 258.041 142.558 256.203C141.089 254.244 140.966 254.856 140.844 260.49C140.844 264.532 141.333 266.737 142.068 266.247C143.661 265.267 143.661 270.656 142.068 274.698C140.476 278.863 139.374 278.74 137.292 274.086C136.067 271.269 135.944 270.044 137.047 269.432C138.026 268.697 138.026 266.247 136.679 259.388C133.985 245.547 133.495 236.606 135.699 236.729C136.679 236.851 138.271 235.504 139.374 233.789L141.333 230.727L138.639 233.054C137.169 234.401 135.699 235.136 135.332 234.769C133.495 233.054 139.496 230.849 146.355 230.604C150.52 230.482 155.542 229.625 157.501 228.522C162.646 225.828 162.89 225.95 162.89 231.462ZM127.983 230.115C127.615 230.727 126.758 231.339 126.023 231.339C125.411 231.339 124.921 230.727 124.921 230.115C124.921 229.38 125.778 228.89 126.881 228.89C127.86 228.89 128.35 229.38 127.983 230.115ZM164.973 240.158C164.605 241.138 164.238 240.771 164.238 239.423C164.115 238.076 164.483 237.341 164.85 237.831C165.218 238.198 165.34 239.301 164.973 240.158ZM296.274 259.143C296.397 265.512 296.029 266.859 294.437 266.859C293.09 266.859 292.722 266.247 293.212 264.9C293.58 263.797 294.07 257.428 294.07 250.569C294.315 239.301 294.437 238.811 295.172 244.812C295.784 248.487 296.152 254.979 296.274 259.143ZM245.566 266.859C244.219 267.472 237.85 267.962 231.481 267.962C224.377 267.962 220.825 267.472 222.295 266.982C223.642 266.369 230.011 265.88 236.38 265.88C243.729 265.88 247.159 266.247 245.566 266.859ZM281.086 268.084C282.801 268.819 280.719 269.064 274.962 269.064C268.103 268.942 267.246 268.819 270.675 268.084C276.555 266.859 278.269 266.859 281.086 268.084ZM228.419 270.534C224.989 272.004 221.437 272.004 222.295 270.534C222.662 269.799 224.867 269.309 226.949 269.432C230.256 269.432 230.501 269.676 228.419 270.534ZM259.407 271.269C259.897 272.126 265.286 272.616 273.982 272.494C284.148 272.371 288.068 272.861 289.293 274.086C290.64 275.433 288.68 275.556 276.799 274.943C259.284 273.841 243.729 271.881 241.279 270.411C240.055 269.554 242.504 269.309 248.996 269.554C254.263 269.799 258.917 270.534 259.407 271.269ZM263.939 270.534C264.306 271.146 264.061 271.759 263.449 271.759C262.714 271.759 262.102 271.146 262.102 270.534C262.102 269.799 262.346 269.309 262.591 269.309C262.959 269.309 263.571 269.799 263.939 270.534ZM218.375 272.616C217.518 272.861 216.048 272.861 215.313 272.616C214.456 272.249 215.068 272.004 216.783 272.004C218.498 272.004 219.11 272.249 218.375 272.616ZM239.197 272.616C237.605 272.861 235.155 272.861 233.686 272.616C232.093 272.371 233.318 272.126 236.38 272.126C239.442 272.126 240.667 272.371 239.197 272.616ZM161.543 279.598C163.87 282.415 161.543 289.396 158.114 289.886C152.234 290.744 150.03 283.517 155.174 279.598C157.991 277.515 159.828 277.515 161.543 279.598ZM117.204 283.517C116.837 283.884 115.735 284.007 114.877 283.64C113.897 283.272 114.265 282.905 115.612 282.905C116.959 282.782 117.694 283.15 117.204 283.517ZM24.1175 287.192C23.75 287.559 22.6477 287.681 21.7903 287.314C20.8105 286.947 21.1779 286.579 22.5252 286.579C23.8725 286.457 24.6074 286.824 24.1175 287.192ZM155.909 293.438C155.052 293.683 153.337 293.683 152.234 293.438C151.01 293.071 151.745 292.826 153.704 292.826C155.786 292.826 156.644 293.071 155.909 293.438ZM159.216 296.133C159.216 296.868 158.604 297.725 157.869 298.092C156.031 299.317 150.397 297.603 151.255 296.255C152.234 294.663 159.216 294.663 159.216 296.133Z" fill="#000050"/>
<path d="M236.013 200.351C235.523 200.719 235.155 201.699 235.155 202.433C235.155 203.168 235.768 203.046 236.625 202.189C237.36 201.454 237.727 200.474 237.482 200.106C237.115 199.739 236.38 199.861 236.013 200.351Z" fill="#000050"/>
<path d="M234.665 212.599C233.808 222.52 233.808 247.874 234.665 246.894C235.4 246.282 236.502 204.393 235.768 204.393C235.645 204.393 235.155 208.067 234.665 212.599Z" fill="#000050"/>
<path d="M232.951 251.549C232.951 253.508 233.196 254.243 233.563 253.018C233.808 251.916 233.808 250.201 233.563 249.344C233.196 248.609 232.951 249.466 232.951 251.549Z" fill="#000050"/>
<path d="M52.2884 146.704C51.7984 148.908 51.5535 153.073 51.5535 155.89C51.6759 160.422 51.7984 160.177 52.7783 153.563C54.0031 145.356 53.6357 140.212 52.2884 146.704Z" fill="#000050"/>
<path d="M109.61 145.601C109.978 146.214 110.59 146.826 110.957 146.826C111.202 146.826 111.447 146.214 111.447 145.601C111.447 144.866 110.835 144.377 110.1 144.377C109.488 144.377 109.243 144.866 109.61 145.601Z" fill="#000050"/>
<path d="M83.2764 150.379C83.2764 150.991 84.1337 152.094 85.1136 152.951C86.0935 153.808 86.9509 155.523 86.9509 156.748C86.9509 158.095 87.5633 159.075 88.1757 159.075C90.0129 159.075 89.6455 155.646 87.4408 152.339C85.4811 149.277 83.2764 148.297 83.2764 150.379Z" fill="#000050"/>
<path d="M76.2951 152.461C71.3958 154.543 71.0283 157.973 75.3152 160.79C78.6222 162.995 82.0518 163.362 82.0518 161.525C82.0518 160.79 81.0719 160.3 79.7246 160.3C76.2951 160.3 73.9679 157.115 75.9276 154.788C76.785 153.808 78.2548 152.951 79.1122 152.951C80.092 152.951 80.8269 152.339 80.8269 151.726C80.8269 150.991 80.7045 150.501 80.582 150.624C80.337 150.624 78.3773 151.481 76.2951 152.461Z" fill="#000050"/>
<path d="M110.957 153.685C109.855 156.625 110.1 161.279 111.447 162.136C112.182 162.626 112.672 160.667 112.672 157.359C112.672 151.48 112.182 150.5 110.957 153.685Z" fill="#000050"/>
<path d="M18.7281 158.707C15.4211 160.911 14.5637 168.505 17.7482 167.158C18.7281 166.791 20.4428 166.056 21.4227 165.688C22.77 165.198 23.26 165.811 23.26 167.893C23.26 169.975 22.1576 171.445 19.9529 172.547C17.1358 173.895 16.8908 174.262 18.7281 174.752C22.8925 175.609 26.1995 172.18 26.322 166.546C26.4445 161.156 26.1995 161.034 20.5653 163.361C16.7684 164.831 18.1157 161.646 22.0351 159.687C24.1173 158.584 25.7096 157.482 25.7096 157.237C25.7096 155.89 21.3002 156.87 18.7281 158.707Z" fill="#000050"/>
<path d="M73.7228 168.26C72.988 169.853 72.743 171.567 73.3554 171.812C74.2128 172.425 77.1524 167.648 77.1524 165.811C77.1524 163.973 74.9477 165.688 73.7228 168.26Z" fill="#000050"/>
<path d="M71.0281 176.345C71.0281 176.958 71.6405 177.203 72.2529 176.835C72.9878 176.468 73.4777 175.855 73.4777 175.488C73.4777 175.243 72.9878 174.998 72.2529 174.998C71.6405 174.998 71.0281 175.61 71.0281 176.345Z" fill="#000050"/>
<path d="M18.3606 177.815C15.666 179.162 15.2985 180.264 14.9311 187.123C14.6861 192.268 14.9311 194.595 15.7885 193.982C16.5234 193.615 17.1358 191.778 17.1358 189.818C17.1358 187.123 17.8707 186.266 21.1777 185.409C24.3623 184.429 25.2197 183.449 25.4646 180.142C25.9545 175.732 23.8723 174.997 18.3606 177.815ZM23.2599 180.264C23.2599 181.244 21.9126 182.591 20.1979 183.326C17.6257 184.551 17.1358 184.429 17.1358 182.836C17.1358 181.489 19.8304 179.529 23.015 178.794C23.1374 178.672 23.2599 179.407 23.2599 180.264Z" fill="#000050"/>
<path d="M117.204 177.08C116.714 177.447 116.347 178.427 116.347 179.162C116.347 179.897 116.959 179.774 117.817 178.917C118.552 178.182 118.919 177.202 118.674 176.835C118.307 176.467 117.572 176.59 117.204 177.08Z" fill="#000050"/>
<path d="M81.1942 181.367C75.9274 185.164 75.5599 190.553 80.5817 191.655C82.419 192.023 84.6237 192.513 85.481 192.88C86.2159 193.125 86.9508 192.758 86.9508 192.145C86.9508 191.655 85.2361 190.798 83.1539 190.308C76.0499 188.716 77.6422 182.347 85.2361 182.347C88.2982 182.347 89.8904 183.204 91.8502 186.021C94.1773 189.206 94.1773 189.818 92.5851 190.431C89.7679 191.533 90.1354 193.37 93.075 193.37C96.0146 193.37 96.1371 191.165 93.6874 185.164C90.6253 177.937 87.5633 176.957 81.1942 181.367Z" fill="#000050"/>
<path d="M70.0483 185.408C70.0483 187.368 70.2933 188.103 70.6608 186.878C70.9057 185.775 70.9057 184.061 70.6608 183.203C70.2933 182.468 70.0483 183.326 70.0483 185.408Z" fill="#000050"/>
<path d="M105.323 186.755C105.323 187.735 105.936 188.225 106.548 187.857C107.283 187.49 107.773 186.633 107.773 185.898C107.773 185.285 107.283 184.795 106.548 184.795C105.936 184.795 105.323 185.653 105.323 186.755Z" fill="#000050"/>
<path d="M112.672 187.98C112.672 188.96 113.285 189.45 113.897 189.082C114.632 188.715 115.122 187.857 115.122 187.122C115.122 186.51 114.632 186.02 113.897 186.02C113.285 186.02 112.672 186.877 112.672 187.98Z" fill="#000050"/>
<path d="M69.5585 191.654C68.9461 192.144 68.5786 193.614 68.5786 195.084C68.5786 196.799 68.9461 197.166 69.9259 196.186C70.6608 195.451 71.0283 193.859 70.7833 192.757C70.6608 191.654 70.0484 191.164 69.5585 191.654Z" fill="#000050"/>
<path d="M18.1158 196.554C15.0537 198.147 14.6863 199.004 14.6863 204.883C14.6863 211.865 15.9111 213.335 20.5655 212.11C22.6477 211.62 23.2601 210.15 23.995 204.883C24.7299 198.269 24.2399 194.595 22.4027 194.595C21.9128 194.717 19.953 195.575 18.1158 196.554ZM22.0352 202.924C22.0352 207.21 20.3205 210.517 18.1158 210.517C16.401 210.517 15.5437 201.944 17.1359 200.106C19.953 196.677 22.0352 197.902 22.0352 202.924Z" fill="#000050"/>
<path d="M110.223 198.514C110.223 200.841 110.468 200.964 111.448 199.494C113.04 197.167 113.04 195.819 111.448 195.819C110.835 195.819 110.223 197.044 110.223 198.514Z" fill="#000050"/>
<path d="M100.057 197.901C99.5669 198.268 99.1995 199.493 99.1995 200.596C99.3219 202.188 99.5669 202.188 100.547 200.351C101.894 198.023 101.527 196.309 100.057 197.901Z" fill="#000050"/>
<path d="M80.8269 202.066C80.8269 203.413 81.4393 204.148 82.0517 203.781C82.7866 203.413 83.2766 202.188 83.2766 201.209C83.2766 200.229 82.7866 199.494 82.0517 199.494C81.4393 199.494 80.8269 200.596 80.8269 202.066Z" fill="#000050"/>
<path d="M69.191 201.821C68.8236 202.433 69.0686 203.29 69.8034 203.78C70.4159 204.148 71.0283 203.658 71.0283 202.678C71.0283 200.473 70.2934 200.106 69.191 201.821Z" fill="#000050"/>
<path d="M50.8183 203.168C50.0834 204.393 47.7562 251.426 47.8787 260.122C48.2461 270.534 50.0834 251.916 50.6958 231.951C51.1857 219.826 51.7981 208.067 52.1656 205.863C52.9005 201.943 52.2881 200.718 50.8183 203.168Z" fill="#000050"/>
<path d="M69.8035 209.782C69.8035 210.885 70.4159 211.742 71.0283 211.742C71.7632 211.742 72.2531 211.252 72.2531 210.64C72.2531 209.905 71.7632 209.048 71.0283 208.68C70.4159 208.313 69.8035 208.803 69.8035 209.782Z" fill="#000050"/>
<path d="M82.0515 209.17C82.0515 209.782 82.6639 210.762 83.2763 211.129C84.0112 211.497 84.5012 211.374 84.5012 210.64C84.5012 210.027 84.0112 209.047 83.2763 208.68C82.6639 208.312 82.0515 208.435 82.0515 209.17Z" fill="#000050"/>
<path d="M90.5032 210.028C89.0334 211.743 89.1559 211.988 91.1156 211.62C92.4629 211.375 93.6878 210.395 94.0552 209.538C94.6676 207.456 92.4629 207.701 90.5032 210.028Z" fill="#000050"/>
<path d="M110.223 210.517C110.223 211.13 110.835 211.742 111.448 211.742C112.183 211.742 112.673 211.13 112.673 210.517C112.673 209.782 112.183 209.293 111.448 209.293C110.835 209.293 110.223 209.782 110.223 210.517Z" fill="#000050"/>
<path d="M17.7483 217.376C14.1963 219.213 13.9513 219.703 13.7063 227.175C13.4614 231.952 13.8288 235.014 14.6862 235.014C15.2986 235.014 15.911 233.299 15.911 231.339C15.911 229.257 16.401 227.665 17.0134 227.665C18.4832 227.665 22.0352 231.217 22.0352 232.686C22.0352 233.299 22.6476 233.789 23.26 233.789C24.8523 233.789 24.8523 229.747 23.1375 228.032C22.1576 227.052 22.1576 226.44 23.1375 225.95C25.0972 224.725 24.8523 215.416 23.015 215.539C22.1576 215.539 19.708 216.396 17.7483 217.376ZM22.0352 221.418C22.0352 222.643 20.9328 223.99 19.708 224.358C16.5234 225.093 15.6661 224.235 17.2583 221.418C18.8506 218.356 22.0352 218.478 22.0352 221.418Z" fill="#000050"/>
<path d="M72.2529 216.641C72.2529 217.254 72.8653 217.866 73.4778 217.866C74.2127 217.866 74.7026 217.254 74.7026 216.641C74.7026 215.906 74.2127 215.417 73.4778 215.417C72.8653 215.417 72.2529 215.906 72.2529 216.641Z" fill="#000050"/>
<path d="M87.0736 216.029C89.0333 220.438 91.1155 223.99 92.0954 223.99C94.1776 223.99 92.9528 220.683 89.8907 217.744C88.0535 216.151 86.8287 215.294 87.0736 216.029Z" fill="#000050"/>
<path d="M82.0518 218.48C81.1944 219.582 80.7045 220.684 81.0719 220.929C81.4394 221.297 82.4192 220.807 83.2766 219.704C84.134 218.602 84.6239 217.5 84.2565 217.255C83.889 216.887 82.9092 217.377 82.0518 218.48Z" fill="#000050"/>
<path d="M75.3149 221.541C75.6824 222.153 76.6622 222.766 77.2746 222.766C78.0095 222.766 78.132 222.153 77.7646 221.541C77.3971 220.806 76.4172 220.316 75.8048 220.316C75.0699 220.316 74.9475 220.806 75.3149 221.541Z" fill="#000050"/>
<path d="M79.6021 226.439C79.6021 227.052 80.2145 227.664 80.9494 227.664C81.5618 227.664 81.8067 227.052 81.4393 226.439C81.0718 225.704 80.4594 225.214 80.092 225.214C79.847 225.214 79.6021 225.704 79.6021 226.439Z" fill="#000050"/>
<path d="M75.9275 229.502C75.9275 230.481 76.1725 231.339 76.4174 231.339C76.6624 231.339 77.1523 230.481 77.6422 229.502C78.0097 228.522 77.7647 227.664 77.1523 227.664C76.4174 227.664 75.9275 228.522 75.9275 229.502Z" fill="#000050"/>
<path d="M84.5015 231.829C84.5015 232.932 85.1139 233.789 85.7263 233.789C86.4612 233.789 86.9511 233.299 86.9511 232.687C86.9511 231.952 86.4612 231.094 85.7263 230.727C85.1139 230.36 84.5015 230.849 84.5015 231.829Z" fill="#000050"/>
<path d="M120.756 236.117C120.266 236.974 120.144 237.954 120.511 238.321C121.614 239.424 122.838 237.831 122.226 236.117C121.736 234.769 121.491 234.769 120.756 236.117Z" fill="#000050"/>
<path d="M72.2529 237.953C72.2529 238.933 72.8653 240.157 73.4778 240.525C74.2127 240.892 74.7026 240.157 74.7026 238.81C74.7026 237.34 74.2127 236.238 73.4778 236.238C72.8653 236.238 72.2529 236.973 72.2529 237.953Z" fill="#000050"/>
<path d="M16.8907 239.424C13.7061 241.016 13.4612 241.751 13.4612 248.488C13.4612 255.102 14.686 257.674 16.4008 254.734C16.7682 254.244 18.7279 253.387 20.8101 253.019C22.7699 252.529 24.4846 251.672 24.4846 250.937C24.4846 249.712 22.5249 249.957 17.5031 251.795C16.5233 252.162 15.9108 251.427 15.9108 249.835C15.9108 248.12 16.6457 247.263 18.238 247.263C19.5853 247.263 21.0551 246.65 21.4226 246.038C21.9125 245.303 20.8101 244.813 19.0954 244.813C17.3806 244.813 15.9108 244.201 15.9108 243.588C15.9108 242.853 16.8907 242.363 18.1155 242.363C19.3404 242.363 21.1776 241.261 22.4024 239.914C24.3621 237.587 24.3621 237.464 22.2799 237.464C21.1776 237.587 18.7279 238.444 16.8907 239.424Z" fill="#000050"/>
<path d="M90.1356 239.546C89.4007 241.26 89.5232 241.383 90.7481 240.281C91.6054 239.423 91.9729 238.443 91.6054 238.076C91.238 237.708 90.5031 238.321 90.1356 239.546Z" fill="#000050"/>
<path d="M96.1374 242.363C96.5049 242.975 97.4847 243.588 98.0971 243.588C98.832 243.588 98.9545 242.975 98.5871 242.363C98.2196 241.628 97.2398 241.138 96.6273 241.138C95.8924 241.138 95.77 241.628 96.1374 242.363Z" fill="#000050"/>
<path d="M118.429 241.873C117.939 242.363 117.572 243.955 117.572 245.302C117.694 247.629 117.694 247.752 118.919 245.67C120.266 243.342 119.899 240.403 118.429 241.873Z" fill="#000050"/>
<path d="M85.1136 247.262C84.7461 247.875 84.9911 248.487 85.6035 248.487C86.3384 248.487 86.9508 247.875 86.9508 247.262C86.9508 246.528 86.7058 246.038 86.4609 246.038C86.0934 246.038 85.481 246.528 85.1136 247.262Z" fill="#000050"/>
<path d="M74.0904 248.365C73.723 248.977 73.968 249.834 74.7029 250.324C75.3153 250.692 75.9277 250.202 75.9277 249.222C75.9277 247.017 75.1928 246.65 74.0904 248.365Z" fill="#000050"/>
<path d="M101.894 248.732C102.139 249.467 103.118 250.447 103.853 250.692C104.711 250.937 105.078 250.447 104.588 249.222C103.731 247.017 101.159 246.527 101.894 248.732Z" fill="#000050"/>
<path d="M78.377 253.386C78.377 253.999 79.2343 254.244 80.2142 253.876C81.1941 253.386 82.0514 252.896 82.0514 252.651C82.0514 252.406 81.1941 252.161 80.2142 252.161C79.2343 252.161 78.377 252.651 78.377 253.386Z" fill="#000050"/>
<path d="M112.183 254.121C111.08 257.061 111.325 257.551 113.285 255.836C115.367 254.121 115.735 252.161 114.02 252.161C113.408 252.161 112.55 253.019 112.183 254.121Z" fill="#000050"/>
<path d="M106.548 254.488C106.548 255.1 107.161 256.08 107.773 256.448C108.508 256.815 108.998 256.693 108.998 255.958C108.998 255.345 108.508 254.366 107.773 253.998C107.161 253.631 106.548 253.753 106.548 254.488Z" fill="#000050"/>
<path d="M71.0281 257.674C70.0482 258.776 70.0482 259.511 70.7831 259.511C72.2529 259.511 73.9677 257.184 73.1103 256.326C72.8653 256.081 71.8855 256.571 71.0281 257.674Z" fill="#000050"/>
<path d="M82.0515 259.265C82.0515 259.877 82.9089 261.347 83.8888 262.694C85.726 265.022 86.3384 263.674 84.9911 260.245C84.2562 258.163 82.0515 257.55 82.0515 259.265Z" fill="#000050"/>
<path d="M64.9041 263.92C64.9041 264.9 65.5165 265.39 66.1289 265.023C66.8638 264.655 67.3537 263.798 67.3537 263.063C67.3537 262.45 66.8638 261.96 66.1289 261.96C65.5165 261.96 64.9041 262.818 64.9041 263.92Z" fill="#000050"/>
<path d="M105.446 264.899C104.466 266.002 104.099 267.227 104.589 267.717C105.691 268.819 108.141 266.124 107.528 264.409C107.283 263.43 106.548 263.552 105.446 264.899Z" fill="#000050"/>
<path d="M111.447 266.737C111.447 268.207 112.06 269.31 112.672 269.31C113.407 269.31 113.897 268.575 113.897 267.595C113.897 266.615 113.407 265.39 112.672 265.023C112.06 264.655 111.447 265.39 111.447 266.737Z" fill="#000050"/>
<path d="M85.7261 268.697C85.7261 269.677 86.3385 270.534 86.9509 270.534C87.6858 270.534 88.1757 269.677 88.1757 268.697C88.1757 267.717 87.6858 266.86 86.9509 266.86C86.3385 266.86 85.7261 267.717 85.7261 268.697Z" fill="#000050"/>
<path d="M60.6172 270.534C59.6374 272.126 60.4947 273.473 62.332 272.861C63.0669 272.493 63.1894 271.636 62.5769 270.656C61.842 269.431 61.3521 269.431 60.6172 270.534Z" fill="#000050"/>
<path d="M85.7261 275.31C85.7261 276.045 86.3385 276.902 86.9509 277.27C87.6858 277.637 88.1757 277.147 88.1757 276.167C88.1757 275.065 87.6858 274.208 86.9509 274.208C86.3385 274.208 85.7261 274.697 85.7261 275.31Z" fill="#000050"/>
<path d="M149.784 143.642C148.192 145.234 146.967 147.439 146.967 148.542C146.967 149.644 145.988 150.501 144.64 150.501C143.415 150.501 142.068 151.236 141.701 152.216C140.843 154.298 145.13 155.646 149.172 154.543C151.254 154.053 151.622 153.563 150.519 152.216C149.295 150.624 150.764 145.847 152.357 146.459C155.541 147.929 156.399 145.969 154.071 142.785C152.602 140.948 152.234 140.948 149.784 143.642Z" fill="#000050"/>
<path d="M140.353 143.765C139.374 146.459 140.476 148.052 143.416 148.052C145.253 148.052 145.865 147.317 145.498 145.357C145.008 142.05 141.456 140.948 140.353 143.765Z" fill="#000050"/>
<path d="M146.968 200.719C146.968 201.331 147.58 201.943 148.193 201.943C148.927 201.943 149.417 201.331 149.417 200.719C149.417 199.984 148.927 199.494 148.193 199.494C147.58 199.494 146.968 199.984 146.968 200.719Z" fill="#000050"/>
<path d="M147.213 214.803C147.213 216.763 147.458 217.498 147.825 216.273C148.07 215.171 148.07 213.456 147.825 212.599C147.458 211.864 147.213 212.721 147.213 214.803Z" fill="#000050"/>
<path d="M158.849 233.422C158.359 233.789 157.991 234.769 157.991 235.504C157.991 236.239 158.604 236.116 159.461 235.259C160.196 234.524 160.563 233.544 160.318 233.177C159.951 232.809 159.216 232.932 158.849 233.422Z" fill="#000050"/>
<path d="M137.291 250.937C137.291 252.652 137.781 254.856 138.394 255.836C139.373 257.306 139.618 257.306 139.496 255.224C139.496 253.877 139.006 251.672 138.394 250.325C137.414 248.12 137.291 248.12 137.291 250.937Z" fill="#000050"/>
<path d="M157.991 253.877C157.991 255.592 157.501 258.164 156.889 259.756C155.051 264.9 154.316 269.31 155.296 269.31C155.786 269.31 156.889 266.37 157.746 262.818C158.603 259.388 159.583 255.224 159.951 253.632C160.441 252.039 160.196 250.937 159.338 250.937C158.603 250.937 157.991 252.284 157.991 253.877Z" fill="#000050"/>
<path d="M151.255 256.448C151.745 259.143 152.602 261.838 153.214 262.572C154.684 264.042 153.214 256.081 151.622 253.386C150.887 252.161 150.765 253.264 151.255 256.448Z" fill="#000050"/>
<path d="M235.155 278.862C235.155 280.21 247.281 282.659 248.138 281.435C248.751 280.455 246.669 279.72 239.81 278.495C237.237 278.128 235.155 278.25 235.155 278.862Z" fill="#000050"/>
<path d="M47.8788 291.356C47.7563 293.194 47.1439 295.153 46.409 295.888C45.4291 296.868 45.7966 297.481 47.7563 298.093C50.5734 298.95 53.1455 297.603 50.4509 296.623C49.716 296.256 49.2261 295.643 49.5935 295.031C49.961 294.541 49.716 292.704 49.1036 291.111L47.8788 288.294V291.356Z" fill="#000050"/>
<path d="M74.0904 291.356C73.7229 291.969 74.4578 292.581 75.8051 292.581C77.2749 292.581 78.3773 291.969 78.3773 291.356C78.3773 290.621 77.6424 290.131 76.6625 290.131C75.6826 290.131 74.4578 290.621 74.0904 291.356Z" fill="#000050"/>
<path d="M63.4346 292.213C64.9044 292.458 67.1091 292.458 68.3339 292.213C69.4363 291.845 68.2114 291.6 65.5168 291.723C62.8222 291.723 61.8423 291.968 63.4346 292.213Z" fill="#000050"/>
<path d="M124.553 293.438C121.001 294.295 123.328 295.888 127.248 295.275C129.33 295.03 130.677 294.295 130.31 293.683C129.697 292.581 128.228 292.458 124.553 293.438Z" fill="#000050"/>
<path d="M96.1373 295.03C94.3 295.765 95.0349 296.133 99.1993 296.133C103.364 296.133 104.099 295.765 102.261 295.03C100.914 294.418 99.5668 293.928 99.1993 293.928C98.8319 293.928 97.4846 294.418 96.1373 295.03Z" fill="#000050"/>
<path d="M65.5163 297.48C65.8837 298.093 66.7411 298.705 67.476 298.705C68.0884 298.705 68.5784 298.093 68.5784 297.48C68.5784 296.745 67.721 296.255 66.6186 296.255C65.6388 296.255 65.1488 296.745 65.5163 297.48Z" fill="#000050"/>
<path d="M202.085 297.48C202.085 298.093 203.187 298.705 204.412 298.705C205.759 298.705 207.229 298.093 207.597 297.48C208.087 296.745 206.984 296.255 205.27 296.255C203.555 296.255 202.085 296.745 202.085 297.48Z" fill="#000050"/>
<path d="M219.232 296.745C219.232 296.99 220.335 297.479 221.682 297.847C223.029 298.214 224.132 297.969 224.132 297.357C224.132 296.745 223.029 296.255 221.682 296.255C220.335 296.255 219.232 296.5 219.232 296.745Z" fill="#000050"/>
<path d="M117.327 298.337C118.184 298.704 119.286 298.582 119.654 298.214C120.144 297.847 119.409 297.479 118.061 297.602C116.714 297.602 116.347 297.969 117.327 298.337Z" fill="#000050"/>
<path d="M126.146 298.705C128.473 300.297 129.82 300.297 129.82 298.705C129.82 297.97 128.595 297.48 127.125 297.48C124.798 297.48 124.676 297.725 126.146 298.705Z" fill="#000050"/>
<path d="M102.874 302.38C102.874 302.992 103.731 303.604 104.711 303.604C105.691 303.604 106.548 302.992 106.548 302.38C106.548 301.645 105.691 301.155 104.711 301.155C103.731 301.155 102.874 301.645 102.874 302.38Z" fill="#000050"/>
<path d="M189.224 304.829C188.734 305.564 190.204 306.054 192.898 306.054C195.593 306.054 197.063 305.564 196.573 304.829C196.205 304.094 194.49 303.604 192.898 303.604C191.306 303.604 189.591 304.094 189.224 304.829Z" fill="#000050"/>
<path d="M228.786 305.686C229.521 305.931 230.991 305.931 231.848 305.686C232.583 305.319 231.971 305.074 230.256 305.074C228.541 305.074 227.929 305.319 228.786 305.686Z" fill="#000050"/>
<path d="M1.58031 308.136C-0.134446 308.748 -0.624377 310.953 0.967899 310.953C1.58031 310.953 3.05011 310.096 4.39742 309.116C6.11217 307.769 6.23466 307.401 4.88735 307.401C3.90749 307.401 2.31521 307.769 1.58031 308.136Z" fill="#000050"/>
<path d="M116.714 314.382C112.305 315.117 113.407 316.832 118.184 316.71C120.511 316.587 122.471 316.22 122.471 315.73C122.471 314.505 119.776 313.892 116.714 314.382Z" fill="#000050"/>
<path d="M137.169 315.117C137.169 315.362 138.026 315.852 139.006 316.342C139.986 316.709 140.843 316.464 140.843 315.852C140.843 315.117 139.986 314.627 139.006 314.627C138.026 314.627 137.169 314.872 137.169 315.117Z" fill="#000050"/>
<path d="M59.7598 317.935C55.8404 318.915 57.4327 320.14 62.4545 320.14C67.4763 320.14 68.8236 319.16 65.3941 317.812C63.3118 317.078 63.0669 317.078 59.7598 317.935Z" fill="#000050"/>
<path d="M75.9275 318.302C75.9275 318.914 77.0298 319.526 78.3771 319.526C79.7245 319.526 80.8268 318.914 80.8268 318.302C80.8268 317.567 79.7245 317.077 78.3771 317.077C77.0298 317.077 75.9275 317.567 75.9275 318.302Z" fill="#000050"/>
<path d="M119.409 321.976C119.041 322.589 119.776 323.201 121.123 323.201C122.593 323.201 123.696 322.589 123.696 321.976C123.696 321.241 122.961 320.752 121.981 320.752C121.001 320.752 119.776 321.241 119.409 321.976Z" fill="#000050"/>
<path d="M173.914 323.079C173.914 324.304 176.976 325.651 179.793 325.651C181.63 325.529 181.508 325.284 179.548 323.814C176.853 321.732 173.914 321.364 173.914 323.079Z" fill="#000050"/>
<path d="M139.619 324.427C139.619 325.039 140.231 325.651 140.843 325.651C141.578 325.651 142.068 325.039 142.068 324.427C142.068 323.692 141.578 323.202 140.843 323.202C140.231 323.202 139.619 323.692 139.619 324.427Z" fill="#000050"/>
<path d="M67.9662 325.651C68.3337 326.264 69.5585 326.876 70.5384 326.876C71.5182 326.876 72.0082 326.264 71.6407 325.651C71.2733 324.916 70.0484 324.426 69.0686 324.426C68.0887 324.426 67.5988 324.916 67.9662 325.651Z" fill="#000050"/>
<path d="M83.2764 326.876C83.2764 327.488 83.8888 328.101 84.6237 328.101C85.2361 328.101 85.4811 327.488 85.1136 326.876C84.7462 326.141 84.1337 325.651 83.7663 325.651C83.5213 325.651 83.2764 326.141 83.2764 326.876Z" fill="#000050"/>
<path d="M38.5699 329.325C38.9374 329.938 40.7746 330.55 42.6119 330.428C45.5514 330.428 45.6739 330.305 43.4692 329.325C40.0397 327.855 37.7126 327.855 38.5699 329.325Z" fill="#000050"/>
<path d="M169.015 331.775C169.015 332.388 170.974 333 173.424 333C175.996 333 177.466 332.51 176.976 331.775C175.996 330.183 169.015 330.183 169.015 331.775Z" fill="#000050"/>
</svg>
