<svg width="874" height="700" viewBox="0 0 874 700" fill="#000050" xmlns="http://www.w3.org/2000/svg">
<path d="M574.593 191.941C574.302 192.304 573.757 192.595 572.958 192.813C572.231 192.958 571.468 192.74 570.669 192.159C570.088 191.723 569.397 191.287 568.598 190.851C567.799 190.342 566.927 189.87 565.982 189.434C565.037 188.998 564.093 188.635 563.148 188.344C562.203 188.053 561.295 187.908 560.423 187.908C559.333 187.908 558.17 188.162 556.935 188.671C555.772 189.18 554.755 189.906 553.883 190.851C552.212 192.668 551.594 194.448 552.03 196.192C552.539 197.863 553.81 199.426 555.845 200.879C557.153 201.824 558.57 202.805 560.096 203.822C561.622 204.767 563.112 205.711 564.565 206.656C566.091 207.601 567.508 208.509 568.816 209.381C570.197 210.253 571.396 211.016 572.413 211.67C573.721 212.542 574.956 213.487 576.119 214.504C577.282 215.521 578.299 216.684 579.171 217.992C580.043 219.227 580.733 220.644 581.242 222.243C581.751 223.842 582.005 225.658 582.005 227.693C581.496 231.69 579.898 234.887 577.209 237.285C574.593 239.61 571.541 241.1 568.053 241.754C565.001 242.335 561.985 242.226 559.006 241.427C556.099 240.628 553.629 239.102 551.594 236.849C551.085 236.268 550.649 235.468 550.286 234.451C549.923 233.434 549.886 232.707 550.177 232.271C550.613 231.617 551.376 231.181 552.466 230.963C553.556 230.672 554.392 230.709 554.973 231.072C556.644 232.598 558.606 233.724 560.859 234.451C563.112 235.105 565.473 235.141 567.944 234.56C569.833 234.124 571.359 233.325 572.522 232.162C573.685 230.927 574.411 229.546 574.702 228.02C575.065 226.421 574.847 224.786 574.048 223.115C573.321 221.371 571.977 219.809 570.015 218.428C567.036 216.175 563.838 214.068 560.423 212.106C557.08 210.144 553.665 207.891 550.177 205.348C548.506 203.895 547.27 202.296 546.471 200.552C545.744 198.808 545.381 197.1 545.381 195.429C545.381 193.685 545.744 192.05 546.471 190.524C547.198 188.925 548.215 187.508 549.523 186.273C550.831 184.965 552.357 183.911 554.101 183.112C555.845 182.313 557.771 181.84 559.878 181.695C562.785 181.55 565.582 182.167 568.271 183.548C570.96 184.856 573.14 186.491 574.811 188.453C575.174 188.889 575.32 189.434 575.247 190.088C575.247 190.742 575.029 191.36 574.593 191.941ZM614.314 209.163C615.695 209.09 617.075 209.417 618.456 210.144C619.837 210.871 620.527 211.997 620.527 213.523C620.382 214.758 619.691 215.558 618.456 215.921C617.293 216.212 616.349 216.357 615.622 216.357C614.169 216.357 612.606 216.393 610.935 216.466C609.264 216.539 607.556 216.648 605.812 216.793C605.667 219.191 605.521 221.444 605.376 223.551C605.303 225.658 605.231 227.548 605.158 229.219C605.085 230.818 605.049 232.126 605.049 233.143C605.049 234.16 605.085 234.705 605.158 234.778C606.757 234.487 608.464 234.015 610.281 233.361C612.17 232.634 614.023 231.871 615.84 231.072C617.729 230.2 619.546 229.328 621.29 228.456C623.107 227.511 624.814 226.639 626.413 225.84C627.14 225.477 627.794 225.368 628.375 225.513C629.029 225.658 629.429 225.985 629.574 226.494C629.719 227.293 629.61 228.274 629.247 229.437C628.884 230.6 628.23 231.653 627.285 232.598C626.195 233.47 624.742 234.487 622.925 235.65C621.181 236.74 619.292 237.794 617.257 238.811C615.222 239.828 613.151 240.737 611.044 241.536C609.009 242.263 607.193 242.699 605.594 242.844C603.196 243.062 601.379 242.408 600.144 240.882C598.909 239.356 598.218 237.43 598.073 235.105C597.928 232.78 597.891 230.091 597.964 227.039C598.109 223.987 598.255 220.753 598.4 217.338C597.019 217.483 595.675 217.629 594.367 217.774C593.132 217.847 591.933 217.956 590.77 218.101C589.825 218.101 588.772 217.883 587.609 217.447C586.519 217.011 585.974 216.175 585.974 214.94C585.974 214.504 586.156 213.923 586.519 213.196C586.882 212.469 587.682 211.924 588.917 211.561C591.896 211.052 595.203 210.616 598.836 210.253C599.054 206.838 599.308 203.531 599.599 200.334C599.89 197.137 600.144 194.23 600.362 191.614C600.435 190.742 600.689 189.979 601.125 189.325C601.561 188.671 602.033 188.344 602.542 188.344C603.777 188.271 604.94 188.598 606.03 189.325C607.193 189.979 607.774 190.742 607.774 191.614C607.483 194.085 607.193 196.882 606.902 200.007C606.684 203.132 606.466 206.329 606.248 209.599C607.701 209.454 609.082 209.381 610.39 209.381C611.771 209.308 613.079 209.236 614.314 209.163ZM661.315 198.045C661.606 200.08 661.824 202.26 661.969 204.585C662.187 206.838 662.333 209.127 662.405 211.452C662.551 213.777 662.623 216.03 662.623 218.21C662.623 220.39 662.587 222.352 662.514 224.096C664.84 225.695 666.22 227.112 666.656 228.347C667.165 229.582 667.238 230.672 666.874 231.617C666.438 232.925 665.639 233.615 664.476 233.688C663.386 233.688 662.115 233.288 660.661 232.489C659.644 233.216 658.481 234.015 657.173 234.887C655.865 235.686 654.485 236.486 653.031 237.285C651.578 238.012 650.125 238.666 648.671 239.247C647.218 239.828 645.874 240.228 644.638 240.446C642.313 240.809 640.206 240.373 638.316 239.138C636.5 237.903 635.264 236.05 634.61 233.579C634.174 231.908 634.065 230.2 634.283 228.456C634.501 226.639 635.046 224.932 635.918 223.333C636.79 221.662 637.953 220.172 639.406 218.864C640.932 217.556 642.713 216.539 644.747 215.812C645.256 215.594 645.946 215.412 646.818 215.267C647.763 215.122 648.708 215.085 649.652 215.158C650.67 215.158 651.687 215.34 652.704 215.703C653.722 216.066 654.666 216.684 655.538 217.556C655.538 216.321 655.502 214.976 655.429 213.523C655.429 211.997 655.393 210.471 655.32 208.945C655.248 207.419 655.139 206.002 654.993 204.694C654.921 203.313 654.812 202.151 654.666 201.206C654.521 200.116 654.085 199.462 653.358 199.244C652.704 198.953 651.869 198.99 650.851 199.353C649.107 199.934 647.073 201.061 644.747 202.732C642.422 204.403 640.206 206.184 638.098 208.073C637.444 208.727 636.681 209.018 635.809 208.945C635.01 208.872 634.32 208.545 633.738 207.964C633.157 207.383 632.83 206.729 632.757 206.002C632.685 205.203 632.975 204.367 633.629 203.495C634.865 202.187 636.245 200.843 637.771 199.462C639.297 198.081 640.896 196.846 642.567 195.756C644.239 194.593 645.946 193.649 647.69 192.922C649.434 192.195 651.178 191.796 652.922 191.723C655.466 191.65 657.428 192.232 658.808 193.467C660.189 194.63 661.025 196.156 661.315 198.045ZM648.671 221.48C647.727 221.698 646.709 222.17 645.619 222.897C644.602 223.551 643.657 224.387 642.785 225.404C641.986 226.349 641.368 227.439 640.932 228.674C640.569 229.837 640.569 230.999 640.932 232.162C641.078 232.598 641.368 232.925 641.804 233.143C642.313 233.361 642.858 233.397 643.439 233.252C645.183 232.889 647.145 232.198 649.325 231.181C651.578 230.091 653.358 228.928 654.666 227.693C654.666 227.257 654.448 226.712 654.012 226.058C653.576 225.331 653.068 224.641 652.486 223.987C651.905 223.26 651.251 222.643 650.524 222.134C649.87 221.625 649.253 221.407 648.671 221.48ZM705.828 200.77C704.52 201.497 703.139 202.26 701.686 203.059C700.305 203.858 698.888 204.803 697.435 205.893C696.054 206.91 694.71 208.146 693.402 209.599C692.167 210.98 691.04 212.651 690.023 214.613C688.57 217.374 687.589 220.208 687.08 223.115C686.571 225.949 686.244 228.747 686.099 231.508C686.099 232.816 685.772 234.16 685.118 235.541C684.537 236.849 683.701 237.503 682.611 237.503C681.23 237.503 680.104 236.813 679.232 235.432C678.433 233.979 677.888 232.598 677.597 231.29C676.362 226.131 675.344 221.044 674.545 216.03C673.746 210.943 673.055 205.893 672.474 200.879C672.474 199.862 672.765 199.208 673.346 198.917C674 198.626 674.727 198.517 675.526 198.59C676.398 198.663 677.234 198.881 678.033 199.244C678.832 199.607 679.305 200.189 679.45 200.988C679.741 203.677 680.104 206.511 680.54 209.49C680.976 212.397 681.412 214.904 681.848 217.011C682.139 214.54 682.938 212.142 684.246 209.817C685.554 207.492 687.153 205.384 689.042 203.495C691.004 201.606 693.184 200.007 695.582 198.699C698.053 197.391 700.56 196.519 703.103 196.083C704.193 195.938 705.101 195.938 705.828 196.083C706.555 196.228 707.063 196.483 707.354 196.846C707.645 197.209 707.681 197.791 707.463 198.59C707.318 199.389 706.773 200.116 705.828 200.77ZM737.152 209.163C738.533 209.09 739.913 209.417 741.294 210.144C742.675 210.871 743.365 211.997 743.365 213.523C743.22 214.758 742.529 215.558 741.294 215.921C740.131 216.212 739.187 216.357 738.46 216.357C737.007 216.357 735.444 216.393 733.773 216.466C732.102 216.539 730.394 216.648 728.65 216.793C728.505 219.191 728.359 221.444 728.214 223.551C728.141 225.658 728.069 227.548 727.996 229.219C727.923 230.818 727.887 232.126 727.887 233.143C727.887 234.16 727.923 234.705 727.996 234.778C729.595 234.487 731.302 234.015 733.119 233.361C735.008 232.634 736.861 231.871 738.678 231.072C740.567 230.2 742.384 229.328 744.128 228.456C745.945 227.511 747.652 226.639 749.251 225.84C749.978 225.477 750.632 225.368 751.213 225.513C751.867 225.658 752.267 225.985 752.412 226.494C752.557 227.293 752.448 228.274 752.085 229.437C751.722 230.6 751.068 231.653 750.123 232.598C749.033 233.47 747.58 234.487 745.763 235.65C744.019 236.74 742.13 237.794 740.095 238.811C738.06 239.828 735.989 240.737 733.882 241.536C731.847 242.263 730.031 242.699 728.432 242.844C726.034 243.062 724.217 242.408 722.982 240.882C721.747 239.356 721.056 237.43 720.911 235.105C720.766 232.78 720.729 230.091 720.802 227.039C720.947 223.987 721.093 220.753 721.238 217.338C719.857 217.483 718.513 217.629 717.205 217.774C715.97 217.847 714.771 217.956 713.608 218.101C712.663 218.101 711.61 217.883 710.447 217.447C709.357 217.011 708.812 216.175 708.812 214.94C708.812 214.504 708.994 213.923 709.357 213.196C709.72 212.469 710.52 211.924 711.755 211.561C714.734 211.052 718.041 210.616 721.674 210.253C721.892 206.838 722.146 203.531 722.437 200.334C722.728 197.137 722.982 194.23 723.2 191.614C723.273 190.742 723.527 189.979 723.963 189.325C724.399 188.671 724.871 188.344 725.38 188.344C726.615 188.271 727.778 188.598 728.868 189.325C730.031 189.979 730.612 190.742 730.612 191.614C730.321 194.085 730.031 196.882 729.74 200.007C729.522 203.132 729.304 206.329 729.086 209.599C730.539 209.454 731.92 209.381 733.228 209.381C734.609 209.308 735.917 209.236 737.152 209.163ZM578.786 260.088C578.786 261.832 578.75 263.794 578.677 265.974C578.677 268.154 578.677 270.407 578.677 272.732C578.75 275.057 578.786 277.455 578.786 279.926C578.859 282.397 578.931 284.758 579.004 287.011C579.731 285.558 580.603 284.141 581.62 282.76C582.637 281.307 583.764 280.035 584.999 278.945C586.307 277.855 587.651 276.983 589.032 276.329C590.485 275.675 592.048 275.348 593.719 275.348C595.536 275.348 597.134 275.929 598.515 277.092C599.968 278.255 601.204 279.817 602.221 281.779C603.311 283.668 604.219 285.812 604.946 288.21C605.673 290.535 606.254 292.933 606.69 295.404C607.199 297.802 607.562 300.127 607.78 302.38C607.998 304.56 608.18 306.449 608.325 308.048C608.325 309.211 608.034 310.155 607.453 310.882C606.872 311.609 606.181 311.972 605.382 311.972C604.801 311.972 604.074 311.609 603.202 310.882C602.403 310.083 601.821 309.138 601.458 308.048C601.24 307.176 601.022 305.904 600.804 304.233C600.586 302.562 600.332 300.781 600.041 298.892C599.75 296.93 599.387 294.968 598.951 293.006C598.515 291.044 597.97 289.3 597.316 287.774C596.735 286.175 596.008 284.94 595.136 284.068C594.264 283.196 593.247 282.869 592.084 283.087C590.267 283.45 588.669 284.722 587.288 286.902C585.98 289.082 584.817 291.553 583.8 294.314C582.855 297.075 582.056 299.873 581.402 302.707C580.821 305.541 580.385 307.83 580.094 309.574C579.803 310.882 579.404 311.79 578.895 312.299C578.459 312.735 577.95 312.953 577.369 312.953C576.788 312.953 576.243 312.662 575.734 312.081C575.298 311.5 574.862 310.809 574.426 310.01C574.063 309.138 573.736 308.266 573.445 307.394C573.154 306.449 572.973 305.65 572.9 304.996C572.537 301.072 572.246 297.33 572.028 293.769C571.81 290.136 571.628 286.502 571.483 282.869C571.41 279.236 571.374 275.53 571.374 271.751C571.374 267.9 571.447 263.794 571.592 259.434C571.592 255.801 572.9 254.166 575.516 254.529C576.388 254.674 577.151 255.328 577.805 256.491C578.459 257.581 578.786 258.78 578.786 260.088ZM642.56 282.76C639.726 284.431 636.674 285.739 633.404 286.684C630.134 287.556 626.61 287.992 622.831 287.992C622.977 290.535 623.703 292.57 625.011 294.096C626.319 295.549 627.954 296.421 629.916 296.712C631.079 296.857 632.242 296.821 633.404 296.603C634.64 296.385 635.766 296.058 636.783 295.622C637.873 295.113 638.854 294.568 639.726 293.987C640.598 293.406 641.361 292.824 642.015 292.243C642.669 291.662 643.36 291.298 644.086 291.153C644.813 290.935 645.358 290.899 645.721 291.044C646.739 291.407 647.102 292.497 646.811 294.314C645.649 296.639 643.977 298.638 641.797 300.309C639.617 301.908 637.183 302.925 634.494 303.361C632.169 303.797 629.771 303.688 627.3 303.034C624.83 302.38 622.613 301.108 620.651 299.219C618.98 297.548 617.708 295.586 616.836 293.333C615.964 291.08 615.419 288.755 615.201 286.357C614.983 284.104 615.165 281.961 615.746 279.926C616.4 277.891 617.381 276.111 618.689 274.585C619.997 272.986 621.632 271.678 623.594 270.661C625.556 269.644 627.845 269.062 630.461 268.917C633.586 268.699 636.42 269.28 638.963 270.661C641.507 272.042 643.287 273.967 644.304 276.438C644.886 277.819 645.031 279.018 644.74 280.035C644.522 281.052 643.796 281.961 642.56 282.76ZM630.025 275.348C629.299 275.493 628.499 275.748 627.627 276.111C626.828 276.474 626.065 276.947 625.338 277.528C624.684 278.037 624.067 278.654 623.485 279.381C622.977 280.035 622.686 280.798 622.613 281.67C623.849 281.67 625.193 281.561 626.646 281.343C628.172 281.125 629.626 280.871 631.006 280.58C632.46 280.217 633.768 279.817 634.93 279.381C636.166 278.945 637.183 278.473 637.982 277.964C637.401 276.583 636.311 275.748 634.712 275.457C633.186 275.094 631.624 275.057 630.025 275.348ZM686.987 270.77C685.679 271.497 684.299 272.26 682.845 273.059C681.465 273.858 680.048 274.803 678.594 275.893C677.214 276.91 675.869 278.146 674.561 279.599C673.326 280.98 672.2 282.651 671.182 284.613C669.729 287.374 668.748 290.208 668.239 293.115C667.731 295.949 667.404 298.747 667.258 301.508C667.258 302.816 666.931 304.16 666.277 305.541C665.696 306.849 664.86 307.503 663.77 307.503C662.39 307.503 661.263 306.813 660.391 305.432C659.592 303.979 659.047 302.598 658.756 301.29C657.521 296.131 656.504 291.044 655.704 286.03C654.905 280.943 654.215 275.893 653.633 270.879C653.633 269.862 653.924 269.208 654.505 268.917C655.159 268.626 655.886 268.517 656.685 268.59C657.557 268.663 658.393 268.881 659.192 269.244C659.992 269.607 660.464 270.189 660.609 270.988C660.9 273.677 661.263 276.511 661.699 279.49C662.135 282.397 662.571 284.904 663.007 287.011C663.298 284.54 664.097 282.142 665.405 279.817C666.713 277.492 668.312 275.384 670.201 273.495C672.163 271.606 674.343 270.007 676.741 268.699C679.212 267.391 681.719 266.519 684.262 266.083C685.352 265.938 686.261 265.938 686.987 266.083C687.714 266.228 688.223 266.483 688.513 266.846C688.804 267.209 688.84 267.791 688.622 268.59C688.477 269.389 687.932 270.116 686.987 270.77ZM719.946 282.76C717.112 284.431 714.06 285.739 710.79 286.684C707.52 287.556 703.996 287.992 700.217 287.992C700.362 290.535 701.089 292.57 702.397 294.096C703.705 295.549 705.34 296.421 707.302 296.712C708.465 296.857 709.627 296.821 710.79 296.603C712.025 296.385 713.152 296.058 714.169 295.622C715.259 295.113 716.24 294.568 717.112 293.987C717.984 293.406 718.747 292.824 719.401 292.243C720.055 291.662 720.745 291.298 721.472 291.153C722.199 290.935 722.744 290.899 723.107 291.044C724.124 291.407 724.488 292.497 724.197 294.314C723.034 296.639 721.363 298.638 719.183 300.309C717.003 301.908 714.569 302.925 711.88 303.361C709.555 303.797 707.157 303.688 704.686 303.034C702.215 302.38 699.999 301.108 698.037 299.219C696.366 297.548 695.094 295.586 694.222 293.333C693.35 291.08 692.805 288.755 692.587 286.357C692.369 284.104 692.551 281.961 693.132 279.926C693.786 277.891 694.767 276.111 696.075 274.585C697.383 272.986 699.018 271.678 700.98 270.661C702.942 269.644 705.231 269.062 707.847 268.917C710.972 268.699 713.806 269.28 716.349 270.661C718.892 272.042 720.673 273.967 721.69 276.438C722.271 277.819 722.417 279.018 722.126 280.035C721.908 281.052 721.181 281.961 719.946 282.76ZM707.411 275.348C706.684 275.493 705.885 275.748 705.013 276.111C704.214 276.474 703.451 276.947 702.724 277.528C702.07 278.037 701.452 278.654 700.871 279.381C700.362 280.035 700.072 280.798 699.999 281.67C701.234 281.67 702.579 281.561 704.032 281.343C705.558 281.125 707.011 280.871 708.392 280.58C709.845 280.217 711.153 279.817 712.316 279.381C713.551 278.945 714.569 278.473 715.368 277.964C714.787 276.583 713.697 275.748 712.098 275.457C710.572 275.094 709.01 275.057 707.411 275.348Z" />
<path d="M473.049 597.451C473.049 600.116 473.798 600.843 474.548 598.905C475.297 597.209 475.047 595.028 474.298 594.301C473.549 593.332 472.799 594.786 473.049 597.451Z" />
<path d="M78.5905 9.13947C54.9874 25.2255 41.2406 42.8683 27.7531 74.0026C21.0093 89.5697 14.2656 108.769 12.45 116.553C9.85624 130.044 10.1156 131.86 16.8594 146.909C22.5656 159.622 25.1593 162.995 29.5687 162.735C32.4218 162.735 39.6843 164.551 45.1312 166.886L55.2468 171.557L53.6906 214.366C52.6531 238.236 51.8749 310.882 51.8749 376.524V495.353H37.6093C25.6781 495.353 22.5656 496.391 16.8594 502.618C8.04061 511.698 0 527.266 0 535.049C0 539.2 2.33437 542.314 6.48437 544.13C12.7094 546.984 15.5625 555.027 10.375 555.027C9.07811 555.027 7.78124 557.881 7.78124 560.994C7.78124 567.221 13.4875 573.708 21.0093 576.562C24.6406 577.599 25.4187 586.421 26.975 637.014C28.0125 669.445 29.3093 696.947 30.3468 698.504C34.4968 705.25 36.3125 689.423 36.3125 646.095C36.3125 576.302 34.4968 578.118 108.937 577.08C130.984 576.821 154.328 575.783 160.812 574.486C171.447 572.41 172.225 572.67 168.853 576.562C165.74 580.453 166 580.972 169.89 580.972C172.225 580.972 177.153 583.307 180.784 586.161C189.603 593.166 191.937 590.572 184.156 582.269C179.487 577.34 178.969 575.783 182.081 575.783C184.415 575.783 190.122 575.005 194.79 574.226L203.609 572.67L197.125 578.118C191.937 582.269 191.678 583.567 195.05 583.567C197.384 583.567 200.237 582.269 201.015 580.972C203.609 576.821 211.65 578.118 216.578 583.567C222.025 589.534 226.175 590.312 224.1 585.123C222.025 579.416 232.4 575.005 243.293 577.08C249.259 578.118 251.334 579.415 249.259 580.972C247.184 582.01 246.925 583.567 248.481 584.605C249.778 585.383 252.372 584.345 254.187 582.269C256.781 579.156 264.303 578.378 290.24 578.378C308.137 578.378 344.19 577.08 370.387 575.524C417.593 572.67 432.378 573.448 429.006 578.637C428.228 580.194 424.856 580.713 421.484 579.934C416.556 578.637 415.518 579.415 416.037 584.605C416.296 589.015 417.853 590.572 422.003 590.572C425.115 590.572 427.449 589.534 427.19 588.237C426.931 586.68 428.746 584.345 431.34 582.788C434.971 580.194 436.528 580.453 438.343 583.567C439.899 585.902 439.899 588.237 438.343 589.794C434.712 593.426 435.231 596.539 439.381 594.983C443.531 593.426 445.865 614.96 446.384 653.619C446.384 667.11 447.421 682.937 448.459 688.645L450.534 699.023L452.09 689.942C453.128 685.013 455.203 664.516 456.759 644.538C458.315 624.56 460.131 600.431 460.909 590.831L462.465 573.448L472.84 571.632C481.14 570.335 482.437 569.556 478.806 567.481C476.471 566.183 475.174 563.848 476.212 562.551C476.99 560.994 475.174 557.362 472.062 554.508C467.393 550.097 467.134 548.8 469.987 545.168C472.062 542.573 475.174 537.644 476.99 534.011C480.103 527.525 479.584 526.228 468.171 511.18L456.24 495.353H434.453C422.521 495.353 412.146 494.575 411.628 493.277C410.849 492.24 409.812 485.753 409.553 478.748L408.515 466.035L417.593 465.516C427.709 464.997 451.571 458.511 465.578 452.803C478.027 447.614 478.546 438.273 466.356 438.273H457.796L467.653 429.193C480.103 417.777 480.362 412.328 468.171 412.328C459.612 412.328 459.353 412.069 461.687 405.582C468.431 388.199 459.871 386.902 434.971 401.95C425.634 407.658 417.334 412.328 416.815 412.328C416.037 412.328 414.221 409.215 412.665 405.064C408.256 394.685 414.74 295.575 419.928 295.575C420.706 295.575 424.337 300.764 427.709 307.25C433.156 317.628 451.312 334.493 457.018 334.493C458.056 334.493 464.799 337.865 471.802 342.276C479.065 346.427 491.256 351.616 498.518 353.692C520.306 359.919 575.293 365.627 630.799 367.443C678.784 369 682.933 368.74 703.424 363.032C752.965 349.281 777.865 340.979 793.686 333.195C803.024 328.525 813.399 323.855 817.03 322.817C825.849 319.963 847.896 302.839 856.196 292.461C872.277 271.965 877.464 248.614 871.758 222.928C869.424 212.291 854.64 191.016 837.78 173.892C822.477 158.584 789.536 147.946 731.955 139.644C710.427 136.79 591.634 137.828 565.437 141.46C544.687 144.314 557.137 139.125 581.777 134.455C602.787 130.563 603.565 127.969 583.593 129.266C571.662 130.044 533.015 140.422 522.64 145.611C485.031 164.551 450.534 190.497 437.824 209.177L427.709 223.966L428.487 199.577L429.265 174.929L438.343 173.632C450.015 171.557 454.165 168.962 462.984 158.584C469.728 150.541 469.987 148.725 468.949 132.639C467.393 112.142 445.606 36.6414 437.824 24.7066C434.971 20.2959 427.709 12.7719 422.003 8.10168C410.071 -1.49805 410.849 -1.49805 354.046 4.72882C329.665 7.58282 192.975 8.62054 145.25 6.54492C133.059 6.026 119.831 4.20984 115.94 2.65314C103.231 -2.27643 92.8561 -0.460266 78.5905 9.13947ZM101.415 15.8853C96.228 29.6362 103.75 41.3115 117.756 41.3115C125.019 41.3115 127.353 43.6466 140.581 64.9217C159.515 94.2398 161.072 100.207 151.994 102.542C141.359 105.137 133.319 101.764 129.687 93.4615C127.094 87.2346 127.353 84.6401 130.984 77.6349C133.319 73.2242 134.615 68.0352 134.097 66.4785C132.54 62.5867 124.5 80.7483 124.5 88.0129C124.5 101.245 137.728 110.066 152.772 107.212C158.997 105.915 160.294 106.693 161.85 112.142C163.406 118.888 159.256 134.714 155.625 134.714C154.587 134.714 151.994 132.379 150.178 129.525C148.103 126.671 142.915 123.558 138.765 122.78C128.909 120.963 118.015 129.006 111.79 142.238L107.64 151.579L81.4436 152.617C54.2093 153.395 39.1656 150.8 30.3468 143.017C25.9375 139.125 26.1968 138.606 32.4218 132.12C37.8687 126.412 38.6468 123.817 37.35 116.293C36.3125 111.364 33.9781 104.877 32.1625 101.764C29.05 96.8344 29.3093 94.4993 33.7187 84.3806C37.8687 74.7809 39.9437 72.4458 45.1312 72.4458C48.7624 72.4458 55.5062 69.0729 60.1749 64.9217C67.9562 57.9165 68.7343 55.8408 68.7343 42.6088C68.7343 28.0795 68.9937 28.0795 80.4061 20.8148C86.8905 16.923 93.6342 11.4745 95.7092 9.13947C100.637 3.17206 104.528 7.58276 101.415 15.8853ZM416.037 11.4745C429.524 20.2959 422.781 35.863 404.365 37.6792C390.1 39.2359 386.209 36.6415 383.875 24.1877C382.578 16.4042 381.54 15.1069 379.984 18.7392C376.871 25.7444 383.356 37.9387 391.915 41.0521C402.29 44.6844 420.706 39.236 424.078 31.4524C430.043 17.9609 432.378 23.4094 456.499 106.694C461.168 122.261 463.503 138.866 459.871 130.044C459.353 128.488 457.537 126.931 455.981 126.931C454.424 126.931 453.906 128.747 454.943 130.823C457.018 136.271 449.237 136.012 443.012 130.304C436.528 124.596 437.046 111.883 444.049 104.358C448.718 99.4289 448.978 98.3911 445.346 98.3911C438.862 98.3911 432.378 112.92 434.193 123.039C436.009 132.898 439.381 136.271 449.496 138.606C458.574 140.941 458.574 148.206 449.756 155.211C443.79 159.881 439.121 160.66 417.074 160.66C398.918 160.66 391.137 159.622 390.618 157.287C389.84 155.73 388.803 151.06 388.025 146.909C385.431 135.233 377.65 129.525 364.162 129.525C353.787 129.525 350.934 130.823 343.412 138.866C327.85 155.211 318.253 147.428 322.921 122.261C324.478 114.218 325.256 113.699 331.221 115.255C354.825 120.963 370.646 87.494 353.009 69.5918L345.228 62.0677L350.934 45.9817C357.678 27.3011 369.609 13.5502 381.021 11.2151C385.431 10.1773 389.062 8.36108 389.062 6.80438C389.062 2.9126 407.996 6.28552 416.037 11.4745ZM122.165 18.2203C132.8 29.6362 131.503 32.7496 120.09 23.4094C114.903 18.9987 109.975 15.8853 109.456 16.6636C108.937 17.1826 111.531 21.8527 115.422 27.0417C123.462 37.4198 122.425 40.7927 112.05 37.1603C104.528 34.5658 102.194 27.5606 104.787 16.4042C107.122 7.84222 113.087 8.62054 122.165 18.2203ZM153.031 12.7719C156.662 13.8096 157.959 14.8474 156.403 15.1069C154.587 15.3663 153.031 16.4042 153.031 17.7014C153.031 21.5932 185.194 23.6688 257.3 24.4471C294.909 24.7066 328.628 25.2255 332.518 25.485L339.262 25.7444L335.112 36.382C330.962 47.0195 330.962 47.0195 327.331 41.571C322.662 34.8252 318.512 34.5657 312.546 41.3115L307.878 46.5005L301.653 40.7927C295.687 35.3442 294.909 35.0847 292.056 39.236C288.943 43.3872 288.425 43.3872 284.534 39.236C280.903 35.8631 278.568 35.6036 270.009 37.6792C261.968 39.7548 259.634 39.7548 257.818 36.6414C254.187 30.9335 238.884 35.0847 235.512 42.8683C231.103 52.468 237.068 57.657 250.815 56.1003C258.337 55.322 262.747 56.1003 264.822 58.4354C268.453 62.8461 280.643 63.1056 284.793 58.9543C287.128 56.6193 287.906 56.8787 287.906 60.511C287.906 62.8461 289.203 64.1434 290.5 63.365C292.056 62.5866 293.093 58.4354 293.093 54.5436C293.093 44.425 295.687 42.8682 302.171 49.0951L307.878 54.2841L312.546 49.0951C318.771 42.0899 320.328 42.6089 324.218 51.4302C326.812 57.9166 326.553 61.5488 321.884 75.5593C318.771 84.6401 312.546 98.9099 307.878 107.472L299.578 123.039L271.047 125.115C255.484 126.152 229.287 127.19 212.947 127.19L183.378 127.45L179.747 114.218C175.337 97.0938 166.519 76.0781 161.85 72.1863C159.775 70.6296 158.219 66.7379 158.219 63.6245C158.219 60.7704 155.884 51.6896 152.772 43.9061C149.4 35.3441 148.103 26.7822 148.881 22.3715C149.919 17.1825 149.4 15.3663 147.065 16.1447C145.509 16.6636 143.953 20.296 143.953 23.9283C144.212 33.2686 141.359 32.7496 137.469 23.1499C135.653 18.7392 133.059 15.3663 131.762 15.3663C130.465 15.3663 130.206 14.0691 130.984 12.7719C132.8 9.65845 143.694 9.65845 153.031 12.7719ZM357.937 15.3663C357.937 16.1447 355.603 20.0364 352.75 24.4471C349.118 29.6362 347.562 30.9335 347.562 27.8201C347.562 25.485 346.006 22.631 344.45 21.3337C342.634 20.296 304.246 19.2581 259.375 18.7392C214.503 18.4797 173.522 17.1825 168.594 15.8853C162.628 14.3286 194.272 13.5502 258.597 13.8096C313.325 13.8096 357.937 14.588 357.937 15.3663ZM343.671 41.3115C341.337 45.4628 339.262 49.0951 338.484 49.0951C337.965 49.0951 338.743 45.4628 340.04 41.3115C341.596 36.9008 343.931 33.528 345.228 33.528C346.525 33.528 346.006 36.9008 343.671 41.3115ZM62.2499 45.2033C62.2499 55.8408 48.7624 70.3702 43.8343 65.4406C40.7218 62.3272 56.2843 37.9387 59.6562 40.0143C61.2124 40.7927 62.2499 43.1277 62.2499 45.2033ZM255.484 43.9061C257.818 47.7979 251.853 54.2841 246.147 54.2841C240.44 54.2841 237.587 50.1329 239.662 45.2033C241.218 40.7926 253.15 40.0143 255.484 43.9061ZM278.568 42.8683C283.756 44.9439 284.015 52.7275 279.087 56.6193C272.343 62.3272 262.747 54.0247 266.118 45.2033C267.675 41.0521 271.825 40.2737 278.568 42.8683ZM350.156 79.9699C354.565 88.5319 353.009 98.3911 346.265 104.877C339.521 111.883 337.706 112.401 332.259 109.029C329.406 107.212 329.406 104.618 333.296 92.9425C335.89 85.1589 338.484 78.1537 339.003 76.8565C341.078 73.2242 347.303 75.0403 350.156 79.9699ZM31.9031 113.958C33.9781 123.298 31.9031 129.525 26.975 129.525C23.0843 129.525 22.3062 122.001 24.9 111.883C27.2343 103.84 30.0875 104.618 31.9031 113.958ZM179.487 125.634C180.265 130.044 182.081 130.823 192.456 130.044C199.2 129.525 206.722 130.304 209.056 131.601C212.168 133.417 208.018 134.455 193.493 136.012C182.34 137.049 172.744 137.309 172.225 136.531C171.447 135.752 171.706 130.823 172.744 125.634C174.559 116.034 177.672 116.034 179.487 125.634ZM311.25 125.634C311.25 131.86 310.471 132.12 297.762 131.601C286.35 131.341 285.831 131.082 293.612 130.304C300.096 129.525 304.506 127.45 306.062 124.077C309.693 117.331 311.25 117.85 311.25 125.634ZM146.806 133.936C154.328 138.606 153.031 140.941 140.062 147.687C130.984 152.357 111.531 154.952 111.531 151.579C111.531 149.503 119.312 137.049 124.24 131.341C128.65 126.152 136.431 126.931 146.806 133.936ZM274.418 131.341C268.972 131.86 260.153 131.86 254.965 131.341C249.518 130.823 253.928 130.304 264.562 130.304C275.197 130.304 279.606 130.823 274.418 131.341ZM373.5 137.309C378.428 139.903 384.912 154.692 381.799 156.508C375.834 160.141 358.975 160.919 349.896 158.065C337.965 153.914 337.446 151.579 346.784 141.979C354.046 134.455 364.421 132.639 373.5 137.309ZM305.284 139.903C307.1 139.903 309.693 144.574 311.25 150.541C313.584 159.362 315.918 161.957 324.996 165.849C330.962 168.443 341.337 172.076 348.34 173.632L360.531 176.746V224.225C360.531 250.43 359.753 273.521 358.975 275.856C357.678 278.97 353.528 280.008 340.559 280.008C326.293 280.008 323.959 280.526 326.553 283.64C328.109 285.716 335.371 289.867 342.634 292.721L355.603 298.429L354.046 330.082C353.009 347.465 351.193 375.227 349.896 391.572C348.6 407.918 347.562 427.895 347.562 435.938C347.562 449.689 347.303 450.468 338.484 454.619C323.44 461.884 322.403 461.105 314.362 434.901C310.212 421.669 304.246 406.101 301.134 400.134C298.281 394.167 296.465 387.68 297.243 385.605C298.54 381.972 282.459 365.627 277.531 365.627C276.234 365.627 275.456 362.513 275.715 358.881C276.234 353.692 274.159 351.098 267.415 347.206C262.487 344.611 257.559 340.979 256.262 339.163C252.89 333.455 253.928 307.25 257.818 301.802C261.19 297.391 262.487 297.131 269.49 299.985C273.9 301.542 277.012 302.061 276.234 300.764C274.678 298.429 280.903 295.575 287.906 295.575C290.5 295.575 294.65 293.759 296.984 291.164C302.95 285.197 300.356 274.819 287.646 253.284C278.568 237.976 274.937 234.603 263.784 229.155C248.481 222.15 242.515 221.631 231.622 226.042C219.172 231.49 209.056 241.609 202.312 255.36C193.493 273.262 193.753 286.494 203.09 294.537C207.24 297.91 212.947 300.764 216.059 300.764C228.25 300.764 229.547 303.877 224.878 323.077C219.95 343.055 216.318 348.244 209.315 346.427C205.943 345.649 203.868 346.687 203.09 350.06C201.534 355.768 189.084 362.773 169.372 369.259C151.994 374.967 137.987 390.275 129.947 411.809C126.575 420.631 123.462 427.636 122.944 427.376C122.684 426.858 121.647 393.907 120.869 353.951C120.09 313.996 118.794 265.478 118.015 246.279C115.94 204.766 119.053 180.897 127.612 171.816C131.244 167.924 134.875 166.368 138.247 167.405C141.878 168.443 146.547 165.589 155.884 156.508C168.594 143.795 168.853 143.795 192.715 140.941C211.39 138.866 259.375 138.347 305.284 139.903ZM743.108 150.022C797.318 158.325 842.449 183.232 856.455 212.291C865.793 231.49 862.939 264.181 850.23 284.159C841.152 298.169 821.44 315.293 809.768 319.185C804.321 320.742 792.39 326.19 783.052 330.86C773.455 335.53 752.446 343.055 736.365 347.465C708.093 355.249 703.943 355.768 645.843 357.065C580.221 358.622 556.877 356.805 513.821 346.427C487.365 339.941 463.243 330.341 452.09 321.52C442.493 313.996 433.156 300.764 433.156 294.537C433.156 283.121 430.821 282.602 404.624 286.494C372.981 291.423 351.712 291.423 347.821 286.753C345.487 283.899 349.118 283.121 368.831 282.083C388.543 281.045 395.806 279.489 408.256 273.262C417.074 268.851 424.856 262.884 426.671 259.251C428.487 255.619 435.231 241.609 441.974 227.598C453.128 204.507 455.462 201.394 473.878 186.605C502.927 163.254 522.381 155.989 572.699 148.984C612.384 143.536 705.499 144.055 743.108 150.022ZM114.125 176.486C114.125 178.043 113.087 178.302 111.531 177.524C110.234 176.746 108.937 174.67 108.937 173.373C108.937 171.816 110.234 171.557 111.531 172.335C113.087 173.113 114.125 175.189 114.125 176.486ZM73.9218 255.879C73.9218 296.094 74.6999 326.709 75.7374 324.114C76.7749 321.26 78.0718 289.607 78.8499 253.543C79.628 217.48 80.1468 185.048 80.1468 181.416C80.4061 176.486 80.9249 175.708 83.778 178.562C86.1124 180.897 86.6311 214.626 86.1124 332.676C85.5936 415.701 84.2968 484.197 83.2593 484.975C81.9624 485.753 80.1468 488.867 79.1093 492.24C77.8124 497.169 75.7374 498.207 69.253 497.429C63.5468 496.91 61.2124 495.353 61.7312 492.758C62.2499 490.683 63.2874 421.15 63.8062 338.384C64.3249 255.619 65.3624 184.529 66.3999 180.378C67.9562 173.373 68.2155 173.113 71.0687 177.783C72.8843 181.156 73.9218 206.064 73.9218 255.879ZM100.637 179.859C101.415 182.972 100.378 184.27 98.0436 183.491C96.228 182.713 94.153 180.119 93.8936 177.783C93.1155 174.67 94.153 173.373 96.4874 174.151C98.303 174.929 100.378 177.524 100.637 179.859ZM374.796 181.416C376.353 184.01 371.943 257.435 369.35 270.148C365.718 288.31 364.681 273.521 365.978 228.896C367.015 201.912 367.793 179.859 368.053 179.34C368.831 177.783 373.24 179.081 374.796 181.416ZM110.494 254.062C109.715 290.386 108.937 357.324 108.678 402.469C108.678 452.803 107.64 484.975 106.344 484.975C104.787 484.975 103.75 430.23 103.75 340.979C103.75 230.712 104.528 196.983 106.862 196.983C109.197 196.983 109.197 196.205 106.862 193.869C105.047 192.053 103.75 188.421 103.75 185.826C103.75 181.416 104.269 181.156 107.9 184.27C111.79 187.643 112.05 194.388 110.494 254.062ZM405.921 186.605C410.849 188.68 410.849 188.94 405.403 188.94C402.29 189.199 398.918 187.902 398.14 186.605C396.324 183.491 398.659 183.491 405.921 186.605ZM99.8592 335.79C99.5999 414.923 98.8217 480.564 97.7842 481.343C91.2999 488.088 90.5218 474.856 90.7811 353.173C91.2999 214.107 92.3374 185.048 97.0061 189.199C99.3405 191.015 100.119 227.858 99.8592 335.79ZM389.321 228.636C387.506 246.279 385.69 263.143 384.912 266.257C384.134 270.408 384.912 272.224 387.765 272.224C390.878 272.224 391.656 268.851 391.656 257.176C391.915 249.133 393.212 232.787 395.028 221.112C397.881 201.912 398.659 200.356 402.549 203.21C406.44 206.064 406.699 209.696 404.884 237.457C403.587 254.322 403.068 269.111 403.587 270.148C404.884 272.224 376.353 278.451 374.278 276.375C373.5 275.597 374.278 263.662 375.575 249.652C377.131 235.641 379.206 215.663 380.243 205.026L381.799 186.086L387.246 191.275C392.174 196.464 392.434 197.761 389.321 228.636ZM419.149 211.253C420.187 213.588 419.928 226.301 418.89 239.793C417.334 260.03 416.296 264.959 412.406 267.035C407.996 269.37 407.737 268.851 408.515 261.327C409.293 256.657 410.331 242.646 411.368 229.933C412.665 208.918 415.778 201.912 419.149 211.253ZM254.965 232.268C265.859 235.901 280.384 249.652 277.012 253.025C273.64 256.138 267.156 250.171 267.156 244.203C267.156 239.274 266.378 238.236 264.303 240.311C259.375 245.241 263.006 252.765 272.084 255.619C280.903 258.473 290.24 268.073 290.5 274.04C290.5 275.856 287.646 277.413 284.015 277.413C280.125 277.413 275.715 280.267 272.084 284.937C267.415 291.423 264.562 292.461 248.222 294.277C214.762 297.65 204.906 295.834 204.906 286.234C204.906 280.527 214.762 282.083 216.578 288.051C217.875 291.683 219.172 292.721 220.987 290.905C225.397 286.494 221.506 280.526 212.947 278.71C202.572 276.375 202.572 270.148 212.687 266.516C221.765 263.403 229.287 249.911 225.137 244.463C221.765 240.052 224.878 236.16 234.475 231.749C238.884 229.933 242.515 228.377 242.775 228.117C242.775 228.117 248.222 229.933 254.965 232.268ZM215.54 260.03C211.39 264.181 208.797 260.03 212.947 255.1C215.281 252.246 216.837 251.987 217.356 254.062C217.875 255.619 217.097 258.473 215.54 260.03ZM286.868 282.862C288.684 285.975 283.756 290.386 278.05 290.386C275.456 290.386 275.456 289.088 277.531 285.197C280.643 279.489 284.015 278.451 286.868 282.862ZM407.218 302.58C407.218 300.245 408.515 298.169 409.812 298.169C411.368 298.169 412.406 298.948 412.406 299.985C412.406 309.066 404.624 395.204 403.846 395.983C400.993 398.577 399.956 375.227 402.031 357.843C403.328 347.206 404.365 331.379 404.106 322.817C404.106 314.255 402.031 329.304 399.696 356.546C394.768 413.885 389.84 429.193 374.537 436.717L365.718 440.868V401.172C365.718 379.637 367.015 347.984 368.831 331.12C371.943 302.32 372.203 300.764 377.909 300.764C381.021 300.764 384.134 301.802 384.912 303.099C385.95 304.396 384.134 329.822 381.281 359.659C375.575 418.296 374.796 436.717 378.428 430.49C380.243 427.117 384.653 380.156 388.284 322.298C389.581 303.099 390.359 301.023 395.287 300.245C398.14 299.726 402.29 301.023 404.106 303.099C406.699 306.472 407.218 306.472 407.218 302.58ZM368.312 308.288C368.312 312.439 367.015 325.152 365.459 336.309C363.903 347.465 361.828 376.264 361.05 400.393C359.753 429.452 358.196 444.76 356.381 445.279C350.934 447.095 350.156 433.603 354.046 398.837C356.121 379.897 358.715 350.06 359.493 332.417C360.79 308.547 362.087 300.764 364.94 300.764C367.015 300.764 368.312 303.618 368.312 308.288ZM242.775 317.109C245.368 316.071 246.406 317.888 246.406 324.114C246.406 328.525 247.443 334.493 249 337.087C252.112 343.055 249.518 352.395 246.147 346.946C244.331 344.352 243.812 344.611 243.812 347.984C243.812 350.319 242.515 353.173 240.7 354.211C238.625 355.508 238.106 352.395 239.403 342.795C240.44 334.752 239.922 329.304 238.625 329.304C237.068 329.304 236.031 330.601 236.031 332.417C236.031 334.752 235.253 334.752 233.178 332.676C231.103 330.601 231.103 328.266 233.178 324.633C234.734 321.779 236.29 316.59 236.29 313.217C236.809 307.25 236.809 307.25 237.847 312.958C238.625 316.59 240.181 318.147 242.775 317.109ZM229.028 343.573C228.25 345.908 226.953 347.206 226.434 346.427C225.656 345.649 225.915 344.092 226.953 342.536C229.287 338.384 230.843 339.163 229.028 343.573ZM221.765 355.249C223.581 358.103 213.465 366.405 210.353 364.33C207.24 362.513 206.462 354.47 209.056 352.135C210.612 350.319 220.209 352.654 221.765 355.249ZM266.637 355.768C265.859 357.584 261.709 360.438 257.3 362.254C249.778 365.367 249 365.108 249 360.697C249 355.249 252.372 353.173 261.45 352.914C265.081 352.654 267.156 353.951 266.637 355.768ZM204.128 378.859C205.943 386.642 209.834 405.582 212.947 421.409C216.059 436.976 219.172 452.543 219.95 455.916C220.728 460.586 217.615 458.251 206.462 446.576C198.422 438.273 191.937 429.712 191.937 427.895C191.937 425.82 195.05 421.15 198.681 416.998C205.425 410.253 205.425 409.734 201.275 403.507C198.94 399.875 197.125 395.204 197.125 392.869C197.125 390.794 194.272 386.383 190.64 383.27C187.009 380.156 184.156 376.783 184.156 375.745C184.156 372.373 195.309 362.773 198.422 363.811C199.718 364.33 202.312 371.075 204.128 378.859ZM265.34 371.335C264.043 373.151 260.153 383.529 256.781 394.167C253.409 404.804 250.297 414.663 249.518 415.961C247.184 419.852 244.072 409.474 244.072 397.539C243.812 387.94 243.034 386.383 237.068 384.826L230.325 383.01L239.143 379.118C243.812 376.783 248.222 374.189 249 373.41C250.815 371.594 265.6 366.405 266.897 367.443C267.415 367.702 266.637 369.519 265.34 371.335ZM286.09 376.524C291.278 381.713 291.796 386.383 287.387 386.642C285.572 386.642 281.162 390.275 277.79 394.426C272.343 401.431 272.084 402.988 274.937 409.993C278.05 417.258 277.79 418.036 264.043 432.566C256.262 440.609 247.703 450.727 245.109 454.619C238.365 465.257 237.328 461.365 243.553 447.354C246.665 440.609 249 433.084 249 430.749C249 428.414 250.037 425.301 251.334 424.004C252.631 422.447 256.522 412.069 260.153 400.393C271.565 364.848 271.825 364.589 277.012 368.481C279.347 370.297 283.497 373.929 286.09 376.524ZM220.468 372.632C220.468 374.448 222.543 377.043 225.137 378.599C229.287 381.194 229.287 381.194 225.137 383.788C221.247 386.124 220.468 390.275 220.468 405.323C220.209 427.376 217.356 424.522 212.947 398.058C211.131 387.94 209.315 377.562 208.797 374.708C208.018 370.556 209.056 369.519 213.984 369.519C217.615 369.519 220.468 370.816 220.468 372.632ZM178.969 376.005C178.969 377.302 182.6 384.307 186.75 391.572C196.087 407.399 196.087 409.215 189.084 421.409L183.637 430.749L198.681 447.095C207.24 456.176 216.318 463.959 219.172 464.478C223.062 465.257 224.359 467.592 224.359 474.337C224.359 479.267 225.915 483.678 227.731 484.197C229.287 484.975 230.843 487.569 230.843 490.423C230.843 494.834 228.768 495.353 210.353 495.353C190.9 495.353 189.862 495.094 188.306 489.126C187.009 484.197 184.675 482.64 175.337 481.343C169.112 480.305 162.369 477.71 160.812 475.635C157.44 471.743 158.478 456.176 163.147 436.976C164.703 431.268 166.519 423.485 167.556 419.593C169.112 412.588 167.037 402.469 164.703 405.064C162.109 407.658 155.625 450.208 155.625 464.478V479.007L139.544 480.824C130.725 481.602 123.203 482.121 122.684 481.602C120.35 479.267 130.465 422.966 134.875 412.847C141.878 397.28 151.734 384.567 161.85 378.34C170.409 373.151 178.969 371.854 178.969 376.005ZM296.725 407.658C300.096 415.182 306.321 430.23 310.212 440.868C319.29 465.516 320.846 467.592 329.146 465.516C334.075 464.219 373.5 446.317 387.246 439.052C388.284 438.533 393.99 442.684 399.956 448.392C410.331 458.77 410.59 459.289 405.662 462.921C403.068 464.997 395.546 468.629 389.062 471.224C382.578 473.559 371.684 478.748 364.421 482.64C347.303 491.98 325.256 496.65 315.918 493.018C311.768 491.461 305.543 484.975 300.875 476.672C293.093 463.44 292.834 462.143 293.872 438.273C295.168 411.809 294.39 407.139 289.721 407.139C287.646 407.139 286.35 414.404 286.09 428.674C285.312 453.322 280.903 488.088 278.05 490.423C277.012 491.461 267.675 492.758 257.04 493.537L237.847 495.094L239.662 482.899C241.737 468.11 250.297 454.878 270.009 436.198C286.09 420.89 287.647 417.517 281.422 412.328C276.753 408.436 276.493 401.431 280.643 397.28C286.35 391.572 290.5 394.167 296.725 407.658ZM459.093 398.837C459.093 400.134 455.721 404.285 451.312 408.436C444.309 414.923 440.418 424.782 445.606 422.187C446.643 421.669 450.534 419.593 454.684 417.517C459.612 415.182 462.724 414.923 464.54 416.739C467.653 419.852 456.24 434.641 448.718 436.976C445.865 438.014 443.531 440.09 443.531 442.165C443.531 445.019 445.346 445.279 451.831 443.203C462.724 440.09 467.653 440.09 465.578 443.463C464.799 444.76 456.24 448.133 446.643 450.987C415.518 460.067 417.334 460.327 407.478 445.798C402.29 438.273 396.843 433.084 393.99 433.084C386.468 433.084 388.543 424.522 399.696 409.993L404.624 404.026L407.218 411.29C409.293 416.739 409.293 418.815 406.699 420.631C404.365 421.928 405.143 422.706 409.293 422.706C412.665 422.706 418.371 419.852 422.262 416.22C429.006 409.993 452.609 396.761 457.018 396.761C458.056 396.761 459.093 397.799 459.093 398.837ZM404.624 483.937C404.624 495.353 404.365 495.612 397.621 494.834C391.137 494.056 390.359 493.018 391.137 486.272C391.915 479.007 397.621 472.002 402.549 472.002C403.587 472.002 404.624 477.451 404.624 483.937ZM233.437 477.191C233.437 478.489 232.4 479.786 230.843 479.786C229.547 479.786 228.25 478.489 228.25 477.191C228.25 475.635 229.547 474.597 230.843 474.597C232.4 474.597 233.437 475.635 233.437 477.191ZM305.025 494.575C304.246 495.353 300.875 495.353 297.503 494.315C292.315 493.018 291.537 491.721 292.575 485.753L293.872 478.748L300.096 486.013C303.468 490.164 305.803 494.056 305.025 494.575ZM386.468 486.272C386.468 490.423 384.912 492.758 382.578 492.758C378.687 492.758 377.131 484.715 380.503 481.602C383.874 477.97 386.468 480.045 386.468 486.272ZM179.487 487.569C182.859 487.569 187.269 508.844 184.675 511.439C180.265 515.85 169.89 512.736 169.112 506.25C168.594 503.137 169.372 500.542 170.928 500.542C172.484 500.542 173.003 498.726 172.225 496.65C171.187 494.315 167.297 492.758 162.887 492.758C156.403 492.758 155.625 493.537 156.662 497.947C157.44 500.801 158.737 505.212 159.515 508.066C160.812 511.958 159.775 512.477 154.328 511.439C147.065 510.142 146.287 507.807 151.475 503.137C157.181 498.726 153.55 492.758 144.99 492.758C136.95 492.758 136.172 494.315 139.803 503.915C141.878 509.363 141.359 510.661 136.69 511.958C126.315 514.812 119.312 513.774 119.312 509.363C119.312 506.25 121.128 505.731 126.834 507.028C132.022 508.066 134.615 507.547 135.653 504.693C138.506 497.169 124.759 488.607 120.609 495.353C119.572 496.91 117.756 497.429 116.459 496.391C115.162 495.612 108.159 494.315 101.156 493.796L88.4468 492.499L89.4843 502.877C90.2624 512.477 90.003 513.255 82.7405 514.812C78.5905 515.85 74.4405 517.666 73.6624 519.223C72.3655 521.298 73.9218 521.558 78.0718 520.52C81.4436 519.482 89.4843 518.704 95.9686 518.444C106.603 518.185 106.862 517.925 99.8592 516.109C95.7093 515.071 93.6342 514.034 95.7092 513.774C98.0436 513.515 98.8217 511.18 97.7842 505.991C97.0061 501.839 97.0061 497.947 97.7842 496.91C99.8592 494.834 111.531 508.844 111.531 513.515C111.531 516.888 117.497 517.406 149.919 517.406C170.928 517.147 189.603 516.109 191.418 515.071C193.493 513.774 194.531 510.92 193.753 508.326C192.715 504.174 196.606 503.655 240.181 502.099C266.378 501.061 288.684 500.801 289.981 501.32C291.018 502.099 325.515 503.396 366.756 504.434C407.737 505.212 443.271 506.769 445.865 507.547C448.978 508.326 448.978 507.807 445.087 504.693C441.456 501.839 441.196 500.542 443.531 500.542C446.384 500.542 473.618 525.968 471.543 526.747C460.131 529.86 22.825 531.417 14.7844 528.303C11.1531 527.006 11.4125 525.709 17.6375 519.223C21.5281 514.812 26.1968 509.623 28.0125 507.288C31.9031 502.358 46.9468 501.839 51.3562 506.25C53.6906 508.585 55.2468 508.585 57.5812 506.25C60.953 502.877 70.5499 502.099 73.403 504.693C74.1811 505.731 73.9218 508.585 72.3655 511.18C70.5499 514.552 70.8093 516.109 72.6249 516.109C74.1812 516.109 78.0718 510.661 80.9249 503.655C83.778 496.91 87.6686 490.683 89.2249 489.645C93.3749 486.791 111.012 487.05 112.828 490.164C113.865 491.721 116.459 491.202 120.09 488.607C124.759 485.234 130.465 484.975 151.734 486.013C166 486.791 178.45 487.569 179.487 487.569ZM370.906 492.758C370.906 496.91 369.09 497.947 363.125 497.947C353.787 497.947 353.009 494.575 361.309 490.683C369.609 486.791 370.906 487.051 370.906 492.758ZM136.69 541.017C135.912 541.795 133.578 542.054 131.762 541.276C129.687 540.498 130.465 539.719 133.319 539.719C136.172 539.46 137.728 540.238 136.69 541.017ZM460.131 544.908C461.687 546.465 461.687 548.281 459.871 550.097C458.056 551.914 449.496 551.914 431.599 550.097C413.703 548.281 391.656 548.281 360.531 550.097C335.631 551.654 260.412 552.692 193.234 552.173C126.056 551.914 60.4343 551.654 47.4656 551.914C23.0843 552.432 15.0437 549.06 33.2 545.946C38.6468 545.168 85.0749 544.13 136.172 544.13C187.528 543.871 235.512 543.092 242.515 542.314C263.006 539.979 457.537 542.054 460.131 544.908ZM117.497 562.032C115.681 562.551 112.05 562.551 109.715 562.032C107.122 561.254 108.678 560.735 112.828 560.735C117.237 560.735 119.053 561.254 117.497 562.032ZM466.874 562.811C466.874 564.108 462.465 565.146 457.278 565.146L447.421 564.627L456.499 562.811C461.428 561.773 465.837 560.735 466.356 560.475C466.615 560.475 466.874 561.254 466.874 562.811ZM369.09 564.627C367.275 565.146 363.643 565.146 361.309 564.627C358.715 563.848 360.271 563.329 364.421 563.329C368.831 563.329 370.646 563.848 369.09 564.627ZM277.012 572.41C271.565 572.929 262.747 572.929 257.559 572.41C252.112 571.891 256.522 571.372 267.156 571.372C277.79 571.372 282.2 571.891 277.012 572.41ZM447.421 575.783C448.199 577.08 448.199 579.675 447.162 581.232C445.606 584.086 441.196 579.675 440.937 575.005C440.937 572.41 445.606 572.67 447.421 575.783Z"/>
<path d="M63.4071 94.1004C52.0262 106.267 49.181 112.738 52.0262 120.245C55.6474 129.564 64.7004 135 76.8573 135C90.0488 135 97.5499 129.823 101.43 117.915C109.965 92.5472 81.7718 74.9448 63.4071 94.1004ZM92.1181 96.689C98.0672 104.972 97.2912 119.986 91.0834 126.717C84.0997 134.223 67.287 134.482 60.0446 127.234C53.0608 120.245 53.5782 112.738 61.5965 100.831C67.5456 92.2884 69.8736 90.9941 78.4092 90.9941C85.6516 90.9941 89.2728 92.5472 92.1181 96.689Z"/>
<path d="M403.759 58.6277C394.494 64.3867 395.009 67.2662 404.788 63.6014C411.994 60.7219 413.281 60.9837 418.942 67.7897C427.692 77.9988 426.92 88.4697 417.398 96.8464C412.509 100.773 407.876 102.867 405.045 101.82C396.81 98.9406 391.663 92.3963 391.663 84.8049C391.663 80.6166 390.634 77.7371 389.605 78.5224C385.487 81.1401 389.862 96.0611 396.296 101.035C405.303 108.364 414.053 107.579 422.803 98.6788C431.552 89.5168 432.324 79.8312 425.119 67.7897C418.17 55.7482 412.251 53.3923 403.759 58.6277Z"/>
<path d="M153 27.5864C153 31.7535 162.48 44.5153 166.43 45.5571C174.066 48.1615 174.856 54.6726 167.483 54.6726C159.583 54.6726 158.793 58.8398 165.903 60.6629C178.542 63.7882 181.439 44.2548 169.063 40.3482C162.48 38.2646 161.69 31.2326 168.273 31.2326C171.959 31.2326 172.223 30.7117 168.799 28.6281C164.586 25.7632 153 24.9819 153 27.5864Z"/>
<path d="M177.302 34.6556C178.06 36.7445 179.576 42.7501 180.587 47.7113C182.356 57.6336 186.651 60.5059 186.651 51.8891C186.651 48.4946 188.42 46.6668 191.199 46.6668C194.737 46.6668 196 44.5779 196 38.8334C196 34.3945 194.989 31 193.726 31C192.715 31 191.705 33.35 191.705 36.2223C191.705 39.0945 190.189 41.4446 188.167 41.4446C186.146 41.4446 183.619 39.0945 182.861 36.2223C182.103 33.35 180.082 31 178.566 31C177.302 31 176.544 32.5667 177.302 34.6556Z"/>
<path d="M205.015 40.9355C205.274 45.1111 206.312 51.6354 207.35 56.0719C209.166 63.6401 209.425 63.6401 211.241 57.8987C213.576 51.1135 215.392 50.8525 225.77 56.3329C235.628 61.2914 237.963 59.4646 230.958 52.4183C227.845 49.2866 225.51 45.1111 225.51 43.0233C225.51 40.6746 222.397 37.8039 218.765 36.499C207.869 32.3235 204.755 33.1064 205.015 40.9355ZM222.397 44.0672C223.175 46.155 221.359 47.1989 217.468 46.416C214.095 46.155 210.982 43.5453 210.463 41.1965C209.685 37.2819 210.722 37.021 215.392 38.8478C218.765 39.8917 221.878 42.2404 222.397 44.0672Z"/>
<path d="M192 57C192 59.75 193.25 62 194.5 62C196 62 197 59.75 197 57C197 54.25 196 52 194.5 52C193.25 52 192 54.25 192 57Z"/>
<path d="M194.141 77.6942C190.289 78.9928 186.693 79.2526 186.18 78.7331C185.666 77.9539 183.611 79.2526 181.814 81.5901C179.246 84.7067 179.246 85.4859 182.841 85.4859C186.18 85.4859 186.95 88.3429 186.95 99.2512C186.95 107.043 187.72 113.796 188.491 114.575C190.545 116.912 204.413 109.121 208.522 103.147C211.347 99.2512 211.604 96.3943 210.063 93.0179C208.522 90.4207 208.265 86.7845 209.036 84.447C211.09 79.2526 202.615 75.3567 194.141 77.6942ZM202.359 85.4859C202.359 86.7845 200.047 88.0831 197.479 88.0831C194.654 88.0831 191.573 86.7845 190.802 85.4859C189.775 83.9276 192.086 82.8887 195.682 82.8887C199.277 82.8887 202.359 83.9276 202.359 85.4859ZM202.102 98.2123C206.468 101.069 204.156 105.225 197.222 107.043C193.113 108.082 192.086 107.043 192.086 102.108C192.086 95.6151 195.938 94.3165 202.102 98.2123Z"/>
<path d="M218.306 86.6319C216.769 90.27 216 98.066 216 104.043C216.256 113.918 216.512 114.178 218.05 107.161C219.331 100.925 221.124 99.3653 225.993 99.3653C230.861 99.3653 232.654 100.925 233.935 107.161C235.473 113.918 235.729 113.398 235.985 103.263C236.498 83.7733 223.687 71.8195 218.306 86.6319ZM231.117 92.8687C231.117 94.168 228.811 94.4279 225.993 93.6483C220.868 92.3489 219.587 89.7503 222.662 86.8917C224.455 84.8128 231.117 89.7503 231.117 92.8687Z"/>
<path d="M265.723 93.2965L267.284 104.677L256.623 94.814C244.921 83.6861 239.461 83.939 248.562 95.0669C254.022 101.895 266.244 111 270.144 111C273.524 111 271.964 91.7791 268.064 86.721C264.163 82.1686 264.163 82.6745 265.723 93.2965Z"/>
<path d="M280 97.9065C280 103.823 281.055 109.483 282.373 110.255C283.955 111.026 285.01 110.512 285.01 108.711C285.01 106.91 287.91 108.197 291.601 111.541C300.566 119.773 303.467 115.657 294.766 106.91C288.174 100.222 287.91 99.45 292.129 95.3339C298.193 89.4171 294.238 86.33 287.91 91.9896C283.164 96.363 282.9 96.363 281.582 91.7324C280.791 89.1598 280.264 91.9896 280 97.9065Z"/>
<path d="M242 99.8924C242 103.784 242.308 105.243 242.769 102.811C243.077 100.622 243.077 97.217 242.769 95.5145C242.308 94.0552 242 95.7577 242 99.8924Z"/>
<path d="M233.197 147.417C230.314 149.256 233.46 150.044 243.684 150.044C263.871 150.044 269.901 154.773 269.901 170.01C269.901 190.764 254.171 199.433 232.673 190.764C225.332 187.874 227.168 193.653 234.508 196.806C246.83 202.585 255.22 200.746 266.755 189.45C278.815 178.154 281.174 166.595 273.834 156.087C267.542 146.892 242.111 141.638 233.197 147.417Z"/>
<path d="M299.422 153C298.649 154.5 298.907 156 300.453 156C301.742 156 303.804 154.5 304.578 153C305.351 151.2 305.093 150 303.547 150C302.258 150 300.196 151.2 299.422 153Z"/>
<path d="M187 157.154C187 160.514 204.144 163.874 205.909 160.773C206.665 159.739 202.631 157.929 197.085 156.379C189.269 154.311 187 154.569 187 157.154Z"/>
<path d="M223.044 160.286C223.327 167.597 230.7 185.497 230.983 179.951C231.267 171.127 227.864 156 225.312 156C223.894 156 222.76 158.017 223.044 160.286Z"/>
<path d="M242.549 170.43C241.517 171.756 242.033 175.736 243.323 179.184C245.645 185.286 246.42 184.49 249.258 174.144C249.774 172.022 251.322 171.756 253.645 173.083C258.031 176.001 255.193 185.817 249.258 187.408C245.387 188.469 245.387 188.735 249 189C251.322 189 255.709 187.143 258.805 184.49C263.966 180.246 264.224 179.715 260.353 173.879C256.225 168.042 245.129 165.92 242.549 170.43Z"/>
<path d="M299.344 171C298.612 172.5 299.1 174 300.319 174C301.781 174 303 172.5 303 171C303 169.2 302.512 168 302.025 168C301.294 168 300.075 169.2 299.344 171Z"/>
<path d="M183.467 175.287C179.2 176.055 176 178.105 176 180.154C176 182.716 177.6 183.484 180.8 182.716C183.2 181.947 188.533 180.666 192.8 179.642C196.8 178.873 200 177.08 200 175.799C200 173.494 196.8 173.494 183.467 175.287Z"/>
<path d="M288.871 194.639C289.681 195.907 293.193 198.443 296.435 199.964C302.379 203.007 302.379 203.007 297.246 197.428C292.113 192.104 285.629 189.822 288.871 194.639Z"/>
<path d="M189.131 201.944C177.405 207.755 177.66 207.49 180.974 210.924C183.013 213.037 186.327 212.244 194.229 206.698C209.269 196.398 206.465 193.493 189.131 201.944Z"/>
<path d="M276.396 210.699C274.677 213.217 278.851 217.748 283.271 218C286.218 218 285.236 213.72 281.552 210.699C278.851 208.434 277.623 208.434 276.396 210.699Z"/>
<path d="M210.491 219C208.734 221.133 208.483 223 209.989 223C211.243 223 213.753 221.133 215.509 219C217.266 216.867 217.517 215 216.011 215C214.757 215 212.247 216.867 210.491 219Z"/>
<path d="M76 399.548C76 406.272 76.3636 408.962 76.7273 405.465C77.0909 402.237 77.0909 396.858 76.7273 393.361C76.3636 390.134 76 392.823 76 399.548Z"/>
<path d="M74.4023 422.831C72.1701 432.168 71.0541 490 73.0072 490C75.5184 490 79.4246 420.238 77.4715 418.163C76.6344 417.385 75.2394 419.46 74.4023 422.831Z"/>
<path d="M235.131 250.42C231.663 251.224 230.596 253.637 231.13 258.731C232.197 268.649 242.066 269.99 247.934 260.875C254.869 250.42 249.801 246.667 235.131 250.42ZM243.4 259.803C241.799 264.628 235.931 265.432 235.931 260.875C235.931 258.462 237.798 256.586 240.199 256.586C242.6 256.586 243.933 257.926 243.4 259.803Z"/>
<path d="M269.72 262.844C266.207 267.2 268.465 275.143 272.981 273.862C276.493 272.581 278.751 259 275.239 259C273.984 259 271.476 260.794 269.72 262.844Z"/>
<path d="M254.02 266.288C251.058 269.107 255.008 275 259.945 275C263.154 275 264.389 273.463 263.895 270.644C263.154 266.032 256.736 263.213 254.02 266.288Z"/>
<path d="M382.268 583.5C383.076 584.75 384.961 586 386.577 586C387.923 586 389 584.75 389 583.5C389 582 387.115 581 384.692 581C382.537 581 381.46 582 382.268 583.5Z"/>
<path d="M46.9376 595.5C43.6885 599.14 42.1889 602 43.4386 602C45.438 601.74 55.9352 589 53.6858 589C53.1859 589 50.1867 591.86 46.9376 595.5Z"/>
<path d="M70 591.5C70 592.75 71.25 594 72.5 594C74 594 75 592.75 75 591.5C75 590 74 589 72.5 589C71.25 589 70 590 70 591.5Z"/>
<path d="M399 596.5C399 597.75 400.524 599 402.352 599C403.875 599 404.485 597.75 403.571 596.5C402.656 595 401.133 594 400.219 594C399.609 594 399 595 399 596.5Z"/>
<path d="M55.4295 604.5C54.5154 605.75 55.1248 607 56.6483 607C58.4765 607 60 605.75 60 604.5C60 603 59.3906 602 58.7812 602C57.8671 602 56.3436 603 55.4295 604.5Z"/>
</svg>
