<?xml version="1.0" encoding="UTF-8" standalone="no"?><!DOCTYPE svg PUBLIC "-//W3C//DTD SVG 1.1//EN" "http://www.w3.org/Graphics/SVG/1.1/DTD/svg11.dtd"><svg width="100%" height="100%" viewBox="0 0 448 184" version="1.1" xmlns="http://www.w3.org/2000/svg" xmlns:xlink="http://www.w3.org/1999/xlink" xml:space="preserve" xmlns:serif="http://www.serif.com/" style="fill-rule:evenodd;clip-rule:evenodd;stroke-linejoin:round;stroke-miterlimit:2;"><g><path d="M158.373,158.463l-0.69,1c-1.43,2 -2.78,4.11 -4.31,6.08c-5.73,7.37 -13.76,11.57 -23.11,13.83c-2.473,0.668 -4.994,1.149 -7.54,1.44c-3.11,0.27 -6.25,0.19 -9.38,0.19c-8.618,-0.01 -17.087,-2.264 -24.57,-6.54c-0.26,-0.14 -0.55,-0.24 -0.7,-0.31c-3.05,1.22 -5.94,2.47 -8.91,3.53c-6.581,2.194 -13.508,3.17 -20.44,2.88c-1.69,-0 -3.38,-0 -5.06,0.13c-4.254,0.209 -8.511,-0.364 -12.56,-1.69c-4.42,-1.42 -8.92,-2.69 -13.27,-4.29c-10,-3.68 -17.79,-9.73 -22.32,-18.94c-1.75,-3.56 -3.58,-7.12 -4.36,-11c-0.526,-2.363 -0.86,-4.764 -1,-7.18c-0.351,-4.893 -0.099,-9.809 0.75,-14.64c1.81,-8.81 5.36,-16.89 12.57,-23.27c2.43,-2.14 4.85,-4.3 7.37,-6.54c-0.27,-0.6 -0.56,-1.29 -0.88,-2c-2.605,-5.576 -3.954,-11.656 -3.95,-17.81c-0.07,-6.66 0.55,-13.25 2.93,-19.57c6.93,-18.37 20.12,-30.76 40.91,-35.67c7.385,-1.725 14.998,-2.259 22.55,-1.58c2.371,0.122 4.734,0.366 7.08,0.73c5.79,1.1 10.86,3.74 15.75,6.69c0.62,0.37 1.21,0.79 1.87,1.22c11.5,-6.6 24,-9.65 37.46,-9.94c13.46,-0.29 26.07,2.54 37.68,9.26l1.45,-1c5.628,-4.071 12.109,-6.807 18.95,-8c5.153,-0.709 10.367,-0.853 15.55,-0.43c5.224,0.434 10.375,1.502 15.34,3.18c4.65,1.44 8.75,4 12.86,6.38c0.42,0.25 0.82,0.51 1.34,0.84c0.46,-0.27 0.93,-0.53 1.37,-0.82c9.696,-6.231 20.843,-9.842 32.35,-10.48c8.319,-0.542 16.67,0.361 24.68,2.67c4.158,1.002 8.22,2.363 12.14,4.07c2.1,1 4.15,2.12 6.32,3.24c1.4,-0.73 2.85,-1.51 4.34,-2.23c7.431,-3.524 15.416,-5.736 23.6,-6.54c15.951,-1.866 32.113,0.551 46.82,7c9.24,4.08 17.14,9.72 23,17.53c3.279,4.287 5.66,9.191 7,14.42c0.31,1.179 0.712,2.333 1.2,3.45c1.087,2.436 1.682,5.063 1.75,7.73c0,3.86 0.06,7.71 0,11.56c-0.1,1.208 -0.283,2.407 -0.55,3.59c-0.33,2.16 -0.63,4.33 -1,6.49c-0.224,1.358 -0.558,2.696 -1,4c-1.215,3.613 -2.964,7.024 -5.19,10.12c-0.587,0.741 -1.131,1.516 -1.63,2.32c-3.49,5.76 -8.58,10.14 -14.3,14c-0.2,0.13 -0.39,0.28 -0.68,0.49c0.611,0.631 1.361,1.111 2.19,1.4c3.466,1.219 6.563,3.301 9,6.05c1.89,2.107 3.399,4.526 4.46,7.15c2.27,6.18 1.45,12.18 -1.4,18c-1.752,3.502 -3.716,6.895 -5.88,10.16c-6.32,9.68 -15.6,15.7 -27.48,18.38c-3.94,0.89 -7.86,2 -11.86,2.59c-7.267,0.987 -14.643,0.852 -21.87,-0.4c-4.728,-0.755 -9.354,-2.047 -13.79,-3.85c-2.11,-0.86 -4.14,-1.89 -6.48,-3c-0.823,0.417 -1.612,0.898 -2.36,1.44c-4.221,3.736 -9.428,6.184 -15,7.05c-4.816,0.798 -9.711,1.013 -14.58,0.64c-4.022,-0.374 -7.926,-1.569 -11.47,-3.51c-1,-0.53 -2,-1 -2.9,-1.6c-0.777,-0.514 -1.792,-0.514 -2.57,-0c-4.458,2.327 -9.247,3.956 -14.2,4.83c-4.03,0.566 -8.106,0.734 -12.17,0.5c-5.358,-0.169 -10.68,-0.934 -15.87,-2.28c-4.298,-1.097 -8.363,-2.961 -12,-5.5c-0.707,-0.614 -1.748,-0.672 -2.52,-0.14c-3.181,1.686 -6.61,2.854 -10.16,3.46c-2.88,0.56 -5.74,1.2 -8.63,1.68c-5.315,0.776 -10.724,0.654 -16,-0.36c-6.178,-1.069 -12.153,-3.093 -17.71,-6c-1.801,-0.895 -3.516,-1.956 -5.12,-3.17c-4.39,-3.44 -8.59,-7.07 -11.8,-11.54c-0.44,-0.48 -0.88,-0.94 -1.41,-1.57Zm-131.6,-56.65c-0.46,0.33 -0.77,0.53 -1,0.77c-4.157,3.662 -7.666,7.999 -10.38,12.83c-5.75,10.73 -6,21.56 0.73,31.88c9.56,14.68 24.37,21.48 42.63,21.18c16.07,-0.26 29.39,-6.57 39.17,-18.51c6.63,-8.09 10.74,-17.16 11.14,-27.4c0.37,-9.53 -3.09,-17.61 -11.4,-23.67c-1.91,-1.38 -3.87,-2.53 -6.44,-2.44c-0.747,-0.024 -1.491,-0.121 -2.22,-0.29c-9,-1.42 -16.77,-4.85 -22.43,-11.74c-2.317,-2.718 -3.8,-6.049 -4.27,-9.59c-0.82,-6 4.38,-11.65 8.7,-13.6c0.57,-0.25 1.163,-0.441 1.77,-0.57c0.924,-0.193 1.864,-0.29 2.808,-0.29c6.676,0 12.437,4.859 13.562,11.44c0.04,0.132 0.06,0.269 0.06,0.408c-0,0.679 -0.484,1.269 -1.15,1.402c-0.717,-2.544 -2.227,-4.793 -4.31,-6.42c-0.9,-0.709 -1.915,-1.26 -3,-1.63c-2.169,-0.638 -4.45,-0.805 -6.69,-0.49c-2.145,0.286 -4.017,1.611 -5,3.54l1.65,-0.53c1.188,-0.453 2.448,-0.685 3.719,-0.685c5.217,0 9.674,3.911 10.351,9.085c0.34,2.386 1.314,4.638 2.82,6.52c3.71,4.46 11.23,6 15.57,4.54c1.93,-0.66 3.8,-1.46 5.69,-2.22c3.519,-1.375 6.449,-3.936 8.28,-7.24c3.38,-6 4.61,-12.26 2.78,-18.9c-3,-10.87 -9.81,-19.29 -19.73,-25.63c-2.227,-1.419 -4.604,-2.587 -7.09,-3.48c-6.336,-2.189 -13.056,-3.05 -19.74,-2.53c-3.803,0.251 -7.589,0.718 -11.34,1.4c-2.646,0.345 -5.223,1.097 -7.64,2.23c-10.57,5.63 -18.77,13.3 -23.85,23.52c-10.88,21.93 1.19,43.73 21.14,52.64c3,1.33 6,2.52 9.11,3.67c4.219,1.427 7.876,4.159 10.44,7.8c1.171,1.613 1.757,3.579 1.66,5.57c-0.115,1.434 -0.315,2.86 -0.6,4.27c-0.35,1.92 -1.7,3.31 -3.12,4.61c-0.362,0.232 -0.761,0.401 -1.18,0.5c1.92,-4 3,-7.7 -0.5,-11.74c0.111,2.911 -0.786,5.773 -2.54,8.1c-2.392,3.474 -6.618,5.232 -10.77,4.48c-4.38,-0.8 -7.64,-3.74 -8.45,-7.63c-0.792,-4.06 1.199,-8.185 4.87,-10.09l1.6,-0.91c-0.69,-0.504 -1.415,-0.959 -2.17,-1.36c-1.461,-0.669 -2.964,-1.244 -4.5,-1.72c-3.672,-1.069 -7.159,-2.695 -10.34,-4.82c-2.9,-1.87 -5.94,-3.61 -8.4,-6.26Zm275.87,14.94c1.498,-0.606 3.107,-0.886 4.72,-0.82c1.806,-0.058 3.582,-0.48 5.22,-1.24c8.11,-3.64 14.86,-8.71 19.66,-15.83c0.86,-1.27 1.75,-2.53 2.61,-3.79c3.55,-5.2 5,-11 5.75,-17c0.264,-1.885 0.317,-3.793 0.16,-5.69c-0.363,-3.977 -1.254,-7.888 -2.65,-11.63c-2.708,-7.323 -6.961,-13.977 -12.47,-19.51c-2.848,-2.911 -6.134,-5.357 -9.74,-7.25c-5.156,-2.755 -10.809,-4.455 -16.63,-5c-5.462,-0.675 -10.972,-0.875 -16.47,-0.6c-7.27,0.479 -14.402,2.215 -21.08,5.13c-1.61,0.72 -3.13,1.62 -4.82,2.51c0.54,0.75 0.93,1.33 1.34,1.89c4.097,5.788 7.268,12.177 9.4,18.94c1.884,6.071 3.062,12.339 3.51,18.68c0.79,8.24 0.21,16.45 -0.52,24.67c-0.489,5.688 -1.392,11.333 -2.7,16.89c-2,8.59 -5.4,16.76 -9.13,24.82c-3.174,7.179 -7.43,13.83 -12.62,19.72c-0.68,0.75 -1.34,1.52 -1.94,2.32c-0.27,0.37 -0.62,0.88 -0.53,1.24c0.4,1.67 0.73,3.39 2.62,4.35c2.776,1.393 5.736,2.387 8.79,2.95c8.092,1.537 16.471,0.274 23.75,-3.58c5.894,-2.822 10.196,-8.177 11.68,-14.54c0.788,-3.483 1.343,-7.014 1.66,-10.57c0.197,-1.946 0.143,-3.908 -0.16,-5.84c-0.34,-2.171 -0.866,-4.309 -1.57,-6.39c-0.69,-2.14 -1.64,-4.22 -2.46,-6.33c-0.3,-0.77 -0.83,-1.55 -0.17,-2.42c1.06,-0 1.41,0.76 1.89,1.31c1.21,1.39 2.47,2.75 3.56,4.22c1.146,1.415 2.116,2.962 2.89,4.61c1.615,3.853 2.523,7.965 2.68,12.14c0.21,7.33 -0.13,14.64 -3.13,21.59c-0.327,0.576 -0.157,1.316 0.39,1.69c1.892,1.672 4.149,2.878 6.59,3.52c5.188,1.268 10.624,1.113 15.73,-0.45c2.643,-0.639 5.063,-1.983 7,-3.89c4.142,-4.312 6.219,-10.214 5.69,-16.17c-0.25,-4 -0.88,-7.9 -1.35,-11.84c-0.67,-5.48 -3.57,-10.24 -5.71,-15.25l-6.12,-7c-1.07,0.2 -1.87,0.32 -2.66,0.49c-3.354,0.79 -6.827,0.949 -10.24,0.47c-0.99,-0.19 -2.07,-0.2 -2.42,-1.52Zm26.36,-3.41c0.34,0.44 0.71,0.89 1,1.36c1.641,2.087 3.17,4.26 4.58,6.51c2.422,4.254 4.156,8.864 5.14,13.66c0.42,2 0.7,4.09 1.07,6.13c1.164,6.418 1.296,12.98 0.39,19.44c-0.247,0.92 0.167,1.898 1,2.36c2.08,1.28 4.19,2.52 6.31,3.73c2.181,1.176 4.518,2.035 6.94,2.55c6.17,1.47 12.41,1.33 18.66,0.84c4.239,-0.281 8.415,-1.17 12.4,-2.64c7.762,-2.96 14.662,-7.815 20.07,-14.12c1.283,-1.612 2.408,-3.344 3.36,-5.17c1.472,-2.6 1.931,-5.653 1.29,-8.57c-0.607,-4.032 -2.947,-7.603 -6.4,-9.77c-3.31,-1.945 -6.908,-3.353 -10.66,-4.17c-2.25,-0.557 -4.606,-0.522 -6.84,0.1c-2.57,0.67 -5.24,1.06 -7.86,1.59c-4.441,0.81 -8.991,0.83 -13.44,0.06c-4.253,-0.47 -8.226,-2.363 -11.27,-5.37c-1.786,-2.058 -3.455,-4.215 -5,-6.46c-0.152,-0.319 -0.266,-0.655 -0.34,-1c0.51,0.16 0.79,0.23 1.05,0.34c6.435,2.572 13.35,3.725 20.27,3.38c6.313,-0.156 12.561,-1.314 18.51,-3.43c7.68,-2.77 14.37,-6.73 19.08,-13.14c0.56,-0.76 1.17,-1.49 1.76,-2.24c6.683,-8.309 9.605,-19.04 8.06,-29.59c-1.59,-12 -7.17,-22.2 -16.85,-30.42c-4.347,-3.823 -9.462,-6.673 -15,-8.36c-7.375,-2.172 -14.995,-3.402 -22.68,-3.66c-8.875,-0.456 -17.74,1.114 -25.92,4.59c-0.6,0.27 -1.17,0.58 -1.72,0.85c1.76,2.09 3.51,4.09 5.05,6.09c1.54,2 2.93,4.29 4.29,6.49c4.533,7.145 7.075,15.373 7.36,23.83c-0.018,4.899 -0.483,9.786 -1.39,14.6c-0.556,4.756 -2.273,9.303 -5,13.24c-0.77,1.05 -1.46,2.15 -2.12,3.26c-1.781,2.924 -4.168,5.434 -7,7.36l-8.15,5.75Zm-164.5,13.2c0.399,4.325 0.375,8.679 -0.07,13c-0.01,0.743 0.115,1.482 0.37,2.18c2,6.62 6.33,12 11.3,16.9c1.882,1.904 4.044,3.509 6.41,4.76c2.39,1.25 4.91,2.28 7.31,3.51c2.457,1.209 5.114,1.958 7.84,2.21c4.619,0.363 9.266,0.117 13.82,-0.73c10,-1.377 19.272,-6.014 26.37,-13.19c4.329,-4.539 7.886,-9.754 10.53,-15.44c3.72,-7.49 5.49,-15.53 8,-23.34c1.93,-5.92 2.49,-12.1 3.31,-18.19c0.84,-5.767 1.042,-11.609 0.6,-17.42c-0.35,-4.18 -0.32,-8.44 -1.16,-12.54c-1.126,-4.846 -2.528,-9.624 -4.2,-14.31c-0.715,-2.224 -1.685,-4.359 -2.89,-6.36c-4.743,-7.778 -11.78,-13.899 -20.14,-17.52c-1.528,-0.676 -3.114,-1.212 -4.74,-1.6c-6.277,-1.458 -12.778,-1.679 -19.14,-0.65c-4.558,0.603 -8.933,2.178 -12.83,4.62c-1.082,0.5 -1.941,1.384 -2.41,2.48c0.77,1 1.62,2 2.37,3c1.199,1.526 2.269,3.148 3.2,4.85c1.25,2.57 2.23,5.25 3.22,7.91c0.503,1.368 0.887,2.776 1.15,4.21c0.48,2.61 0.79,5.24 1.25,7.86c2.22,12.79 -0.57,24.89 -6.42,36.43c-4.9,9.73 -12.83,17.07 -22.83,22.54c-3.19,1.76 -6.64,3.16 -10.22,4.83Zm-35.46,-9.61c1.28,0.32 2.07,0.49 2.85,0.71c8.45,2.433 17.389,2.637 25.94,0.59c5.38,-1.26 10.54,-2.94 14.79,-6.41c2,-1.61 4,-3.17 5.88,-4.83c4.583,-3.883 8.138,-8.836 10.35,-14.42c3.098,-7.693 4.421,-15.986 3.87,-24.26c-0.297,-6.049 -2.054,-11.937 -5.12,-17.16c-0.52,-0.86 -0.88,-1.79 -1.42,-2.63c-1.62,-2.52 -3.29,-5 -4.94,-7.51c-11.36,-10.2 -24.52,-16.04 -40.78,-14.35c-5.948,0.576 -11.754,2.162 -17.17,4.69c-1.7,0.81 -3.24,1.87 -4.89,2.83c1.75,2.23 3.18,4.41 5,6.29c3.188,3.328 5.482,7.408 6.67,11.86c2.61,9.36 2.21,18.52 -2.71,27.37c-3.346,6.226 -8.523,11.278 -14.83,14.47c-0.52,0.26 -1,0.59 -1.46,0.88c8.021,9.881 11.741,22.583 10.32,35.23c-0.217,3.31 -1.149,6.534 -2.73,9.45c-1,1.9 -1.88,3.89 -2.87,5.82c-0.775,1.64 -1.654,3.23 -2.63,4.76c-3.336,5.08 -7.253,9.755 -11.67,13.93c-0.38,0.34 -0.71,0.74 -1.14,1.2c2.719,1.508 5.738,2.396 8.84,2.6c8.12,0.691 16.291,-0.522 23.86,-3.54c9.94,-3.9 15.91,-10.9 18.16,-20.59c1.004,-4.686 1.197,-9.509 0.57,-14.26c-0.09,-0.85 -0.25,-1.69 -0.38,-2.59c-2.05,-0.22 -4,-0.36 -5.88,-0.64c-4.163,-0.726 -8.161,-2.2 -11.8,-4.35c-1.362,-0.88 -2.6,-1.94 -3.68,-3.15c-0.424,-0.614 -0.761,-1.284 -1,-1.99Z" style="fill:#000050;fill-rule:nonzero;"/><path d="M26.773,101.813c2.46,2.65 5.5,4.39 8.4,6.29c3.181,2.125 6.668,3.751 10.34,4.82c1.536,0.476 3.039,1.051 4.5,1.72c0.755,0.401 1.48,0.856 2.17,1.36l-1.6,0.91c-3.667,1.908 -5.653,6.033 -4.86,10.09c0.81,3.89 4.07,6.83 8.45,7.63c4.152,0.752 8.378,-1.006 10.77,-4.48c1.754,-2.327 2.651,-5.189 2.54,-8.1c3.5,4 2.42,7.78 0.5,11.74c0.419,-0.099 0.818,-0.268 1.18,-0.5c1.42,-1.3 2.77,-2.69 3.12,-4.61c0.285,-1.41 0.485,-2.836 0.6,-4.27c0.097,-1.991 -0.489,-3.957 -1.66,-5.57c-2.559,-3.652 -6.217,-6.395 -10.44,-7.83c-3.07,-1.15 -6.13,-2.34 -9.11,-3.67c-19.95,-8.91 -32,-30.71 -21.14,-52.64c5.08,-10.22 13.28,-17.94 23.77,-23.54c2.417,-1.133 4.994,-1.885 7.64,-2.23c3.751,-0.682 7.537,-1.149 11.34,-1.4c6.684,-0.52 13.404,0.341 19.74,2.53c2.486,0.893 4.863,2.061 7.09,3.48c9.92,6.34 16.74,14.76 19.73,25.63c1.83,6.64 0.6,12.93 -2.78,18.9c-1.831,3.304 -4.761,5.865 -8.28,7.24c-1.89,0.76 -3.76,1.56 -5.69,2.22c-4.34,1.48 -11.86,-0.08 -15.57,-4.54c-1.506,-1.882 -2.48,-4.134 -2.82,-6.52c-0.677,-5.174 -5.134,-9.085 -10.351,-9.085c-1.271,0 -2.531,0.232 -3.719,0.685l-1.65,0.53c0.983,-1.929 2.855,-3.254 5,-3.54c2.24,-0.315 4.521,-0.148 6.69,0.49c1.085,0.37 2.1,0.921 3,1.63c2.083,1.627 3.593,3.876 4.31,6.42c0.666,-0.133 1.15,-0.723 1.15,-1.402c-0,-0.139 -0.02,-0.276 -0.06,-0.408c-1.135,-6.57 -6.891,-11.416 -13.558,-11.416c-0.938,-0 -1.873,0.096 -2.792,0.286c-0.607,0.129 -1.2,0.32 -1.77,0.57c-4.32,2 -9.52,7.55 -8.7,13.6c0.47,3.541 1.953,6.872 4.27,9.59c5.66,6.89 13.41,10.32 22.43,11.74c0.729,0.169 1.473,0.266 2.22,0.29c2.57,-0.09 4.53,1.06 6.44,2.44c8.31,6.06 11.77,14.14 11.4,23.67c-0.4,10.24 -4.51,19.31 -11.14,27.4c-9.78,11.94 -23.1,18.25 -39.17,18.51c-18.26,0.3 -33.07,-6.5 -42.63,-21.18c-6.73,-10.32 -6.48,-21.15 -0.73,-31.88c2.714,-4.831 6.223,-9.168 10.38,-12.83c0.28,-0.24 0.59,-0.44 1.05,-0.77Z" style="fill:#000050;fill-rule:nonzero;"/><path d="M302.643,116.753c0.35,1.32 1.43,1.33 2.38,1.48c3.413,0.479 6.886,0.32 10.24,-0.47c0.79,-0.17 1.59,-0.29 2.66,-0.49l6.12,7c2.14,5 5,9.77 5.71,15.25c0.47,3.94 1.1,7.88 1.35,11.84c0.529,5.956 -1.548,11.858 -5.69,16.17c-1.937,1.907 -4.357,3.251 -7,3.89c-5.106,1.563 -10.542,1.718 -15.73,0.45c-2.434,-0.645 -4.684,-1.851 -6.57,-3.52c-0.547,-0.374 -0.717,-1.114 -0.39,-1.69c3,-6.95 3.34,-14.26 3.13,-21.59c-0.157,-4.175 -1.065,-8.287 -2.68,-12.14c-0.774,-1.648 -1.744,-3.195 -2.89,-4.61c-1.09,-1.47 -2.35,-2.83 -3.56,-4.22c-0.48,-0.55 -0.83,-1.32 -1.89,-1.31c-0.66,0.87 -0.13,1.65 0.17,2.42c0.82,2.11 1.77,4.19 2.46,6.33c0.704,2.081 1.23,4.219 1.57,6.39c0.303,1.932 0.357,3.894 0.16,5.84c-0.334,3.557 -0.905,7.088 -1.71,10.57c-1.484,6.363 -5.786,11.718 -11.68,14.54c-7.279,3.854 -15.658,5.117 -23.75,3.58c-3.054,-0.563 -6.014,-1.557 -8.79,-2.95c-1.89,-1 -2.22,-2.68 -2.62,-4.35c-0.09,-0.36 0.26,-0.87 0.53,-1.24c0.6,-0.8 1.26,-1.57 1.94,-2.32c5.183,-5.879 9.435,-12.516 12.61,-19.68c3.73,-8.06 7.11,-16.23 9.13,-24.82c1.308,-5.557 2.211,-11.202 2.7,-16.89c0.73,-8.22 1.31,-16.43 0.52,-24.67c-0.448,-6.341 -1.626,-12.609 -3.51,-18.68c-2.132,-6.763 -5.303,-13.152 -9.4,-18.94c-0.41,-0.56 -0.8,-1.14 -1.34,-1.89c1.69,-0.89 3.21,-1.79 4.82,-2.51c6.695,-2.914 13.845,-4.643 21.13,-5.11c5.498,-0.275 11.008,-0.075 16.47,0.6c5.821,0.545 11.474,2.245 16.63,5c3.606,1.893 6.892,4.339 9.74,7.25c5.509,5.533 9.762,12.187 12.47,19.51c1.391,3.736 2.279,7.64 2.64,11.61c0.157,1.897 0.104,3.805 -0.16,5.69c-0.78,6 -2.2,11.8 -5.75,17c-0.86,1.26 -1.75,2.52 -2.61,3.79c-4.8,7.12 -11.55,12.19 -19.66,15.83c-1.638,0.76 -3.414,1.182 -5.22,1.24c-1.6,-0.06 -3.195,0.219 -4.68,0.82Zm11.55,-44.3l0.47,-0.08c0.183,-0.309 0.308,-0.647 0.37,-1c-0.015,-1.031 -0.122,-2.058 -0.32,-3.07c-1.31,-6.19 -8.33,-9.24 -14.32,-6.2c-1.236,0.666 -2.428,1.411 -3.57,2.23c-3.615,2.354 -5.912,6.284 -6.19,10.59c-0.23,2.63 -0.35,5.28 -0.52,7.91c-0.089,3.547 0.731,7.058 2.38,10.2c1.38,2.92 4.24,3.77 7.29,2.26c1.029,-0.548 1.986,-1.22 2.85,-2c4.13,-3.48 6.51,-8 8.33,-12.73c2.38,-6.24 -1.93,-12.34 -9.09,-13l-1.3,-0.17c1.95,-1.299 4.363,-1.706 6.63,-1.12c3.68,0.7 6.04,2.74 6.99,6.18Z" style="fill:#000050;fill-rule:nonzero;"/><path d="M329.003,113.343l8.15,-5.71c2.832,-1.926 5.219,-4.436 7,-7.36c0.66,-1.11 1.35,-2.21 2.12,-3.26c2.727,-3.937 4.444,-8.484 5,-13.24c0.907,-4.814 1.372,-9.701 1.39,-14.6c-0.285,-8.457 -2.827,-16.685 -7.36,-23.83c-1.36,-2.2 -2.73,-4.4 -4.29,-6.49c-1.56,-2.09 -3.31,-4 -5.09,-6.13c0.55,-0.27 1.12,-0.58 1.72,-0.85c8.18,-3.476 17.045,-5.046 25.92,-4.59c7.685,0.258 15.305,1.488 22.68,3.66c5.538,1.687 10.653,4.537 15,8.36c9.68,8.22 15.26,18.41 16.85,30.42c1.545,10.55 -1.377,21.281 -8.06,29.59c-0.59,0.75 -1.2,1.48 -1.76,2.24c-4.71,6.41 -11.4,10.37 -19.08,13.14c-5.936,2.112 -12.17,3.27 -18.47,3.43c-6.895,0.358 -13.788,-0.771 -20.21,-3.31c-0.26,-0.11 -0.54,-0.18 -1.05,-0.34c0.074,0.345 0.188,0.681 0.34,1c1.545,2.245 3.214,4.402 5,6.46c3.044,3.007 7.017,4.9 11.27,5.37c4.449,0.77 8.999,0.75 13.44,-0.06c2.62,-0.53 5.29,-0.92 7.86,-1.59c2.234,-0.622 4.59,-0.657 6.84,-0.1c3.752,0.817 7.35,2.225 10.66,4.17c3.453,2.167 5.793,5.738 6.4,9.77c0.641,2.917 0.182,5.97 -1.29,8.57c-0.952,1.826 -2.077,3.558 -3.36,5.17c-5.408,6.305 -12.308,11.16 -20.07,14.12c-3.985,1.47 -8.161,2.359 -12.4,2.64c-6.25,0.49 -12.49,0.63 -18.66,-0.84c-2.422,-0.515 -4.759,-1.374 -6.94,-2.55c-2.12,-1.21 -4.23,-2.45 -6.31,-3.73c-0.833,-0.462 -1.247,-1.44 -1,-2.36c0.906,-6.46 0.774,-13.022 -0.39,-19.44c-0.37,-2 -0.65,-4.1 -1.07,-6.13c-0.984,-4.796 -2.718,-9.406 -5.14,-13.66c-1.41,-2.25 -2.939,-4.423 -4.58,-6.51c-0.34,-0.54 -0.72,-0.96 -1.06,-1.43Zm52.09,-46c1.373,-1.305 3.23,-1.979 5.12,-1.86c3.657,-0.093 7.014,2.078 8.43,5.45c0.611,-0.656 0.71,-1.647 0.24,-2.41c-0.256,-0.65 -0.55,-1.284 -0.88,-1.9c-1.837,-3.524 -5.42,-5.814 -9.39,-6c-5.377,-0.427 -10.413,2.823 -12.24,7.9c-2.216,6.399 -2.878,13.234 -1.93,19.94c0.153,1.32 0.489,2.613 1,3.84c1.5,3.33 4.52,3.95 7.69,1.87c3.986,-2.78 7.438,-6.256 10.19,-10.26c1.398,-1.775 2.159,-3.97 2.159,-6.23c-0,-4.896 -3.571,-9.117 -8.399,-9.93l-1.99,-0.41Z" style="fill:#000050;fill-rule:nonzero;"/><path d="M164.503,126.543c3.58,-1.67 7,-3.07 10.24,-4.83c10,-5.47 17.91,-12.81 22.84,-22.54c5.85,-11.54 8.64,-23.64 6.42,-36.43c-0.46,-2.62 -0.77,-5.25 -1.25,-7.86c-0.275,-1.421 -0.669,-2.816 -1.18,-4.17c-1,-2.66 -2,-5.34 -3.22,-7.91c-0.931,-1.702 -2.001,-3.324 -3.2,-4.85c-0.75,-1.06 -1.6,-2 -2.37,-3c0.469,-1.096 1.328,-1.98 2.41,-2.48c3.893,-2.456 8.269,-4.045 12.83,-4.66c6.375,-1.052 12.894,-0.848 19.19,0.6c1.626,0.388 3.212,0.924 4.74,1.6c8.36,3.621 15.397,9.742 20.14,17.52c1.205,2.001 2.175,4.136 2.89,6.36c1.672,4.686 3.074,9.464 4.2,14.31c0.84,4.1 0.81,8.36 1.16,12.54c0.442,5.811 0.24,11.653 -0.6,17.42c-0.82,6.09 -1.38,12.27 -3.31,18.19c-2.56,7.81 -4.33,15.85 -8,23.34c-2.644,5.686 -6.201,10.901 -10.53,15.44c-7.098,7.176 -16.37,11.813 -26.37,13.19c-4.554,0.847 -9.201,1.093 -13.82,0.73c-2.726,-0.252 -5.383,-1.001 -7.84,-2.21c-2.4,-1.23 -4.92,-2.26 -7.31,-3.51c-2.366,-1.251 -4.528,-2.856 -6.41,-4.76c-5,-4.95 -9.28,-10.28 -11.3,-16.9c-0.255,-0.698 -0.38,-1.437 -0.37,-2.18c0.425,-4.306 0.432,-8.643 0.02,-12.95Zm76.71,-51.37l0.33,0.07c0.111,-0.535 0.188,-1.076 0.23,-1.62l0,-5c0.055,-2.967 -1.214,-5.81 -3.46,-7.75c-3.237,-2.984 -8.212,-3.175 -11.67,-0.45c-2.422,1.848 -4.429,4.185 -5.89,6.86c-1.202,2.198 -2.257,4.473 -3.16,6.81c-1.758,5.137 -2.985,10.442 -3.66,15.83c-0.52,3.94 -0.68,7.92 -1.06,11.87c-0.21,2.601 0.183,5.216 1.15,7.64c0.74,2 1.92,2.71 4.16,2.12c3.6,-1 6.57,-2.7 8.21,-6c2.34,-4.71 4.65,-9.44 7.23,-14c2.045,-3.731 3.684,-7.671 4.89,-11.75c1.72,-5.57 -2,-11 -8.22,-12c-1.607,-0.117 -3.222,-0.117 -4.83,-0c1.88,-1.78 3.83,-2.78 6.29,-2.46c1.401,0.265 2.776,0.649 4.11,1.15c2.79,0.88 4.06,3 4.74,5.39c0.257,1.086 0.461,2.184 0.61,3.29Z" style="fill:#000050;fill-rule:nonzero;"/><path d="M129.043,116.933c0.239,0.71 0.575,1.383 1,2c1.08,1.21 2.318,2.27 3.68,3.15c3.633,2.148 7.624,3.622 11.78,4.35c1.9,0.28 3.83,0.42 5.88,0.64c0.13,0.9 0.29,1.74 0.38,2.59c0.627,4.751 0.434,9.574 -0.57,14.26c-2.25,9.69 -8.22,16.69 -18.16,20.59c-7.569,3.018 -15.74,4.231 -23.86,3.54c-3.102,-0.204 -6.121,-1.092 -8.84,-2.6c0.43,-0.46 0.76,-0.86 1.14,-1.2c4.417,-4.175 8.334,-8.85 11.67,-13.93c0.976,-1.53 1.855,-3.12 2.63,-4.76c1,-1.93 1.83,-3.92 2.87,-5.82c1.581,-2.916 2.513,-6.14 2.73,-9.45c1.421,-12.647 -2.299,-25.349 -10.32,-35.23c0.47,-0.29 0.94,-0.62 1.46,-0.88c6.307,-3.192 11.484,-8.244 14.83,-14.47c4.92,-8.85 5.32,-18 2.71,-27.37c-1.188,-4.452 -3.482,-8.532 -6.67,-11.86c-1.81,-1.88 -3.24,-4.06 -5,-6.29c1.65,-1 3.19,-2 4.89,-2.83c5.416,-2.528 11.222,-4.114 17.17,-4.69c16.28,-1.7 29.44,4.14 40.78,14.34c1.65,2.5 3.32,5 4.94,7.51c0.54,0.84 0.9,1.77 1.42,2.63c3.073,5.221 4.837,11.109 5.14,17.16c0.557,8.273 -0.759,16.566 -3.85,24.26c-2.212,5.584 -5.767,10.537 -10.35,14.42c-1.91,1.66 -3.92,3.22 -5.88,4.83c-4.25,3.47 -9.41,5.15 -14.79,6.41c-8.551,2.047 -17.49,1.843 -25.94,-0.59c-0.8,-0.22 -1.59,-0.39 -2.87,-0.71Zm39.95,-39.12l0.23,0.09c0.185,-0.321 0.346,-0.655 0.48,-1c1.202,-3.756 0.624,-7.863 -1.57,-11.14c-2.06,-3.14 -6.67,-4.81 -10.57,-3.87c-3.106,0.755 -5.88,2.513 -7.89,5c-2.648,3.077 -4.408,6.818 -5.09,10.82c-0.32,2.279 -0.48,4.578 -0.48,6.88c0.011,2.104 0.562,4.17 1.6,6c1.049,2.164 3.439,3.363 5.8,2.91c2.148,-0.279 4.182,-1.129 5.89,-2.46c2.857,-2.261 5.253,-5.048 7.06,-8.21c1.068,-1.737 1.597,-3.753 1.52,-5.79c-0.09,-4.55 -3.41,-8.3 -8.25,-9.25c-0.54,-0.1 -1.08,-0.22 -1.86,-0.39c2.08,-1.18 4,-1.85 6.18,-0.9c0.62,0.27 1.28,0.48 1.87,0.8c2.46,1.29 4.17,3.12 4.57,5.77c0.24,1.55 0.34,3.16 0.51,4.74Z" style="fill:#000050;fill-rule:nonzero;"/><path d="M314.193,72.453c-1,-3.44 -3.31,-5.48 -7,-6.22c-2.267,-0.586 -4.68,-0.179 -6.63,1.12l1.3,0.17c7.16,0.7 11.47,6.8 9.09,13c-1.82,4.75 -4.2,9.25 -8.33,12.73c-0.864,0.78 -1.821,1.452 -2.85,2c-3.05,1.51 -5.91,0.66 -7.29,-2.26c-1.649,-3.142 -2.469,-6.653 -2.38,-10.2c0.17,-2.63 0.29,-5.28 0.52,-7.91c0.278,-4.306 2.575,-8.236 6.19,-10.59c1.142,-0.819 2.334,-1.564 3.57,-2.23c6,-3 13,-0 14.32,6.2c0.198,1.012 0.305,2.039 0.32,3.07c-0.062,0.353 -0.187,0.691 -0.37,1l-0.46,0.12Z" style="fill:#000050;fill-rule:nonzero;"/><path d="M381.093,67.383l2,0.37c4.828,0.813 8.399,5.034 8.399,9.93c-0,2.26 -0.761,4.455 -2.159,6.23c-2.751,4.008 -6.203,7.487 -10.19,10.27c-3.17,2.08 -6.19,1.46 -7.69,-1.87c-0.511,-1.227 -0.847,-2.52 -1,-3.84c-0.948,-6.706 -0.286,-13.541 1.93,-19.94c1.827,-5.077 6.863,-8.327 12.24,-7.9c3.97,0.186 7.553,2.476 9.39,6c0.33,0.616 0.624,1.25 0.88,1.9c0.47,0.763 0.371,1.754 -0.24,2.41c-1.416,-3.372 -4.773,-5.543 -8.43,-5.45c-1.898,-0.114 -3.759,0.572 -5.13,1.89Z" style="fill:#000050;fill-rule:nonzero;"/><path d="M241.213,75.173c-0.136,-1.143 -0.33,-2.277 -0.58,-3.4c-0.68,-2.44 -2,-4.51 -4.74,-5.39c-1.334,-0.501 -2.709,-0.885 -4.11,-1.15c-2.46,-0.32 -4.41,0.68 -6.29,2.46c1.608,-0.117 3.223,-0.117 4.83,-0c6.19,1 9.94,6.45 8.22,12c-1.206,4.079 -2.845,8.019 -4.89,11.75c-2.58,4.59 -4.89,9.32 -7.23,14c-1.64,3.33 -4.61,5.07 -8.21,6c-2.24,0.59 -3.42,-0.12 -4.16,-2.12c-0.967,-2.424 -1.36,-5.039 -1.15,-7.64c0.38,-3.95 0.54,-7.93 1.06,-11.87c0.675,-5.388 1.902,-10.693 3.66,-15.83c0.903,-2.337 1.958,-4.612 3.16,-6.81c1.461,-2.675 3.468,-5.012 5.89,-6.86c3.458,-2.725 8.433,-2.534 11.67,0.45c2.246,1.94 3.515,4.783 3.46,7.75l0,5c-0.042,0.544 -0.119,1.085 -0.23,1.62l-0.36,0.04Z" style="fill:#000050;fill-rule:nonzero;"/><path d="M168.993,77.813c-0.17,-1.6 -0.27,-3.21 -0.51,-4.8c-0.4,-2.65 -2.11,-4.48 -4.57,-5.77c-0.59,-0.32 -1.25,-0.53 -1.87,-0.8c-2.19,-1 -4.1,-0.28 -6.18,0.9c0.78,0.17 1.32,0.29 1.86,0.39c4.84,1 8.16,4.7 8.25,9.25c0.077,2.037 -0.452,4.053 -1.52,5.79c-1.807,3.162 -4.203,5.949 -7.06,8.21c-1.708,1.331 -3.742,2.181 -5.89,2.46c-2.361,0.453 -4.751,-0.746 -5.8,-2.91c-1.038,-1.83 -1.589,-3.896 -1.6,-6c0,-2.302 0.16,-4.601 0.48,-6.88c0.702,-3.997 2.479,-7.727 5.14,-10.79c2.01,-2.487 4.784,-4.245 7.89,-5c3.9,-0.94 8.51,0.73 10.57,3.87c2.187,3.285 2.754,7.395 1.54,11.15c-0.134,0.345 -0.295,0.679 -0.48,1l-0.25,-0.07Z" style="fill:#000050;fill-rule:nonzero;"/><path d="M173.653,144.423l-0.7,1c-1.43,2 -2.77,4.12 -4.3,6.08c-5.74,7.37 -13.76,11.57 -23.12,13.83c-2.47,0.659 -4.988,1.13 -7.53,1.41c-3.1,0.27 -6.24,0.19 -9.37,0.19c-8.617,-0.01 -17.085,-2.261 -24.57,-6.53c-0.226,-0.117 -0.46,-0.221 -0.7,-0.31c-3,1.21 -5.94,2.46 -8.91,3.52c-6.587,2.216 -13.525,3.205 -20.47,2.92c-1.68,-0 -3.37,-0 -5.06,0.13c-4.25,0.207 -8.503,-0.362 -12.55,-1.68c-4.43,-1.43 -8.92,-2.69 -13.27,-4.29c-10,-3.69 -17.8,-9.73 -22.32,-18.94c-1.75,-3.57 -3.58,-7.13 -4.37,-11c-0.521,-2.364 -0.856,-4.764 -1,-7.18c-0.342,-4.893 -0.087,-9.809 0.76,-14.64c1.81,-8.81 5.36,-16.89 12.57,-23.26c2.43,-2.15 4.85,-4.31 7.36,-6.55c-0.27,-0.6 -0.56,-1.29 -0.88,-2c-2.599,-5.574 -3.944,-11.65 -3.94,-17.8c-0.08,-6.66 0.54,-13.25 2.93,-19.58c6.93,-18.37 20.11,-30.75 40.9,-35.66c7.403,-1.739 15.037,-2.276 22.61,-1.59c2.368,0.122 4.728,0.365 7.07,0.73c5.8,1.11 10.86,3.74 15.75,6.69c0.62,0.37 1.22,0.79 1.88,1.23c11.49,-6.61 24.05,-9.66 37.46,-9.95c13.41,-0.29 26.07,2.55 37.68,9.26l1.44,-1c5.627,-4.073 12.108,-6.809 18.95,-8c5.157,-0.704 10.373,-0.848 15.56,-0.43c5.223,0.44 10.373,1.508 15.34,3.18c4.65,1.44 8.74,3.95 12.85,6.38c0.42,0.25 0.82,0.52 1.35,0.85c0.45,-0.28 0.92,-0.54 1.37,-0.83c9.683,-6.215 20.813,-9.816 32.3,-10.45c8.319,-0.542 16.669,0.358 24.68,2.66c4.161,1 8.227,2.362 12.15,4.07c2.1,1 4.14,2.12 6.31,3.24c1.41,-0.72 2.86,-1.51 4.35,-2.22c7.431,-3.528 15.415,-5.744 23.6,-6.55c15.951,-1.865 32.113,0.552 46.82,7c9.24,4.08 17.14,9.72 23,17.53c3.284,4.288 5.665,9.197 7,14.43c0.304,1.177 0.702,2.327 1.19,3.44c1.093,2.438 1.688,5.069 1.75,7.74c0,3.85 0.07,7.7 0,11.56c-0.101,1.204 -0.281,2.4 -0.54,3.58c-0.34,2.17 -0.63,4.33 -1,6.49c-0.218,1.359 -0.553,2.697 -1,4c-1.209,3.616 -2.958,7.028 -5.19,10.12c-0.57,0.75 -1.14,1.52 -1.63,2.32c-3.49,5.76 -8.58,10.14 -14.29,14c-0.2,0.13 -0.39,0.28 -0.69,0.49c0.612,0.63 1.362,1.11 2.19,1.4c3.46,1.206 6.557,3.271 9,6c1.894,2.106 3.407,4.525 4.47,7.15c2.27,6.18 1.44,12.19 -1.4,18c-1.762,3.517 -3.732,6.927 -5.9,10.21c-6.32,9.67 -15.59,15.69 -27.47,18.37c-3.95,0.9 -7.86,2 -11.87,2.59c-7.264,0.987 -14.636,0.852 -21.86,-0.4c-4.732,-0.75 -9.362,-2.042 -13.8,-3.85c-2.1,-0.86 -4.13,-1.89 -6.47,-3c-0.824,0.414 -1.614,0.896 -2.36,1.44c-4.229,3.716 -9.435,6.146 -15,7c-4.812,0.803 -9.705,1.018 -14.57,0.64c-4.019,-0.36 -7.922,-1.538 -11.47,-3.46c-1,-0.53 -2,-1 -2.9,-1.6c-0.773,-0.515 -1.786,-0.515 -2.56,-0c-4.457,2.329 -9.246,3.958 -14.2,4.83c-4.03,0.566 -8.106,0.733 -12.17,0.5c-5.372,-0.168 -10.708,-0.936 -15.91,-2.29c-4.297,-1.099 -8.362,-2.962 -12,-5.5c-0.707,-0.614 -1.748,-0.672 -2.52,-0.14c-3.175,1.698 -6.607,2.867 -10.16,3.46c-2.87,0.56 -5.73,1.2 -8.62,1.69c-5.316,0.773 -10.725,0.648 -16,-0.37c-6.179,-1.067 -12.154,-3.092 -17.71,-6c-1.808,-0.889 -3.526,-1.95 -5.13,-3.17c-4.39,-3.44 -8.59,-7.07 -11.8,-11.54c-0.42,-0.51 -0.87,-0.97 -1.39,-1.59Zm-131.61,-56.61c-0.45,0.34 -0.77,0.53 -1,0.77c-4.157,3.661 -7.667,7.999 -10.38,12.83c-5.75,10.73 -6,21.56 0.72,31.88c9.56,14.68 24.38,21.49 42.63,21.19c16.07,-0.27 29.39,-6.57 39.18,-18.52c6.63,-8.09 10.74,-17.16 11.14,-27.39c0.37,-9.53 -3.09,-17.62 -11.41,-23.68c-1.9,-1.38 -3.86,-2.53 -6.43,-2.43c-0.751,-0.031 -1.497,-0.132 -2.23,-0.3c-9,-1.42 -16.76,-4.85 -22.43,-11.74c-2.31,-2.722 -3.789,-6.051 -4.26,-9.59c-0.83,-6 4.37,-11.65 8.7,-13.6c0.571,-0.247 1.163,-0.438 1.77,-0.57c0.937,-0.198 1.891,-0.298 2.848,-0.298c6.67,-0 12.426,4.853 13.552,11.428c0.04,0.132 0.06,0.269 0.06,0.408c-0,0.679 -0.484,1.269 -1.15,1.402c-0.717,-2.544 -2.227,-4.793 -4.31,-6.42c-0.905,-0.702 -1.918,-1.253 -3,-1.63c-2.166,-0.634 -4.444,-0.798 -6.68,-0.48c-2.144,0.281 -4.017,1.603 -5,3.53l1.66,-0.52c4.767,-1.604 10.055,0.302 12.7,4.58c0.648,1.164 1.072,2.44 1.25,3.76c0.349,2.384 1.322,4.634 2.82,6.52c3.71,4.46 11.24,6 15.57,4.55c1.93,-0.66 3.81,-1.47 5.7,-2.22c3.517,-1.379 6.443,-3.944 8.27,-7.25c3.38,-6 4.62,-12.26 2.79,-18.9c-3,-10.87 -9.81,-19.29 -19.73,-25.63c-2.229,-1.416 -4.606,-2.583 -7.09,-3.48c-6.337,-2.185 -13.057,-3.043 -19.74,-2.52c-3.807,0.242 -7.596,0.706 -11.35,1.39c-2.642,0.346 -5.216,1.098 -7.63,2.23c-10.5,5.6 -18.7,13.32 -23.77,23.54c-10.89,21.93 1.18,43.74 21.14,52.64c3,1.33 6,2.52 9.11,3.67c4.215,1.45 7.864,4.199 10.42,7.85c1.177,1.61 1.764,3.578 1.66,5.57c-0.115,1.437 -0.316,2.866 -0.6,4.28c-0.34,1.91 -1.69,3.3 -3.12,4.61c-0.362,0.225 -0.756,0.394 -1.17,0.5c1.91,-4 3,-7.71 -0.51,-11.75c0.112,2.909 -0.782,5.771 -2.53,8.1c-2.396,3.476 -6.625,5.234 -10.78,4.48c-4.37,-0.79 -7.63,-3.74 -8.44,-7.63c-0.796,-4.055 1.192,-8.178 4.86,-10.08l1.6,-0.92c-0.69,-0.501 -1.415,-0.953 -2.17,-1.35c-1.459,-0.677 -2.963,-1.255 -4.5,-1.73c-3.669,-1.069 -7.153,-2.695 -10.33,-4.82c-2.91,-1.91 -5.94,-3.66 -8.41,-6.26Zm275.88,14.89c1.498,-0.606 3.107,-0.886 4.72,-0.82c1.806,-0.059 3.581,-0.481 5.22,-1.24c8.1,-3.64 14.86,-8.71 19.65,-15.83c0.86,-1.27 1.75,-2.52 2.62,-3.79c3.54,-5.2 5,-11 5.75,-17c0.255,-1.883 0.306,-3.787 0.15,-5.68c-0.364,-3.979 -1.252,-7.893 -2.64,-11.64c-2.714,-7.322 -6.97,-13.976 -12.48,-19.51c-2.849,-2.905 -6.131,-5.351 -9.73,-7.25c-5.159,-2.754 -10.816,-4.454 -16.64,-5c-5.462,-0.67 -10.972,-0.87 -16.47,-0.6c-7.281,0.473 -14.427,2.202 -21.12,5.11c-1.62,0.72 -3.14,1.63 -4.82,2.51c0.53,0.76 0.92,1.33 1.34,1.89c4.093,5.797 7.263,12.193 9.4,18.96c1.877,6.076 3.051,12.347 3.5,18.69c0.8,8.23 0.22,16.44 -0.51,24.66c-0.495,5.69 -1.397,11.338 -2.7,16.9c-2,8.58 -5.41,16.75 -9.13,24.81c-3.172,7.183 -7.432,13.834 -12.63,19.72c-0.68,0.75 -1.33,1.52 -1.94,2.32c-0.27,0.37 -0.62,0.88 -0.53,1.25c0.41,1.66 0.74,3.38 2.63,4.34c2.773,1.404 5.728,2.414 8.78,3c8.093,1.534 16.473,0.268 23.75,-3.59c5.897,-2.819 10.2,-8.175 11.68,-14.54c0.81,-3.477 1.382,-7.005 1.71,-10.56c0.2,-1.942 0.15,-3.901 -0.15,-5.83c-0.349,-2.169 -0.874,-4.306 -1.57,-6.39c-0.69,-2.15 -1.64,-4.22 -2.46,-6.33c-0.31,-0.78 -0.84,-1.56 -0.17,-2.43c1.06,-0 1.4,0.76 1.89,1.31c1.21,1.39 2.47,2.76 3.55,4.23c1.149,1.414 2.123,2.962 2.9,4.61c1.613,3.85 2.517,7.959 2.67,12.13c0.21,7.34 -0.13,14.64 -3.13,21.59c-0.33,0.577 -0.154,1.322 0.4,1.69c1.885,1.672 4.135,2.881 6.57,3.53c5.197,1.246 10.635,1.069 15.74,-0.51c2.643,-0.639 5.063,-1.983 7,-3.89c4.136,-4.317 6.211,-10.215 5.69,-16.17c-0.25,-4 -0.88,-7.9 -1.36,-11.84c-0.66,-5.47 -3.56,-10.24 -5.71,-15.24l-6.12,-7.05c-1.07,0.2 -1.87,0.32 -2.66,0.49c-3.353,0.794 -6.826,0.956 -10.24,0.48c-0.98,-0.15 -2.06,-0.17 -2.4,-1.49Zm26.36,-3.41c0.33,0.44 0.7,0.89 1,1.36c1.638,2.09 3.167,4.263 4.58,6.51c2.427,4.251 4.172,8.857 5.17,13.65c0.42,2 0.7,4.09 1.08,6.14c1.166,6.418 1.294,12.981 0.38,19.44c-0.233,0.919 0.178,1.888 1,2.36c2.08,1.27 4.19,2.51 6.31,3.73c2.199,1.18 4.557,2.036 7,2.54c6.16,1.48 12.4,1.33 18.66,0.84c4.236,-0.281 8.409,-1.17 12.39,-2.64c7.76,-2.961 14.659,-7.811 20.07,-14.11c1.288,-1.613 2.413,-3.348 3.36,-5.18c1.475,-2.598 1.938,-5.652 1.3,-8.57c-0.607,-4.032 -2.947,-7.603 -6.4,-9.77c-3.311,-1.943 -6.909,-3.351 -10.66,-4.17c-2.25,-0.552 -4.606,-0.518 -6.84,0.1c-2.58,0.68 -5.24,1.07 -7.87,1.6c-4.438,0.805 -8.984,0.825 -13.43,0.06c-4.271,-0.459 -8.263,-2.352 -11.32,-5.37c-1.789,-2.055 -3.459,-4.212 -5,-6.46c-0.157,-0.317 -0.271,-0.653 -0.34,-1c0.51,0.17 0.79,0.23 1.05,0.34c6.398,2.552 13.271,3.694 20.15,3.35c6.313,-0.151 12.561,-1.305 18.51,-3.42c7.68,-2.78 14.37,-6.74 19.08,-13.14c0.56,-0.77 1.18,-1.49 1.76,-2.24c6.685,-8.312 9.608,-19.047 8.06,-29.6c-1.59,-12 -7.16,-22.2 -16.84,-30.42c-4.35,-3.819 -9.463,-6.669 -15,-8.36c-7.376,-2.166 -14.996,-3.396 -22.68,-3.66c-8.871,-0.45 -17.728,1.127 -25.9,4.61c-0.59,0.26 -1.16,0.57 -1.71,0.84c1.77,2.12 3.55,4 5.09,6.13c1.54,2.13 2.93,4.29 4.29,6.49c4.529,7.146 7.067,15.374 7.35,23.83c-0.014,4.898 -0.476,9.785 -1.38,14.6c-0.554,4.756 -2.272,9.304 -5,13.24c-0.77,1 -1.45,2.16 -2.11,3.27c-1.78,2.922 -4.167,5.429 -7,7.35l-8.16,5.73Zm-164.5,13.2c0.394,4.325 0.37,8.679 -0.07,13c-0.014,0.746 0.112,1.489 0.37,2.19c2,6.62 6.33,11.94 11.29,16.89c1.881,1.905 4.043,3.51 6.41,4.76c2.39,1.25 4.92,2.28 7.32,3.51c2.453,1.211 5.107,1.96 7.83,2.21c4.622,0.366 9.272,0.124 13.83,-0.72c10,-1.383 19.271,-6.023 26.37,-13.2c4.327,-4.539 7.884,-9.755 10.53,-15.44c3.71,-7.48 5.49,-15.52 8,-23.34c1.93,-5.92 2.5,-12.09 3.32,-18.19c0.83,-5.765 1.031,-11.602 0.6,-17.41c-0.36,-4.19 -0.32,-8.45 -1.16,-12.55c-1.124,-4.848 -2.53,-9.626 -4.21,-14.31c-0.716,-2.219 -1.682,-4.35 -2.88,-6.35c-4.743,-7.778 -11.78,-13.9 -20.14,-17.52c-1.526,-0.683 -3.113,-1.222 -4.74,-1.61c-6.299,-1.45 -12.823,-1.65 -19.2,-0.59c-4.557,0.601 -8.932,2.173 -12.83,4.61c-1.08,0.507 -1.938,1.393 -2.41,2.49c0.77,1 1.63,2 2.38,3c1.194,1.529 2.264,3.151 3.2,4.85c1.24,2.57 2.22,5.25 3.22,7.92c0.524,1.335 0.929,2.714 1.21,4.12c0.49,2.6 0.8,5.24 1.25,7.85c2.22,12.8 -0.57,24.89 -6.42,36.44c-4.92,9.73 -12.87,17.07 -22.84,22.53c-3.21,1.79 -6.66,3.18 -10.23,4.86Zm-35.46,-9.61c1.28,0.32 2.07,0.49 2.84,0.71c8.45,2.433 17.389,2.637 25.94,0.59c5.38,-1.26 10.55,-2.94 14.8,-6.41c2,-1.6 4,-3.17 5.87,-4.83c4.58,-3.884 8.138,-8.832 10.36,-14.41c3.092,-7.697 4.405,-15.995 3.84,-24.27c-0.295,-6.05 -2.052,-11.938 -5.12,-17.16c-0.51,-0.85 -0.87,-1.79 -1.41,-2.62c-1.62,-2.52 -3.3,-5 -5,-7.52c-11.29,-10.15 -24.41,-16.04 -40.72,-14.35c-5.949,0.574 -11.757,2.164 -17.17,4.7c-1.69,0.8 -3.24,1.86 -4.88,2.82c1.557,2.182 3.226,4.281 5,6.29c3.184,3.33 5.478,7.409 6.67,11.86c2.61,9.37 2.21,18.53 -2.72,27.37c-3.339,6.227 -8.514,11.28 -14.82,14.47c-0.52,0.26 -1,0.6 -1.46,0.88c3.984,5.086 6.982,10.872 8.84,17.06c1.574,5.92 2.075,12.073 1.48,18.17c-0.22,3.31 -1.155,6.534 -2.74,9.45c-1,1.9 -1.87,3.89 -2.86,5.82c-0.779,1.64 -1.661,3.23 -2.64,4.76c-3.34,5.086 -7.267,9.761 -11.7,13.93c-0.38,0.35 -0.71,0.74 -1.13,1.2c2.719,1.508 5.738,2.396 8.84,2.6c8.118,0.7 16.287,-0.512 23.85,-3.54c10,-3.9 15.91,-10.9 18.16,-20.59c1.002,-4.686 1.198,-9.509 0.58,-14.26c-0.09,-0.85 -0.25,-1.69 -0.39,-2.59c-2.05,-0.21 -4,-0.36 -5.87,-0.64c-4.156,-0.723 -8.148,-2.193 -11.78,-4.34c-1.363,-0.887 -2.604,-1.949 -3.69,-3.16c-0.415,-0.614 -0.742,-1.284 -0.97,-1.99Z" style="fill:#000050;fill-rule:nonzero;"/><path d="M42.043,87.813c2.47,2.65 5.5,4.4 8.41,6.29c3.177,2.125 6.661,3.751 10.33,4.82c1.537,0.475 3.041,1.053 4.5,1.73c0.755,0.397 1.48,0.849 2.17,1.35l-1.6,0.92c-3.668,1.902 -5.656,6.025 -4.86,10.08c0.81,3.89 4.07,6.84 8.44,7.63c4.155,0.754 8.384,-1.004 10.78,-4.48c1.748,-2.329 2.642,-5.191 2.53,-8.1c3.5,4 2.42,7.78 0.51,11.75c0.414,-0.106 0.808,-0.275 1.17,-0.5c1.43,-1.31 2.78,-2.7 3.12,-4.61c0.284,-1.414 0.485,-2.843 0.6,-4.28c0.104,-1.992 -0.483,-3.96 -1.66,-5.57c-2.562,-3.645 -6.214,-6.387 -10.43,-7.83c-3.07,-1.15 -6.13,-2.34 -9.11,-3.67c-20,-8.9 -32,-30.71 -21.14,-52.64c5.07,-10.22 13.27,-17.94 23.77,-23.54c2.414,-1.132 4.988,-1.884 7.63,-2.23c3.754,-0.684 7.543,-1.148 11.35,-1.39c6.683,-0.523 13.403,0.335 19.74,2.52c2.484,0.897 4.861,2.064 7.09,3.48c9.92,6.34 16.74,14.76 19.73,25.63c1.83,6.64 0.59,12.93 -2.79,18.9c-1.827,3.306 -4.753,5.871 -8.27,7.25c-1.89,0.75 -3.77,1.56 -5.7,2.22c-4.33,1.48 -11.86,-0.09 -15.57,-4.55c-1.498,-1.886 -2.471,-4.136 -2.82,-6.52c-0.169,-1.337 -0.59,-2.63 -1.24,-3.81c-2.641,-4.347 -7.999,-6.283 -12.81,-4.63l-1.66,0.52c0.983,-1.927 2.856,-3.249 5,-3.53c2.236,-0.318 4.514,-0.154 6.68,0.48c1.082,0.377 2.095,0.928 3,1.63c2.083,1.627 3.593,3.876 4.31,6.42c0.666,-0.133 1.15,-0.723 1.15,-1.402c-0,-0.139 -0.02,-0.276 -0.06,-0.408c-1.126,-6.575 -6.882,-11.428 -13.552,-11.428c-0.957,-0 -1.911,0.1 -2.848,0.298c-0.607,0.132 -1.199,0.323 -1.77,0.57c-4.33,1.95 -9.53,7.55 -8.7,13.6c0.471,3.539 1.95,6.868 4.26,9.59c5.67,6.89 13.42,10.32 22.43,11.74c0.733,0.168 1.479,0.269 2.23,0.3c2.57,-0.1 4.53,1.05 6.43,2.43c8.32,6.06 11.78,14.15 11.41,23.68c-0.4,10.23 -4.51,19.3 -11.14,27.39c-9.79,12 -23.11,18.25 -39.18,18.52c-18.25,0.3 -33.07,-6.51 -42.63,-21.19c-6.72,-10.32 -6.47,-21.15 -0.72,-31.88c2.713,-4.831 6.223,-9.169 10.38,-12.83c0.34,-0.24 0.66,-0.43 1.11,-0.72Z" style="fill:#f9f4be;fill-rule:nonzero;"/><path d="M317.923,102.703c0.34,1.32 1.42,1.34 2.37,1.49c3.414,0.476 6.887,0.314 10.24,-0.48c0.79,-0.17 1.59,-0.29 2.66,-0.49l6.12,7.05c2.15,5 5.05,9.77 5.71,15.24c0.48,3.94 1.11,7.88 1.36,11.84c0.529,5.95 -1.535,11.848 -5.66,16.17c-1.937,1.907 -4.357,3.251 -7,3.89c-5.106,1.561 -10.54,1.72 -15.73,0.46c-2.435,-0.649 -4.685,-1.858 -6.57,-3.53c-0.554,-0.368 -0.73,-1.113 -0.4,-1.69c3,-7 3.34,-14.25 3.13,-21.59c-0.153,-4.171 -1.057,-8.28 -2.67,-12.13c-0.777,-1.648 -1.751,-3.196 -2.9,-4.61c-1.08,-1.47 -2.34,-2.84 -3.55,-4.23c-0.49,-0.55 -0.83,-1.32 -1.89,-1.31c-0.67,0.87 -0.14,1.65 0.17,2.43c0.82,2.11 1.77,4.18 2.46,6.33c0.696,2.084 1.221,4.221 1.57,6.39c0.3,1.929 0.35,3.888 0.15,5.83c-0.328,3.558 -0.899,7.09 -1.71,10.57c-1.48,6.365 -5.783,11.721 -11.68,14.54c-7.277,3.858 -15.657,5.124 -23.75,3.59c-3.052,-0.586 -6.007,-1.596 -8.78,-3c-1.89,-1 -2.22,-2.68 -2.63,-4.34c-0.09,-0.37 0.26,-0.88 0.53,-1.25c0.61,-0.8 1.26,-1.57 1.94,-2.32c5.198,-5.886 9.458,-12.537 12.63,-19.72c3.72,-8.06 7.1,-16.23 9.13,-24.81c1.303,-5.562 2.205,-11.21 2.7,-16.9c0.73,-8.22 1.31,-16.43 0.51,-24.66c-0.455,-6.33 -1.633,-12.588 -3.51,-18.65c-2.138,-6.76 -5.309,-13.149 -9.4,-18.94c-0.42,-0.56 -0.81,-1.13 -1.34,-1.89c1.68,-0.88 3.2,-1.79 4.82,-2.51c6.693,-2.908 13.839,-4.637 21.12,-5.11c5.498,-0.27 11.008,-0.07 16.47,0.6c5.824,0.546 11.481,2.246 16.64,5c3.599,1.899 6.881,4.345 9.73,7.25c5.51,5.534 9.766,12.188 12.48,19.51c1.388,3.747 2.276,7.661 2.64,11.64c0.156,1.893 0.105,3.797 -0.15,5.68c-0.79,6 -2.21,11.8 -5.75,17c-0.87,1.27 -1.76,2.52 -2.62,3.79c-4.79,7.12 -11.55,12.19 -19.65,15.83c-1.639,0.759 -3.414,1.181 -5.22,1.24c-1.612,-0.072 -3.221,0.201 -4.72,0.8Zm11.54,-44.29l0.48,-0.08c0.184,-0.33 0.309,-0.688 0.37,-1.06c-0.025,-1.03 -0.132,-2.057 -0.32,-3.07c-1.31,-6.19 -8.33,-9.23 -14.33,-6.19c-1.235,0.659 -2.424,1.401 -3.56,2.22c-3.614,2.357 -5.913,6.284 -6.2,10.59c-0.23,2.64 -0.35,5.28 -0.52,7.92c-0.081,3.544 0.741,7.051 2.39,10.19c1.38,2.92 4.24,3.77 7.29,2.26c1.021,-0.532 1.974,-1.184 2.84,-1.94c4.13,-3.49 6.51,-8 8.33,-12.74c2.39,-6.23 -1.93,-12.34 -9.08,-13c-0.38,-0 -0.76,-0.1 -1.31,-0.17c1.958,-1.288 4.369,-1.695 6.64,-1.12c3.67,0.7 6.04,2.74 6.98,6.19Z" style="fill:#f9f4be;fill-rule:nonzero;"/><path d="M344.283,99.293l8.14,-5.71c2.833,-1.921 5.22,-4.428 7,-7.35c0.66,-1.11 1.34,-2.22 2.11,-3.27c2.728,-3.936 4.446,-8.484 5,-13.24c0.904,-4.815 1.366,-9.702 1.38,-14.6c-0.283,-8.456 -2.821,-16.684 -7.35,-23.83c-1.36,-2.2 -2.74,-4.4 -4.29,-6.49c-1.55,-2.09 -3.32,-4 -5.09,-6.13c0.55,-0.27 1.12,-0.58 1.71,-0.84c8.182,-3.484 17.05,-5.058 25.93,-4.6c7.684,0.264 15.304,1.494 22.68,3.66c5.537,1.691 10.65,4.541 15,8.36c9.68,8.22 15.25,18.41 16.84,30.42c1.548,10.553 -1.375,21.288 -8.06,29.6c-0.58,0.75 -1.2,1.47 -1.76,2.24c-4.71,6.4 -11.4,10.36 -19.08,13.14c-5.949,2.115 -12.197,3.269 -18.51,3.42c-6.879,0.344 -13.752,-0.798 -20.15,-3.35c-0.26,-0.11 -0.54,-0.17 -1.05,-0.34c0.069,0.347 0.183,0.683 0.34,1c1.541,2.248 3.211,4.405 5,6.46c3.046,3.013 7.022,4.91 11.28,5.38c4.446,0.765 8.992,0.745 13.43,-0.06c2.63,-0.53 5.29,-0.92 7.87,-1.6c2.234,-0.618 4.59,-0.652 6.84,-0.1c3.751,0.819 7.349,2.227 10.66,4.17c3.453,2.167 5.793,5.738 6.4,9.77c0.638,2.918 0.175,5.972 -1.3,8.57c-0.947,1.832 -2.072,3.567 -3.36,5.18c-5.411,6.299 -12.31,11.149 -20.07,14.11c-3.981,1.47 -8.154,2.359 -12.39,2.64c-6.26,0.49 -12.5,0.64 -18.66,-0.84c-2.443,-0.504 -4.801,-1.36 -7,-2.54c-2.12,-1.22 -4.23,-2.46 -6.31,-3.73c-0.822,-0.472 -1.233,-1.441 -1,-2.36c0.914,-6.459 0.786,-13.022 -0.38,-19.44c-0.38,-2.05 -0.66,-4.1 -1.08,-6.14c-0.985,-4.794 -2.716,-9.403 -5.13,-13.66c-1.413,-2.247 -2.942,-4.42 -4.58,-6.51c-0.31,-0.5 -0.68,-0.95 -1.01,-1.39Zm52.08,-45.95c1.376,-1.308 3.237,-1.982 5.13,-1.86c3.653,-0.099 7.009,2.07 8.42,5.44c0.614,-0.654 0.717,-1.644 0.25,-2.41c-0.259,-0.65 -0.556,-1.285 -0.89,-1.9c-1.833,-3.523 -5.413,-5.813 -9.38,-6c-5.377,-0.427 -10.413,2.823 -12.24,7.9c-2.211,6.39 -2.872,13.214 -1.93,19.91c0.152,1.32 0.488,2.613 1,3.84c1.49,3.33 4.52,4 7.69,1.87c3.984,-2.783 7.433,-6.262 10.18,-10.27c1.403,-1.776 2.167,-3.974 2.167,-6.237c0,-4.897 -3.576,-9.118 -8.407,-9.923l-1.99,-0.36Z" style="fill:#f9f4be;fill-rule:nonzero;"/><path d="M179.783,112.493c3.57,-1.67 7,-3.07 10.23,-4.83c10,-5.46 17.92,-12.8 22.84,-22.53c5.85,-11.55 8.64,-23.64 6.42,-36.44c-0.45,-2.61 -0.76,-5.25 -1.25,-7.85c-0.265,-1.422 -0.657,-2.818 -1.17,-4.17c-1,-2.67 -2,-5.35 -3.22,-7.92c-0.936,-1.699 -2.006,-3.321 -3.2,-4.85c-0.75,-1.06 -1.61,-2.05 -2.38,-3c0.472,-1.097 1.33,-1.983 2.41,-2.49c3.899,-2.433 8.274,-4.002 12.83,-4.6c6.377,-1.06 12.901,-0.86 19.2,0.59c1.627,0.388 3.214,0.927 4.74,1.61c8.357,3.615 15.394,9.729 20.14,17.5c1.198,2 2.164,4.131 2.88,6.35c1.68,4.684 3.086,9.462 4.21,14.31c0.84,4.1 0.8,8.36 1.16,12.55c0.431,5.808 0.23,11.645 -0.6,17.41c-0.82,6.1 -1.39,12.27 -3.32,18.19c-2.55,7.82 -4.33,15.86 -8,23.34c-2.646,5.685 -6.203,10.901 -10.53,15.44c-7.12,7.192 -16.421,11.834 -26.45,13.2c-4.558,0.844 -9.208,1.086 -13.83,0.72c-2.723,-0.25 -5.377,-0.999 -7.83,-2.21c-2.4,-1.23 -4.93,-2.26 -7.32,-3.51c-2.367,-1.25 -4.529,-2.855 -6.41,-4.76c-5,-4.95 -9.28,-10.27 -11.29,-16.89c-0.258,-0.701 -0.384,-1.444 -0.37,-2.19c0.452,-4.31 0.489,-8.653 0.11,-12.97Zm76.7,-51.37l0.33,0.08c0.12,-0.534 0.2,-1.075 0.24,-1.62l0,-5c0.056,-2.967 -1.2,-5.812 -3.43,-7.77c-3.237,-2.984 -8.212,-3.175 -11.67,-0.45c-2.428,1.842 -4.436,4.181 -5.89,6.86c-1.205,2.197 -2.264,4.472 -3.17,6.81c-1.75,5.143 -2.976,10.45 -3.66,15.84c-0.52,3.93 -0.68,7.91 -1.06,11.87c-0.203,2.598 0.194,5.209 1.16,7.63c0.74,2 1.92,2.71 4.15,2.12c3.61,-1 6.57,-2.7 8.22,-6c2.33,-4.72 4.64,-9.44 7.23,-14c2.04,-3.729 3.675,-7.665 4.88,-11.74c1.72,-5.57 -2,-11 -8.22,-12c-1.607,-0.118 -3.222,-0.118 -4.83,-0c1.88,-1.77 3.84,-2.77 6.3,-2.45c1.401,0.258 2.777,0.639 4.11,1.14c2.78,0.89 4.05,3 4.73,5.39c0.254,1.085 0.448,2.183 0.58,3.29Z" style="fill:#f9f4be;fill-rule:nonzero;"/><path d="M144.323,102.883c0.237,0.711 0.573,1.384 1,2c1.086,1.211 2.327,2.273 3.69,3.16c3.632,2.147 7.624,3.617 11.78,4.34c1.9,0.28 3.82,0.43 5.87,0.64c0.14,0.9 0.3,1.74 0.39,2.59c0.618,4.751 0.422,9.574 -0.58,14.26c-2.25,9.69 -8.21,16.69 -18.16,20.59c-7.563,3.028 -15.732,4.24 -23.85,3.54c-3.102,-0.204 -6.121,-1.092 -8.84,-2.6c0.42,-0.46 0.75,-0.85 1.13,-1.2c4.423,-4.17 8.339,-8.846 11.67,-13.93c0.979,-1.53 1.861,-3.12 2.64,-4.76c1,-1.93 1.83,-3.92 2.86,-5.82c1.585,-2.916 2.52,-6.14 2.74,-9.45c0.595,-6.097 0.094,-12.25 -1.48,-18.17c-1.858,-6.188 -4.856,-11.974 -8.84,-17.06c0.46,-0.28 0.94,-0.62 1.46,-0.88c6.306,-3.19 11.481,-8.243 14.82,-14.47c4.93,-8.84 5.33,-18 2.72,-27.37c-1.176,-4.449 -3.453,-8.532 -6.62,-11.87c-1.774,-2.009 -3.443,-4.108 -5,-6.29c1.64,-1 3.19,-2 4.88,-2.82c5.398,-2.53 11.188,-4.12 17.12,-4.7c16.3,-1.69 29.42,4.18 40.76,14.35c1.65,2.5 3.33,5 5,7.52c0.54,0.83 0.9,1.77 1.41,2.62c3.068,5.222 4.825,11.11 5.12,17.16c0.565,8.275 -0.748,16.573 -3.84,24.27c-2.222,5.578 -5.78,10.526 -10.36,14.41c-1.91,1.66 -3.91,3.23 -5.87,4.83c-4.25,3.47 -9.42,5.15 -14.8,6.41c-8.551,2.047 -17.49,1.843 -25.94,-0.59c-0.81,-0.22 -1.6,-0.39 -2.88,-0.71Zm39.94,-39.07l0.23,0.09c0.194,-0.318 0.358,-0.653 0.49,-1c1.193,-3.757 0.615,-7.859 -1.57,-11.14c-2.06,-3.14 -6.67,-4.8 -10.57,-3.86c-3.112,0.75 -5.89,2.508 -7.9,5c-2.639,3.081 -4.395,6.821 -5.08,10.82c-0.318,2.279 -0.481,4.578 -0.49,6.88c0.013,2.105 0.567,4.171 1.61,6c1.049,2.165 3.437,3.367 5.8,2.92c2.147,-0.289 4.18,-1.141 5.89,-2.47c2.854,-2.263 5.25,-5.05 7.06,-8.21c1.06,-1.741 1.589,-3.754 1.52,-5.79c-0.1,-4.55 -3.41,-8.29 -8.26,-9.25c-0.54,-0.1 -1.07,-0.22 -1.85,-0.39c2.08,-1.18 4,-1.85 6.17,-0.89c0.63,0.27 1.28,0.48 1.88,0.79c2.45,1.29 4.16,3.12 4.56,5.77c0.24,1.49 0.35,3.1 0.51,4.73Z" style="fill:#f9f4be;fill-rule:nonzero;"/><path d="M329.463,58.413c-0.94,-3.45 -3.31,-5.49 -7,-6.23c-2.271,-0.575 -4.682,-0.168 -6.64,1.12c0.55,0.07 0.93,0.14 1.31,0.17c7.15,0.7 11.47,6.81 9.08,13c-1.82,4.76 -4.2,9.25 -8.33,12.74c-0.866,0.756 -1.819,1.408 -2.84,1.94c-3,1.51 -5.91,0.66 -7.29,-2.26c-1.649,-3.139 -2.471,-6.646 -2.39,-10.19c0.17,-2.64 0.29,-5.28 0.52,-7.92c0.287,-4.306 2.586,-8.233 6.2,-10.59c1.136,-0.819 2.325,-1.561 3.56,-2.22c6,-3 13,-0 14.33,6.19c0.188,1.013 0.295,2.04 0.32,3.07c-0.061,0.372 -0.186,0.73 -0.37,1.06l-0.46,0.12Z" style="fill:#000050;fill-rule:nonzero;"/><path d="M396.363,53.343l2,0.36c4.831,0.805 8.407,5.026 8.407,9.923c0,2.263 -0.764,4.461 -2.167,6.237c-2.747,4.008 -6.196,7.487 -10.18,10.27c-3.17,2.08 -6.2,1.46 -7.69,-1.87c-0.512,-1.227 -0.848,-2.52 -1,-3.84c-0.944,-6.706 -0.279,-13.542 1.94,-19.94c1.827,-5.077 6.863,-8.327 12.24,-7.9c3.967,0.187 7.547,2.477 9.38,6c0.334,0.615 0.631,1.25 0.89,1.9c0.467,0.766 0.364,1.756 -0.25,2.41c-1.411,-3.37 -4.767,-5.539 -8.42,-5.44c-1.904,-0.12 -3.774,0.566 -5.15,1.89Z" style="fill:#000050;fill-rule:nonzero;"/><path d="M256.483,61.123c-0.128,-1.144 -0.322,-2.279 -0.58,-3.4c-0.68,-2.44 -1.95,-4.5 -4.73,-5.39c-1.333,-0.501 -2.709,-0.882 -4.11,-1.14c-2.46,-0.32 -4.42,0.68 -6.3,2.45c1.608,-0.118 3.223,-0.118 4.83,-0c6.19,1 9.94,6.45 8.22,12c-1.205,4.075 -2.84,8.011 -4.88,11.74c-2.59,4.6 -4.9,9.32 -7.23,14c-1.65,3.32 -4.61,5.06 -8.22,6c-2.23,0.59 -3.41,-0.11 -4.15,-2.12c-0.966,-2.421 -1.363,-5.032 -1.16,-7.63c0.38,-4 0.54,-7.94 1.06,-11.87c0.684,-5.39 1.91,-10.697 3.66,-15.84c0.906,-2.338 1.965,-4.613 3.17,-6.81c1.454,-2.679 3.462,-5.018 5.89,-6.86c3.484,-2.695 8.461,-2.457 11.67,0.56c2.236,1.948 3.503,4.785 3.46,7.75l0,5c-0.04,0.545 -0.12,1.086 -0.24,1.62l-0.36,-0.06Z" style="fill:#000050;fill-rule:nonzero;"/><path d="M184.263,63.813c-0.16,-1.6 -0.27,-3.21 -0.51,-4.8c-0.4,-2.65 -2.11,-4.48 -4.56,-5.77c-0.6,-0.31 -1.25,-0.52 -1.88,-0.79c-2.19,-1 -4.09,-0.29 -6.17,0.89c0.78,0.17 1.31,0.29 1.85,0.39c4.85,1 8.16,4.7 8.26,9.25c0.069,2.036 -0.46,4.049 -1.52,5.79c-1.81,3.16 -4.206,5.947 -7.06,8.21c-1.71,1.329 -3.743,2.181 -5.89,2.47c-2.363,0.447 -4.751,-0.755 -5.8,-2.92c-1.043,-1.829 -1.597,-3.895 -1.61,-6c0.009,-2.302 0.172,-4.601 0.49,-6.88c0.682,-4.006 2.438,-7.753 5.08,-10.84c2.01,-2.492 4.788,-4.25 7.9,-5c3.9,-0.94 8.51,0.72 10.57,3.86c2.185,3.281 2.763,7.383 1.57,11.14c-0.132,0.347 -0.296,0.682 -0.49,1l-0.23,-0Z" style="fill:#000050;fill-rule:nonzero;"/></g></svg>