<?xml version="1.0" encoding="UTF-8" standalone="no"?><!DOCTYPE svg PUBLIC "-//W3C//DTD SVG 1.1//EN" "http://www.w3.org/Graphics/SVG/1.1/DTD/svg11.dtd"><svg width="100%" height="100%" viewBox="0 0 291 283" version="1.1" xmlns="http://www.w3.org/2000/svg" xmlns:xlink="http://www.w3.org/1999/xlink" xml:space="preserve" xmlns:serif="http://www.serif.com/" style="fill-rule:evenodd;clip-rule:evenodd;stroke-linejoin:round;stroke-miterlimit:2;"><g><path d="M176.661,165.762c-4.159,4.725 -9.364,8.413 -15.2,10.77c0.679,-0.935 1.307,-1.906 1.88,-2.91c1.38,-2.88 2.67,-5.8 4,-8.73c0.18,-0.4 0.25,-0.78 0.85,-0.66l8.47,1.53Z" style="fill:#00eed0;fill-rule:nonzero;"/><path d="M161.521,163.482c-1.27,6.15 -7.47,14.15 -11.71,15.15l-0,-16l11.71,0.85Z" style="fill:#00eed0;fill-rule:nonzero;"/><path d="M143.871,162.682l-0,16c-1.912,-0.703 -3.627,-1.855 -5,-3.36c-3.19,-3.39 -5.16,-7.5 -6.85,-12l11.85,-0.64Z" style="fill:#00eed0;fill-rule:nonzero;"/><path d="M126.071,164.142c1.399,4.342 3.42,8.458 6,12.22c-5.732,-2.253 -10.845,-5.843 -14.91,-10.47l8.91,-1.75Z" style="fill:#00eed0;fill-rule:nonzero;"/><path d="M122.131,142.432c0.69,5.35 1.39,10.67 2.11,16.11c-1.1,0.18 -2.41,0.38 -3.69,0.65c-2.23,0.46 -4.44,1 -6.65,1.49c-0.104,0.055 -0.22,0.083 -0.338,0.083c-0.284,0 -0.543,-0.165 -0.662,-0.423c-3.366,-5.399 -5.323,-11.558 -5.69,-17.91l14.92,0Z" style="fill:#00eed0;fill-rule:nonzero;"/><path d="M143.891,142.442l-0,14.39l-13.55,0.83c-1.248,-4.983 -1.955,-10.085 -2.11,-15.22l15.66,0Z" style="fill:#00eed0;fill-rule:nonzero;"/><path d="M171.571,142.432l14.89,0c-0.251,3.77 -1.073,7.479 -2.44,11c-0.93,2.33 -2.11,4.56 -3.23,6.81c-0.169,0.269 -0.463,0.435 -0.78,0.44c-3.49,-0.66 -6.95,-1.39 -10.42,-2.11c-0.029,0.012 -0.061,0.012 -0.09,0c0.66,-5.42 1.36,-10.74 2.07,-16.14Z" style="fill:#00eed0;fill-rule:nonzero;"/><path d="M165.311,142.412c0.45,1.43 -0.74,11 -2,15.23l-13.51,-0.81l-0,-14.42l15.51,0Z" style="fill:#00eed0;fill-rule:nonzero;"/><path d="M165.461,136.512l-15.63,0l-0,-14.4c4.54,-0.27 9,-0.53 13.53,-0.82c1.232,4.986 1.935,10.087 2.1,15.22Z" style="fill:#00eed0;fill-rule:nonzero;"/><path d="M186.391,135.962c0.01,0.184 0.01,0.367 -0,0.55l-14.82,0l-2.11,-16l8.47,-1.75l0.26,-0.05c2.33,-0.58 2.33,-0.58 3.53,1.57c2.703,4.814 4.299,10.172 4.67,15.68Z" style="fill:#00eed0;fill-rule:nonzero;"/><path d="M176.561,113.062l-8.93,1.75c-1.371,-4.285 -3.395,-8.332 -6,-12c5.761,2.103 10.898,5.629 14.93,10.25Z" style="fill:#00eed0;fill-rule:nonzero;"/><path d="M152.791,101.922c3.45,2.53 7.91,9.56 8.73,13.75l-11.69,0.6l-0,-16.13c1.06,0.64 2.06,1.14 2.96,1.78Z" style="fill:#00eed0;fill-rule:nonzero;"/><path d="M143.871,100.182l-0,16.11l-11.85,-0.83c2.66,-6.19 5.2,-12.21 11.85,-15.28Z" style="fill:#00eed0;fill-rule:nonzero;"/><path d="M132.041,102.572c-2.568,3.733 -4.589,7.815 -6,12.12c-2.94,-0.56 -5.87,-1.13 -9,-1.74c4.145,-4.555 9.276,-8.106 15,-10.38Z" style="fill:#00eed0;fill-rule:nonzero;"/><path d="M124.241,120.402c-0.72,5.38 -1.42,10.72 -2.11,16.11l-14.85,0c0.125,-2.759 0.571,-5.494 1.33,-8.15c0.951,-3.383 2.382,-6.612 4.25,-9.59c0.197,-0.305 0.528,-0.498 0.89,-0.52c3.49,0.68 7,1.38 10.49,2.15Z" style="fill:#00eed0;fill-rule:nonzero;"/><path d="M143.871,122.042l-0,14.5l-15.49,0c-0.48,-1.56 1,-12.54 2,-15.3c2.21,0.17 4.44,0.39 6.67,0.52c2.23,0.13 4.51,0.2 6.82,0.28Z" style="fill:#00eed0;fill-rule:nonzero;"/><path d="M290.761,230.152c0.21,4.252 -0.017,8.515 -0.68,12.72l-3.54,-0.5c0.11,-0.66 0.19,-1.34 0.28,-2c0.55,-5.23 -0.4,-10.28 -1,-15.38c-0.109,-0.342 -0.275,-0.663 -0.49,-0.95c-0.287,2.104 -0.398,4.228 -0.33,6.35c0.173,4.665 -0.183,9.335 -1.06,13.92c-1.205,4.864 -3.45,9.408 -6.58,13.32c-4.31,5.75 -9.6,10.34 -16.5,12.84c-8,2.89 -16.34,3.47 -24.75,2.87c-10.5,-0.74 -20.22,-4.32 -29.73,-8.58c-4.78,-2.12 -9.42,-4.52 -14,-7l2.36,-4.39c6.589,3.367 13.386,6.309 20.35,8.81c3.218,1.252 6.528,2.255 9.9,3c5.85,1.17 11.77,1.95 17.74,0.6c2.34,-0.53 4.72,-0.93 7.1,-1.35c3.652,-0.641 7.172,-1.892 10.41,-3.7c3.969,-2.319 7.494,-5.326 10.41,-8.88c2.49,-2.86 3.34,-6.6 4.07,-10.21c1.636,-7.496 1.994,-15.214 1.06,-22.83c-0.705,-5.024 -2.049,-9.937 -4,-14.62c-1.55,-3.79 -3,-7.61 -4.74,-11.32c-0.987,-1.935 -2.127,-3.787 -3.41,-5.54c-4.51,-6.55 -9.11,-13 -13.57,-19.62c-3.64,-5.33 -8.21,-9.86 -12.35,-14.78c-1.81,-2.14 -3.64,-4.27 -5.54,-6.52c1.16,-1.64 2.26,-3.22 3.41,-4.88c0.4,-0.55 0.78,-1.12 1.18,-1.7c1.13,0.93 2.18,1.66 3.08,2.56c6.752,6.55 12.786,13.801 18,21.63c2.59,4 5.44,8 8.35,11.81c4.217,5.765 8.088,11.775 11.59,18c2.24,3.82 4.6,7.54 6.16,11.72c2.78,7.46 5.53,14.95 6.61,22.91c0.1,0.559 0.17,1.124 0.21,1.69Z" style="fill:#000050;fill-rule:nonzero;"/><path d="M286.541,242.372l3.54,0.5c-0.526,3.352 -1.322,6.657 -2.38,9.88c-2.76,8.46 -8.46,14.88 -15.3,20.35c-4.508,3.781 -9.799,6.513 -15.49,8c-6.22,1.46 -12.51,2.3 -18.91,1c-3.64,-0.73 -7.38,-0.95 -10.94,-1.86c-4.748,-1.183 -9.422,-2.642 -14,-4.37c-6.16,-2.36 -12.29,-4.82 -18.18,-7.77c-4.913,-2.545 -9.675,-5.373 -14.26,-8.47c-7.16,-4.69 -14.16,-9.52 -21.16,-14.31c-5.593,-3.891 -10.937,-8.129 -16,-12.69l3.32,-2.18c0.3,0.27 0.59,0.52 0.89,0.77c5.511,4.673 11.313,8.991 17.37,12.93c10.925,7.053 22.195,13.554 33.77,19.48c8.118,4.266 16.684,7.62 25.54,10c6.292,1.76 12.823,2.512 19.35,2.23c2.48,-0.17 4.94,-0.6 7.44,-0.8c5.961,-0.456 11.72,-2.368 16.77,-5.57c5.604,-3.525 10.282,-8.343 13.64,-14.05c2.469,-4.004 4.162,-8.438 4.99,-13.07Z" style="fill:#000050;fill-rule:nonzero;"/><path d="M285.791,224.972c0.63,5.1 1.58,10.15 1,15.38c-0.09,0.68 -0.17,1.36 -0.28,2c-0.831,4.632 -2.527,9.067 -5,13.07c-3.358,5.707 -8.036,10.525 -13.64,14.05c-5.05,3.202 -10.809,5.114 -16.77,5.57c-2.5,0.2 -5,0.63 -7.44,0.8c-6.513,0.285 -13.03,-0.461 -19.31,-2.21c-8.856,-2.38 -17.422,-5.734 -25.54,-10c-11.592,-5.928 -22.879,-12.432 -33.82,-19.49c-6.057,-3.939 -11.859,-8.257 -17.37,-12.93c-0.3,-0.25 -0.59,-0.5 -0.89,-0.77c-2,-1.81 -3.77,-3.92 -5.68,-5.87c0.07,-0.104 0.147,-0.205 0.23,-0.3c1.1,0.8 2.28,1.52 3.29,2.4c12,10.26 25.34,18.35 39,26.1c2.94,1.67 5.87,3.33 8.84,5c4.57,2.49 9.21,4.89 14,7c9.51,4.26 19.23,7.84 29.73,8.58c8.41,0.6 16.72,0 24.75,-2.87c6.9,-2.5 12.19,-7.09 16.5,-12.84c3.121,-3.917 5.355,-8.465 6.55,-13.33c0.877,-4.585 1.233,-9.255 1.06,-13.92c-0.068,-2.122 0.043,-4.246 0.33,-6.35c0.203,0.283 0.358,0.597 0.46,0.93Z" style="fill:#f8f3bd;fill-rule:nonzero;"/><path d="M276.641,33.632c1.966,10.166 1.624,20.644 -1,30.66c-1.948,7.334 -4.691,14.433 -8.18,21.17c-2.18,4.294 -4.393,8.564 -6.64,12.81l-4.4,-2.3c2.291,-4.275 4.312,-8.691 6.05,-13.22c1.7,-4.57 2.44,-9.47 3.81,-14.18c2.019,-7.222 2.959,-14.703 2.79,-22.2c-0.01,-2.738 -0.373,-5.464 -1.08,-8.11c-1.11,-4.09 -3.69,-7.1 -6.87,-9.73c0.32,0.717 0.688,1.412 1.1,2.08c2.38,4.06 4.39,8.33 4.56,13.09c0.178,4.423 0.021,8.852 -0.47,13.25c-0.619,4.378 -1.48,8.718 -2.58,13c-0.74,3.968 -1.783,7.872 -3.12,11.68c-2.37,6 -5.15,11.75 -8,17.51c-2,3.95 -4,7.9 -6.05,11.8l-4,-2.09c1,-1.78 1.95,-3.61 2.84,-5.46c2.68,-5.58 5.52,-11.09 8,-16.76c1.48,-3.586 2.739,-7.259 3.77,-11c1,-3.24 1.68,-6.55 2.4,-9.86c1.571,-6.756 2.107,-13.712 1.59,-20.63c-0.85,-9 -4.39,-16.58 -11.9,-22c-1.38,-1 -2.76,-2 -4.23,-2.81c-2.287,-1.346 -4.826,-2.208 -7.46,-2.53c-9.934,-1.303 -20.035,-0.318 -29.53,2.88c-3.53,1.14 -7,2.41 -10.46,3.65c-5,1.8 -9.26,4.81 -13.5,7.85c-9.613,6.894 -19.223,13.76 -28.83,20.6c-0.218,0.126 -0.445,0.233 -0.68,0.32c-1.78,-1.15 -3.68,-2.13 -5.36,-3.44c-1.049,-0.798 -1.97,-1.752 -2.73,-2.83c0.37,-0.43 0.72,-0.93 1.15,-1.35c7.479,-7.198 15.502,-13.808 24,-19.77c9.26,-6.4 18.77,-12.42 29.18,-16.84c3.69,-1.56 7.33,-3.31 11.09,-4.72c8,-3 16.09,-5.11 24.77,-3.71c2.85,0.47 5.77,0.53 8.65,0.85c7.28,0.78 13.2,4.44 18.46,9.21c2.487,2.396 4.796,4.97 6.91,7.7c3.62,4.55 4.9,10 5.95,15.43Zm-12.5,-13c-0.305,-0.952 -0.841,-1.815 -1.56,-2.51c-2,-1.58 -4.11,-3.06 -6.22,-4.52c-8.2,-5.64 -17.35,-7.38 -27.12,-6.5c-7.362,0.787 -14.593,2.507 -21.52,5.12c-9.366,3.193 -18.244,7.669 -26.38,13.3c-5.82,4.13 -11.54,8.43 -17.26,12.72c-1.33,1 -2.48,2.23 -3.71,3.36c0.13,0.15 0.25,0.3 0.38,0.47c2.89,-2 5.87,-3.88 8.7,-6c11.1,-8.3 22.64,-15.77 35.79,-20.57c8.8,-3.21 17.61,-6.12 27.09,-6.37c7.1,-0.2 14,0.6 20.32,4.12c3.96,2.3 8.18,4.09 11.49,7.43l-0,-0.05Z" style="fill:#000050;fill-rule:nonzero;"/><path d="M269.111,46.372c0.169,7.497 -0.771,14.978 -2.79,22.2c-1.37,4.71 -2.11,9.61 -3.81,14.18c-1.738,4.529 -3.759,8.945 -6.05,13.22l-1,1.85c-4,7.51 -8.11,15 -12.5,22.26c-2.31,3.82 -5.31,7.23 -8,10.83c-0.12,0.16 -0.35,0.23 -1,0.64c0.44,-0.83 0.59,-1.24 0.83,-1.58c4.336,-6.084 8.255,-12.455 11.73,-19.07c2.09,-3.9 4.09,-7.85 6.05,-11.8c2.86,-5.76 5.64,-11.56 8,-17.51c1.348,-3.793 2.405,-7.685 3.16,-11.64c1.1,-4.282 1.961,-8.622 2.58,-13c0.491,-4.398 0.648,-8.827 0.47,-13.25c-0.17,-4.76 -2.18,-9 -4.56,-13.09c-0.412,-0.668 -0.78,-1.363 -1.1,-2.08c3.18,2.63 5.76,5.64 6.87,9.73c0.721,2.644 1.097,5.37 1.12,8.11Z" style="fill:#fff;fill-rule:nonzero;"/><path d="M262.581,18.172c0.719,0.695 1.255,1.558 1.56,2.51c-3.31,-3.34 -7.53,-5.13 -11.49,-7.35c-6.32,-3.52 -13.22,-4.32 -20.32,-4.12c-9.48,0.25 -18.29,3.16 -27.09,6.37c-13.15,4.8 -24.69,12.27 -35.79,20.57c-2.83,2.09 -5.81,4 -8.7,6c-0.13,-0.17 -0.25,-0.32 -0.38,-0.47c1.23,-1.13 2.38,-2.36 3.71,-3.36c5.72,-4.29 11.44,-8.59 17.26,-12.72c8.136,-5.631 17.014,-10.107 26.38,-13.3c6.927,-2.613 14.158,-4.333 21.52,-5.12c9.77,-0.88 18.92,0.86 27.12,6.5c2.1,1.43 4.2,2.95 6.22,4.49Z" style="fill:#f8f3bd;fill-rule:nonzero;"/><path d="M256.461,95.972l4.4,2.3c-3.69,7.05 -7.46,14.08 -11.24,21.1c-2.674,5.045 -5.901,9.778 -9.62,14.11c-2,2.3 -3.86,4.71 -5.66,7.15c-2.29,3.11 -4.5,6.29 -6.86,9.36c-5.92,7.7 -11.81,15.45 -18.13,22.82c-6.32,7.37 -13,14.25 -19.65,21.23c-3.44,3.59 -7.17,6.92 -10.81,10.32c-3.81,3.58 -7.61,7.17 -11.54,10.61c-2.71,2.36 -5.63,4.52 -8.49,6.72c-0.962,0.795 -2.356,0.824 -3.35,0.07c-0.673,-0.403 -1.312,-0.861 -1.91,-1.37c-1.21,-1.13 -0.68,-1.91 1.45,-3.77c6.034,-5.437 11.75,-11.216 17.12,-17.31c5.69,-6.25 11.36,-12.5 17,-18.81c9.15,-10.26 17.93,-20.81 26,-31.9c4.32,-5.92 8.65,-11.84 12.89,-17.81c1.53,-2.15 3.06,-4.31 4.57,-6.47c3.594,-4.997 6.932,-10.173 10,-15.51l4,2.09c-3.475,6.615 -7.394,12.986 -11.73,19.07c-0.24,0.34 -0.39,0.75 -0.83,1.58c0.65,-0.41 0.88,-0.48 1,-0.64c2.69,-3.6 5.69,-7 8,-10.83c4.39,-7.3 8.51,-14.75 12.5,-22.26l0.89,-1.85Z" style="fill:#000050;fill-rule:nonzero;"/><path d="M224.571,126.302c0.495,0.564 0.52,1.408 0.06,2c-0.076,0.113 -0.159,0.22 -0.25,0.32c-1,1.13 -2,2.33 -3.29,3.91c-0.58,-0.75 -0.95,-1.27 -1.36,-1.75c-4.71,-5.73 -10.26,-10.62 -15.68,-15.63c-7.92,-7.31 -15.86,-14.58 -23.91,-21.73c-12.36,-10.88 -25.43,-20.89 -38.68,-30.69c-1.25,-0.91 -2.49,-1.83 -3.76,-2.71c-7.612,-5.342 -15.529,-10.237 -23.71,-14.66c-8.73,-4.77 -17.46,-9.58 -26.34,-14.09c-5.3,-2.67 -10.82,-4.93 -16.36,-7.06c-2.823,-0.958 -5.745,-1.599 -8.71,-1.91c-7.834,-1.083 -15.804,-0.662 -23.48,1.24c-6.43,1.55 -10.95,5.56 -15.18,10.1c-2.51,2.69 -3.51,6.3 -4.77,9.67c-2.73,7.39 -2.54,15 -1.68,22.67c0.7,6.2 2.89,11.78 5.52,17.35c5.22,11.08 11.64,21.47 18.29,31.71c3.44,5.29 7.6,10.15 11.51,15.15c0.805,0.862 1.678,1.658 2.61,2.38c-2.18,2.33 -4.21,4.47 -6.4,6.83c-0.715,-0.485 -1.384,-1.034 -2,-1.64c-3.08,-3.5 -6.34,-6.87 -9.11,-10.58c-5.26,-7 -10.23,-14.23 -15.3,-21.37c-4.544,-6.629 -8.598,-13.581 -12.13,-20.8c-2.145,-3.857 -4.091,-7.823 -5.83,-11.88c-2.305,-6.106 -3.766,-12.498 -4.34,-19c-0.782,-6.757 0.019,-13.605 2.34,-20c1.2,-3.19 3.21,-6.09 4.82,-9.13c4.09,-7.77 10.93,-12.2 18.69,-15.55c8.83,-3.82 18.13,-5 27.62,-4.52c3.21,0.252 6.382,0.856 9.46,1.8c8.901,2.534 17.593,5.75 26,9.62c11.24,5 21.71,11.49 32.35,17.65c6.92,4 13.16,8.91 19.64,13.51c2.1,1.5 4.17,3 6.22,4.58c11.768,8.94 22.97,18.602 33.54,28.93c9.89,9.54 19.53,19.33 29.24,29.06c3.787,3.834 7.5,7.737 11.14,11.71c1.149,1.448 2.224,2.953 3.22,4.51Zm-28.37,-24.92c0.08,-0.24 0.15,-0.35 0.15,-0.39c-2.88,-3.12 -5.67,-6.35 -8.7,-9.33c-3.49,-3.42 -7.26,-6.56 -10.82,-9.94c-8.845,-8.296 -18.107,-16.136 -27.75,-23.49c-4,-3.1 -8.17,-6 -12.31,-8.88c-4.47,-3.13 -8.87,-6.39 -13.55,-9.2c-12.31,-7.448 -25.128,-14.021 -38.36,-19.67c-6.87,-2.942 -13.917,-5.45 -21.1,-7.51c-5.87,-1.65 -11.88,-2.08 -17.87,-2.61c-2.734,-0.156 -5.477,-0.012 -8.18,0.43c-5.329,0.866 -10.445,2.732 -15.08,5.5c-6.176,3.269 -11.02,8.594 -13.69,15.05c-1.63,4 -2.56,8.28 -1.43,12.72c0.15,-0.53 0.34,-1.06 0.45,-1.6c1.758,-8.256 6.36,-15.638 13,-20.85c3.79,-3 8.23,-4.53 12.78,-5.95c7.192,-2.145 14.753,-2.771 22.2,-1.84c6.13,0.68 11.95,2.61 17.67,4.69c15.579,5.81 30.592,13.037 44.85,21.59c5.8,3.41 11.34,7.29 16.87,11.13c5.53,3.84 11.36,7.9 16.75,12.19c7.73,6.16 15.26,12.57 22.76,19c6.15,5.27 12.67,10.16 18.12,16.24c0.918,1.084 2.014,2.003 3.24,2.72Zm-156.4,19.45c0.153,-0.097 0.3,-0.204 0.44,-0.32c-1.45,-2.34 -2.76,-4.79 -4.38,-7c-7.792,-10.539 -14.619,-21.757 -20.4,-33.52c-1.165,-2.475 -2.167,-5.024 -3,-7.63c-0.84,-2.59 -1.42,-5.27 -2.13,-7.91c-0.5,-1.87 -1.07,-3.73 -1.6,-5.61l-0.5,0.1c0.17,1.42 0.29,2.83 0.5,4.23c0.18,1.19 0.45,2.37 0.73,3.55c0.93,3.81 1.7,7.7 2.91,11.43c0.985,2.548 2.165,5.015 3.53,7.38c5.813,11.564 12.98,22.397 21.35,32.27c0.89,1 1.71,2.03 2.55,3.03Z" style="fill:#000050;fill-rule:nonzero;"/><path d="M196.351,100.992c-0,0 -0.07,0.15 -0.15,0.39c-1.223,-0.718 -2.315,-1.637 -3.23,-2.72c-5.45,-6.08 -12,-11 -18.12,-16.24c-7.5,-6.43 -15,-12.84 -22.76,-19c-5.39,-4.29 -11.08,-8.25 -16.75,-12.19c-5.67,-3.94 -11.07,-7.72 -16.87,-11.13c-14.274,-8.556 -29.304,-15.783 -44.9,-21.59c-5.72,-2.08 -11.54,-4 -17.67,-4.69c-7.447,-0.931 -15.008,-0.305 -22.2,1.84c-4.55,1.42 -9,2.91 -12.78,5.95c-6.64,5.212 -11.242,12.594 -13,20.85c-0.11,0.54 -0.3,1.07 -0.45,1.6c-1.13,-4.44 -0.2,-8.68 1.43,-12.72c2.67,-6.456 7.514,-11.781 13.69,-15.05c4.635,-2.768 9.751,-4.634 15.08,-5.5c2.703,-0.442 5.446,-0.586 8.18,-0.43c6,0.53 12,1 17.87,2.61c7.183,2.06 14.23,4.568 21.1,7.51c13.232,5.649 26.05,12.222 38.36,19.67c4.68,2.81 9.08,6.07 13.55,9.2c4.14,2.89 8.3,5.78 12.31,8.88c9.643,7.354 18.905,15.194 27.75,23.49c3.56,3.38 7.33,6.52 10.82,9.94c3.07,2.97 5.85,6.21 8.74,9.33Z" style="fill:#f8f3bd;fill-rule:nonzero;"/><path d="M194.751,253.352l-2.36,4.39c-3,-1.63 -5.9,-3.29 -8.84,-5c-13.64,-7.75 -27,-15.84 -39,-26.1c-1,-0.88 -2.19,-1.6 -3.29,-2.4c-0.083,0.095 -0.16,0.196 -0.23,0.3c1.91,1.95 3.69,4.06 5.68,5.87l-3.25,2.22l-2.2,-1.95l-0.25,-0.21c-7.06,-6.29 -14.3,-12.37 -21.25,-18.77c-10.79,-10 -21.43,-20.14 -32.07,-30.28c-5.47,-5.22 -10.94,-10.43 -16.14,-15.88c-3.182,-3.514 -6.185,-7.185 -9,-11c-1.18,-1.5 -1.26,-1.78 -0.35,-2.94l0.47,-0.59c1.15,-1.41 2.33,-2.79 3.49,-4.19c5.66,5.79 11,11.58 16.66,17c5.66,5.42 11.94,10.74 18,16.06c6.5,5.75 12.94,11.57 19.54,17.21c10.27,8.78 20.56,17.56 31,26.1c0.35,0.3 0.72,0.6 1.07,0.88c10.691,8.773 21.905,16.888 33.58,24.3c2.82,1.77 5.75,3.43 8.74,4.98Z" style="fill:#000050;fill-rule:nonzero;"/><path d="M169.461,158.542c0.029,0.012 0.061,0.012 0.09,0c3.47,0.72 6.93,1.45 10.42,2.11c0.317,-0.005 0.611,-0.171 0.78,-0.44c1.12,-2.25 2.3,-4.48 3.23,-6.81c1.367,-3.521 2.189,-7.23 2.44,-11l-14.85,0c-0.71,5.43 -1.41,10.75 -2.11,16.14Zm-45.22,-38.14c-3.49,-0.73 -7,-1.47 -10.49,-2.15c-0.362,0.022 -0.693,0.215 -0.89,0.52c-1.868,2.978 -3.299,6.207 -4.25,9.59c-0.759,2.656 -1.205,5.391 -1.33,8.15l14.85,0c0.69,-5.39 1.39,-10.73 2.11,-16.11Zm22.61,-26.57c0.003,0 0.006,0 0.01,0c25.043,0 45.65,20.607 45.65,45.65c-0,25.043 -20.607,45.65 -45.65,45.65c-25.043,0 -45.65,-20.607 -45.65,-45.65c-0,-0.026 -0,-0.053 -0,-0.08c0.038,-25.011 20.629,-45.57 45.64,-45.57Zm39.61,42.68c0.01,-0.183 0.01,-0.366 -0,-0.55c-0.367,-5.519 -1.963,-10.887 -4.67,-15.71c-1.2,-2.15 -1.2,-2.15 -3.53,-1.57l-0.26,0.05l-8.54,1.75l2.11,16l14.89,0.03Zm-25,40.02c5.821,-2.362 11.013,-6.05 15.16,-10.77l-8.46,-1.53c-0.6,-0.12 -0.67,0.26 -0.85,0.66c-1.3,2.93 -2.59,5.85 -4,8.73c-0.564,1.003 -1.181,1.975 -1.85,2.91Zm6.13,-61.72l8.93,-1.75c-4.022,-4.632 -9.152,-8.173 -14.91,-10.29c2.616,3.679 4.647,7.74 6.02,12.04l-0.04,0Zm-17.8,21.7l15.67,0c-0.165,-5.133 -0.868,-10.234 -2.1,-15.22c-4.54,0.29 -9,0.55 -13.53,0.82l-0.04,14.4Zm13.55,21.12c1.23,-4.27 2.42,-13.8 2,-15.23l-15.51,0l-0,14.43l13.51,0.8Zm-1.82,-42c-0.82,-4.19 -5.28,-11.22 -8.73,-13.75c-0.9,-0.64 -1.9,-1.14 -3,-1.78l-0,16.13l11.73,-0.6Zm-11.71,63c4.24,-1 10.44,-9 11.71,-15.1l-11.71,-0.9l-0,16Zm-5.92,-21.75l-0,-14.44l-15.66,0c0.157,5.125 0.864,10.217 2.11,15.19l13.55,-0.75Zm-0,21.81l-0,-16l-11.8,0.6c1.69,4.5 3.66,8.61 6.85,12c1.355,1.488 3.045,2.633 4.93,3.34l0.02,0.06Zm-0,-42.1l-0,-14.5c-2.31,-0.08 -4.55,-0.15 -6.78,-0.28c-2.23,-0.13 -4.46,-0.35 -6.67,-0.52c-1,2.76 -2.52,13.74 -2,15.3l15.45,0Zm-0,-20.25l-0,-16.16c-6.65,3.07 -9.19,9.09 -11.85,15.28l11.85,0.88Zm-11.82,60.07c-2.58,-3.762 -4.601,-7.878 -6,-12.22l-8.93,1.75c4.071,4.609 9.183,8.181 14.91,10.42l0.02,0.05Zm-6,-61.67c1.411,-4.305 3.432,-8.387 6,-12.12c-5.724,2.274 -10.855,5.825 -15,10.38c3.09,0.56 6.02,1.13 8.96,1.69l0.04,0.05Zm-1.79,43.85c-0.72,-5.44 -1.42,-10.76 -2.11,-16.11l-14.93,0c0.367,6.352 2.324,12.511 5.69,17.91c0.119,0.258 0.378,0.423 0.662,0.423c0.118,0 0.234,-0.028 0.338,-0.083c2.21,-0.51 4.42,-1 6.65,-1.49c1.25,-0.32 2.56,-0.52 3.66,-0.7l0.04,0.05Z" style="fill:#000050;fill-rule:nonzero;"/><path d="M138.821,232.912l4.51,3.84c-2.889,3.336 -5.985,6.485 -9.27,9.43c-5.53,5.06 -11.82,9.11 -17.9,13.45c-4.83,3.44 -9.68,6.9 -14.75,10c-7.325,4.358 -15.198,7.721 -23.41,10c-8.043,2.388 -16.43,3.402 -24.81,3c-4.59,-0.26 -9.16,-0.78 -13.4,-2.78c-4.87,-2.29 -9.76,-4.58 -13.94,-8.08c-1.06,-0.858 -2.034,-1.815 -2.91,-2.86c-5.37,-6.71 -9.91,-13.93 -11.9,-22.39c-0.803,-3.205 -1.222,-6.495 -1.25,-9.8c0.07,-5.62 0.15,-11.3 1.57,-16.79c1.64,-6.3 3.27,-12.62 5.35,-18.79c3.61,-10.76 9.49,-20.4 15.61,-29.84c7,-10.85 14.14,-21.65 21.68,-32.14c1.22,-1.7 2.48,-3.366 3.78,-5c3.87,-4.91 8.05,-9.61 12.14,-14.37c8.28,-9.61 16.77,-19.05 25.1,-28.65c6.417,-7.209 13.414,-13.881 20.92,-19.95c3,-2.46 6,-4.82 8.93,-7.35c1.83,-1.56 4.11,-1.76 6.23,-2.41c0.481,-0.06 0.968,0.058 1.37,0.33c0.93,0.53 1.81,1.13 2.79,1.76c0.32,0.22 0.65,0.44 1,0.65c-0.4,0.45 -0.67,0.8 -1,1.1c-2.68,2.31 -5.5,4.46 -8,6.95c-7.62,7.62 -15.28,15.2 -22.56,23.11c-10.113,11.007 -20.047,22.177 -29.8,33.51c-5.64,6.554 -10.973,13.32 -16,20.3c-4.087,5.627 -7.983,11.397 -11.69,17.31c-2,3.19 -3.47,6.71 -5.34,10c-4.032,7.142 -7.567,14.553 -10.58,22.18c-3.062,7.359 -5.373,15.008 -6.9,22.83c-0.6,3.48 -1,7 -1.31,10.53c-0.55,5.07 1.19,9.69 2.84,14.31c2.595,7.408 7.446,13.82 13.87,18.33c1.668,1.269 3.61,2.128 5.67,2.51c9.305,1.571 18.818,1.449 28.08,-0.36c8.65,-1.63 16.5,-5.24 24.46,-8.7c4.75,-2.06 8.86,-5.19 13.42,-7.57c7.763,-4.064 14.939,-9.164 21.33,-15.16c1.4,-1.31 2.94,-2.46 4.54,-3.77l1.53,1.33Zm-16.63,16.88c0.756,-0.373 1.072,-1.303 0.7,-2.06c-0.6,0.35 -1.13,0.61 -1.61,0.95c-1.52,1 -3,2.17 -4.51,3.19c-5.712,3.611 -11.701,6.765 -17.91,9.43c-8.73,3.94 -17.57,7.58 -27.06,9.27c-5.296,1.038 -10.66,1.69 -16.05,1.95c-4.105,0.253 -8.223,-0.152 -12.2,-1.2c-1.9,-0.55 -3.88,-0.86 -5.82,-1.28l-0.15,0.3c0.361,0.368 0.775,0.678 1.23,0.92c1.13,0.41 2.32,0.63 3.44,1.06c6.58,2.58 13.38,2.64 20.23,1.81c4.33,-0.53 8.6,-1.33 12.89,-2c6.2,-0.989 12.232,-2.841 17.92,-5.5c8.557,-3.919 16.778,-8.534 24.58,-13.8c1.46,-0.98 2.91,-1.99 4.32,-3.04Zm-6.18,-172.64c-0.565,0.056 -1.095,0.303 -1.5,0.7c-3.62,3.29 -7.4,6.43 -10.79,9.94c-7.18,7.37 -14.17,14.92 -21.22,22.4c-11.886,12.422 -22.792,25.745 -32.62,39.85c-5,7.35 -9.94,14.8 -15,22.17c-3.774,5.604 -7.024,11.542 -9.71,17.74c-4.17,9.41 -7.75,19.05 -9.64,29.25c-1.053,5.131 -1.645,10.345 -1.77,15.58c-0.062,5.242 1.048,10.433 3.25,15.19c0.74,1.58 1.62,3.08 2.44,4.62c0.15,0 0.32,-0.08 0.46,-0.13c0.14,-0.05 0.14,-0.31 0.1,-0.45c-0.16,-0.63 -0.33,-1.24 -0.54,-1.86c-1.653,-4.453 -2.722,-9.102 -3.18,-13.83c-0.68,-8.95 0.8,-17.68 3.28,-26.24c1.29,-4.47 2.92,-8.85 4.47,-13.25c2.34,-6.847 5.394,-13.43 9.11,-19.64c3.09,-5.09 6.48,-10 9.69,-15c9.317,-14.458 19.576,-28.288 30.71,-41.4c6.49,-7.65 13.36,-15 20,-22.5c4.989,-5.779 10.333,-11.243 16,-16.36c2.38,-2.03 4.33,-4.5 6.46,-6.78Z" style="fill:#000050;fill-rule:nonzero;"/><path d="M122.891,247.732c0.372,0.757 0.056,1.687 -0.7,2.06c-1.41,1 -2.86,2.06 -4.32,3.06c-7.802,5.259 -16.023,9.868 -24.58,13.78c-5.689,2.656 -11.72,4.504 -17.92,5.49c-4.29,0.66 -8.56,1.46 -12.89,2c-6.85,0.83 -13.65,0.77 -20.23,-1.81c-1.12,-0.43 -2.31,-0.65 -3.44,-1.06c-0.455,-0.242 -0.869,-0.552 -1.23,-0.92l0.15,-0.3c1.94,0.42 3.92,0.73 5.82,1.28c3.977,1.048 8.095,1.453 12.2,1.2c5.39,-0.26 10.754,-0.912 16.05,-1.95c9.49,-1.69 18.33,-5.33 27.06,-9.27c6.209,-2.665 12.198,-5.819 17.91,-9.43c1.55,-1 3,-2.15 4.51,-3.19c0.48,-0.33 1.01,-0.59 1.61,-0.94Z" style="fill:#f8f3bd;fill-rule:nonzero;"/><path d="M114.511,77.852c0.405,-0.397 0.935,-0.644 1.5,-0.7c-2.13,2.28 -4.08,4.75 -6.4,6.8c-5.667,5.117 -11.011,10.581 -16,16.36c-6.68,7.5 -13.55,14.85 -20,22.5c-11.134,13.112 -21.393,26.942 -30.71,41.4c-3.21,5 -6.6,9.89 -9.69,15c-3.716,6.21 -6.77,12.793 -9.11,19.64c-1.55,4.4 -3.18,8.78 -4.47,13.25c-2.48,8.56 -4,17.29 -3.28,26.24c0.437,4.718 1.483,9.36 3.11,13.81c0.21,0.62 0.38,1.23 0.54,1.86c-0,0.14 -0.06,0.3 -0.1,0.45c-0.04,0.15 -0.31,0.08 -0.46,0.13c-0.82,-1.54 -1.7,-3 -2.44,-4.62c-2.202,-4.757 -3.312,-9.948 -3.25,-15.19c0.125,-5.235 0.717,-10.449 1.77,-15.58c1.89,-10.2 5.47,-19.84 9.64,-29.25c2.686,-6.198 5.936,-12.136 9.71,-17.74c5,-7.37 9.94,-14.82 15,-22.17c9.819,-14.104 20.715,-27.427 32.59,-39.85c7,-7.48 14,-15 21.22,-22.4c3.43,-3.51 7.21,-6.65 10.83,-9.94Z" style="fill:#f8f3bd;fill-rule:nonzero;"/><path d="M40.241,120.512c-0.14,0.116 -0.287,0.223 -0.44,0.32c-0.84,-1 -1.66,-2 -2.52,-3c-8.37,-9.873 -15.537,-20.706 -21.35,-32.27c-1.365,-2.365 -2.545,-4.832 -3.53,-7.38c-1.21,-3.73 -2,-7.62 -2.91,-11.43c-0.28,-1.18 -0.55,-2.36 -0.73,-3.55c-0.21,-1.4 -0.33,-2.81 -0.5,-4.23l0.5,-0.1c0.53,1.88 1.1,3.74 1.6,5.61c0.71,2.64 1.29,5.32 2.13,7.91c0.833,2.606 1.835,5.155 3,7.63c5.786,11.753 12.616,22.961 20.41,33.49c1.56,2.21 2.89,4.66 4.34,7Z" style="fill:#fff;fill-rule:nonzero;"/></g></svg>