<?xml version="1.0" encoding="UTF-8" standalone="no"?>
<!DOCTYPE svg PUBLIC "-//W3C//DTD SVG 1.1//EN" "http://www.w3.org/Graphics/SVG/1.1/DTD/svg11.dtd">
<svg width="100%" height="100%" viewBox="0 0 591 852" version="1.1" xmlns="http://www.w3.org/2000/svg" xmlns:xlink="http://www.w3.org/1999/xlink" xml:space="preserve" xmlns:serif="http://www.serif.com/" style="fill-rule:evenodd;clip-rule:evenodd;stroke-linejoin:round;stroke-miterlimit:2;">
    <g transform="matrix(1,0,0,1,-25.9473,-72.9097)">
        <g>
            <path d="M563.23,405.5C560.948,400.153 557.674,395.287 553.58,391.16C550.856,388.342 547.928,385.729 544.82,383.34C540.54,380.22 537.82,376.03 535.57,371.41C534.66,369.55 533.57,367.67 534.32,365.41C534.76,364.08 535.01,362.69 535.32,361.33C537.32,353.44 535.08,346.94 528.97,341.73C525.74,338.95 521.97,337.05 518.26,334.96C515.64,333.565 513.141,331.952 510.79,330.14C508.044,327.979 506.967,324.289 508.12,320.99C508.762,318.541 509.731,316.19 511,314C517.65,303.15 525.83,293.64 536.51,286.46C542.44,282.596 547.449,277.475 551.18,271.46C555.011,265.113 556.701,257.7 556,250.32C555.64,243.226 553.167,236.399 548.9,230.72C545.499,226.206 541.583,222.105 537.23,218.5C530.116,212.628 521.514,208.838 512.38,207.55C506.12,206.62 500.04,207.95 493.97,209.12C491.993,209.647 489.918,209.692 487.92,209.25C483.727,208.056 480.721,204.331 480.44,199.98C480.132,195.196 480.933,190.404 482.78,185.98C485.24,179.79 487.78,173.64 489.3,167.11C491.39,158.11 491.2,149.2 487.81,140.49C485.03,133.39 480.52,127.88 473.26,125.04C466.95,122.58 460.51,122.73 454.04,124.41C448.26,125.9 443.17,128.8 438.28,132.08C431.22,136.81 424.84,142.39 418.47,147.95C411.515,154.18 403.813,159.521 395.54,163.85C389.36,167 383.02,169.63 376.08,170.6C370.08,171.42 364.69,170.09 360.16,165.97C357.83,163.88 355.69,161.6 353.46,159.39C350.57,156.53 347.86,153.44 344.74,150.84C337.74,145.02 329.74,142.53 320.63,144.5C317.187,145.27 313.847,146.445 310.68,148C307.22,149.65 303.77,151.34 300.23,152.8C297.299,154.053 293.966,153.984 291.09,152.61C288.01,151.23 285.178,149.352 282.71,147.05C278.71,143.34 274.66,139.59 270.71,135.78C264.62,129.91 258,124.87 250.15,121.54C242.96,118.48 235.58,117.18 227.89,119.31C220.57,121.31 214.38,126.4 213.16,135.47C212.714,139.844 212.677,144.249 213.05,148.63C213.419,152.783 213.201,156.968 212.4,161.06C211.737,164.316 210.001,167.257 207.47,169.41C202.47,173.62 196.6,174.98 190.29,174.24C185.89,173.7 181.56,172.45 177.17,171.63C171.02,170.48 164.74,168.79 158.7,172.22C156.499,173.54 154.636,175.354 153.26,177.52C151.763,179.837 150.395,182.234 149.16,184.7C147.56,187.77 144.77,189.28 141.71,190.43C141.163,190.632 140.569,190.67 140,190.54C134.928,189.606 129.721,189.684 124.68,190.77C115.916,192.244 107.723,196.098 101,201.91C93.68,207.99 87.801,215.621 83.79,224.25C81.833,228.445 80.77,233.002 80.67,237.63C80.498,246.361 83.599,254.847 89.36,261.41C93.25,266.01 97.36,270.41 101.67,274.66C107.82,280.66 113.2,287.25 116.51,295.32C117.075,296.436 117.415,297.653 117.51,298.9C117.468,301.713 117.183,304.516 116.66,307.28C115.82,311.34 113.47,314.73 111.2,318.13C108.93,321.53 106.77,324.77 104.76,328.23C100.579,335.046 99.913,343.471 102.97,350.86C104.74,355.45 107.97,358.98 111.47,362.25C114.41,364.96 117.47,367.59 120.47,370.25C122.78,372.244 124.74,374.61 126.27,377.25C129.279,382.309 129.88,388.454 127.91,394C126.302,398.786 123.759,403.205 120.43,407C116.477,411.567 112.377,416 108.13,420.3C101.032,427.272 94.545,434.84 88.74,442.92C84.15,449.51 80.83,456.64 79.82,464.69C79.26,469.03 79.33,473.41 81.04,477.45C85.18,487.24 92.1,494.34 102.27,497.78C108.58,499.9 115.07,501.45 121.46,503.35C128.7,505.49 128.96,512.35 134.18,517.82C143.26,527.34 158.61,515.45 163.48,514.64C167.71,513.93 170.34,513.29 171.36,516.87C171.96,519.803 171.99,522.825 171.45,525.77C170.07,534.04 160.26,536.62 157.84,545.2C156.25,550.86 159.06,557.78 161.48,559.68C163.7,561.43 166.17,562.84 168.48,564.5C172.38,567.35 167.29,569.68 165.64,572.56C160.99,580.71 145.52,569.74 140.7,576.56C134.95,584.69 170.43,583.56 172.3,586.56C174.04,589.32 166.88,590.28 163.95,591.74C158.48,594.45 173.01,597.25 167.49,599.9C163.49,601.82 144.84,598.21 136.79,607.16C127.86,617.09 137.79,627 146.94,634.81C151.62,638.81 158.09,639 159.1,642.71C160.97,649.58 152.34,651.71 155.5,655.8C158.22,659.36 156.94,665.05 155.22,669.37C154.29,671.77 161.03,678.37 161.22,678.11C163.36,675.69 157.43,671.64 159.46,669.11C166.05,660.69 171.87,660.81 166.58,654.57C162.58,649.9 175.18,646.86 175.87,644.16C177.05,639.6 173.06,637.65 168.06,634.86C164.14,632.69 154.45,628.56 157.72,625.34C163.14,619.99 177.3,625.11 179.26,621.73C182.76,615.73 175.58,612.83 182.08,610.79C186.42,609.41 190.85,608.38 195.15,606.94C200.91,605.02 216.59,601.74 217.78,595.74C218.97,589.74 194.27,588.25 194.78,582.05C195.22,576.65 218.44,581.45 217.88,568.55C217.58,561.86 202.77,560.46 202.55,554.79C202.42,551.54 205.46,549.24 208.07,547.3C209.267,546.441 210.508,545.646 211.79,544.92C213.765,543.675 216.3,543.711 218.24,545.01C220.43,546.31 225.97,544.43 227.52,546.45C229.07,548.47 229.07,550.52 230.72,552.61C235.72,558.96 242.44,562.05 250.41,562.72C251.25,562.8 254.63,562.91 255.46,563.02L258.07,559.27C270.12,559.93 312.07,561.93 329.07,559.08C345.24,556.37 371.07,552.25 380.37,550.77L382.27,553.16C385.88,550.69 390.96,547.81 395.27,549.39C396.666,549.9 398.034,550.48 399.37,551.13C404.76,553.86 410.43,554.03 416.11,552.59C419.74,551.67 423.24,550.18 426.77,548.92C429.535,547.759 432.593,547.486 435.52,548.14C442.25,549.85 447.52,553.76 452.03,558.85C454.34,561.46 459.2,565.26 459.03,568.85C458.92,570.64 455.09,575.73 449.13,577.85C445,579.3 449.07,586.75 445.33,589.06C439.2,592.85 429.44,588.45 426.24,594.97C422.54,602.49 423.84,609.23 430.8,614.22C432.656,615.521 434.673,616.576 436.8,617.36C443.06,619.75 447.03,617.8 453.58,619.08C457.51,619.86 460.86,627.89 468.77,627.72C472.77,627.63 488.04,618.34 489.84,622.02C492.36,627.15 491.46,633.29 489.41,638.45C488.49,640.78 479.13,663.62 477.63,670.93C477.62,670.983 477.615,671.036 477.615,671.09C477.615,671.562 478.003,671.95 478.475,671.95C478.744,671.95 478.998,671.824 479.16,671.61C484.26,664.71 498.16,645.78 501.16,642.94C505.47,638.94 507.75,638.59 509.16,632.74C510.57,626.89 505.16,624.95 503.77,619.21C503.228,617.158 502.526,615.152 501.67,613.21C499.49,608.08 495.13,605.62 490.06,604.15C487.11,603.29 484.13,602.59 481.27,601.56C479.659,600.958 478.171,600.067 476.88,598.93C474.832,597.406 474.225,594.569 475.47,592.34C475.985,591.036 476.723,589.832 477.65,588.78C480.609,585.888 483.713,583.148 486.95,580.57C492.72,576.13 498.59,578.08 503.86,572.99C510.45,566.67 490.92,562.82 492.37,553.92C493.18,548.92 509.77,545.92 509.07,536.84C508.92,534.84 508.3,532.78 508.36,530.77C508.417,526.819 510.761,523.241 514.36,521.61C517.765,519.822 520.867,517.506 523.55,514.75C526.96,511.3 528.64,503.75 523.83,498.45C522.159,496.578 520.115,495.076 517.83,494.04C514.83,492.69 511.78,491.46 508.78,490.13C500.56,486.47 499.58,478.94 503.78,472.67C506.333,468.962 509.77,465.947 513.78,463.9C519.83,460.64 526.03,457.58 532.16,454.44C537.96,451.44 543.62,448.26 548.54,443.95C553.46,439.64 558.86,435.95 561.54,429.68C561.54,429.62 561.62,429.55 561.65,429.49C566.1,421.71 566.86,413.7 563.23,405.5Z" style="fill:rgb(248,243,189);fill-rule:nonzero;"/>
            <path d="M337.12,594C337.251,595.102 336.608,596.159 335.57,596.55C334.416,596.923 333.157,596.309 332.74,595.17C332.165,594.18 331.823,593.072 331.74,591.93C331.74,589.63 331.54,587.34 331.74,585.06C331.873,584.574 332.075,584.109 332.34,583.68C332.879,582.73 334.023,582.289 335.06,582.63C336.163,582.804 336.979,583.773 336.96,584.89C337.05,586.54 337.08,592.63 337.12,594Z" style="fill:white;fill-rule:nonzero;"/>
            <path d="M308.37,583.93C308.48,585.74 308.63,593.78 308.47,595.93C308.478,597.059 307.596,598.011 306.47,598.09C305.362,598.198 304.325,597.497 304.01,596.43C303.743,595.921 303.599,595.355 303.59,594.78C303.74,591.42 303.36,588.07 303.59,584.72C303.621,584.126 303.76,583.544 304,583C304.633,582.143 305.725,581.747 306.76,582C307.681,582.183 308.355,582.991 308.37,583.93Z" style="fill:white;fill-rule:nonzero;"/>
            <path d="M319.81,519.8C317.91,524.24 314.72,526.7 311.14,528.8C304.31,532.8 298.44,533.54 291.51,531.41C291.845,530.985 292.216,530.59 292.62,530.23C298.556,526.08 305.064,522.816 311.94,520.54C314.34,519.72 316.8,519.82 319.81,519.8Z" style="fill:white;fill-rule:nonzero;"/>
            <path d="M374.61,554.44C370.197,557.814 364.654,559.368 359.13,558.78C354.927,558.393 350.916,556.83 347.56,554.27C345.798,553.008 344.579,551.124 344.15,549C343.004,543.318 343.317,537.438 345.06,531.91C345.475,530.882 345.953,529.88 346.49,528.91C352.36,530.87 370.49,545.86 374.61,554.44Z" style="fill:white;fill-rule:nonzero;"/>
            <path d="M393.53,631.52C391.84,636.87 390.01,642.03 384.85,645.37C380.427,648.059 375.709,650.229 370.79,651.84C368.91,652.5 367.26,651.42 366.79,649.31C366.593,648.088 366.466,646.856 366.41,645.62C366.383,641.11 368.188,636.777 371.41,633.62C374.36,630.7 377.41,627.97 381.41,626.67C385.281,625.213 389.66,626.075 392.69,628.89C393.544,629.463 393.894,630.558 393.53,631.52Z" style="fill:white;fill-rule:nonzero;"/>
            <path d="M290.81,656.33C283.74,656.78 274.75,654.51 263.01,649.33C265.49,644.55 272.1,641.76 278.44,642.83C284.78,643.9 289.76,649.36 290.81,656.33Z" style="fill:white;fill-rule:nonzero;"/>
            <path d="M278.32,578.4C279.247,582.329 279.474,586.392 278.99,590.4C278.469,594.644 275.941,598.389 272.2,600.46C267.241,603.472 261.482,604.906 255.69,604.57C254.952,604.54 254.219,604.44 253.5,604.27C250.2,603.44 250.02,603.02 250.84,599.71C252.2,594.21 253.43,588.71 254.91,583.18C256.334,577.82 258.552,572.703 261.49,568C266.719,567.776 271.829,569.637 275.69,573.17C277.118,574.576 278.043,576.415 278.32,578.4Z" style="fill:white;fill-rule:nonzero;"/>
            <path d="M312.11,617.93C311.84,622.61 311.66,627.31 311.18,631.93C310.74,636.04 309.35,639.74 305.74,642.3C302.31,644.75 299.44,644.52 296.56,641.54C292.82,637.68 291.22,632.94 290.61,627.77C289.73,620.46 290.03,613.12 290.23,605.77C290.39,599.52 290.74,593.27 291.04,587.01C291.21,583.89 291.42,580.78 291.66,577.65C291.871,574.761 292.89,571.988 294.6,569.65C296.25,567.39 298.72,566.46 301.38,566.07C303.05,565.84 304.79,565.39 306.85,566.74C301.42,567.85 299.34,571.5 298.42,575.88C296.062,587.03 295.788,598.52 297.61,609.77C298.018,612.656 299.488,615.288 301.73,617.15C304.63,619.53 307.25,619.58 310.28,617.39L311.86,616.17C312,616.747 312.084,617.337 312.11,617.93Z" style="fill:white;fill-rule:nonzero;"/>
            <path d="M350.8,587.16C350.92,596.39 350.85,605.61 350.8,614.84C350.719,621.523 349.778,628.168 348,634.61C347.368,636.922 346.2,639.054 344.59,640.83C341.9,643.89 336.41,644.65 332.34,640.35C330.535,638.426 329.395,635.971 329.09,633.35C328.386,627.796 328.122,622.195 328.3,616.6C328.84,616.87 329.24,617.07 329.64,617.25C332.688,618.839 336.481,617.924 338.47,615.12C340.73,612.3 341.83,608.92 342.96,605.58C343.969,602.518 344.429,599.302 344.32,596.08C344.19,589.5 344.32,582.9 343.08,576.38C342.3,572.11 341.13,568.03 336.83,565.27C343.34,563.71 349.11,567.45 349.88,573.64C350.425,578.127 350.732,582.64 350.8,587.16Z" style="fill:white;fill-rule:nonzero;"/>
            <path d="M340.12,556C336.434,555.992 332.916,557.562 330.46,560.31C327.53,563.256 325.673,567.103 325.19,571.23C323.598,584.651 323.053,598.175 323.56,611.68C323.8,618.03 323.98,624.37 324.25,630.68C324.4,633.98 324.53,637.27 326.06,640.33C327.296,642.653 329.027,644.678 331.13,646.26C333.67,648.26 336.8,648.44 339.84,648.19C345.58,647.74 349.5,644.73 351.95,639.45C355.44,631.87 356.5,623.83 356.74,615.65C357.087,602.135 356.753,588.611 355.74,575.13C355.623,572.91 355.261,570.71 354.66,568.57C353.899,566.451 352.986,564.389 351.93,562.4C353.3,562.61 354.81,562.88 356.34,563.11C360.755,563.898 365.309,563.195 369.28,561.11C370.526,560.35 371.689,559.462 372.75,558.46C373.67,557.68 374.46,556.77 375.31,555.9C383.46,564.32 395.85,608.31 394.22,622.84C392.9,622.34 391.64,621.84 390.36,621.38C385.667,619.831 380.524,620.397 376.28,622.93C366.81,628.15 361.48,635.93 361.83,647.14C361.79,649.598 362.619,651.993 364.17,653.9C361.039,654.917 357.807,655.587 354.53,655.9C336.34,658.25 318.05,658.03 299.76,657.5C298.76,657.5 297.81,657.31 297.08,657.25C295.85,653.64 294.7,650.25 293.56,646.86C293.936,647.036 294.3,647.236 294.65,647.46C297.688,649.547 301.598,649.925 304.98,648.46C312.26,645.56 315.6,639.86 316.23,632.46C316.82,625.46 317.23,618.46 317.32,611.46C317.47,600.08 317.32,588.71 317.18,577.34C317.197,572.881 316.22,568.474 314.32,564.44C310.91,557.44 303.53,555.92 297.32,558.6C294.374,559.904 291.896,562.078 290.22,564.83C287.316,569.347 285.663,574.555 285.43,579.92C285.28,582.61 285.17,585.3 285.05,588L283.37,587.93C283.543,583.971 283.128,580.008 282.14,576.17C280.73,570.45 276.71,567.17 271.52,565.03C269.32,564.15 266.98,563.67 264.37,562.89C270.253,552.522 277.808,543.196 286.73,535.29C301.1,540.77 319.37,533.59 323.88,520.29C330.268,521.036 336.459,522.976 342.13,526.01C337.58,535.8 335.83,545.61 341.07,555.84C340.762,555.935 340.442,555.989 340.12,556Z" style="fill:rgb(255,70,21);fill-rule:nonzero;"/>
            <path d="M335,871.27C336.79,871 338.6,870.7 340.5,870.42C340.5,870.5 340.7,870.72 340.67,870.93C339.94,877.1 341.18,883.06 342.5,889.02C343.31,892.65 343.99,896.32 343.5,900.02C343.338,901.657 342.841,903.243 342.04,904.68C339.405,908.918 335.202,911.952 330.35,913.12C325.647,914.201 320.791,911.79 318.81,907.39C320.16,905.64 321.57,903.95 322.81,902.15C324.907,899.156 325.868,895.509 325.52,891.87C325.19,886.74 323.86,881.87 322.84,876.81C321.91,872.24 320.56,867.67 321.25,862.89C321.58,860.55 322.13,858.22 322.58,855.89C323.29,852.16 324.04,848.45 324.69,844.73C324.92,843.37 324.85,841.95 324.95,840.34C327.968,839.901 331.05,840.371 333.8,841.69C334.307,841.955 334.786,842.27 335.23,842.63C336.372,843.656 338.086,843.756 339.34,842.87C340.82,841.95 342.41,841.25 343.84,840.29C351.19,835.29 358.47,830.29 365.31,824.59C369.11,821.472 372.723,818.133 376.13,814.59C382.2,808.22 382.92,796.59 375.04,788.95C371.224,785.185 366.663,782.259 361.65,780.36C357.34,778.74 353.02,777.18 348.65,775.77C346.519,775.134 344.347,774.643 342.15,774.3C338.75,773.71 335.35,773.02 331.9,772.74C326.9,772.34 321.9,772.08 316.9,772.06C310.877,771.975 304.865,772.626 299,774C292.822,775.425 286.858,777.654 281.26,780.63C278.02,782.41 274.78,784.16 271.6,786.04C267.38,788.51 264.4,792.22 261.79,796.26C259.41,799.94 259.58,803.96 260.36,807.97C261.226,812.241 263.152,816.227 265.96,819.56C269.04,823.36 273.1,825.56 276.84,828.32C279.961,830.595 283.243,832.641 286.66,834.44C289.12,835.584 291.668,836.527 294.28,837.26C295.98,837.83 297.28,837.03 298.52,835.9C299.76,834.77 301.05,833.32 302.46,832.23C303.851,831.175 305.549,830.604 307.295,830.604C309.947,830.604 312.433,831.923 313.92,834.12C316.63,837.836 317.31,842.671 315.73,846.99C312.787,855.667 311.676,864.862 312.47,873.99C312.977,877.824 313.728,881.622 314.72,885.36C315.06,886.97 315.65,888.52 316.06,890.12C317.24,894.64 314.78,900.49 311.06,903.12C307.71,905.48 304.23,905.26 300.71,904.12C293.84,901.89 290.18,896.83 288.9,889.92C287.676,883 287.784,875.909 289.22,869.03C289.8,866.16 290.1,863.21 290.56,860.03C294.22,859.93 297.98,860.7 301.65,858.68C300.17,857.25 298.34,857.05 296.8,856.34C295.92,855.92 295.02,855.54 294.14,855.13C292.415,854.191 290.639,853.35 288.82,852.61C283.537,850.777 278.447,848.433 273.62,845.61C268.43,842.61 263.19,839.71 258.02,836.67C256.722,835.805 255.48,834.86 254.3,833.84C252.54,832.48 250.82,831.08 249.03,829.78C244.54,826.56 241.23,822.28 238.3,817.69C237.8,816.93 237.47,816.06 236.97,815.32C232.85,809.21 232.72,802.45 233.91,795.56C234.91,789.56 237.22,784.02 241.71,779.63C244.952,776.377 248.537,773.484 252.4,771C258.605,767.271 265.21,764.252 272.09,762C275.73,760.73 279.3,759.2 283.01,758.14C288.01,756.71 293.01,755.53 298.07,754.38C300.7,753.78 300.75,753.58 301.4,750.92C303.1,743.92 302.65,736.84 302.55,729.77C302.48,724.25 302.71,718.77 302.38,713.21C302.1,708.46 301.3,703.73 300.55,699.03C300.1,696.17 298.34,693.94 296.36,691.91C293.25,688.72 289.36,688.91 285.52,689.72C281.13,690.63 277.24,692.91 273.42,695.14C265.75,699.61 258.12,704.14 250.64,708.89C246.64,711.38 243.02,714.34 239.26,717.15C235.5,719.96 233.89,723.92 232.6,728.15C231.6,731.29 230.6,734.45 229.87,737.64C229.272,740.13 228.105,742.447 226.46,744.41C222.301,749.649 217.017,753.887 211,756.81C206.063,759.077 201.45,761.989 197.28,765.47C194.112,768.213 191.218,771.257 188.64,774.56C184.73,779.56 181.14,784.76 177.58,789.98C176.124,792.175 174.276,794.083 172.13,795.61C170.425,796.728 168.43,797.325 166.392,797.325C162.324,797.325 158.609,794.951 156.9,791.26C156.23,789.378 156.23,787.322 156.9,785.44C158.08,780.96 160.64,777.24 163.2,773.52C169.121,765.104 176.337,757.679 184.58,751.52C185.231,751.034 185.813,750.462 186.31,749.82C184.07,750.063 181.913,750.809 180,752C176.75,753.9 173.69,756.13 170.46,758.11C166.34,760.63 163.05,764.06 159.87,767.62C156.781,770.942 152.979,773.52 148.75,775.16C146.286,776.187 143.546,776.345 140.98,775.61C139.351,775.224 137.982,774.12 137.26,772.61C134.66,767.37 135.26,761.75 139.8,757.51C143.86,753.69 148.65,751.01 153.55,748.51C159.04,745.7 164.55,742.86 169.86,739.84C172.097,738.39 174.247,736.81 176.3,735.11C176.23,734.91 176.15,734.71 176.06,734.5C174.83,734.73 173.59,734.86 172.39,735.18C170.473,735.64 168.586,736.218 166.74,736.91C165.442,737.37 164.021,737.345 162.74,736.84C158.607,735.641 154.943,733.196 152.25,729.84C150.73,728.01 149.04,726.32 147.64,724.41C146.394,722.751 145.695,720.744 145.64,718.67C145.54,715.61 145.39,712.57 145.4,709.52C145.4,704.77 147.52,700.73 150.49,697.25C154.18,692.96 158.97,693.86 162.93,696.69C165.06,698.2 165.16,700.81 164.93,703.24C164.77,704.715 164.482,706.174 164.07,707.6C161.77,715.94 166.79,722.33 172.85,725.54C173.913,725.986 175.041,726.26 176.19,726.35C180.58,727 184.9,726.9 188.96,724.8C192.323,723.048 195.323,720.672 197.8,717.8C200.96,714.21 200.8,709.8 198.17,705.8C196.346,702.922 193.447,700.887 190.12,700.15C187.12,699.45 184.2,698.75 181.23,698.15C176.69,697.22 173.34,694.2 172.86,689.91C172.38,685.62 173.66,681.83 177.37,679.37C181.08,676.91 184.72,677.44 188.28,679.72C190.358,681.062 192.094,682.87 193.35,685C193.956,686.065 194.624,687.093 195.35,688.08C196.511,689.73 198.393,690.73 200.41,690.77L205.84,690.77C210.48,690.77 214.61,692.09 217.84,695.63C219.872,697.766 221.791,700.005 223.59,702.34C226.24,705.92 228.08,706.34 232.22,704.57C236.827,702.417 241.187,699.768 245.22,696.67C254.973,689.663 264.933,682.997 275.1,676.67C280.1,673.53 285.49,671.03 290.65,668.12C291.498,667.651 292.465,667.443 293.43,667.52C304.496,668.683 315.627,669.107 326.75,668.79C332.845,668.746 338.924,668.174 344.92,667.08C346.771,666.705 348.698,667.064 350.29,668.08C362.08,674.78 373.97,681.28 385.79,687.92C388.37,689.36 390.73,691.17 393.32,692.59C400.24,696.38 407.22,700.04 414.17,703.78C415.069,704.424 416.321,704.294 417.07,703.48C417.631,702.994 418.128,702.44 418.55,701.83C420.44,698.59 423.15,696.05 425.81,693.49C428.267,691.228 431.471,689.943 434.81,689.88C436.454,689.75 438.106,689.75 439.75,689.88C443.89,690.28 446.68,688.39 448.59,684.88C450.035,682.184 452.172,679.919 454.78,678.32C457.303,676.676 460.455,676.306 463.29,677.32C467.63,678.8 470.19,684.11 469.63,689.03C469.18,692.95 465.42,696.63 460.85,697.18C456.928,697.672 453.088,698.681 449.43,700.18C443.43,702.59 440.73,709.91 443.67,715.41C443.914,715.938 444.253,716.416 444.67,716.82C447.53,719.15 450.22,721.75 453.33,723.67C456.94,725.9 461.13,725.67 465.33,725.55C473.03,725.35 480.88,715.73 478.72,708.11C478.353,706.757 478.079,705.38 477.9,703.99C477.651,702.702 477.551,701.391 477.6,700.08C477.662,697.641 479.17,695.46 481.43,694.54C487.81,691.54 491.72,694.89 494.16,699.22C495.059,700.806 495.789,702.482 496.34,704.22C496.836,705.689 497.122,707.221 497.19,708.77C497.27,711.57 497.12,714.38 497.01,717.17C496.951,719.416 496.219,721.594 494.91,723.42C491.8,727.56 488.54,731.65 483.91,734.21C482.075,735.203 480.071,735.844 478,736.1C476.49,736.3 474.82,735.56 473.25,735.1C471.25,734.58 469.25,733.97 467.31,733.42C466.944,733.38 466.576,733.38 466.21,733.42C466.15,733.57 466.06,733.74 466,733.9C467.169,734.831 468.388,735.699 469.65,736.5C473.96,738.87 478.37,741.1 482.65,743.5C488.1,746.56 493.57,749.59 498.84,752.91C501.906,754.716 504.477,757.256 506.32,760.3C508.32,763.79 507.65,767 505.66,770.04C503.83,772.8 501.05,773.8 497.71,773.35C493.144,772.672 488.765,771.069 484.84,768.64C483.882,768.009 483.04,767.217 482.35,766.3C476.69,759.55 469.35,754.96 461.9,750.62C460.066,749.474 457.953,748.852 455.79,748.82C456.87,749.69 457.92,750.59 459.02,751.43C468.539,758.659 476.548,767.687 482.59,778C484.009,780.595 485.072,783.37 485.75,786.25C486.58,789.49 484.75,791.98 482.4,793.96C478.796,796.792 473.74,796.967 469.95,794.39C467.801,792.863 465.967,790.934 464.55,788.71C459.929,781.213 454.594,774.18 448.62,767.71C444.41,763.41 439.5,759.857 434.1,757.2C429.31,754.77 424.61,752.2 420.75,748.45C418.34,746.337 416.231,743.905 414.48,741.22C412.89,738.43 412.24,735.09 411.17,731.99C409.89,728.35 408.71,724.68 407.3,721.09C406.417,719.229 405.104,717.604 403.47,716.35C399.95,713.35 395.86,711.21 391.89,708.9C387.92,706.59 384.27,704.34 380.41,702.15C376.27,699.8 372.05,697.59 367.88,695.28C362.88,692.55 358.02,689.68 352.98,687.08C349.632,685.375 345.754,685.017 342.15,686.08C340.201,686.587 338.643,688.062 338.03,689.98C336.667,693.344 336.053,696.965 336.23,700.59C336.72,707.59 336.73,714.59 337.31,721.59C338.01,729.7 339.06,737.8 340.04,745.88C340.42,749.05 342.04,751.75 343.72,754.42C344.45,755.65 345.72,755.84 346.84,756.17C349.22,756.85 351.65,757.32 354.01,758.05C357.68,759.2 361.34,760.43 365.01,761.71C373.92,764.85 381.94,769.64 389.65,775.03C393.65,777.82 397.65,780.5 401.08,784.03C402.472,785.424 403.79,786.889 405.03,788.42C408.03,792.14 408.96,796.53 408.59,801.17C407.94,809.23 404.3,815.9 398.72,821.6C391.875,828.48 384.289,834.581 376.1,839.79C369.92,843.79 364.21,848.59 358.1,852.73C351.99,856.87 345.48,860.73 339.17,864.73C337.97,865.454 336.845,866.295 335.81,867.24C334.525,868.153 334.167,869.931 335,871.27Z" style="fill:rgb(248,243,189);fill-rule:nonzero;"/>
            <path d="M616,342.36C615.81,346.986 613.403,351.248 609.54,353.8C605.35,356.66 600.96,356.16 596.7,353.88C594.86,352.804 593.078,351.632 591.36,350.37C587.22,347.54 583.11,344.7 578.99,341.86C577.679,341.017 576.42,340.095 575.22,339.1C572.49,336.993 571.744,333.144 573.49,330.17C575.466,325.935 579.169,322.746 583.65,321.42C585.923,320.548 588.459,320.657 590.65,321.72C593.65,323.4 597,323.88 600.16,325.03C604.5,326.63 608.67,328.52 611.98,331.88C614.59,334.59 615.92,337.85 616,342.36ZM605.59,347.78C609.02,345.45 610.23,340.38 606.92,337.09C606.08,336.194 605.084,335.459 603.98,334.92C601.1,333.552 598.13,332.382 595.09,331.42C591.78,330.48 588.34,330.05 585.16,329.42C584.352,329.482 583.547,329.585 582.75,329.73C580.87,330.18 580.6,331.78 580.22,333.31C579.84,334.84 581.09,335.12 581.9,335.67C586.74,338.91 591.58,342.14 596.47,345.3C598.131,346.339 599.843,347.293 601.6,348.16C602.88,348.776 604.401,348.629 605.54,347.78L605.59,347.78Z" style="fill:rgb(248,243,189);fill-rule:nonzero;"/>
            <path d="M598.61,504.57C598.589,507.848 597.417,511.017 595.3,513.52C592.912,516.486 589.778,518.764 586.22,520.12C580.72,522.33 575.57,520.65 572.32,515.51C571.039,513.495 570.03,511.32 569.32,509.04C566.618,500.294 561.995,492.261 555.79,485.53C554.338,483.966 553.052,482.257 551.95,480.43C549.11,475.43 550.83,470.37 556.04,467.96C556.274,467.88 556.494,467.762 556.69,467.61C559.81,464.67 563.47,465.61 566.98,466.38C572.094,467.46 576.745,470.111 580.28,473.96C586.15,480.39 591.74,487.08 595.99,494.74C597.704,497.733 598.607,501.121 598.61,504.57ZM583.11,513.75C590.28,512.32 593.61,506.07 590.71,499.43C590.516,498.981 590.296,498.543 590.05,498.12C585.546,490.871 580.154,484.213 574,478.3C570.43,474.86 565.77,473.66 560.25,473.21C559.461,473.406 558.728,473.782 558.11,474.31C557.18,475.31 557.96,476.47 558.54,477.47C558.844,477.951 559.178,478.412 559.54,478.85C560.64,480.18 561.75,481.49 562.85,482.85C568.293,489.133 572.476,496.406 575.17,504.27C575.916,506.613 576.839,508.896 577.93,511.1C579.19,513.62 580.67,514.23 583.11,513.75Z" style="fill:rgb(248,243,189);fill-rule:nonzero;"/>
            <path d="M582.67,152.79C583.281,155.159 583.726,157.569 584,160C583.82,168 579.55,174.17 571.6,176.16C564.85,177.84 558.36,177.41 552.33,173.68C549.603,171.96 547.364,169.566 545.83,166.73C543.277,162.543 543.242,157.27 545.74,153.05C549.8,145.85 555.85,141.05 564.17,140.05C573.54,138.89 579.64,143.64 582.67,152.79ZM576.08,162.15C576.146,159.856 575.935,157.563 575.45,155.32C574.45,150.64 568.45,146.74 563.45,147.98C559.461,148.783 555.901,151.022 553.45,154.27C550.63,158.13 550.83,161.87 554.07,165.41C557.07,168.68 561,169.57 565.99,169.8C567.612,169.562 569.218,169.228 570.8,168.8C574,167.77 576,165.58 576.08,162.15Z" style="fill:rgb(248,243,189);fill-rule:nonzero;"/>
            <path d="M555.73,569.45C557.268,572.431 557.268,575.979 555.73,578.96C553.931,583.024 550.299,585.998 545.96,586.96C540.31,588.367 534.331,587.588 529.23,584.78C523.73,581.78 522.41,576.1 525.54,570.61C526.756,568.348 528.667,566.535 530.99,565.44C533.19,564.44 535.3,563.13 538.51,561.83C541.17,561.5 544.88,561.22 545.96,561.65C550,563.18 553.68,565.36 555.73,569.45ZM548.83,577.53C550.94,574.94 550.71,572.53 548.01,570.53C546.9,569.72 545.57,569.19 544.41,568.44C543.042,567.493 541.279,567.315 539.75,567.97C537.65,568.873 535.604,569.895 533.62,571.03C532.879,571.54 532.277,572.228 531.87,573.03C530.34,575.89 530.87,577.7 533.98,578.82C536.131,579.509 538.317,580.08 540.53,580.53C544.64,580.57 547,579.74 548.83,577.53Z" style="fill:rgb(248,243,189);fill-rule:nonzero;"/>
            <path d="M404.34,79.16C408.34,82.97 409.46,87.84 408.58,93.16C407.45,100.01 403.89,105.59 399,110.32C394.11,115.05 388.83,118.95 382.27,120.89C375.07,123.05 368.42,121.67 362.41,117.32C358.993,114.848 357.055,110.802 357.27,106.59C357.32,93.59 362.82,83.59 374.13,77.06C379.28,74.06 383.8,72.89 390.5,72.91C395.705,73.293 400.611,75.508 404.34,79.16ZM399.23,96.92C400.331,94.784 400.871,92.402 400.8,90C400.842,87.649 399.669,85.435 397.7,84.15C394.031,81.603 389.737,80.102 385.28,79.81C380.35,79.56 374.68,83.4 373.88,84.17C368.17,89.64 364.83,96.17 364.75,104.24L364.75,106.95C364.773,108.633 365.633,110.198 367.04,111.12C370.57,113.5 374.48,114.96 378.7,113.78C387.622,111.331 395.093,105.196 399.23,96.92Z" style="fill:rgb(248,243,189);fill-rule:nonzero;"/>
            <path d="M249.1,608.28C249.057,608.328 249.03,608.387 249.02,608.45C248.02,615.28 246.79,622.12 246.24,629C245.751,634.855 247.963,640.623 252.24,644.65C254.1,646.49 256.46,647.37 258.99,648.19C259.37,647.47 259.66,646.89 259.99,646.34C262.99,640.92 267.24,637.1 273.61,636.55C278.164,636.1 282.735,637.253 286.53,639.81C287.13,640.21 287.61,640.97 288.59,640.87C287.88,639.11 287.13,637.55 286.59,635.87C285.216,631.462 284.541,626.867 284.59,622.25C284.5,610.78 284.65,599.3 285.12,587.85C285.24,585.15 285.35,582.46 285.5,579.77C285.729,574.407 287.382,569.201 290.29,564.69C291.957,561.929 294.438,559.749 297.39,558.45C303.56,555.77 310.94,557.25 314.39,564.29C316.29,568.324 317.267,572.731 317.25,577.19C317.38,588.56 317.53,599.94 317.38,611.31C317.3,618.31 316.88,625.31 316.3,632.31C315.67,639.72 312.3,645.42 305.05,648.31C301.668,649.775 297.758,649.397 294.72,647.31C294.367,647.086 294,646.885 293.62,646.71C294.77,650.08 295.92,653.49 297.15,657.1C297.88,657.17 298.84,657.32 299.82,657.35C318.11,657.88 336.4,658.1 354.59,655.75C357.87,655.438 361.106,654.767 364.24,653.75C362.689,651.842 361.857,649.449 361.89,646.99C361.54,635.81 366.89,627.99 376.34,622.78C380.588,620.248 385.733,619.682 390.43,621.23C391.71,621.66 392.97,622.23 394.28,622.7C395.91,608.16 383.53,564.17 375.38,555.75C374.53,556.62 373.73,557.53 372.82,558.31C368.49,562.528 362.315,564.293 356.41,563C354.88,562.77 353.36,562.5 352,562.29C353.056,564.279 353.969,566.341 354.73,568.46C355.331,570.603 355.694,572.807 355.81,575.03C356.823,588.511 357.157,602.035 356.81,615.55C356.58,623.73 355.52,631.76 352.02,639.34C349.58,644.63 345.66,647.64 339.92,648.08C336.92,648.33 333.75,648.2 331.21,646.16C329.11,644.571 327.379,642.544 326.14,640.22C324.61,637.16 324.47,633.87 324.32,630.58C324.06,624.24 323.87,617.91 323.64,611.58C323.128,598.071 323.673,584.544 325.27,571.12C325.755,566.994 327.612,563.147 330.54,560.2C333.002,557.46 336.516,555.892 340.2,555.89C340.542,555.859 340.879,555.781 341.2,555.66C335.96,545.43 337.7,535.66 342.26,525.83C336.584,522.8 330.39,520.86 324,520.11C319.5,533.44 301.22,540.63 286.86,535.11C277.935,543.016 270.376,552.341 264.49,562.71C267.11,563.49 269.49,563.97 271.64,564.86C276.83,566.95 280.86,570.28 282.27,576C283.249,579.836 283.663,583.794 283.5,587.75C283.5,588.32 283.43,588.88 283.38,589.46C282.907,595.918 279.201,601.717 273.54,604.86C268.757,607.878 263.194,609.432 257.54,609.33C254.709,609.141 251.891,608.791 249.1,608.28ZM515.64,765.19C516.07,770.73 513.36,774.8 509.37,778.19C506.346,780.69 502.428,781.85 498.53,781.4C496.92,781.27 495.29,781.4 493.53,781.4C495.35,787.1 494.457,793.33 491.11,798.29C489.262,801.165 486.348,803.194 483.01,803.93C481.674,804.327 480.315,804.641 478.94,804.87C473.269,805.718 467.55,803.533 463.89,799.12C460.284,795.067 456.943,790.784 453.89,786.3C447.49,776.54 438.61,769.92 428.3,764.93C420.234,761.114 413.164,755.476 407.65,748.46C405.054,745.042 403.26,741.085 402.4,736.88C401.82,734.31 401.22,731.75 400.63,729.19C400.128,726.664 398.669,724.428 396.56,722.95C391.99,719.74 387.68,716.07 382.83,713.34C376.11,709.57 368.99,706.46 362.03,703.11C358.7,701.52 355.28,700.11 351.98,698.43C349.98,697.43 348.48,698.16 346.98,699.26C345.98,700.01 346.22,701.15 346.3,702.26C346.95,710.14 347.53,718.04 348.2,725.92C348.66,731.49 349.2,737.07 349.83,742.64C350.068,744.263 350.491,745.853 351.09,747.38C351.651,749.111 353.135,750.391 354.93,750.69C359.049,751.762 363.083,753.136 367,754.8C374.77,758.14 382.5,761.62 390.11,765.31C392.81,766.61 395.11,768.67 397.61,770.43C401.02,772.86 404.5,775.2 407.77,777.81C417,785.23 419.61,795.07 417.6,806.35C416.48,812.46 414.42,818.35 410.32,823.14C407.963,825.776 405.391,828.211 402.63,830.42C397.08,835.06 391.43,839.55 385.76,844.06C384.316,845.136 382.817,846.138 381.27,847.06C373.123,852.173 364.963,857.263 356.79,862.33C355.248,863.27 353.636,864.093 351.97,864.79C350.837,865.127 350.071,866.199 350.12,867.38C350.12,872.57 349.63,877.72 350.42,882.91C351.21,888.1 351.67,893.04 351.95,898.12C352.307,903.981 349.966,909.694 345.6,913.62C341.338,917.759 336.265,920.97 330.7,923.05C326.854,924.468 322.573,924.128 319,922.12C316.546,920.811 314.243,919.238 312.13,917.43C310.973,916.248 309.965,914.928 309.13,913.5C306.27,913.24 303.34,913.31 300.58,912.66C291.15,910.43 284.58,904.79 281.67,895.41C279.242,887.329 278.786,878.783 280.34,870.49C280.84,867.56 281.41,864.65 281.64,861.71C281.82,859.17 281.51,859.07 279.08,858.27C270.864,855.65 263.084,851.818 256,846.9C254.26,845.67 252.45,844.56 250.63,843.42C247.109,841.139 243.835,838.498 240.86,835.54C234.669,829.734 229.699,822.751 226.24,815C224.393,810.919 223.474,806.479 223.55,802C223.62,796.88 223.9,791.81 225.64,786.92C227.878,780.612 231.697,774.982 236.73,770.57C245.851,762.58 256.442,756.442 267.91,752.5C273.1,750.67 278.39,749.13 283.64,747.5C286.13,746.7 288.64,745.92 291.5,745.03C291.6,744.44 291.8,743.6 291.94,742.73C293.44,731.69 293.54,720.505 292.24,709.44C292.17,708.79 292.15,708.13 292.1,707.44C291.89,702.98 288.98,700.34 284.55,700.64C280.856,700.767 277.263,701.886 274.15,703.88C264.15,710.55 254.34,717.42 244.8,724.7C243.312,725.893 242.275,727.559 241.86,729.42C240.92,732.83 240.21,736.31 239.36,739.73C238.532,743.18 236.981,746.414 234.81,749.22C229.153,756.424 221.894,762.211 213.61,766.12C206.89,769.36 200.72,773.27 195.78,779.04C192.95,782.36 189.68,785.34 187.58,789.18C185.714,792.371 183.351,795.244 180.58,797.69C178.389,799.826 175.809,801.523 172.98,802.69C166.13,805.39 159.58,804.51 153.52,800.33C152.693,799.675 152.012,798.854 151.52,797.92C149.31,794.05 148.04,789.92 148.68,785.4C148.705,784.957 148.705,784.513 148.68,784.07L146.68,784.07C143.35,784.261 140.012,783.899 136.8,783C136.243,782.864 135.715,782.631 135.24,782.31C131.08,779.31 128.04,775.41 127.63,770.15C127.075,765.357 128.471,760.536 131.5,756.78C135.62,751.71 140.98,748.49 146.61,745.56C149.81,743.9 153.03,742.3 156.61,740.56C155.85,740.17 155.42,739.91 154.95,739.71C147.5,736.47 141.83,731.21 139.29,723.55C136.75,715.89 136.29,708.08 139.44,700.33C140.717,696.772 142.727,693.522 145.34,690.79C150.05,686.23 155.47,685.35 161.54,687.15C162.78,687.53 164.01,687.96 165.39,688.41C165.46,687.85 165.53,687.41 165.56,686.92C165.822,682.269 167.664,677.843 170.78,674.38C173.626,671.019 178.048,669.404 182.39,670.14C188.627,671.084 194.34,674.185 198.53,678.9C198.951,679.405 199.345,679.933 199.71,680.48C201.138,682.532 203.5,683.742 206,683.7C209.451,683.813 212.88,684.292 216.23,685.13C221.4,686.55 225.16,690.21 228.65,694.13C229.18,694.73 229.65,695.4 230.33,696.24C231.12,695.843 231.884,695.399 232.62,694.91C240.62,689.18 248.69,683.47 256.62,677.67C262.98,673.02 269.22,668.18 276.34,664.67C276.54,664.57 276.65,664.32 276.99,663.92C274.94,663.37 272.99,662.92 271.18,662.34C265.35,660.34 259.49,658.42 253.72,656.26C251.068,655.167 248.487,653.911 245.99,652.5C241.5,650.12 239.17,645.96 237.38,641.5C236.54,639.352 235.894,637.133 235.45,634.87C235.091,633.097 235,631.28 235.18,629.48C236.68,617.79 238.48,606.17 241.87,594.83C242.73,591.94 243,588.83 243.75,585.9C245.913,577.271 249.215,568.968 253.57,561.21C254.06,560.38 265.26,542.82 267.16,540.57C272.644,533.856 278.977,527.883 286,522.8C291.627,518.783 297.863,515.697 304.47,513.66C312.95,511.1 321.28,511.3 329.81,513.24C339.89,515.55 349.08,519.84 357.81,525.15C363.994,528.927 369.613,533.559 374.5,538.91C374.88,539.33 375.31,539.73 375.71,540.13C375.78,540.13 383.05,549.84 383.51,550.57C387.29,556.41 389.81,562.84 392.44,569.23C395.4,576.639 397.925,584.216 400,591.92C401.504,597.403 402.568,602.997 403.18,608.65C403.57,612.41 404.09,616.16 404.66,619.91C405.426,624.637 405.453,629.455 404.74,634.19C403.74,640.36 400.47,645.06 395.58,648.87C388.49,654.39 380.58,658.28 372.22,661.46C370.336,662.053 368.411,662.507 366.46,662.82L362.09,663.82C364.63,665.52 366.63,667.02 368.77,668.26C379.58,674.52 390.44,680.7 401.26,686.92C404.69,688.92 408.1,690.86 411.51,692.82C412,693.1 412.51,693.32 413,693.54C414.88,691.79 416.64,690.1 418.46,688.47C421.294,685.672 424.977,683.892 428.93,683.41C432.29,683.1 435.63,682.7 439.01,682.55C441.088,682.565 443.055,681.596 444.31,679.94C446.501,676.849 449.323,674.258 452.59,672.34C460.97,667.83 468.45,670.66 473.59,677.61C475.29,680.051 476.484,682.809 477.1,685.72C477.18,686.1 477.31,686.47 477.46,687C478.89,686.57 480.21,686.14 481.54,685.77C487.267,683.895 493.592,685.646 497.54,690.2C498.742,691.433 499.786,692.81 500.65,694.3C504.07,700.5 505.95,707.06 504.72,714.24C504.492,716.362 504.159,718.471 503.72,720.56C501.47,728.47 496.25,733.92 489.17,737.77C488.52,738.11 487.85,738.43 487.17,738.77C487.17,738.77 487.09,738.89 486.94,739.16C487.42,739.39 487.87,739.62 488.35,739.82C494.05,742.18 499.69,744.69 504.66,748.43C507.748,750.622 510.437,753.328 512.61,756.43C514.355,759.041 515.399,762.059 515.64,765.19ZM505.64,770.08C507.64,767.08 508.3,763.83 506.3,760.34C504.457,757.299 501.886,754.762 498.82,752.96C493.55,749.63 488.08,746.6 482.62,743.55C478.33,741.13 473.93,738.91 469.62,736.55C468.354,735.749 467.133,734.881 465.96,733.95L466.18,733.47C466.546,733.43 466.914,733.43 467.28,733.47C469.28,734.02 471.22,734.64 473.21,735.15C474.79,735.57 476.45,736.32 477.97,736.15C480.005,735.826 481.962,735.123 483.74,734.08C488.36,731.52 491.62,727.43 494.74,723.29C496.046,721.463 496.775,719.285 496.83,717.04C496.95,714.25 497.1,711.44 497.02,708.64C496.951,707.091 496.665,705.559 496.17,704.09C495.613,702.354 494.883,700.679 493.99,699.09C491.55,694.76 487.64,691.41 481.25,694.42C478.992,695.335 477.487,697.514 477.43,699.95C477.381,701.261 477.481,702.572 477.73,703.86C477.909,705.25 478.18,706.626 478.54,707.98C480.7,715.6 472.86,725.23 465.16,725.42C460.98,725.52 456.79,725.77 453.16,723.55C450.05,721.62 447.35,719.02 444.49,716.7C444.075,716.29 443.737,715.809 443.49,715.28C440.55,709.78 443.29,702.46 449.24,700.05C452.902,698.552 456.745,697.543 460.67,697.05C465.24,696.5 469,692.83 469.44,688.9C470.01,683.98 467.44,678.68 463.11,677.2C460.276,676.181 457.121,676.552 454.6,678.2C451.994,679.802 449.858,682.066 448.41,684.76C446.5,688.24 443.71,690.14 439.57,689.76C437.926,689.625 436.274,689.625 434.63,689.76C431.291,689.826 428.089,691.11 425.63,693.37C422.97,695.93 420.26,698.47 418.36,701.71C417.943,702.324 417.446,702.879 416.88,703.36C416.139,704.181 414.883,704.312 413.99,703.66C407.04,699.92 400.06,696.26 393.14,692.47C390.55,691.06 388.14,689.24 385.61,687.8C373.79,681.16 361.9,674.66 350.11,667.96C348.518,666.944 346.591,666.585 344.74,666.96C338.741,668.059 332.658,668.631 326.56,668.67C315.438,668.99 304.306,668.569 293.24,667.41C292.279,667.336 291.317,667.541 290.47,668C285.31,670.91 279.96,673.41 274.92,676.55C264.733,682.89 254.773,689.557 245.04,696.55C241.004,699.641 236.645,702.286 232.04,704.44C227.9,706.24 226.04,705.79 223.41,702.22C221.607,699.885 219.688,697.642 217.66,695.5C214.46,691.96 210.34,690.64 205.66,690.64L200.22,690.64C198.222,690.589 196.363,689.589 195.22,687.95C194.478,686.963 193.794,685.935 193.17,684.87C191.916,682.738 190.18,680.929 188.1,679.59C184.54,677.31 180.8,676.84 177.2,679.24C173.6,681.64 172.2,685.54 172.69,689.78C173.18,694.02 176.51,697.1 181.05,698.03C184.05,698.64 186.99,699.34 189.95,700.03C193.276,700.769 196.174,702.803 198,705.68C200.66,709.68 200.79,714.14 197.63,717.74C195.147,720.609 192.144,722.984 188.78,724.74C184.73,726.83 180.4,726.93 176.01,726.28C174.86,726.194 173.732,725.921 172.67,725.47C166.62,722.26 161.6,715.87 163.89,707.53C164.305,706.105 164.597,704.646 164.76,703.17C165.02,700.74 164.92,698.17 162.76,696.62C158.76,693.79 154.01,692.9 150.32,697.19C147.32,700.66 145.26,704.7 145.23,709.46C145.23,712.46 145.36,715.54 145.46,718.6C145.515,720.674 146.214,722.681 147.46,724.34C148.86,726.25 150.55,727.95 152.06,729.77C154.754,733.13 158.423,735.575 162.56,736.77C163.84,737.278 165.263,737.302 166.56,736.84C168.409,736.146 170.299,735.568 172.22,735.11C173.41,734.8 174.66,734.66 175.89,734.43C175.97,734.65 176.06,734.85 176.12,735.05C174.068,736.744 171.921,738.32 169.69,739.77C164.34,742.77 158.87,745.64 153.38,748.45C148.47,750.97 143.68,753.65 139.63,757.45C135.12,761.69 134.49,767.31 137.08,772.54C137.807,774.05 139.179,775.154 140.81,775.54C143.373,776.266 146.108,776.107 148.57,775.09C152.8,773.442 156.605,770.861 159.7,767.54C162.87,763.98 166.16,760.54 170.29,758.03C173.51,756.03 176.57,753.82 179.83,751.93C181.761,750.709 183.948,749.95 186.22,749.71C185.726,750.355 185.143,750.927 184.49,751.41C176.247,757.569 169.031,764.994 163.11,773.41C160.54,777.13 157.98,780.86 156.8,785.33C156.14,787.213 156.14,789.267 156.8,791.15C158.509,794.841 162.224,797.215 166.292,797.215C168.33,797.215 170.325,796.618 172.03,795.5C174.182,793.976 176.033,792.068 177.49,789.87C181.05,784.65 184.64,779.43 188.49,774.45C191.075,771.149 193.971,768.105 197.14,765.36C201.357,761.901 206.019,759.022 211,756.8C217.01,753.862 222.284,749.61 226.43,744.36C228.075,742.397 229.242,740.08 229.84,737.59C230.6,734.4 231.58,731.24 232.56,728.1C233.86,723.89 235.56,719.87 239.23,717.1C242.9,714.33 246.65,711.33 250.6,708.84C258.09,704.1 265.72,699.56 273.38,695.09C277.21,692.86 281.1,690.58 285.49,689.67C289.35,688.85 293.22,688.67 296.33,691.86C298.33,693.86 300.07,696.12 300.52,698.98C301.27,703.69 302.07,708.41 302.35,713.16C302.68,718.67 302.45,724.16 302.51,729.72C302.61,736.79 303.06,743.87 301.37,750.87C300.72,753.53 300.67,753.73 298.04,754.33C293,755.5 288,756.68 283,758.11C279.29,759.17 275.71,760.7 272.07,761.97C265.195,764.228 258.595,767.247 252.39,770.97C248.499,773.441 244.891,776.332 241.63,779.59C237.14,783.98 234.88,789.51 233.83,795.52C232.63,802.4 232.77,809.17 236.89,815.27C237.39,816.02 237.72,816.88 238.22,817.65C241.15,822.24 244.46,826.51 248.94,829.73C250.74,831.03 252.45,832.43 254.22,833.79C255.396,834.815 256.638,835.76 257.94,836.62C263.11,839.62 268.35,842.55 273.54,845.56C278.366,848.377 283.453,850.721 288.73,852.56C290.552,853.289 292.329,854.127 294.05,855.07L296.71,856.28C298.26,857 300.09,857.2 301.57,858.63C297.9,860.63 294.14,859.87 290.48,859.97C290.01,863.16 289.71,866.11 289.13,868.97C287.698,875.85 287.592,882.941 288.82,889.86C290.1,896.77 293.76,901.86 300.62,904.06C304.15,905.2 307.62,905.42 310.98,903.06C314.74,900.43 317.2,894.58 315.98,890.06C315.56,888.46 314.98,886.91 314.63,885.3C313.666,881.582 312.935,877.808 312.44,874C311.637,864.871 312.747,855.675 315.7,847C317.28,842.68 316.596,837.843 313.88,834.13C312.393,831.936 309.909,830.619 307.258,830.619C305.515,830.619 303.82,831.188 302.43,832.24C301.01,833.34 299.8,834.68 298.49,835.91C297.18,837.14 295.94,837.84 294.25,837.28C291.639,836.539 289.091,835.593 286.63,834.45C283.21,832.655 279.928,830.61 276.81,828.33C273.06,825.59 269.01,823.33 265.93,819.57C263.122,816.237 261.196,812.251 260.33,807.98C259.55,803.98 259.38,799.98 261.76,796.27C264.37,792.27 267.34,788.53 271.57,786.05C274.74,784.17 277.99,782.42 281.23,780.64C286.835,777.64 292.81,775.388 299,773.94C304.852,772.57 310.85,771.918 316.86,772C321.86,772 326.86,772.28 331.86,772.68C335.3,772.97 338.71,773.68 342.1,774.25C344.298,774.584 346.47,775.072 348.6,775.71C352.98,777.12 357.3,778.71 361.6,780.3C366.617,782.201 371.182,785.131 375,788.9C382.88,796.54 382.17,808.18 376.1,814.54C372.691,818.097 369.078,821.453 365.28,824.59C358.44,830.24 351.16,835.31 343.81,840.28C342.38,841.28 340.81,841.94 339.3,842.86C338.051,843.743 336.343,843.648 335.2,842.63C334.759,842.248 334.28,841.913 333.77,841.63C331.018,840.317 327.938,839.847 324.92,840.28C324.82,841.89 324.92,843.28 324.66,844.67C324.01,848.4 323.26,852.1 322.54,855.83C322.09,858.17 321.54,860.5 321.21,862.83C320.53,867.6 321.88,872.17 322.81,876.74C323.81,881.74 325.15,886.67 325.49,891.81C325.837,895.446 324.875,899.089 322.78,902.08C321.5,903.88 320.08,905.57 318.78,907.32C320.755,911.727 325.614,914.144 330.32,913.06C335.159,911.905 339.355,908.894 342,904.68C342.81,903.246 343.311,901.659 343.47,900.02C344,896.32 343.32,892.64 342.47,889.02C341.16,883.02 339.91,877.09 340.64,870.93C340.641,870.744 340.585,870.563 340.48,870.41C338.58,870.69 336.77,870.99 334.97,871.26C333.97,869.43 334.79,868.26 335.77,867.26C336.805,866.315 337.93,865.474 339.13,864.75C345.43,860.75 351.87,856.94 358.05,852.75C364.23,848.56 369.87,843.86 376.05,839.82C384.231,834.605 391.814,828.505 398.66,821.63C404.25,815.92 407.89,809.26 408.54,801.19C408.91,796.55 408.01,792.19 404.98,788.44C403.722,786.91 402.386,785.445 400.98,784.05C397.58,780.56 393.53,777.88 389.56,775.05C381.85,769.66 373.83,764.87 364.92,761.73C361.28,760.45 357.62,759.22 353.92,758.07C351.55,757.34 349.13,756.87 346.75,756.19C345.6,755.86 344.35,755.68 343.62,754.45C341.99,751.77 340.33,749.08 339.95,745.9C338.95,737.82 337.95,729.72 337.22,721.61C336.64,714.61 336.62,707.61 336.14,700.61C335.961,696.988 336.576,693.37 337.94,690.01C338.552,688.089 340.109,686.611 342.06,686.1C345.66,685.032 349.537,685.391 352.88,687.1C357.88,689.69 362.81,692.57 367.78,695.29C371.96,697.6 376.18,699.82 380.32,702.16C384.18,704.35 387.95,706.7 391.79,708.91C395.63,711.12 399.86,713.32 403.38,716.36C405.009,717.62 406.321,719.243 407.21,721.1C408.62,724.69 409.8,728.36 411.08,732.01C412.14,735.1 412.79,738.44 414.39,741.23C416.14,743.918 418.25,746.354 420.66,748.47C424.51,752.22 429.22,754.79 434.01,757.21C439.405,759.87 444.311,763.424 448.52,767.72C454.498,774.187 459.833,781.22 464.45,788.72C465.873,790.942 467.71,792.87 469.86,794.4C473.663,797.029 478.772,796.866 482.4,794C484.75,792 486.57,789.53 485.74,786.29C485.071,783.408 484.008,780.632 482.58,778.04C476.538,767.726 468.525,758.701 459,751.48C457.9,750.63 456.85,749.73 455.77,748.87C457.929,748.892 460.041,749.512 461.87,750.66C469.36,755 476.67,759.59 482.32,766.34C483.016,767.257 483.861,768.052 484.82,768.69C488.743,771.12 493.124,772.72 497.69,773.39C501,773.84 503.82,772.84 505.65,770.08L505.64,770.08ZM469.47,714.61C470.998,712.944 471.664,710.656 471.27,708.43C470.85,706.03 470.17,703.67 469.64,701.43C466.88,702.31 464.35,703.19 461.77,703.94C460.36,704.35 458.83,704.42 457.45,704.88C455.664,705.452 453.942,706.206 452.31,707.13C450.03,708.48 449.78,709.71 451.02,712.08C452.536,714.85 455.062,716.931 458.07,717.89C461.78,719.24 466.82,717.67 469.48,714.61L469.47,714.61ZM393.47,631.51C393.817,630.564 393.479,629.494 392.65,628.92C389.625,626.104 385.245,625.245 381.38,626.71C377.38,628 374.31,630.71 371.38,633.66C368.153,636.813 366.346,641.149 366.38,645.66C366.435,646.896 366.562,648.128 366.76,649.35C367.23,651.46 368.87,652.54 370.76,651.88C375.682,650.268 380.402,648.097 384.83,645.41C390,642 391.83,636.87 393.53,631.51L393.47,631.51ZM371.17,803.45C371.345,802.917 371.345,802.343 371.17,801.81C369.49,797.2 366.81,793.23 362.43,790.95C357.654,788.355 352.584,786.341 347.33,784.95C342.33,783.7 337.38,781.89 332.16,781.7C327.23,781.55 322.27,781.31 317.35,781.54C308.76,782 300.18,783 292,786C285.328,788.395 279.206,792.109 274,796.92C272.237,798.57 271.135,800.807 270.9,803.21C270.7,804.92 270.7,806.67 270.64,808.38C270.412,811.749 272.065,814.982 274.93,816.77C280.15,820.33 285.35,823.91 290.62,827.38C291.991,828.189 293.414,828.908 294.88,829.53C296.88,828.11 298.37,826.6 300.2,825.8C302.996,824.609 305.895,823.675 308.86,823.01C312.97,822.08 320.1,824.41 322.31,830.38C322.672,831.257 323.079,832.115 323.53,832.95C324.259,832.798 324.997,832.698 325.74,832.65C328.68,832.72 331.63,832.87 334.57,832.99C337.2,835.26 339.66,834.25 342.08,832.59C342.157,832.552 342.237,832.522 342.32,832.5C345.32,830.91 348.55,829.5 351.16,827.2C355.44,823.36 359.74,819.55 363.92,815.59C367.365,812.244 369.884,808.06 371.23,803.45L371.17,803.45ZM359.07,558.77C364.594,559.362 370.139,557.807 374.55,554.43C370.42,545.85 352.3,530.87 346.43,528.87C345.889,529.838 345.411,530.84 345,531.87C343.252,537.397 342.939,543.279 344.09,548.96C344.519,551.082 345.734,552.965 347.49,554.23C350.861,556.815 354.899,558.39 359.13,558.77L359.07,558.77ZM350.7,614.83C350.79,605.61 350.85,596.38 350.7,587.15C350.625,582.62 350.315,578.097 349.77,573.6C349,567.41 343.23,563.67 336.71,565.24C341.02,568 342.18,572.07 342.96,576.34C344.18,582.86 344.08,589.46 344.21,596.05C344.319,599.269 343.858,602.481 342.85,605.54C341.72,608.88 340.62,612.26 338.36,615.08C336.371,617.884 332.578,618.799 329.53,617.21C329.13,617.03 328.73,616.83 328.18,616.56C328.011,622.156 328.278,627.756 328.98,633.31C329.286,635.929 330.421,638.382 332.22,640.31C336.3,644.62 341.78,643.85 344.48,640.79C346.12,639.03 347.326,636.91 348,634.6C349.76,628.155 350.688,621.511 350.76,614.83L350.7,614.83ZM335.51,596.56C336.547,596.175 337.189,595.118 337.05,594.02C337.05,592.62 336.99,586.53 336.89,584.91C336.909,583.791 336.095,582.818 334.99,582.64C333.95,582.297 332.802,582.739 332.26,583.69C332.004,584.122 331.805,584.586 331.67,585.07C331.48,587.35 331.67,589.64 331.67,591.94C331.747,593.083 332.09,594.192 332.67,595.18C332.991,596.084 333.851,596.691 334.809,596.691C335.069,596.691 335.326,596.647 335.57,596.56L335.51,596.56ZM311.08,528.76C314.66,526.69 317.85,524.23 319.74,519.76C316.74,519.76 314.27,519.68 311.88,520.46C305.001,522.733 298.492,526.001 292.56,530.16C292.15,530.517 291.775,530.912 291.44,531.34C298.44,533.49 304.31,532.71 311.14,528.76L311.08,528.76ZM312.08,617.93C312.052,617.35 311.968,616.774 311.83,616.21C311.14,616.73 310.69,617.1 310.25,617.43C307.25,619.62 304.59,619.57 301.7,617.2C299.456,615.336 297.986,612.699 297.58,609.81C295.748,598.564 296.022,587.075 298.39,575.93C299.31,571.54 301.39,567.93 306.82,566.78C304.76,565.43 303.01,565.88 301.35,566.12C298.69,566.5 296.21,567.43 294.57,569.69C292.839,572.022 291.799,574.795 291.57,577.69C291.34,580.81 291.12,583.92 290.96,587.05C290.66,593.3 290.31,599.55 290.14,605.8C289.94,613.13 289.64,620.47 290.53,627.8C291.14,632.97 292.74,637.71 296.48,641.57C299.36,644.57 302.23,644.78 305.66,642.34C309.26,639.77 310.66,636.07 311.09,631.96C311.66,627.3 311.84,622.6 312.11,617.93L312.08,617.93ZM308.43,595.93C308.6,593.74 308.43,585.71 308.33,583.93C308.304,582.993 307.622,582.193 306.7,582.02C305.665,581.773 304.577,582.167 303.94,583.02C303.708,583.585 303.585,584.189 303.58,584.8C303.35,588.14 303.73,591.5 303.58,594.8C303.589,595.374 303.729,595.939 303.99,596.45C304.309,597.519 305.35,598.219 306.46,598.11C307.571,598.042 308.452,597.113 308.46,596L308.43,595.93ZM263,649.37C274.74,654.51 283.74,656.77 290.81,656.37C289.76,649.37 284.69,643.97 278.43,642.92C272.17,641.87 265.48,644.6 263,649.37ZM279,590.37C279.492,586.363 279.268,582.299 278.34,578.37C278.053,576.394 277.13,574.564 275.71,573.16C271.849,569.627 266.739,567.766 261.51,567.99C258.572,572.69 256.354,577.803 254.93,583.16C253.45,588.64 252.22,594.16 250.85,599.68C250.04,602.99 250.22,603.41 253.51,604.24C254.231,604.414 254.968,604.514 255.71,604.54C261.502,604.876 267.261,603.442 272.22,600.43C275.955,598.365 278.48,594.626 279,590.39L279,590.37ZM191.76,711.77C192.14,710.54 191.96,709.56 190.98,708.96C189.251,707.729 187.36,706.743 185.36,706.03C181.12,704.87 176.61,704.62 172.75,702.03C172.22,704.29 171.75,706.27 171.27,708.25C170.142,711.92 171.807,715.911 175.21,717.69C181.52,721.41 189.75,718.44 191.76,711.77Z" style="fill:rgb(0,0,80);fill-rule:nonzero;"/>
            <path d="M288.56,640.87C287.56,640.97 287.1,640.21 286.5,639.81C282.705,637.253 278.134,636.1 273.58,636.55C267.21,637.1 262.96,640.92 259.96,646.34C259.65,646.89 259.36,647.47 258.96,648.19C256.43,647.37 254.07,646.49 252.21,644.65C247.933,640.623 245.721,634.855 246.21,629C246.76,622.12 248.03,615.28 248.99,608.45C249,608.387 249.027,608.328 249.07,608.28C251.836,608.815 254.631,609.192 257.44,609.41C263.094,609.512 268.657,607.958 273.44,604.94C279.101,601.797 282.807,595.998 283.28,589.54C283.33,588.96 283.37,588.4 283.4,587.83L285.08,587.9C284.61,599.35 284.46,610.83 284.55,622.3C284.501,626.917 285.176,631.512 286.55,635.92C287.1,637.55 287.85,639.11 288.56,640.87Z" style="fill:rgb(255,70,21);fill-rule:nonzero;"/>
            <path d="M145.89,124.57C146.52,131.46 141.61,136.01 136.51,137.26C132.724,138.311 128.67,137.814 125.25,135.88C118.73,132.07 112.38,127.95 106.06,123.82C104.461,122.68 103.019,121.335 101.77,119.82C99.032,116.771 97.915,112.588 98.77,108.58C98.97,107.378 98.97,106.152 98.77,104.95C98.477,102.801 99.22,100.636 100.77,99.12C103.114,96.545 106.182,94.736 109.57,93.93C112.18,93.26 114.91,93.01 117.57,92.58C122.31,92.68 126.39,94.23 129.48,97.79C134.726,103.687 139.366,110.096 143.33,116.92C144.719,119.258 145.592,121.867 145.89,124.57ZM134.38,129.49C137.04,128.9 138.27,127.33 137.76,124.71C137.437,123.264 136.89,121.878 136.14,120.6C132.538,114.614 128.404,108.965 123.79,103.72C121.51,101 118.57,101.38 115.24,101.39C105.81,101.39 106.06,106.77 105.81,110.39C106.074,111.473 106.474,112.518 107,113.5C107.999,115.001 109.251,116.317 110.7,117.39C116.76,121.31 122.93,125.07 129.12,128.81C130.716,129.718 132.606,129.962 134.38,129.49Z" style="fill:rgb(248,243,189);fill-rule:nonzero;"/>
            <path d="M114.29,532.75C114.58,530.59 112.73,529.06 108.64,530.18C103.736,532.545 99.367,535.887 95.8,540C94.639,541.372 93.676,542.9 92.94,544.54C91.75,547.18 92.16,548.66 94.34,550.67C95.44,551.67 96.62,552.57 97.7,553.56C101.32,556.91 102.11,560.93 100.51,565.49C99.28,569.04 97.04,571.95 94.74,574.88C91.74,578.75 88.74,582.65 85.93,586.72C84.844,588.457 84.11,590.39 83.77,592.41C83.3,594.68 84.55,595.83 86.84,595.61C87.743,595.575 88.629,595.35 89.44,594.95C92.236,593.573 94.912,591.964 97.44,590.14C104.63,584.19 110.205,576.523 113.65,567.85C115.83,562.58 115.94,557.27 112.44,552.35C112.109,551.878 111.812,551.383 111.55,550.87C110.01,547.87 109.46,544.82 110.79,541.61C111.64,539.56 112.62,537.61 113.47,535.52C113.795,534.613 114.069,533.688 114.29,532.75ZM107.48,525.75C110.29,526.08 113.18,525.36 115.94,526.35C120.05,527.81 121.86,531.58 120.28,535.62C119.45,537.77 118.37,539.81 117.39,541.89C116.41,543.97 115.94,546.28 117.47,548.43C122.89,556.09 122.61,564.16 118.95,572.34C114.58,582.06 108.62,590.68 99.95,597.14C96.26,599.9 92.25,602.2 87.49,602.73C81.26,603.43 76.55,599.27 76.49,592.17C76.63,589.17 78.07,585.8 79.99,582.58C82.71,577.94 86.34,574.02 89.75,569.89C91.292,568.052 92.667,566.081 93.86,564C95.39,561.29 95.01,559.81 92.7,557.7C92.08,557.15 91.46,556.62 90.82,556.1C85.3,551.7 84.91,545.91 88.01,540.24C90.32,536 93.89,532.99 97.8,530.36C100.58,528.48 103.37,526.57 106.8,525.91C107,525.89 107.24,525.7 107.48,525.74L107.48,525.75Z" style="fill:rgb(248,243,189);fill-rule:nonzero;"/>
            <path d="M70.45,383C75.57,386.93 77.22,392.4 76.45,398.57C76.02,402.41 73.56,405.32 70.76,407.81C65.591,412.329 59.282,415.349 52.52,416.54C49.95,417.04 47.3,417.25 45.41,417.54C40.69,417.34 36.83,416.73 33.27,414.75C29.157,412.647 26.425,408.545 26.07,403.94C25.359,397.681 27.765,391.455 32.5,387.3C37.99,382.19 44.28,378.57 51.88,377.87C58.498,377.116 65.157,378.956 70.45,383ZM67.77,399.3C68.663,398.092 68.951,396.538 68.55,395.09C68.302,393.888 67.919,392.717 67.41,391.6C66.922,390.567 66.174,389.678 65.24,389.02C62.458,387.264 59.282,386.226 56,386C49,385.68 43,388.22 37.82,392.81C35.118,395.201 33.7,398.734 34,402.33C34.025,404.692 35.443,406.829 37.61,407.77C39.609,408.706 41.793,409.181 44,409.16C50.92,409.06 56.27,407.7 61.23,404.86C63.793,403.529 66.027,401.643 67.77,399.34L67.77,399.3Z" style="fill:rgb(248,243,189);fill-rule:nonzero;"/>
        </g>
    </g>
</svg>
